<svg width="112" height="44" viewBox="0 0 112 44" fill="none" xmlns="http://www.w3.org/2000/svg">
<path d="M17.4575 11.9816C16.0486 10.2493 12.7875 10.5277 11.1743 10.617C8.91028 10.7408 5.89157 11.2529 4.94303 11.4729C3.94257 11.7066 3.16366 11.9507 2.2982 12.205C1.61968 12.401 0.0272439 12.7859 1.11079 13.7243C1.64392 14.1849 2.2982 14.5939 3.37483 15.3226C4.53454 16.1063 6.15467 17.1478 6.88858 17.6565C7.49094 18.0724 8.93106 19.1242 9.49533 19.6982C10.887 19.2239 11.2782 19.8323 11.4097 20.5541C11.4928 20.9872 11.7421 20.7947 11.9151 20.6847C12.4656 20.365 13.3068 19.9044 13.7707 19.5848C14.0061 14.6317 17.4506 11.9816 17.4506 11.9816H17.4575Z" fill="#DA291C"/>
<path d="M18.8116 10.7963C20.6463 9.42489 22.3703 8.95055 23.2635 8.87493C24.1289 8.80275 24.7243 9.13616 25.0048 9.65518C25.9914 11.5182 24.257 11.4907 23.7481 10.7723C23.5577 10.5076 23.0384 10.6142 22.6057 10.7895C21.7541 11.1401 20.7121 11.5697 19.6597 12.429C20.134 14.3608 20.0197 17.7121 15.644 20.7334C15.4917 24.8959 18.7631 24.9543 19.6355 24.8821C21.9964 24.6896 25.3856 22.947 29.1866 20.4378V0H0V11.1091C2.29865 10.2773 7.57101 8.99523 11.5071 8.844C13.6984 8.75807 16.8106 8.6687 18.815 10.7963H18.8116Z" fill="#DA291C"/>
<path d="M19.2339 26.5735C16.5752 26.6732 14.3458 25.697 13.92 21.8233C13.92 21.8233 13.2138 22.1979 12.3449 22.6207C12.0679 22.7445 12.0125 22.851 12.2791 23.2394C14.6574 26.7695 14.8235 29.7839 14.8581 30.712C14.9066 32.0834 14.9239 33.1455 14.8235 33.802C14.5327 35.7303 13.3661 35.5928 12.3102 34.3795C11.9848 34.022 11.0363 32.5337 10.5828 30.7016C10.2297 29.2752 9.82812 26.6732 9.83504 24.8034C9.84543 23.9578 9.61695 24.1022 9.40578 23.9097C9.05613 23.6038 8.77226 22.9438 9.13922 22.4626C9.38154 22.167 9.65503 22.2495 9.12191 21.6927C7.17982 19.6784 3.7907 17.6642 3.16065 17.2896C2.80408 17.0799 1.23587 16.1931 0 15.2822V44.0003H29.1901V22.6654C25.2021 25.1161 21.4391 26.491 19.2339 26.5735Z" fill="#DA291C"/>
<path d="M12.6017 31.5154C12.7228 31.7904 13.7717 33.7806 13.3009 29.6318C13.0275 27.1502 11.5146 25.1875 11.5146 25.1875C11.4939 27.0883 12.1516 30.4877 12.6017 31.512V31.5154Z" fill="#DA291C"/>
<path d="M18.2333 13.626C17.0044 14.6778 15.9035 17.0082 15.8585 18.1081C18.0983 16.4583 18.2333 13.626 18.2333 13.626Z" fill="#DA291C"/>
<path d="M45.6669 30.0655C45.4627 30.5604 45.1857 30.7976 44.8361 30.7976C44.3757 30.7976 44.2614 30.6498 43.9672 29.7871C43.7629 29.0721 43.3579 28.7215 42.7832 28.7215C42.0805 28.7215 41.7308 29.3093 41.7308 30.4642C41.7308 31.052 41.8243 31.5641 42.0078 32.0041C42.3955 32.939 43.0775 33.4168 44.0572 33.4168C44.6665 33.4168 45.2411 33.1968 45.7743 32.7362C46.0131 32.5334 46.1066 32.4784 46.3108 32.4784C46.6986 32.4784 47.0136 32.8084 47.0136 33.2484C47.0136 33.6333 46.6986 34.0561 46.0893 34.5133C45.2204 35.156 44.1126 35.486 42.7625 35.486C41.1354 35.486 39.9168 35.046 39.1206 34.1833C38.4006 33.4511 38.0302 32.4406 38.0302 31.3407C38.0302 28.7181 40.1003 26.8826 43.0567 26.8826C44.6838 26.8826 46.2901 27.5804 46.2901 28.2953C46.2901 28.3675 46.252 28.5875 46.2347 28.6425L45.66 30.0552L45.6669 30.0655ZM51.1193 24.5075C51.1193 23.6825 51.102 23.4969 51.0258 23.2976C50.9531 23.0776 50.7108 22.9126 50.4339 22.9126C50.2677 22.9126 50.0461 22.9848 49.7692 23.1154L47.4948 24.2703C47.069 24.4903 46.9409 24.6553 46.9409 24.9681C46.9409 25.2052 47.0344 25.3702 47.2178 25.4802C47.564 25.7116 47.7371 26.1516 47.7371 26.8001V32.4337C47.7371 33.6093 47.7371 33.5886 47.4982 33.7914C46.979 34.1386 46.9236 34.2314 46.9236 34.5442C46.9236 34.8913 47.0897 35.1113 47.4221 35.2041C47.6263 35.2591 47.6056 35.2591 48.6614 35.2591H50.195C51.1539 35.2591 51.1539 35.2419 51.2855 35.2419C51.7113 35.1698 51.9328 34.9292 51.9328 34.5442C51.9328 34.307 51.8221 34.1042 51.6005 33.9564C51.342 33.7731 51.1943 33.6138 51.1574 33.4786C51.102 33.3308 51.1193 33.3515 51.1193 32.4337V31.5916C51.1193 30.3439 51.1366 30.0861 51.192 29.7939C51.2647 29.4811 51.3963 29.3368 51.597 29.3368C51.9121 29.3368 52.2652 29.6496 52.6148 30.6945C53.0025 32.0144 53.2241 32.9699 53.2241 33.3549C53.2241 33.7021 53.1687 33.7571 52.8918 33.977C52.6875 34.1248 52.5975 34.307 52.5975 34.5098C52.5975 34.857 52.8191 35.1148 53.1133 35.1904C53.2968 35.2454 53.1133 35.2626 54.1623 35.2626H56.0455C57.0633 35.2626 57.4302 35.0598 57.4302 34.5476C57.4302 34.3105 57.3367 34.1248 57.136 33.9977L56.8971 33.8327C56.8209 33.7777 56.7482 33.6677 56.6928 33.5199C56.5994 33.2999 56.5059 32.9493 56.3051 32.1622L55.5643 29.3196C55.1385 27.7041 54.3457 26.8963 53.1445 26.8963C52.3863 26.8963 51.8324 27.1541 51.1124 27.8313V24.5109L51.1193 24.5075ZM61.6986 33.8567C62.1002 33.8567 62.3945 33.5852 62.3945 33.1865C62.3945 32.9974 62.3945 32.8943 62.2456 32.475L61.9721 31.4266C61.8233 31.3647 61.6779 31.3201 61.529 31.3201C60.9578 31.3201 60.6012 31.7394 60.6012 32.389C60.6012 33.2071 61.1067 33.8567 61.6986 33.8567ZM73.0534 26.8929C73.8496 26.8929 74.2928 27.1301 74.2928 27.5529C74.2928 27.625 74.2755 27.7728 74.2201 27.9378L73.7216 29.6977C73.5727 30.2855 73.3719 30.4848 73.0015 30.4848C72.6311 30.4848 72.5203 30.3576 72.2814 29.7527C72.188 29.5155 72.0045 29.4055 71.7656 29.4055C71.416 29.4055 71.139 29.6805 70.9902 30.1205C70.8621 30.4883 70.824 30.8354 70.824 31.736V32.4165C70.824 33.0398 70.8367 33.395 70.8621 33.4821C70.9175 33.6849 70.9175 33.6643 71.3052 33.9392C71.5268 34.087 71.6375 34.2864 71.6375 34.5442C71.6375 34.9292 71.416 35.1698 70.9902 35.2419C70.8621 35.2419 70.8621 35.2591 69.8997 35.2591H68.4042C67.3518 35.2591 67.3691 35.2591 67.1649 35.2041C67.0714 35.1766 67.0333 35.1285 66.8948 35.1285C66.7148 35.1285 66.3721 35.4997 65.1709 35.4997C64.2846 35.4997 63.6927 35.2798 63.1768 34.7092C62.1591 35.3141 61.4771 35.4997 60.3693 35.4997C58.5415 35.4997 57.3956 34.5098 57.3956 32.9665C57.3956 31.1516 58.763 30.0483 60.9613 30.0483C61.0894 30.0483 61.0721 30.0655 61.5706 30.0655L61.5152 29.8627L61.4044 29.5155C61.259 29.0034 60.9059 28.7456 60.352 28.7456C59.7981 28.7456 59.5765 28.8728 58.8357 29.4055C58.7249 29.4777 58.6142 29.5155 58.5207 29.5155C58.2057 29.5155 57.9114 29.1684 57.9114 28.7456C57.9114 28.3778 58.1884 28.01 58.7249 27.625C59.4277 27.1301 60.3347 26.8895 61.4217 26.8895C62.6783 26.8895 63.658 27.2194 64.1565 27.8622C64.3227 28.0822 64.6377 28.725 64.7658 29.1477L65.7455 32.5059C66.1332 33.7708 66.386 34.0114 66.9814 34.0114C67.4072 34.0114 67.4834 33.5886 67.4834 32.4165V30.3611C67.4834 29.5361 67.4453 29.4811 67.1337 29.2234C66.7633 28.9484 66.6733 28.8384 66.6733 28.5634C66.6733 28.2128 66.8395 28.0684 67.4868 27.8278L69.5951 27.0751C69.9828 26.9101 70.0001 26.8929 70.149 26.8929C70.5021 26.8929 70.7029 27.0579 70.779 27.3879C70.8344 27.5529 70.8171 27.6079 70.8344 28.1784L71.0006 27.9756C71.7206 27.1679 72.2018 26.8929 73.0707 26.8929M76.9584 23.0913C77.9242 23.0913 78.71 23.8716 78.71 24.8306C78.71 25.7896 77.9242 26.5698 76.9584 26.5698C75.9925 26.5698 75.2101 25.7896 75.2101 24.8306C75.2101 23.8716 75.996 23.0913 76.9584 23.0913ZM78.6304 28.2884C78.6304 27.6457 78.6131 27.3879 78.5196 27.2435C78.3916 27.0063 78.2046 26.8963 77.9277 26.8963C77.7996 26.8963 77.6888 26.8963 77.4119 27.0235L75.3071 27.8313C74.6978 28.0684 74.4762 28.2541 74.4762 28.529C74.4762 28.7662 74.6043 28.969 74.8847 29.1512C75.2725 29.3883 75.3105 29.519 75.3105 30.4161V32.4165C75.3105 33.5921 75.3105 33.6264 75.0717 33.7743C74.5559 34.142 74.497 34.2314 74.497 34.5442C74.497 34.8913 74.6632 35.1113 74.9955 35.2041C75.1998 35.2591 75.179 35.2591 76.2348 35.2591H77.713C78.672 35.2591 78.672 35.2419 78.8035 35.2419C79.2293 35.1698 79.4509 34.9292 79.4509 34.5442C79.4509 34.2864 79.3401 34.087 79.1185 33.9392C78.7308 33.6643 78.7308 33.6814 78.6754 33.4821C78.65 33.3973 78.6374 33.0433 78.6374 32.42V28.2919L78.6304 28.2884ZM83.8786 27.1335V25.1709C83.8786 24.7309 83.8786 24.6931 83.8024 24.5453C83.7089 24.3631 83.5254 24.2703 83.2866 24.2703C82.9923 24.2703 82.75 24.3975 82.3623 24.7859L79.7001 27.3913C79.3332 27.7591 79.2016 27.9963 79.2016 28.2919C79.2016 28.694 79.4232 28.8968 79.849 28.8968H80.4963V31.8322C80.4963 32.2894 80.4964 32.6022 80.3683 33.2449C80.3129 33.4821 80.3129 33.7399 80.3129 33.8705C80.3129 34.8982 81.3272 35.5032 83.1031 35.5032C84.7855 35.5032 85.966 34.8604 85.966 33.9805C85.966 33.6677 85.7826 33.4305 85.5056 33.4305C85.4329 33.4305 85.3775 33.4305 85.3568 33.4477C84.8963 33.6849 84.8202 33.6677 84.6367 33.6677C84.3217 33.6677 84.1001 33.5577 83.972 33.3377C83.8959 33.1899 83.8786 32.9699 83.8786 32.3272V28.8968H84.7821C85.059 28.8968 85.2633 28.7146 85.3741 28.3469C85.5783 27.5391 85.5956 27.5563 85.5956 27.4669C85.5956 27.192 85.4848 27.137 84.969 27.137H83.8786V27.1335ZM91.6019 31.9044L90.7503 29.5946C90.5841 29.1718 90.546 29.0068 90.546 28.8624C90.546 28.6596 90.6014 28.6047 90.823 28.4603C91.0445 28.2953 91.1553 28.0925 91.1553 27.8553C91.1553 27.5804 91.0272 27.3776 90.7676 27.2504C90.546 27.1782 90.2137 27.1404 89.5282 27.1404H87.1638C86.333 27.1404 85.9072 27.3776 85.9072 27.8725C85.9072 28.1097 86.0353 28.3125 86.3122 28.4775C86.828 28.7903 86.9215 28.9724 87.2746 29.928L89.5282 35.9466C89.2513 36.3694 89.0678 36.4965 88.7701 36.4965C88.4932 36.4965 88.2889 36.3694 88.1227 36.0944C87.8458 35.6372 87.8631 35.6372 87.8077 35.5822C87.6242 35.3451 87.4027 35.2351 87.1257 35.2351C86.8315 35.2351 86.5718 35.4001 86.4784 35.6407C86.423 35.7885 86.4022 35.8606 86.4022 36.2834V37.0362C86.4022 37.9161 86.9007 38.2117 88.4724 38.2117C90.8541 38.2117 91.6677 37.349 92.9624 33.6058L94.2571 29.8077C94.5548 28.9278 94.5894 28.8556 95.0152 28.4878C95.3649 28.2128 95.4203 28.12 95.4203 27.845C95.4203 27.3501 95.0533 27.1473 94.1082 27.1473H93.1112C92.1696 27.1473 91.8165 27.3501 91.8165 27.8622C91.8165 28.12 91.9273 28.3194 92.1489 28.45C92.4639 28.6528 92.4985 28.6871 92.4985 28.8899C92.4985 29.0549 92.4223 29.4399 92.2942 29.7905L91.5915 31.9181L91.6019 31.9044Z" fill="#2E2E2E"/>
<path d="M43.0232 13.8897C41.905 13.8897 40.998 14.7456 40.998 15.8008C40.998 16.856 41.8877 17.7119 43.0232 17.7119C43.719 17.7119 44.4356 17.4438 44.9895 16.9798L45.1072 16.8801L46.1942 19.2586L46.1354 19.3171C45.0968 20.3036 43.3625 20.3792 42.857 20.3792C40.0218 20.3792 38.0416 18.499 38.0416 15.8042C38.0416 13.1094 40.0218 11.2293 42.857 11.2293C44.1794 11.2293 45.4049 11.628 46.1354 12.2914L46.1977 12.3464L45.1107 14.7456L44.993 14.6424C44.446 14.1681 43.7294 13.8931 43.0267 13.8931M52.3944 11.2293C51.4977 11.2293 50.6634 11.5558 50.0611 12.1333V8.2217H47.1047V20.1111H50.0611V15.6702C50.0611 14.2678 51.0131 13.8931 51.5774 13.8931C52.1416 13.8931 52.8202 14.1544 52.8202 15.3986V20.1111H55.7765V15.1305C55.7765 12.4357 54.0768 11.2293 52.3909 11.2293M56.9882 20.1111H59.9446V11.4974H56.9882V20.1111ZM58.4664 7.17334C57.5005 7.17334 56.7147 7.95359 56.7147 8.91258C56.7147 9.87157 57.5005 10.6518 58.4664 10.6518C59.4322 10.6518 60.2181 9.87157 60.2181 8.91258C60.2181 7.95359 59.4322 7.17334 58.4664 7.17334ZM61.1597 20.1111H64.1161V8.21482H61.1597V20.1042V20.1111ZM69.6965 17.7153C70.6832 17.7153 71.4863 16.8595 71.4863 15.8042C71.4863 14.749 70.6832 13.8931 69.6965 13.8931C68.7099 13.8931 67.9068 14.749 67.9068 15.8042C67.9068 16.8595 68.7099 17.7153 69.6965 17.7153ZM71.4863 8.2217H74.4427V20.1111H71.4863V19.5439C70.8182 20.0939 70.0185 20.3826 69.153 20.3826C66.8371 20.3826 64.9504 18.3306 64.9504 15.8077C64.9504 13.2847 66.8336 11.2327 69.153 11.2327C70.0185 11.2327 70.8182 11.5214 71.4863 12.0714V8.22857V8.2217ZM78.6142 12.9066V11.4974H75.6578V20.1111H78.6142V16.7357C78.6142 15.4811 79.3931 14.6287 80.1616 14.4328C80.4317 14.3572 81.1206 14.2094 81.7229 14.4328L81.8787 14.4912V11.2293L81.7541 11.2361C80.3001 11.3324 79.2235 11.9098 78.6107 12.9135M86.8672 13.6044C85.8736 13.6044 85.4098 14.3881 85.3232 14.9896H88.4146C88.3489 14.3709 87.9957 13.6044 86.8672 13.6044ZM87.0057 11.2327C89.7613 11.2327 91.3433 12.8998 91.3433 15.8077C91.3433 16.007 91.326 16.2889 91.3087 16.4917L91.3018 16.5982H85.3267C85.5932 17.3029 86.3583 17.8081 87.3138 17.8081C88.1965 17.8081 89.1485 17.516 89.8894 17.2169L90.0036 17.1722L90.8206 19.5199L90.7444 19.5714C90.696 19.6058 89.4982 20.3861 87.3969 20.3861C82.758 20.3861 82.3945 16.8835 82.3945 15.8111C82.3945 13.0304 84.2051 11.2361 87.0022 11.2361M97.3461 11.2361C96.4495 11.2361 95.6152 11.5627 95.0129 12.1401V11.5077H92.0565V20.1214H95.0129V15.6805C95.0129 14.2781 95.9649 13.9034 96.5291 13.9034C97.0934 13.9034 97.7754 14.1647 97.7754 15.4089V20.1214H100.732V15.1408C100.732 12.4461 99.032 11.2396 97.3461 11.2396M107.223 14.4534L107.001 14.4225C106.475 14.3468 105.741 14.2781 105.835 13.8931C105.886 13.6731 106.53 13.6044 107.14 13.6181C108.372 13.6456 109.629 14.2231 109.639 14.23L109.764 14.2918L110.456 11.9889L110.373 11.9442C109.085 11.2465 107.164 11.2361 107.084 11.2361C103.505 11.2361 102.968 13.0888 102.968 14.1922C102.968 15.2955 103.598 16.6189 106.499 16.9832C107.79 17.131 108.32 17.3647 108.32 17.6363C108.32 17.681 108.303 17.7153 108.265 17.7497C108.06 17.9353 107.389 17.9937 106.461 17.9078C106.444 17.9078 104.599 17.6191 103.612 16.9351L103.484 16.8457L102.677 19.269L102.747 19.3171C102.805 19.3618 104.235 20.3861 106.662 20.3861C109.483 20.3861 111.1 19.2586 111.1 17.296C111.1 15.5396 109.975 14.7524 107.223 14.4465M104.097 8.91602C104.097 8.50699 103.948 8.13576 103.709 7.83673C103.695 7.8161 103.678 7.79892 103.66 7.77829C103.626 7.73705 103.591 7.6958 103.55 7.65799C103.487 7.59612 103.418 7.54112 103.345 7.48957C103.335 7.48269 103.328 7.47582 103.321 7.46894C103.273 7.43801 103.217 7.41051 103.162 7.38301C102.916 7.25583 102.643 7.17334 102.348 7.17334C101.493 7.17334 100.784 7.78517 100.631 8.58948C100.607 8.70634 100.593 8.83009 100.593 8.95383C100.593 9.89563 101.289 10.6415 102.22 10.7068C101.919 10.9749 101.518 11.133 101.178 11.1708V12.367C102.314 12.2811 103.955 11.4699 104.1 9.17725C104.107 9.08788 104.1 9.00538 104.1 8.91602" fill="#2E2E2E"/>
<path d="M96.4003 27.1577H98.0728V27.6011H97.4599V29.4847H97.0132V27.6011H96.4003V27.1577Z" fill="#2E2E2E"/>
<path d="M100.749 27.1577L101.085 29.4813H100.611L100.427 27.962L99.8144 29.4813H99.579L98.9662 27.9586L98.7724 29.4813H98.2981L98.6339 27.1577H99.0666L99.6863 28.6701L100.306 27.1577H100.753H100.749Z" fill="#2E2E2E"/>
</svg>
