<svg width="318" height="40" viewBox="0 0 318 40" fill="none" xmlns="http://www.w3.org/2000/svg">
<path d="M14.7043 7.0045H2.71801V33.5005H10.2883V25.2994H15.966C21.5649 25.2994 24.798 20.9622 24.798 15.8365C24.798 10.7108 21.6043 7.0045 14.7043 7.0045ZM13.9946 18.9908H10.2883V13.3131H13.9946C15.7689 13.3131 17.2277 14.2199 17.2277 16.1519C17.2277 18.1234 15.7689 18.9908 13.9946 18.9908ZM38.0321 12.6822C30.8956 12.6822 26.6767 17.4925 26.6767 23.4068C26.6767 29.3211 30.9744 34.1313 38.0321 34.1313C44.7744 34.1313 49.3875 29.3211 49.3875 23.4068C49.3875 17.4925 44.735 12.6822 38.0321 12.6822ZM38.0321 27.8228C35.9424 27.8228 34.247 25.8513 34.247 23.4068C34.247 20.9622 35.9424 18.9908 38.0321 18.9908C40.1218 18.9908 41.8173 20.9622 41.8173 23.4068C41.8173 25.8513 40.1218 27.8228 38.0321 27.8228ZM74.953 13.3131L72.2718 23.7222L69.1175 13.3131H63.1244L59.9701 23.7222L57.289 13.3131H49.7187L56.6581 33.5005H62.9667L66.121 23.7222L69.2752 33.5005H75.5838L82.5232 13.3131H74.953ZM103.673 23.4068C103.673 16.6645 100.085 12.6822 93.5792 12.6822C86.3244 12.6822 82.8547 17.4925 82.8547 23.4068C82.8547 29.2816 86.4032 34.1313 94.5255 34.1313C99.533 34.1313 102.372 32.2388 102.372 32.2388L100.44 26.5611C100.44 26.5611 98.4684 27.8228 95.2352 27.8228C92.909 27.8228 90.977 26.9159 90.6615 25.2994H103.515C103.594 24.6685 103.673 24.0376 103.673 23.4068ZM90.6615 21.5142C90.6615 19.8582 91.7261 18.3599 93.2638 18.3599C95.117 18.3599 95.945 19.8582 95.945 21.5142H90.6615ZM113.788 17.4531V13.3131H106.218V33.5005H113.788V25.2599C113.788 22.1845 116.312 20.5285 118.204 20.4102C119.387 20.3708 120.333 20.6074 121.359 21.2382V12.6822C117.81 12.9188 115.089 14.4171 113.788 17.4531ZM230.504 19.6216L240.598 7.0045H231.135L223.564 17.0982V7.0045H215.994V33.5005H223.564V22.1451L231.766 33.5005H241.228L230.504 19.6216ZM247.541 11.4205C249.788 11.4205 251.642 9.56736 251.642 7.31993C251.642 5.07251 249.788 3.21936 247.541 3.21936C245.254 3.21936 243.44 5.07251 243.44 7.31993C243.44 9.56736 245.254 11.4205 247.541 11.4205ZM243.756 33.5005H251.326V13.3131H243.756V33.5005ZM269.301 5.74279V15.3634C267.921 13.7074 266.029 12.6822 263.624 12.6822C258.38 12.6822 254.161 17.4925 254.161 23.4068C254.161 29.3211 258.38 34.1313 263.624 34.1313C266.029 34.1313 267.921 33.1062 269.301 31.4502V33.5005H276.872V5.74279H269.301ZM265.516 27.8228C263.427 27.8228 261.731 25.8513 261.731 23.4068C261.731 20.9622 263.427 18.9908 265.516 18.9908C267.606 18.9908 269.301 20.9622 269.301 23.4068C269.301 25.8513 267.606 27.8228 265.516 27.8228ZM290.571 20.0948C288.875 19.8976 287.929 19.8188 287.929 19.1091C287.929 18.5571 288.678 18.3994 290.452 18.4388C294.474 18.5176 296.761 19.7794 296.761 19.7794L298.654 14.3776C295.499 12.7216 290.926 12.6822 290.926 12.6822C283.631 12.6822 280.359 15.9548 280.359 20.2525C280.359 22.4605 281.463 25.4571 288.757 26.4822C292.069 26.9553 292.345 27.0736 292.345 27.6651C292.345 28.3748 290.216 28.4142 288.442 28.2171C288.442 28.2171 284.38 27.7833 281.62 25.9302L279.728 31.2925C279.728 31.2925 283.276 34.1313 289.546 34.1313C296.998 34.1313 299.915 31.0953 299.915 26.9553C299.915 21.7508 296.13 20.7651 290.571 20.0948Z" fill="#2E2E2E"/>
<path d="M143.437 33.5005V23.4068H151.638V17.0982H143.437V13.9439H153.53V7.0045H135.866V33.5005H143.437ZM163.637 34.1313C165.924 34.1313 168.171 33.1062 169.314 30.9771V33.5005H176.885V13.3131H169.314V24.0376C169.314 26.3245 167.777 27.1919 166.476 27.1919C165.096 27.1919 163.637 26.4033 163.637 24.0376V13.3131H156.066V25.2994C156.066 31.2136 159.654 34.1313 163.637 34.1313ZM180.994 5.74279V33.5005H188.564V5.74279H180.994ZM192.66 5.74279V33.5005H200.231V5.74279H192.66Z" fill="#DA291C"/>
<path d="M300.288 4.49069V6.60269H302.4V12.5547H304.704V6.60269H306.816V4.49069H300.288ZM316.606 4.49069H314.302L312.382 9.29069L310.462 4.49069H308.158L307.39 12.5547H309.694L310.078 8.33069L311.422 12.5547H313.342L314.686 8.33069L315.07 12.5547H317.374L316.606 4.49069Z" fill="#2E2E2E"/>
</svg>
