<svg width="43" height="43" viewBox="0 0 43 43" fill="none" xmlns="http://www.w3.org/2000/svg">
<rect y="0.292969" width="42.2261" height="42.2261" rx="5" fill="#D9D9D9"/>
<path d="M6.55219 36.8908C9.23108 39.2984 27.2028 28.6237 29.8639 24.1272C31.1413 21.9675 29.6333 18.7987 27.1673 16.2672C29.9704 14.4084 32.4364 20.1972 34.7782 18.9757C35.8426 18.4092 36.5345 16.6567 36.0201 15.5768C35.0975 13.6649 32.0283 13.6649 29.9526 13.4348C31.4251 13.0807 34.9556 11.576 35.0266 9.45167C35.0975 7.82303 33.0218 5.96424 31.3896 6.15897C29.243 6.40681 28.4624 9.48708 27.735 11.4698C27.6463 10.2129 27.3802 7.45127 25.9964 6.24749C24.1513 4.63654 21.9337 6.15897 21.8804 8.10627C21.8095 10.4607 26.8834 11.7707 25.2867 14.6032C22.5901 12.5319 19.4144 11.399 17.3742 12.585C16.5049 13.1338 15.5114 14.196 14.4824 15.5768C16.0614 17.2409 18.2435 19.2413 19.9644 20.3919C20.3192 20.6398 20.4257 21.1354 20.1596 21.4895C19.9112 21.8613 19.4144 21.9498 19.0596 21.7019C17.3033 20.5159 15.1566 18.5509 13.5599 16.9045C12.7615 18.0906 11.9455 19.436 11.1826 20.8522C12.6906 22.3746 14.6066 24.0918 16.1323 25.1185C16.4872 25.3664 16.5759 25.8621 16.3275 26.2161C16.0791 26.5879 15.5824 26.6764 15.2098 26.4285C13.7018 25.4018 11.91 23.8085 10.402 22.3215C7.26183 28.4998 4.95549 35.4746 6.55219 36.8908Z" fill="black"/>
</svg>
