<svg width="18" height="18" viewBox="0 0 18 18" fill="none" xmlns="http://www.w3.org/2000/svg">
<path fill-rule="evenodd" clip-rule="evenodd" d="M10.3751 0.210003C9.90877 0.317871 9.57491 0.508356 9.25736 0.847833C9.0158 1.10607 8.90904 1.28422 8.7893 1.62887C8.70174 1.88086 8.69646 1.93163 8.68385 2.64142L8.67057 3.38867L6.42934 3.39798C4.24442 3.40706 4.18518 3.40901 4.07159 3.47572C4.00754 3.51338 3.92432 3.5966 3.88666 3.66066C3.81994 3.77424 3.81799 3.83349 3.80891 6.0184L3.7996 8.25963L3.05235 8.27248C2.32229 8.28502 2.29852 8.28764 2.01782 8.38701C1.66223 8.51286 1.40978 8.67776 1.15376 8.95143C0.912197 9.20967 0.805437 9.38782 0.685666 9.73247C0.6051 9.96432 0.593432 10.0486 0.593264 10.4013C0.593063 10.7529 0.604461 10.8365 0.681731 11.0514C0.887213 11.6228 1.25016 12.0367 1.76045 12.2815C1.93056 12.3632 2.14993 12.4463 2.24791 12.4664C2.34593 12.4864 2.73504 12.5028 3.11264 12.5028H3.79916L3.80871 14.7701C3.81806 17 3.81937 17.0388 3.88756 17.1302C3.92569 17.1812 3.99866 17.2542 4.04974 17.2923C4.14133 17.3607 4.17643 17.3618 6.71256 17.3706C9.23873 17.3795 9.28483 17.3785 9.41647 17.3114C9.50305 17.2672 9.57427 17.1962 9.61809 17.1103C9.681 16.987 9.68581 16.9129 9.68618 16.06C9.68648 15.384 9.69889 15.0961 9.73335 14.9667C9.95127 14.1481 10.9825 13.8726 11.5827 14.4728C11.6582 14.5484 11.7579 14.6845 11.8041 14.7754C11.8872 14.9387 11.8884 14.9531 11.905 15.989C11.9209 16.9813 11.9255 17.0424 11.9912 17.1302C12.0293 17.1812 12.1023 17.2542 12.1533 17.2923C12.2449 17.3607 12.28 17.3618 14.8162 17.3706C17.3423 17.3795 17.3884 17.3785 17.5201 17.3114C17.6071 17.2669 17.6779 17.1962 17.7223 17.1091C17.7894 16.9775 17.7904 16.9314 17.7816 14.4052C17.7727 11.8691 17.7717 11.834 17.7032 11.7424C17.6651 11.6913 17.5922 11.6184 17.5411 11.5802C17.4533 11.5146 17.3923 11.51 16.4 11.4941C15.364 11.4775 15.3496 11.4763 15.1863 11.3932C14.6677 11.1294 14.4299 10.5339 14.6302 10.0005C14.7098 9.78873 14.8995 9.55611 15.0875 9.4399C15.3184 9.2972 15.4995 9.27564 16.4709 9.27524C17.3238 9.27487 17.3979 9.27006 17.5212 9.20715C17.6071 9.16334 17.6781 9.09212 17.7223 9.00554C17.7894 8.87389 17.7904 8.8278 17.7816 6.30162C17.7727 3.7655 17.7717 3.7304 17.7032 3.6388C17.6651 3.58772 17.5921 3.51476 17.5411 3.47663C17.4498 3.40844 17.4109 3.40713 15.181 3.39778L12.9138 3.38823V2.70171C12.9138 2.3241 12.8974 1.93499 12.8773 1.83698C12.8572 1.73899 12.7741 1.51963 12.6925 1.34952C12.3578 0.651968 11.6778 0.20738 10.8978 0.176176C10.6978 0.168173 10.5008 0.180917 10.3751 0.210003ZM11.0888 1.21882C11.4073 1.30362 11.6732 1.52756 11.8109 1.82692C11.8848 1.98762 11.8889 2.04037 11.905 3.02061C11.9211 4.00081 11.9251 4.05138 11.9952 4.16385C12.1501 4.41258 12.0067 4.39923 14.5245 4.39923H16.7806V6.32947V8.2597L16.0157 8.27265C15.2908 8.28492 15.2377 8.29027 15.0041 8.37433C14.4325 8.57998 14.0187 8.94286 13.7739 9.45312C13.5998 9.81613 13.5526 10.0173 13.5526 10.3975C13.5526 10.9753 13.7591 11.4706 14.1719 11.8835C14.4554 12.1669 14.7584 12.3441 15.1166 12.4357C15.3378 12.4922 15.4895 12.5028 16.0799 12.5028H16.7806V14.4363V16.3697H14.8472H12.9138V15.6689C12.9138 15.0786 12.9032 14.9268 12.8466 14.7056C12.755 14.3475 12.5779 14.0445 12.2945 13.761C11.8816 13.3481 11.3863 13.1417 10.8085 13.1417C10.4282 13.1417 10.2271 13.1888 9.86405 13.363C9.35379 13.6078 8.99091 14.0216 8.78526 14.5931C8.7012 14.8268 8.69586 14.8799 8.68358 15.6047L8.67064 16.3697H6.7404H4.81016V14.1136C4.81016 11.5957 4.82351 11.7392 4.57479 11.5842C4.46231 11.5141 4.41174 11.5102 3.43154 11.4941C2.45131 11.478 2.39855 11.4738 2.23786 11.4C1.682 11.1443 1.43913 10.4905 1.69357 9.93479C1.80961 9.68133 1.96072 9.52672 2.21466 9.40164L2.43786 9.29165L3.46591 9.27484C4.58847 9.25648 4.59927 9.25456 4.73404 9.04891C4.78878 8.96535 4.79463 8.78358 4.81016 6.68723L4.82698 4.41604L7.10261 4.39923C9.33786 4.38272 9.37995 4.38117 9.47316 4.31278C9.67542 4.16439 9.68567 4.10518 9.68571 3.08557C9.68577 2.05715 9.70245 1.94367 9.89623 1.65372C10.0774 1.38264 10.4525 1.1787 10.7786 1.17399C10.8526 1.17292 10.9921 1.19309 11.0888 1.21882Z" fill="white"/>
</svg>
