<svg width="43" height="43" viewBox="0 0 43 43" fill="none" xmlns="http://www.w3.org/2000/svg">
<rect x="0.291016" y="0.292969" width="42.2261" height="42.2261" rx="5" fill="#D9D9D9"/>
<path d="M24.7171 9.49399C24.9241 9.41583 25.0928 9.26019 25.188 9.05975C25.2831 8.85931 25.2972 8.62966 25.2272 8.41902C25.1573 8.20838 25.0088 8.03313 24.8129 7.93009C24.6171 7.82704 24.389 7.8042 24.1768 7.86637C22.5728 8.40204 21.5725 9.72405 20.986 11.1405C20.9065 11.3319 20.8335 11.5261 20.7671 11.7225C20.4473 11.1134 20.0381 10.556 19.5531 10.0691C18.8958 9.40781 18.1108 8.88845 17.2463 8.543C16.3818 8.19755 15.456 8.03331 14.5259 8.06038C14.0495 8.07336 13.5962 8.26903 13.2591 8.60719C12.922 8.94535 12.7267 9.40031 12.7134 9.87857C12.6864 10.8125 12.85 11.742 13.194 12.6101C13.5381 13.4781 14.0553 14.2663 14.714 14.9263L14.7687 14.9778C13.3323 15.2902 12.0343 16.0586 11.0667 17.1693C10.0991 18.2799 9.51333 19.6739 9.39608 21.1449L9.38582 21.2719C9.16008 24.1 9.76023 26.9328 11.1129 29.4237L11.7267 30.5534C11.7438 30.5826 11.7609 30.6118 11.7814 30.6393L13.4914 33.0464C13.8789 33.5913 14.3801 34.045 14.9599 34.3757C15.5398 34.7065 16.1845 34.9065 16.8491 34.9617C17.5137 35.0169 18.1824 34.9261 18.8085 34.6956C19.4347 34.465 20.0032 34.1003 20.4747 33.6267C20.5472 33.554 20.6331 33.4963 20.7277 33.4569C20.8224 33.4175 20.9238 33.3973 21.0262 33.3973C21.1286 33.3973 21.23 33.4175 21.3247 33.4569C21.4193 33.4963 21.5052 33.554 21.5777 33.6267C22.0492 34.1003 22.6178 34.465 23.2439 34.6956C23.87 34.9261 24.5387 35.0169 25.2033 34.9617C25.8679 34.9065 26.5126 34.7065 27.0925 34.3757C27.6723 34.045 28.1735 33.5913 28.561 33.0464L30.271 30.641C30.2915 30.613 30.3103 30.5837 30.3274 30.5534L30.9395 29.4237C32.2928 26.933 32.8935 24.1001 32.6683 21.2719L32.658 21.1449C32.5823 20.1969 32.3114 19.2751 31.8624 18.4378C31.4133 17.6005 30.796 16.866 30.0495 16.2807C29.303 15.6955 28.4435 15.2723 27.5256 15.0379C26.6077 14.8036 25.6514 14.7632 24.7171 14.9194L21.882 15.3932C21.8991 14.224 22.1043 12.9089 22.5626 11.7998C23.0431 10.6409 23.7544 9.81677 24.7171 9.49399ZM15.7399 19.7954C15.4777 19.8789 15.2346 20.0137 15.0245 20.192C14.8143 20.3702 14.6414 20.5885 14.5156 20.8341C14.1976 21.4316 13.9821 22.4171 14.1822 24.0258C14.2103 24.2519 14.1478 24.4799 14.0085 24.6597C13.8692 24.8396 13.6644 24.9565 13.4392 24.9847C13.2141 25.0129 12.9869 24.9502 12.8078 24.8103C12.6288 24.6704 12.5123 24.4648 12.4842 24.2387C12.2585 22.4119 12.4688 21.0367 13.0075 20.0254C13.5546 18.9953 14.3874 18.439 15.1996 18.166C15.4148 18.0939 15.6497 18.1105 15.8527 18.2122C16.0557 18.314 16.2101 18.4925 16.282 18.7086C16.3539 18.9246 16.3373 19.1605 16.236 19.3643C16.1347 19.5681 15.9568 19.7232 15.7416 19.7954H15.7399Z" fill="black"/>
</svg>
