<svg width="15" height="16" viewBox="0 0 15 16" fill="none" xmlns="http://www.w3.org/2000/svg">
<path fill-rule="evenodd" clip-rule="evenodd" d="M3.33701 0.910034C3.19559 0.976219 3.07897 1.1101 3.03976 1.25129C3.02355 1.30966 3.01022 1.48775 3.01013 1.64701L3.00996 1.93655L2.44629 1.94928C1.81537 1.9635 1.65089 1.99826 1.29753 2.19196C1.01292 2.34799 0.677397 2.70187 0.53107 3.00038C0.293583 3.48485 0.312877 2.9802 0.312877 8.70664C0.312877 14.4226 0.294468 13.9301 0.525647 14.4019C0.738217 14.8358 1.15034 15.1943 1.63665 15.3684L1.88261 15.4565H7.34813H12.8137L13.042 15.3761C13.6832 15.1504 14.1566 14.6411 14.3333 13.9867C14.3802 13.813 14.3834 13.4747 14.3834 8.70664C14.3834 2.97857 14.4028 3.48519 14.1643 2.99852C13.9966 2.6564 13.6567 2.31754 13.3131 2.14987C12.9785 1.98656 12.7332 1.94252 12.1584 1.94252H11.6863L11.6861 1.64998C11.686 1.3025 11.6554 1.17515 11.5407 1.04457C11.2932 0.762736 10.8212 0.822214 10.6598 1.15557C10.6116 1.25526 10.6018 1.33198 10.6018 1.60905V1.94252H7.35039H4.09904L4.08963 1.5764C4.08112 1.24476 4.07376 1.20086 4.01145 1.11005C3.85539 0.882577 3.57395 0.799125 3.33701 0.910034ZM3.01504 3.36241C3.02794 3.75262 3.07144 3.87329 3.2442 3.99844C3.45197 4.14896 3.7164 4.13418 3.91362 3.96102C4.06668 3.82663 4.09451 3.73356 4.09451 3.35619V3.02706H7.34813H10.6018V3.35619C10.6018 3.73356 10.6296 3.82663 10.7827 3.96102C10.9839 4.13769 11.2606 4.14654 11.4748 3.98311C11.6261 3.86772 11.6688 3.73955 11.6812 3.36241L11.6923 3.02706H12.1449C12.5308 3.02706 12.6204 3.03565 12.7534 3.0854C12.9497 3.15886 13.1251 3.32722 13.2232 3.53637L13.2989 3.69777V8.70664V13.7155L13.2243 13.8725C13.1349 14.0606 12.981 14.2192 12.8022 14.3072L12.671 14.372H7.34813H2.02531L1.89326 14.3069C1.71068 14.2169 1.56007 14.0623 1.47194 13.8744L1.39742 13.7155V8.70664C1.39742 3.94852 1.39999 3.69206 1.44868 3.5836C1.5307 3.40097 1.63605 3.2656 1.75994 3.18361C1.96441 3.0483 2.05097 3.03123 2.54318 3.02906L3.00394 3.02706L3.01504 3.36241ZM3.93134 5.80994C3.49732 6.02953 3.43416 6.59529 3.8079 6.9152C4.37212 7.39814 5.18216 6.72672 4.81747 6.07837C4.69626 5.86288 4.52327 5.75751 4.26915 5.74438C4.10969 5.73614 4.057 5.74635 3.93134 5.80994ZM6.9343 5.79265C6.69347 5.90438 6.549 6.13553 6.549 6.40912C6.549 6.69073 6.69438 6.91067 6.95445 7.02255C7.21628 7.1352 7.4954 7.07569 7.70173 6.86323C8.01333 6.54238 7.91324 5.99546 7.50845 5.80697C7.32753 5.72272 7.09735 5.71698 6.9343 5.79265ZM9.89481 5.79727C9.29221 6.10311 9.46288 7.01849 10.1328 7.07403C10.5581 7.10931 10.8855 6.77561 10.8508 6.34254C10.8335 6.12723 10.7425 5.97539 10.5492 5.83957C10.4457 5.76679 10.3955 5.75223 10.2218 5.7445C10.0557 5.73713 9.99348 5.74718 9.89481 5.79727ZM7.10554 8.45052C6.75597 8.50266 6.53002 8.79857 6.55388 9.17299C6.56821 9.39801 6.66196 9.5557 6.85378 9.67736C7.01664 9.78062 7.18679 9.80791 7.38281 9.76216C7.5814 9.71581 7.8037 9.49947 7.86024 9.29755C7.99318 8.82266 7.59638 8.37728 7.10554 8.45052ZM10.0688 8.4536C9.90141 8.48311 9.79526 8.54439 9.68164 8.67713C9.36984 9.04139 9.52053 9.58843 9.97701 9.74949C10.4035 9.89995 10.8586 9.57185 10.8586 9.11397C10.8586 8.9294 10.8007 8.78136 10.6788 8.65427C10.5169 8.48548 10.2975 8.4133 10.0688 8.4536ZM3.92974 8.51017C3.61169 8.66763 3.47135 9.08729 3.63021 9.40589C3.74845 9.64303 3.9653 9.7748 4.23721 9.7748C4.55638 9.7748 4.79201 9.59645 4.88206 9.2867C4.9217 9.1503 4.92373 9.10104 4.8949 8.97224C4.85223 8.78159 4.71889 8.6033 4.55381 8.51616C4.38442 8.42677 4.10373 8.42406 3.92974 8.51017ZM4.03743 11.175C3.87175 11.2283 3.70941 11.3639 3.63189 11.5135C3.5423 11.6865 3.54553 11.9613 3.63911 12.1305C3.73164 12.2978 3.91327 12.4328 4.10324 12.4753C4.56391 12.5783 4.99799 12.1443 4.8949 11.6836C4.80842 11.2971 4.40363 11.057 4.03743 11.175ZM7.01535 11.1721C6.83923 11.2293 6.72843 11.3201 6.63399 11.4848C6.56418 11.6065 6.54954 11.6642 6.54954 11.8176C6.54954 12.5552 7.52489 12.7507 7.83101 12.0744C8.05882 11.5712 7.54324 11.0008 7.01535 11.1721ZM10.0452 11.1579C9.54565 11.2879 9.348 11.8809 9.68127 12.2498C9.82948 12.4138 9.98086 12.4837 10.1879 12.4837C10.8937 12.4837 11.1201 11.5409 10.4913 11.2201C10.3567 11.1514 10.17 11.1254 10.0452 11.1579Z" fill="white"/>
</svg>
