<svg width="21" height="21" viewBox="0 0 21 21" fill="none" xmlns="http://www.w3.org/2000/svg">
<path d="M10.1953 20.375C4.67231 20.375 0.195312 15.898 0.195312 10.375C0.195312 4.852 4.67231 0.375 10.1953 0.375C15.7183 0.375 20.1953 4.852 20.1953 10.375C20.1953 15.898 15.7183 20.375 10.1953 20.375ZM10.1953 18.375C12.317 18.375 14.3519 17.5321 15.8522 16.0319C17.3525 14.5316 18.1953 12.4967 18.1953 10.375C18.1953 8.25327 17.3525 6.21844 15.8522 4.71815C14.3519 3.21785 12.317 2.375 10.1953 2.375C8.07358 2.375 6.03875 3.21785 4.53846 4.71815C3.03817 6.21844 2.19531 8.25327 2.19531 10.375C2.19531 12.4967 3.03817 14.5316 4.53846 16.0319C6.03875 17.5321 8.07358 18.375 10.1953 18.375ZM10.1953 8.961L13.0233 6.132L14.4383 7.547L11.6093 10.375L14.4383 13.203L13.0233 14.618L10.1953 11.789L7.36731 14.618L5.95231 13.203L8.78131 10.375L5.95231 7.547L7.36731 6.132L10.1953 8.961Z" fill="#797979"/>
</svg>
