<svg width="40" height="41" viewBox="0 0 40 41" fill="none" xmlns="http://www.w3.org/2000/svg">
<path d="M40 20.4258C40 9.37891 31.0469 0.425781 20 0.425781C8.95312 0.425781 0 9.37891 0 20.4258C0 31.4727 8.95312 40.4258 20 40.4258C20.1172 40.4258 20.2344 40.4258 20.3516 40.418V24.8555H16.0547V19.8477H20.3516V16.1602C20.3516 11.8867 22.9609 9.55859 26.7734 9.55859C28.6016 9.55859 30.1719 9.69141 30.625 9.75391V14.2227H28C25.9297 14.2227 25.5234 15.207 25.5234 16.6523V19.8398H30.4844L29.8359 24.8477H25.5234V39.6523C33.8828 37.2539 40 29.5586 40 20.4258Z" fill="#797979"/>
</svg>
