<svg width="27" height="27" viewBox="0 0 27 27" fill="none" xmlns="http://www.w3.org/2000/svg">
<path d="M13.6914 0.592773C11.1203 0.592773 8.60684 1.35521 6.469 2.78367C4.33116 4.21213 2.66492 6.24245 1.68098 8.61789C0.697039 10.9933 0.439596 13.6072 0.941203 16.1289C1.44281 18.6507 2.68094 20.9671 4.49902 22.7852C6.31711 24.6032 8.63349 25.8414 11.1552 26.343C13.677 26.8446 16.2909 26.5871 18.6663 25.6032C21.0417 24.6193 23.0721 22.953 24.5005 20.8152C25.929 18.6773 26.6914 16.1639 26.6914 13.5928C26.6878 10.1461 25.317 6.84159 22.8798 4.40441C20.4426 1.96722 17.1381 0.596413 13.6914 0.592773ZM14.6914 24.5465V16.5928H17.6914C17.9566 16.5928 18.211 16.4874 18.3985 16.2999C18.5861 16.1123 18.6914 15.858 18.6914 15.5928C18.6914 15.3276 18.5861 15.0732 18.3985 14.8857C18.211 14.6981 17.9566 14.5928 17.6914 14.5928H14.6914V11.5928C14.6914 11.0623 14.9021 10.5536 15.2772 10.1786C15.6523 9.80349 16.161 9.59277 16.6914 9.59277H18.6914C18.9566 9.59277 19.211 9.48742 19.3985 9.29988C19.5861 9.11234 19.6914 8.85799 19.6914 8.59277C19.6914 8.32756 19.5861 8.0732 19.3985 7.88567C19.211 7.69813 18.9566 7.59277 18.6914 7.59277H16.6914C15.6305 7.59277 14.6131 8.0142 13.863 8.76435C13.1128 9.51449 12.6914 10.5319 12.6914 11.5928V14.5928H9.69141C9.4262 14.5928 9.17184 14.6981 8.98431 14.8857C8.79677 15.0732 8.69141 15.3276 8.69141 15.5928C8.69141 15.858 8.79677 16.1123 8.98431 16.2999C9.17184 16.4874 9.4262 16.5928 9.69141 16.5928H12.6914V24.5465C9.87241 24.2892 7.26112 22.955 5.40071 20.8215C3.5403 18.688 2.574 15.9194 2.70281 13.0916C2.83161 10.2638 4.0456 7.59446 6.09226 5.63891C8.13892 3.68335 10.8607 2.59207 13.6914 2.59207C16.5221 2.59207 19.2439 3.68335 21.2906 5.63891C23.3372 7.59446 24.5512 10.2638 24.68 13.0916C24.8088 15.9194 23.8425 18.688 21.9821 20.8215C20.1217 22.955 17.5104 24.2892 14.6914 24.5465Z" fill="#2E2E2E"/>
</svg>
