<svg width="33" height="33" viewBox="0 0 33 33" fill="none" xmlns="http://www.w3.org/2000/svg">
<path d="M16.6914 3.44141C14.1203 3.44141 11.6068 4.20384 9.469 5.6323C7.33116 7.06076 5.66492 9.09108 4.68098 11.4665C3.69704 13.842 3.4396 16.4558 3.9412 18.9776C4.44281 21.4993 5.68094 23.8157 7.49902 25.6338C9.31711 27.4519 11.6335 28.69 14.1552 29.1916C16.677 29.6932 19.2909 29.4358 21.6663 28.4518C24.0417 27.4679 26.0721 25.8017 27.5005 23.6638C28.929 21.526 29.6914 19.0126 29.6914 16.4414C29.6878 12.9947 28.317 9.69022 25.8798 7.25304C23.4426 4.81585 20.1381 3.44505 16.6914 3.44141ZM17.6914 27.3952V19.4414H20.6914C20.9566 19.4414 21.211 19.3361 21.3985 19.1485C21.5861 18.961 21.6914 18.7066 21.6914 18.4414C21.6914 18.1762 21.5861 17.9218 21.3985 17.7343C21.211 17.5468 20.9566 17.4414 20.6914 17.4414H17.6914V14.4414C17.6914 13.911 17.9021 13.4023 18.2772 13.0272C18.6523 12.6521 19.161 12.4414 19.6914 12.4414H21.6914C21.9566 12.4414 22.211 12.336 22.3985 12.1485C22.5861 11.961 22.6914 11.7066 22.6914 11.4414C22.6914 11.1762 22.5861 10.9218 22.3985 10.7343C22.211 10.5468 21.9566 10.4414 21.6914 10.4414H19.6914C18.6305 10.4414 17.6131 10.8628 16.863 11.613C16.1128 12.3631 15.6914 13.3805 15.6914 14.4414V17.4414H12.6914C12.4262 17.4414 12.1718 17.5468 11.9843 17.7343C11.7968 17.9218 11.6914 18.1762 11.6914 18.4414C11.6914 18.7066 11.7968 18.961 11.9843 19.1485C12.1718 19.3361 12.4262 19.4414 12.6914 19.4414H15.6914V27.3952C12.8724 27.1378 10.2611 25.8036 8.40071 23.6701C6.5403 21.5366 5.574 18.768 5.70281 15.9402C5.83161 13.1124 7.0456 10.4431 9.09226 8.48754C11.1389 6.53198 13.8607 5.44071 16.6914 5.44071C19.5221 5.44071 22.2439 6.53198 24.2906 8.48754C26.3372 10.4431 27.5512 13.1124 27.68 15.9402C27.8088 18.768 26.8425 21.5366 24.9821 23.6701C23.1217 25.8036 20.5104 27.1378 17.6914 27.3952Z" fill="#2E2E2E"/>
</svg>
