<svg width="18" height="15" viewBox="0 0 18 15" fill="none" xmlns="http://www.w3.org/2000/svg">
<path fill-rule="evenodd" clip-rule="evenodd" d="M16.8085 0.234457C14.707 0.46716 13.0848 0.969076 12.0261 1.7143C11.2882 2.23361 10.6773 3.07875 10.4348 3.9159C10.1898 4.76107 10.2496 5.55056 10.6125 6.26477C10.7274 6.49081 10.7238 6.50691 10.5129 6.70834C10.1892 7.01767 9.7126 7.72095 9.45674 8.26703L9.31806 8.56291L9.22334 8.38971C9.07121 8.11152 8.90811 7.90833 8.6118 7.62786L8.33424 7.36511L8.36246 7.21894C8.51228 6.44291 8.15984 5.49327 7.4773 4.83403C6.46724 3.85842 5.1338 3.58281 3.09281 3.92783C2.21656 4.07595 1.223 4.34957 1.07591 4.48328C0.979566 4.57084 0.90625 4.7354 0.90625 4.86404C0.90625 5.05291 1.5225 6.19364 1.99204 6.87399C2.75979 7.98642 3.61497 8.7546 4.418 9.0531C4.88261 9.2258 5.09279 9.25946 5.6935 9.25738C6.208 9.25556 6.28188 9.24767 6.54785 9.16604C6.83184 9.07887 7.18304 8.9171 7.38308 8.78127C7.43775 8.74416 7.57563 8.62132 7.68953 8.50825L7.89663 8.30274L7.99876 8.40004C8.15086 8.54492 8.41073 8.94791 8.49299 9.16644C8.53282 9.27219 8.63111 9.66173 8.71139 10.0321L8.85739 10.7055L8.85745 12.4837C8.85749 14.1112 8.86239 14.2716 8.91543 14.3755C9.09725 14.7321 9.60957 14.7237 9.78502 14.3613C9.8488 14.2296 9.85131 14.1561 9.85188 12.4045C9.85254 10.4817 9.86788 10.224 10.0167 9.64132C10.2185 8.85084 10.6035 8.11665 11.1419 7.49517C11.2721 7.34486 11.3891 7.22195 11.4019 7.22208C11.4145 7.22218 11.4697 7.2528 11.5243 7.29007C11.7178 7.42199 12.0053 7.55368 12.293 7.6422C12.5601 7.72436 12.6317 7.73198 13.1477 7.73328C13.6341 7.73454 13.7489 7.7244 13.9893 7.65897C15.189 7.33244 16.0406 6.65278 16.6716 5.51809C17.2523 4.4739 17.6851 2.83239 17.8393 1.08924C17.8779 0.65272 17.8769 0.633703 17.8077 0.490715C17.6726 0.211895 17.4735 0.160809 16.8085 0.234457ZM16.7587 1.77029C16.5444 3.29276 16.1357 4.57339 15.612 5.36347C15.044 6.22051 14.1031 6.75608 13.1629 6.75754C12.6026 6.7584 12.1696 6.59285 11.8214 6.24462C11.2107 5.63398 11.1141 4.65589 11.5735 3.7367C11.9292 3.02501 12.4752 2.51451 13.2997 2.12262C14.1562 1.71552 15.3973 1.3983 16.7091 1.25121C16.8214 1.23862 16.8263 1.28967 16.7587 1.77029ZM14.8042 2.60197C14.7495 2.63 14.2611 3.09581 13.7188 3.63705C12.6653 4.68862 12.6019 4.77032 12.6484 5.01799C12.6788 5.1802 12.8428 5.35777 13.0016 5.40054C13.2857 5.47704 13.3206 5.4518 14.3693 4.41099C14.8954 3.88883 15.3687 3.39533 15.4211 3.31433C15.5372 3.13493 15.5434 2.98035 15.4414 2.80248C15.312 2.57683 15.0276 2.48731 14.8042 2.60197ZM5.42833 4.85847C6.61344 5.05394 7.54933 6.11562 7.37288 7.06439C7.2329 7.81716 6.59244 8.282 5.69525 8.282C4.75762 8.282 4.00037 7.83061 3.15642 6.7686C2.82314 6.34918 2.13205 5.27545 2.13205 5.17702C2.13205 5.13746 2.75959 4.99036 3.30759 4.90144C4.11407 4.77062 4.80996 4.7565 5.42833 4.85847ZM3.77542 5.46621C3.55332 5.53508 3.3932 5.80426 3.43663 6.03581C3.48192 6.27722 3.56607 6.32967 4.68304 6.81257C5.25701 7.06071 5.77506 7.27509 5.83423 7.28897C6.29702 7.39757 6.63693 6.78593 6.29321 6.46305C6.19906 6.37459 4.15031 5.47903 3.9841 5.45368C3.92208 5.44421 3.82819 5.44984 3.77542 5.46621Z" fill="white"/>
</svg>
