<svg width="48" height="52" viewBox="0 0 48 52" fill="none" xmlns="http://www.w3.org/2000/svg">
<g filter="url(#filter0_d_981_42770)">
<path d="M24 4.5C20.1433 4.5 16.3731 5.64366 13.1664 7.78634C9.95963 9.92903 7.46027 12.9745 5.98436 16.5377C4.50845 20.1008 4.12228 24.0216 4.8747 27.8043C5.62711 31.5869 7.4843 35.0615 10.2114 37.7886C12.9386 40.5157 16.4131 42.3729 20.1957 43.1253C23.9784 43.8777 27.8992 43.4916 31.4623 42.0156C35.0255 40.5397 38.071 38.0404 40.2137 34.8336C42.3564 31.6269 43.5 27.8567 43.5 24C43.4945 18.83 41.4383 13.8732 37.7826 10.2174C34.1268 6.56167 29.1701 4.50546 24 4.5ZM40.5 24C40.5016 26.1168 40.0942 28.214 39.3 30.1763L30.9188 25.0219C30.5624 24.802 30.1638 24.6595 29.7488 24.6038L25.47 24.0262C24.8804 23.9494 24.2813 24.0482 23.7476 24.3104C23.2139 24.5725 22.7695 24.9864 22.47 25.5H20.835L20.1225 24.0262C19.9255 23.6159 19.6373 23.256 19.2798 22.9743C18.9223 22.6925 18.505 22.4963 18.06 22.4006L16.56 22.0762L18.0263 19.5H21.1594C21.6664 19.499 22.1649 19.37 22.6088 19.125L24.9056 17.8575C25.1074 17.745 25.2961 17.6104 25.4681 17.4562L30.5138 12.8925C31.0196 12.4391 31.3559 11.8269 31.467 11.1568C31.5781 10.4866 31.4575 9.79862 31.125 9.20625L31.0575 9.08438C33.8809 10.4231 36.2667 12.5351 37.938 15.1752C39.6094 17.8153 40.4978 20.8753 40.5 24ZM26.8706 7.75125L28.5 10.6688L23.4544 15.2325L21.1594 16.5H18.0263C17.4989 16.4992 16.9807 16.6375 16.5238 16.9008C16.0668 17.1642 15.6874 17.5433 15.4238 18L13.7869 20.8556L11.8838 15.7856L13.935 10.935C15.7506 9.53211 17.8393 8.52393 20.0672 7.97504C22.295 7.42614 24.613 7.34864 26.8725 7.7475L26.8706 7.75125ZM7.50001 24C7.4975 21.5475 8.04466 19.1257 9.10126 16.9125L11.2275 22.5881C11.4047 23.058 11.697 23.476 12.0777 23.8036C12.4584 24.1312 12.9152 24.3579 13.4063 24.4631L17.4244 25.3275L18.1388 26.8125C18.3867 27.3176 18.7709 27.7432 19.248 28.0414C19.7251 28.3396 20.2761 28.4985 20.8388 28.5H21.1163L19.7606 31.5431C19.5218 32.079 19.4453 32.6731 19.5406 33.2519C19.6359 33.8308 19.8988 34.369 20.2969 34.8L20.3231 34.8263L24 38.6138L23.6363 40.4888C19.3272 40.3885 15.2279 38.6081 12.2132 35.5276C9.19854 32.447 7.50716 28.3102 7.50001 24ZM26.7338 40.2712L26.9456 39.1819C27.0327 38.7191 27.0102 38.2423 26.88 37.7897C26.7498 37.3372 26.5154 36.9214 26.1956 36.5756C26.1864 36.5674 26.1777 36.5586 26.1694 36.5494L22.5 32.7638L25.0688 27L29.3475 27.5775L37.92 32.85C36.678 34.8004 35.0408 36.4687 33.114 37.747C31.1871 39.0253 29.0136 39.8852 26.7338 40.2712Z" fill="#F87C56"/>
</g>
<defs>
<filter id="filter0_d_981_42770" x="-4" y="0" width="56" height="56" filterUnits="userSpaceOnUse" color-interpolation-filters="sRGB">
<feFlood flood-opacity="0" result="BackgroundImageFix"/>
<feColorMatrix in="SourceAlpha" type="matrix" values="0 0 0 0 0 0 0 0 0 0 0 0 0 0 0 0 0 0 127 0" result="hardAlpha"/>
<feOffset dy="4"/>
<feGaussianBlur stdDeviation="2"/>
<feComposite in2="hardAlpha" operator="out"/>
<feColorMatrix type="matrix" values="0 0 0 0 0 0 0 0 0 0 0 0 0 0 0 0 0 0 0.25 0"/>
<feBlend mode="normal" in2="BackgroundImageFix" result="effect1_dropShadow_981_42770"/>
<feBlend mode="normal" in="SourceGraphic" in2="effect1_dropShadow_981_42770" result="shape"/>
</filter>
</defs>
</svg>
