<svg width="22" height="20" viewBox="0 0 22 20" fill="none" xmlns="http://www.w3.org/2000/svg">
<path d="M2.36861 2.57831C1.55127 3.40078 1.05584 4.27875 0.770009 5.4102C0.273965 7.37375 0.638046 9.30632 1.82951 11.1072L2.038 10.9692L1.82951 11.1072C2.58824 12.2539 3.56263 13.2989 5.32657 14.8724L5.49299 14.6858L5.32657 14.8724C5.88798 15.3731 7.02149 16.351 8.03404 17.2148C8.54061 17.647 9.0177 18.0513 9.37874 18.3538C9.55917 18.505 9.71119 18.6313 9.82364 18.7231C9.87975 18.7689 9.92686 18.8069 9.96309 18.8352C9.99296 18.8587 10.0303 18.8876 10.0579 18.9039L10.185 18.6886L10.0579 18.9039C10.1457 18.9557 10.2282 18.998 10.3449 19.0202C10.4471 19.0396 10.568 19.0416 10.7279 19.0416C10.8877 19.0416 11.0085 19.0396 11.1108 19.0202C11.2273 18.9981 11.3099 18.9558 11.3977 18.9041L11.3977 18.9041C11.4254 18.8878 11.4628 18.8588 11.4928 18.8353C11.5291 18.8069 11.5763 18.7688 11.6326 18.7229C11.7452 18.6309 11.8976 18.5044 12.0783 18.3529C12.44 18.0498 12.9179 17.6448 13.4249 17.2122C14.4384 16.3475 15.5719 15.3695 16.1292 14.872C17.8979 13.2932 18.8685 12.2524 19.6262 11.1072L19.4177 10.9692L19.6262 11.1072C20.8177 9.30632 21.1818 7.37375 20.6857 5.4102C20.3999 4.27875 19.9045 3.40078 19.0871 2.57831C18.2697 1.75572 17.3879 1.27771 16.2423 1.03497C15.9451 0.971987 15.5355 0.939872 15.1443 0.935951C14.7548 0.932048 14.3578 0.955804 14.0888 1.01478L14.0888 1.01478C12.7301 1.31264 11.6757 1.98611 10.7279 3.15006C9.79731 2.00743 8.7604 1.33427 7.44868 1.03491L7.44867 1.03491C7.23308 0.98572 6.89729 0.953855 6.57047 0.940237C6.24247 0.92657 5.89788 0.930237 5.66248 0.959785L5.66247 0.959786C4.37127 1.12192 3.28595 1.65518 2.36861 2.57831ZM2.36861 2.57831L2.54594 2.75453M2.36861 2.57831L2.54594 2.75453M2.54594 2.75453C3.42393 1.871 4.4578 1.36302 5.69362 1.20784C6.12365 1.15386 7.00761 1.1907 7.39305 1.27864L1.01239 5.47143C1.28732 4.38312 1.76044 3.54496 2.54594 2.75453ZM10.7263 17.6476C10.7626 17.6476 14.4304 14.4925 15.3035 13.7103C17.1065 12.095 18.1414 10.9294 18.762 9.81472C19.5029 8.48428 19.6827 7.00711 19.275 5.60029C18.7593 3.82059 17.4085 2.60811 15.6788 2.37215C14.1207 2.15962 12.691 2.8353 11.6638 4.26962L10.7263 17.6476ZM10.7263 17.6476C10.6908 17.6477 7.03642 14.5018 6.15219 13.71L10.7263 17.6476ZM6.94756 2.63713L6.94757 2.63713C7.97163 2.81569 8.86889 3.41013 9.58865 4.41518L9.93888 4.90383L9.93889 4.90384C10.3273 5.44499 11.1284 5.44499 11.5168 4.90384L11.5169 4.90383L11.8671 4.41518C12.8484 3.04496 14.1917 2.42162 15.645 2.61986C17.2693 2.84143 18.5445 3.97761 19.0349 5.66987C19.4232 7.00983 19.2534 8.41836 18.5436 9.69309C17.9437 10.7705 16.9341 11.9138 15.1367 13.5241C14.7024 13.9132 13.5691 14.8958 12.5381 15.7827C12.023 16.2258 11.5342 16.6443 11.1722 16.9518C10.991 17.1057 10.8421 17.2314 10.7376 17.3184C10.7338 17.3215 10.7301 17.3246 10.7264 17.3277C10.723 17.3248 10.7194 17.3219 10.7159 17.3189C10.6118 17.2321 10.4634 17.1068 10.2829 16.9533C9.92201 16.6464 9.43468 16.2288 8.9206 15.7863C7.89167 14.9005 6.75894 13.9177 6.31897 13.5237C3.55255 11.0464 2.5193 9.54692 2.26929 7.82065L2.26929 7.82065C2.10702 6.7003 2.34203 5.49268 2.90245 4.55056L2.90246 4.55056C3.74513 3.13393 5.38329 2.36434 6.94756 2.63713Z" fill="white" stroke="white" stroke-width="0.5"/>
</svg>
