<svg width="40" height="41" viewBox="0 0 40 41" fill="none" xmlns="http://www.w3.org/2000/svg">
<path d="M20 0.425781C8.95599 0.425781 0 9.38177 0 20.4258C0 31.4698 8.95599 40.4258 20 40.4258C31.044 40.4258 40 31.4698 40 20.4258C40 9.38177 31.044 0.425781 20 0.425781ZM31.4151 25.1606C31.3596 26.3831 31.1652 27.2178 30.8813 27.9484C30.2847 29.491 29.0652 30.7105 27.5226 31.3071C26.7923 31.5909 25.9573 31.785 24.7351 31.8409C23.5104 31.8967 23.1192 31.9102 20.0003 31.9102C16.8811 31.9102 16.4902 31.8967 15.2652 31.8409C14.043 31.785 13.208 31.5909 12.4777 31.3071C11.7111 31.0187 11.0172 30.5668 10.4434 29.9824C9.85931 29.4089 9.40735 28.7147 9.11896 27.9484C8.83514 27.2181 8.64075 26.3831 8.58521 25.1609C8.52875 23.9359 8.51562 23.5447 8.51562 20.4258C8.51562 17.3069 8.52875 16.9156 8.5849 15.691C8.64044 14.4684 8.83453 13.6338 9.11835 12.9032C9.40674 12.1369 9.85901 11.4426 10.4434 10.8692C11.0168 10.2848 11.7111 9.83282 12.4774 9.54443C13.208 9.26062 14.0427 9.06653 15.2652 9.01068C16.4899 8.95483 16.8811 8.94141 20 8.94141C23.1189 8.94141 23.5101 8.95483 24.7348 9.01099C25.9573 9.06653 26.792 9.26062 27.5226 9.54413C28.2889 9.83252 28.9832 10.2848 29.5569 10.8692C30.141 11.4429 30.5933 12.1369 30.8813 12.9032C31.1655 13.6338 31.3596 14.4684 31.4154 15.691C31.4713 16.9156 31.4844 17.3069 31.4844 20.4258C31.4844 23.5447 31.4713 23.9359 31.4151 25.1606Z" fill="#797979"/>
</svg>
