<svg width="33" height="33" viewBox="0 0 33 33" fill="none" xmlns="http://www.w3.org/2000/svg">
<path d="M16.6914 10.5928C15.5047 10.5928 14.3447 10.9447 13.358 11.604C12.3713 12.2632 11.6023 13.2003 11.1481 14.2967C10.694 15.393 10.5752 16.5994 10.8067 17.7633C11.0382 18.9272 11.6097 19.9963 12.4488 20.8354C13.2879 21.6745 14.357 22.246 15.5209 22.4775C16.6848 22.709 17.8912 22.5902 18.9875 22.1361C20.0839 21.6819 21.0209 20.9129 21.6802 19.9262C22.3395 18.9395 22.6914 17.7795 22.6914 16.5928C22.6898 15.002 22.0571 13.4768 20.9322 12.352C19.8074 11.2271 18.2822 10.5944 16.6914 10.5928ZM16.6914 20.5928C15.9003 20.5928 15.1269 20.3582 14.4691 19.9187C13.8113 19.4791 13.2986 18.8544 12.9959 18.1235C12.6931 17.3926 12.6139 16.5883 12.7683 15.8124C12.9226 15.0365 13.3036 14.3238 13.863 13.7643C14.4224 13.2049 15.1351 12.824 15.911 12.6696C16.687 12.5153 17.4912 12.5945 18.2221 12.8973C18.953 13.2 19.5778 13.7127 20.0173 14.3705C20.4568 15.0283 20.6914 15.8016 20.6914 16.5928C20.6914 17.6536 20.27 18.6711 19.5198 19.4212C18.7697 20.1713 17.7523 20.5928 16.6914 20.5928ZM22.6914 3.59277H10.6914C8.8355 3.59476 7.05618 4.33289 5.74385 5.64522C4.43153 6.95754 3.69339 8.73687 3.69141 10.5928V22.5928C3.69339 24.4487 4.43153 26.228 5.74385 27.5403C7.05618 28.8527 8.8355 29.5908 10.6914 29.5928H22.6914C24.5473 29.5908 26.3266 28.8527 27.639 27.5403C28.9513 26.228 29.6894 24.4487 29.6914 22.5928V10.5928C29.6894 8.73687 28.9513 6.95754 27.639 5.64522C26.3266 4.33289 24.5473 3.59476 22.6914 3.59277ZM27.6914 22.5928C27.6914 23.9189 27.1646 25.1906 26.2269 26.1283C25.2893 27.066 24.0175 27.5928 22.6914 27.5928H10.6914C9.36532 27.5928 8.09355 27.066 7.15587 26.1283C6.21819 25.1906 5.69141 23.9189 5.69141 22.5928V10.5928C5.69141 9.26669 6.21819 7.99492 7.15587 7.05724C8.09355 6.11956 9.36532 5.59277 10.6914 5.59277H22.6914C24.0175 5.59277 25.2893 6.11956 26.2269 7.05724C27.1646 7.99492 27.6914 9.26669 27.6914 10.5928V22.5928ZM24.6914 10.0928C24.6914 10.3894 24.6034 10.6795 24.4386 10.9261C24.2738 11.1728 24.0395 11.3651 23.7654 11.4786C23.4913 11.5921 23.1897 11.6218 22.8988 11.564C22.6078 11.5061 22.3405 11.3632 22.1307 11.1534C21.921 10.9437 21.7781 10.6764 21.7202 10.3854C21.6624 10.0944 21.6921 9.79284 21.8056 9.51875C21.9191 9.24466 22.1114 9.01039 22.3581 8.84557C22.6047 8.68075 22.8947 8.59277 23.1914 8.59277C23.5892 8.59277 23.9708 8.75081 24.2521 9.03211C24.5334 9.31342 24.6914 9.69495 24.6914 10.0928Z" fill="#2E2E2E"/>
</svg>
