<svg width="40" height="41" viewBox="0 0 40 41" fill="none" xmlns="http://www.w3.org/2000/svg">
<path d="M23.8281 20.4258C23.8281 22.54 22.1143 24.2539 20 24.2539C17.8857 24.2539 16.1719 22.54 16.1719 20.4258C16.1719 18.3115 17.8857 16.5977 20 16.5977C22.1143 16.5977 23.8281 18.3115 23.8281 20.4258Z" fill="#797979"/>
<path d="M28.9539 13.6536C28.7698 13.155 28.4763 12.7036 28.0948 12.3331C27.7243 11.9517 27.2733 11.6581 26.7743 11.4741C26.3696 11.3169 25.7617 11.1298 24.642 11.0789C23.4308 11.0236 23.0676 11.0117 20.0012 11.0117C16.9345 11.0117 16.5714 11.0233 15.3604 11.0786C14.2407 11.1298 13.6325 11.3169 13.2281 11.4741C12.7292 11.6581 12.2778 11.9517 11.9077 12.3331C11.5262 12.7036 11.2326 13.1547 11.0483 13.6536C10.8911 14.0583 10.704 14.6665 10.6531 15.7862C10.5978 16.9971 10.5859 17.3603 10.5859 20.427C10.5859 23.4934 10.5978 23.8566 10.6531 25.0678C10.704 26.1875 10.8911 26.7954 11.0483 27.2001C11.2326 27.699 11.5259 28.1501 11.9073 28.5206C12.2778 28.902 12.7289 29.1956 13.2278 29.3796C13.6325 29.5371 14.2407 29.7242 15.3604 29.7751C16.5714 29.8304 16.9342 29.842 20.0009 29.842C23.0679 29.842 23.4311 29.8304 24.6417 29.7751C25.7614 29.7242 26.3696 29.5371 26.7743 29.3796C27.7759 28.9933 28.5675 28.2017 28.9539 27.2001C29.111 26.7954 29.2981 26.1875 29.3494 25.0678C29.4046 23.8566 29.4162 23.4934 29.4162 20.427C29.4162 17.3603 29.4046 16.9971 29.3494 15.7862C29.2984 14.6665 29.1113 14.0583 28.9539 13.6536ZM20.0012 26.3239C16.7441 26.3239 14.1037 23.6838 14.1037 20.4267C14.1037 17.1696 16.7441 14.5295 20.0012 14.5295C23.2581 14.5295 25.8984 17.1696 25.8984 20.4267C25.8984 23.6838 23.2581 26.3239 20.0012 26.3239ZM26.1316 15.6745C25.3705 15.6745 24.7534 15.0574 24.7534 14.2963C24.7534 13.5352 25.3705 12.9182 26.1316 12.9182C26.8927 12.9182 27.5098 13.5352 27.5098 14.2963C27.5095 15.0574 26.8927 15.6745 26.1316 15.6745Z" fill="#797979"/>
<path d="M20 0.425781C8.95599 0.425781 0 9.38177 0 20.4258C0 31.4698 8.95599 40.4258 20 40.4258C31.044 40.4258 40 31.4698 40 20.4258C40 9.38177 31.044 0.425781 20 0.425781ZM31.4151 25.1606C31.3596 26.3831 31.1652 27.2178 30.8813 27.9484C30.2847 29.491 29.0652 30.7105 27.5226 31.3071C26.7923 31.5909 25.9573 31.785 24.7351 31.8409C23.5104 31.8967 23.1192 31.9102 20.0003 31.9102C16.8811 31.9102 16.4902 31.8967 15.2652 31.8409C14.043 31.785 13.208 31.5909 12.4777 31.3071C11.7111 31.0187 11.0172 30.5668 10.4434 29.9824C9.85931 29.4089 9.40735 28.7147 9.11896 27.9484C8.83514 27.2181 8.64075 26.3831 8.58521 25.1609C8.52875 23.9359 8.51562 23.5447 8.51562 20.4258C8.51562 17.3069 8.52875 16.9156 8.5849 15.691C8.64044 14.4684 8.83453 13.6338 9.11835 12.9032C9.40674 12.1369 9.85901 11.4426 10.4434 10.8692C11.0168 10.2848 11.7111 9.83282 12.4774 9.54443C13.208 9.26062 14.0427 9.06653 15.2652 9.01068C16.4899 8.95483 16.8811 8.94141 20 8.94141C23.1189 8.94141 23.5101 8.95483 24.7348 9.01099C25.9573 9.06653 26.792 9.26062 27.5226 9.54413C28.2889 9.83252 28.9832 10.2848 29.5569 10.8692C30.141 11.4429 30.5933 12.1369 30.8813 12.9032C31.1655 13.6338 31.3596 14.4684 31.4154 15.691C31.4713 16.9156 31.4844 17.3069 31.4844 20.4258C31.4844 23.5447 31.4713 23.9359 31.4151 25.1606Z" fill="#797979"/>
</svg>
