<svg width="112" height="45" viewBox="0 0 112 45" fill="none" xmlns="http://www.w3.org/2000/svg">
<path d="M17.5983 12.2555C16.178 10.4836 12.8908 10.7684 11.2646 10.8598C8.98238 10.9863 5.93941 11.5102 4.98325 11.7352C3.97474 11.9742 3.18957 12.2238 2.31716 12.484C1.63319 12.6844 0.0279593 13.0781 1.12022 14.0379C1.65762 14.509 2.31716 14.9273 3.40244 15.6727C4.57147 16.4742 6.20462 17.5395 6.94443 18.0598C7.55162 18.4852 9.00331 19.5609 9.57212 20.1481C10.975 19.6629 11.3693 20.2852 11.5019 21.0234C11.5856 21.4664 11.8369 21.2695 12.0114 21.157C12.5662 20.8301 13.4142 20.359 13.8818 20.032C14.1261 14.966 17.5983 12.2555 17.5983 12.2555Z" fill="white"/>
<path d="M18.9627 11.0426C20.8122 9.63984 22.5501 9.15469 23.4504 9.07734C24.3228 9.00352 24.923 9.34453 25.2057 9.87539C26.2002 11.7809 24.4519 11.7527 23.9389 11.018C23.747 10.7473 23.2236 10.8562 22.7874 11.0355C21.9289 11.3941 20.8785 11.8336 19.8177 12.7125C20.2957 14.6883 20.1806 18.116 15.7697 21.2062C15.6161 25.4637 18.9139 25.5234 19.7932 25.4496C22.1732 25.2527 25.5895 23.4703 29.4212 20.9039V0H0V11.3625C2.31712 10.5117 7.63184 9.20039 11.5996 9.0457C13.8085 8.95781 16.9457 8.86641 18.9627 11.0426Z" fill="white"/>
<path d="M19.3884 27.1793C16.7084 27.2812 14.4611 26.2828 14.0318 22.3207C14.0318 22.3207 13.32 22.7039 12.4441 23.1363C12.1649 23.2629 12.1091 23.3719 12.3778 23.7691C14.7751 27.3797 14.9426 30.4629 14.9775 31.4121C15.0264 32.8148 15.0438 33.9012 14.9426 34.5727C14.6495 36.5449 13.4735 36.4043 12.4092 35.1633C12.0811 34.7977 11.125 33.2754 10.6678 31.4016C10.3119 29.9426 9.90709 27.2813 9.91407 25.3688C9.92454 24.5039 9.69422 24.6516 9.48135 24.4547C9.1289 24.1418 8.84275 23.4668 9.21265 22.9746C9.45692 22.6723 9.73261 22.7566 9.1952 22.1871C7.23751 20.127 3.82116 18.0668 3.18604 17.6836C2.82661 17.4691 1.2458 16.5621 0 15.627V45H29.4246V23.1785C25.4046 25.6852 21.6113 27.0949 19.3884 27.1793Z" fill="white"/>
<path d="M12.7023 32.2348C12.8244 32.516 13.8818 34.5516 13.4072 30.3082C13.1315 27.7699 11.6065 25.7625 11.6065 25.7625C11.5891 27.7102 12.2486 31.1871 12.7023 32.2348Z" fill="white"/>
<path d="M18.38 13.9359C17.1412 15.0117 16.0314 17.3953 15.9861 18.5203C18.2474 16.8328 18.38 13.9359 18.38 13.9359Z" fill="white"/>
<path d="M46.0355 30.7527C45.8297 31.259 45.5505 31.5015 45.198 31.5015C44.7339 31.5015 44.6188 31.3504 44.3221 30.468C44.1162 29.7367 43.708 29.3781 43.1287 29.3781C42.4203 29.3781 42.0678 29.9793 42.0678 31.1605C42.0678 31.7617 42.162 32.2855 42.347 32.7355C42.7378 33.6918 43.4253 34.1805 44.4129 34.1805C45.027 34.1805 45.6063 33.9555 46.1437 33.4844C46.3845 33.2769 46.4787 33.2207 46.6846 33.2207C47.0755 33.2207 47.393 33.5582 47.393 34.0082C47.393 34.4019 47.0755 34.8344 46.4613 35.3019C45.5854 35.9594 44.4687 36.2969 43.1077 36.2969C41.4676 36.2969 40.2393 35.8469 39.4366 34.9644C38.7108 34.2156 38.3374 33.182 38.3374 32.057C38.3374 29.3746 40.4242 27.4973 43.4044 27.4973C45.0445 27.4973 46.6637 28.2109 46.6637 28.9422C46.6637 29.016 46.6253 29.241 46.6078 29.2973L46.0355 30.7527ZM51.5317 25.068C51.5317 24.2242 51.5143 24.0344 51.4375 23.8305C51.3642 23.6055 51.12 23.4367 50.8408 23.4367C50.6733 23.4367 50.4499 23.5105 50.1708 23.6441L47.8781 24.8254C47.4489 25.0504 47.3197 25.2191 47.3197 25.539C47.3197 25.7816 47.414 25.9504 47.5989 26.0629C48.1223 26.418 48.1223 26.418 48.1223 27.4129V33.175C48.1223 34.3773 48.1224 34.3562 47.8816 34.5637C47.3581 34.9187 47.3023 35.0137 47.3023 35.3336C47.3023 35.6887 47.4698 35.9137 47.8048 36.0086C48.0107 36.0648 47.9897 36.0648 49.0541 36.0648H50.6C51.5666 36.0648 51.5666 36.0473 51.6992 36.0473C52.1285 35.9734 52.3518 35.7273 52.3518 35.3336C52.3518 35.091 52.2401 34.8836 52.0168 34.7324C51.6259 34.4512 51.6259 34.4512 51.5701 34.2437C51.5143 34.0926 51.5317 34.1137 51.5317 33.175V32.3137C51.5317 31.0375 51.5492 30.7738 51.605 30.475C51.6783 30.1551 51.8109 30.0074 52.0133 30.0074C52.3309 30.0074 52.6868 30.3273 53.0393 31.3961C53.4301 32.7461 53.6534 33.7234 53.6534 34.1172C53.6534 34.4723 53.5976 34.5285 53.3184 34.7535C53.1125 34.9047 53.0218 35.091 53.0218 35.2984C53.0218 35.6535 53.2451 35.9172 53.5418 35.9945C53.7267 36.0508 53.5383 36.0683 54.5991 36.0683H56.4975C57.5234 36.0683 57.8933 35.8609 57.8933 35.3371C57.8933 35.0945 57.7991 34.9047 57.5967 34.7746L57.3559 34.6058C57.2792 34.5496 57.2059 34.4371 57.1501 34.2859C57.0558 34.0609 56.9616 33.7023 56.7592 32.8973L56.0124 29.9898C55.5832 28.3375 54.7841 27.5113 53.5732 27.5113C52.8089 27.5113 52.2506 27.775 51.5247 28.4676V25.068H51.5317ZM62.1961 34.6305C62.6009 34.6305 62.8975 34.3527 62.8975 33.9449C62.8975 33.7515 62.8975 33.6461 62.7474 33.2172L62.4718 32.1449C62.3217 32.0816 62.1751 32.0359 62.0251 32.0359C61.4493 32.0359 61.0899 32.4648 61.0899 33.1293C61.0899 33.966 61.5993 34.6305 62.1961 34.6305ZM73.6421 27.5078C74.4447 27.5078 74.8914 27.7504 74.8914 28.1828C74.8914 28.2566 74.8739 28.4078 74.8181 28.5765L74.3156 30.3765C74.1655 30.9777 73.9631 31.1816 73.5897 31.1816C73.2373 31.1816 73.1047 31.0515 72.8639 30.4328C72.7697 30.1902 72.5847 30.0777 72.3439 30.0777C71.9915 30.0777 71.7123 30.359 71.5623 30.809C71.4331 31.1851 71.3948 31.5402 71.3948 32.4613V33.1574C71.3948 34.1137 71.3948 34.1137 71.4331 34.2473C71.489 34.4547 71.489 34.4336 71.8798 34.7148C72.1032 34.866 72.2148 35.0699 72.2148 35.3336C72.2148 35.7273 71.9915 35.9734 71.5623 36.0473C71.4331 36.0473 71.4331 36.0648 70.463 36.0648H68.9555C67.8947 36.0648 67.9121 36.0648 67.7062 36.0086C67.612 35.9805 67.5736 35.9312 67.434 35.9312C67.2526 35.9312 66.9071 36.3109 65.6962 36.3109C64.8028 36.3109 64.2061 36.0859 63.6861 35.5023C62.6602 36.1211 61.9727 36.3109 60.856 36.3109C59.0135 36.3109 57.8584 35.2984 57.8584 33.7199C57.8584 31.8637 59.2369 30.7351 61.4528 30.7351C61.5819 30.7351 61.5644 30.7527 62.067 30.7527L62.0111 30.5453L61.8995 30.1902C61.7529 29.6664 61.3969 29.4027 60.8386 29.4027C60.2977 29.4027 60.0569 29.5328 59.3101 30.0777C59.1985 30.1516 59.0868 30.1902 58.9926 30.1902C58.675 30.1902 58.3784 29.8351 58.3784 29.4027C58.3784 29.0265 58.6576 28.6504 59.1985 28.2566C59.9069 27.7504 60.8211 27.5043 61.9169 27.5043C63.1836 27.5043 64.1712 27.8418 64.6737 28.4992C64.8412 28.7242 65.1588 29.3816 65.2879 29.8141L66.2755 33.2488C66.6663 34.5426 66.921 34.7887 67.5213 34.7887C67.9505 34.7887 68.0273 34.3562 68.0273 33.1574V31.0551C68.0273 30.2113 67.9889 30.1551 67.6748 29.8914C67.3014 29.6101 67.2107 29.4976 67.2107 29.2164C67.2107 28.8578 67.3782 28.7101 68.0307 28.464L70.1559 27.6941C70.5468 27.5254 70.5642 27.5078 70.7143 27.5078C71.0702 27.5078 71.2726 27.6765 71.3494 28.014C71.4052 28.1828 71.3878 28.2391 71.4052 28.8226L71.5727 28.6152C72.2811 27.789 72.7662 27.5078 73.6421 27.5078ZM77.561 23.6195C78.5346 23.6195 79.3267 24.4176 79.3267 25.3984C79.3267 26.3793 78.5346 27.1773 77.561 27.1773C76.5873 27.1773 75.7987 26.3793 75.7987 25.3984C75.7987 24.4176 76.5908 23.6195 77.561 23.6195ZM79.2499 28.9351C79.2499 28.2777 79.2325 28.014 79.1383 27.8664C79.0092 27.6238 78.8207 27.5113 78.5415 27.5113C78.4124 27.5113 78.3008 27.5113 78.0216 27.6414L75.8999 28.4676C75.2857 28.7101 75.0624 28.9 75.0624 29.1812C75.0624 29.4238 75.1915 29.6312 75.4741 29.8176C75.865 30.0601 75.9034 30.1937 75.9034 31.1113V33.1574C75.9034 34.3598 75.9034 34.3949 75.6626 34.5461C75.1426 34.9223 75.0833 35.0137 75.0833 35.3336C75.0833 35.6887 75.2508 35.9137 75.5858 36.0086C75.7917 36.0648 75.7708 36.0648 76.8351 36.0648H78.3252C79.2918 36.0648 79.2918 36.0473 79.4244 36.0473C79.8536 35.9734 80.077 35.7273 80.077 35.3336C80.077 35.0699 79.9653 34.866 79.742 34.7148C79.3511 34.4336 79.3511 34.4512 79.2953 34.2473C79.2569 34.1172 79.2569 34.1172 79.2569 33.1609V28.9351H79.2499ZM84.5402 27.7504V25.743C84.5402 25.293 84.5402 25.2543 84.4635 25.1031C84.3692 24.9168 84.1843 24.8219 83.9435 24.8219C83.6469 24.8219 83.4026 24.9519 83.0118 25.3492L80.3282 28.014C79.9583 28.3902 79.8257 28.6328 79.8257 28.9351C79.8257 29.3465 80.0491 29.5539 80.4783 29.5539H81.1309V32.5562C81.1309 33.0238 81.1309 33.3437 81.0017 34.0012C80.9459 34.2437 80.9459 34.5074 80.9459 34.641C80.9459 35.6922 81.9684 36.3109 83.7586 36.3109C85.4545 36.3109 86.6445 35.6535 86.6445 34.7535C86.6445 34.4336 86.4595 34.191 86.1804 34.191C86.1071 34.191 86.0512 34.191 86.0303 34.2086C85.5662 34.4512 85.4894 34.4336 85.3045 34.4336C84.9869 34.4336 84.7636 34.3211 84.6345 34.0961C84.5577 33.9449 84.5402 33.7199 84.5402 33.0625V29.5539H85.451C85.7302 29.5539 85.9361 29.3676 86.0478 28.9914C86.2536 28.1652 86.2711 28.1828 86.2711 28.0914C86.2711 27.8101 86.1594 27.7539 85.6395 27.7539H84.5402V27.7504ZM92.3256 32.6301L91.4672 30.2676C91.2997 29.8351 91.2613 29.6664 91.2613 29.5187C91.2613 29.3113 91.3171 29.2551 91.5405 29.1074C91.7638 28.9387 91.8755 28.7312 91.8755 28.4887C91.8755 28.2074 91.7463 28 91.4846 27.8699C91.2613 27.7961 90.9263 27.7574 90.2353 27.7574H87.8519C87.0144 27.7574 86.5852 28 86.5852 28.5062C86.5852 28.7488 86.7143 28.9562 86.9934 29.125C87.5134 29.4449 87.6076 29.6312 87.9636 30.6086L90.2353 36.7644C89.9562 37.1969 89.7712 37.3269 89.4711 37.3269C89.1919 37.3269 88.986 37.1969 88.8185 36.9156C88.5394 36.448 88.5568 36.448 88.501 36.3918C88.316 36.1492 88.0927 36.0367 87.8135 36.0367C87.5169 36.0367 87.2552 36.2055 87.161 36.4515C87.1051 36.6027 87.0842 36.6765 87.0842 37.109V37.8789C87.0842 38.7789 87.5867 39.0812 89.171 39.0812C91.5719 39.0812 92.3919 38.1988 93.697 34.3703L95.0022 30.4855C95.3023 29.5855 95.3372 29.5117 95.7664 29.1355C96.1189 28.8543 96.1747 28.7594 96.1747 28.4781C96.1747 27.9719 95.8048 27.7644 94.8521 27.7644H93.8471C92.8979 27.7644 92.542 27.9719 92.542 28.4957C92.542 28.7594 92.6536 28.9633 92.877 29.0969C93.1945 29.3043 93.2294 29.3394 93.2294 29.5469C93.2294 29.7156 93.1527 30.1094 93.0235 30.468L92.3256 32.6301Z" fill="white"/>
<path d="M43.3695 14.2082C42.2423 14.2082 41.3281 15.0836 41.3281 16.1629C41.3281 17.2598 42.2249 18.1176 43.3695 18.1176C44.0709 18.1176 44.7933 17.8434 45.3516 17.3688L45.4703 17.2668L46.566 19.6996L46.5067 19.7594C45.4598 20.7684 43.7115 20.8457 43.202 20.8457C40.344 20.8457 38.3479 18.9227 38.3479 16.1664C38.3479 13.4102 40.344 11.4871 43.202 11.4871C44.535 11.4871 45.7704 11.8949 46.5067 12.5734L46.5695 12.6297L45.4737 15.0836L45.3551 14.9781C44.7968 14.4859 44.0744 14.2082 43.3695 14.2082ZM52.8125 11.4801C51.9086 11.4801 51.0676 11.8141 50.4604 12.4047V8.40391H47.4803V20.5645H50.4604V16.0223C50.4604 14.5879 51.4201 14.2047 51.9889 14.2047C52.5612 14.2047 53.2417 14.4719 53.2417 15.7445V20.5645H56.2218V15.4703C56.2218 12.7141 54.5084 11.4801 52.8125 11.4801ZM57.4467 20.5645H60.4269V11.7578H57.4467V20.5645ZM58.9368 7.33164C57.9632 7.33164 57.171 8.12969 57.171 9.11055C57.171 10.0914 57.9632 10.8895 58.9368 10.8895C59.9104 10.8895 60.7025 10.0914 60.7025 9.11055C60.7025 8.12969 59.9104 7.33164 58.9368 7.33164ZM61.6517 20.5645H64.6319V8.40391H61.6517V20.5645ZM70.2572 18.1176C71.2517 18.1176 72.0613 17.2422 72.0613 16.1629C72.0613 15.0836 71.2517 14.2082 70.2572 14.2082C69.2626 14.2082 68.453 15.0836 68.453 16.1629C68.453 17.2387 69.2626 18.1176 70.2572 18.1176ZM72.0613 8.40391H75.0415V20.5645H72.0613V19.9844C71.3878 20.5469 70.5817 20.8422 69.7093 20.8422C67.3747 20.8422 65.4729 18.7434 65.4729 16.1629C65.4729 13.5824 67.3712 11.4836 69.7093 11.4836C70.5817 11.4836 71.3878 11.7789 72.0613 12.3414V8.40391ZM79.2465 13.1992V11.7578H76.2663V20.568H79.2465V17.1156C79.2465 15.8324 80.0316 14.9605 80.8063 14.7602C81.0785 14.6828 81.773 14.5316 82.3802 14.7566L82.5372 14.8164V11.4801L82.4116 11.4871C80.9459 11.5785 79.8607 12.1691 79.2465 13.1992ZM87.5693 13.9059C86.5677 13.9059 86.1001 14.7074 86.0129 15.3227H89.1291C89.0593 14.6898 88.7034 13.9059 87.5693 13.9059ZM87.7089 11.4801C90.4866 11.4801 92.0814 13.1852 92.0814 16.1594C92.0814 16.3633 92.0639 16.6516 92.0465 16.859L92.0395 16.968H86.0164C86.2851 17.6887 87.0563 18.2055 88.0194 18.2055C88.9093 18.2055 89.8689 17.9066 90.6157 17.6008L90.7309 17.5551L91.5544 19.9563L91.4777 20.009C91.4288 20.0441 90.2214 20.8422 88.1032 20.8422C83.4271 20.8422 83.0607 17.2598 83.0607 16.1629C83.0607 13.3188 84.8857 11.4801 87.7089 11.4801ZM98.1359 11.4801C97.2321 11.4801 96.3911 11.8141 95.7839 12.4047V11.7578H92.8037V20.568H95.7839V16.0223C95.7839 14.5879 96.7435 14.2047 97.3123 14.2047C97.8846 14.2047 98.5686 14.4719 98.5686 15.7445V20.5645H101.549V15.4703C101.545 12.7141 99.8354 11.4801 98.1359 11.4801ZM108.092 14.7672L107.868 14.7355C107.338 14.6582 106.598 14.5879 106.692 14.1941C106.745 13.9691 107.394 13.8988 108.008 13.9129C109.25 13.941 110.517 14.5316 110.528 14.5387L110.653 14.602L111.351 12.2465L111.267 12.2008C109.969 11.4871 108.033 11.4766 107.952 11.4766C104.344 11.4766 103.803 13.3715 103.803 14.5C103.803 15.6426 104.438 16.982 107.363 17.3547C108.664 17.5059 109.198 17.7449 109.198 18.0227C109.198 18.0684 109.181 18.1035 109.142 18.1387C108.936 18.3285 108.259 18.3883 107.324 18.3004C107.307 18.2969 105.447 18.0051 104.452 17.3055L104.323 17.2141L103.51 19.6926L103.58 19.7418C103.639 19.7875 105.08 20.8352 107.527 20.8352C110.371 20.8352 112 19.682 112 17.6746C112 15.8852 110.866 15.0801 108.092 14.7672ZM104.941 9.11055C104.941 8.69219 104.791 8.3125 104.55 8.00664C104.536 7.98555 104.518 7.96797 104.501 7.94688C104.466 7.90469 104.431 7.8625 104.389 7.82383C104.327 7.76055 104.257 7.7043 104.183 7.65156C104.173 7.64453 104.166 7.6375 104.159 7.63047C104.11 7.59883 104.054 7.5707 103.998 7.54258C103.751 7.4125 103.475 7.32812 103.178 7.32812C102.316 7.32812 101.601 7.95391 101.448 8.77656C101.423 8.89609 101.409 9.02266 101.409 9.14922C101.409 10.1125 102.111 10.8754 103.049 10.9422C102.746 11.2164 102.341 11.3781 101.999 11.4168V12.6402C103.144 12.5523 104.798 11.7227 104.944 9.37773C104.944 9.28633 104.941 9.20547 104.941 9.11055Z" fill="white"/>
<path d="M97.1763 27.7785H98.8618V28.232H98.2441V30.1586H97.7939V28.232H97.1763V27.7785Z" fill="white"/>
<path d="M101.559 27.7785L101.898 30.1551H101.42L101.235 28.6012L100.617 30.1551H100.38L99.7621 28.5976L99.5667 30.1551H99.0886L99.4271 27.7785H99.8633L100.488 29.3254L101.113 27.7785H101.559Z" fill="white"/>
</svg>
