<svg width="172" height="45" viewBox="0 0 172 45" fill="none" xmlns="http://www.w3.org/2000/svg">
<path d="M17.5984 12.2556C16.1781 10.4837 12.8909 10.7685 11.2647 10.8599C8.9825 10.9865 5.93953 11.5103 4.98337 11.7353C3.97486 11.9743 3.1897 12.224 2.31729 12.4841C1.63332 12.6845 0.0280814 13.0783 1.12034 14.038C1.65774 14.5091 2.31729 14.9275 3.40256 15.6728C4.57159 16.4743 6.20474 17.5396 6.94455 18.0599C7.55174 18.4853 9.00344 19.5611 9.57225 20.1482C10.9751 19.663 11.3694 20.2853 11.502 21.0236C11.5858 21.4665 11.837 21.2697 12.0115 21.1572C12.5664 20.8302 13.4143 20.3591 13.882 20.0322C14.1262 14.9661 17.5984 12.2556 17.5984 12.2556Z" fill="white"/>
<path d="M18.9627 11.0426C20.8122 9.63984 22.5501 9.15469 23.4504 9.07734C24.3228 9.00352 24.923 9.34453 25.2057 9.87539C26.2002 11.7809 24.4519 11.7527 23.9389 11.018C23.747 10.7473 23.2236 10.8562 22.7874 11.0355C21.9289 11.3941 20.8785 11.8336 19.8177 12.7125C20.2957 14.6883 20.1806 18.116 15.7697 21.2062C15.6161 25.4637 18.9139 25.5234 19.7932 25.4496C22.1732 25.2527 25.5895 23.4703 29.4212 20.9039V0H0V11.3625C2.31712 10.5117 7.63184 9.20039 11.5996 9.0457C13.8085 8.95781 16.9457 8.86641 18.9627 11.0426Z" fill="white"/>
<path d="M19.3884 27.1793C16.7084 27.2812 14.4611 26.2828 14.0318 22.3207C14.0318 22.3207 13.32 22.7039 12.4441 23.1363C12.1649 23.2629 12.1091 23.3719 12.3778 23.7691C14.7751 27.3797 14.9426 30.4629 14.9775 31.4121C15.0264 32.8148 15.0438 33.9012 14.9426 34.5727C14.6495 36.5449 13.4735 36.4043 12.4092 35.1633C12.0811 34.7977 11.125 33.2754 10.6678 31.4016C10.3119 29.9426 9.90709 27.2813 9.91407 25.3688C9.92454 24.5039 9.69422 24.6516 9.48135 24.4547C9.1289 24.1418 8.84275 23.4668 9.21265 22.9746C9.45692 22.6723 9.73261 22.7566 9.1952 22.1871C7.23751 20.127 3.82116 18.0668 3.18604 17.6836C2.82661 17.4691 1.2458 16.5621 0 15.627V45H29.4246V23.1785C25.4046 25.6852 21.6113 27.0949 19.3884 27.1793Z" fill="white"/>
<path d="M12.7025 32.235C12.8247 32.5162 13.882 34.5518 13.4074 30.3084C13.1318 27.7701 11.6068 25.7627 11.6068 25.7627C11.5893 27.7104 12.2489 31.1873 12.7025 32.235Z" fill="white"/>
<path d="M18.3797 13.9355C17.1409 15.0113 16.0312 17.3949 15.9858 18.5199C18.2471 16.8324 18.3797 13.9355 18.3797 13.9355Z" fill="white"/>
<g clipPath="url(#clip0_260_23526)">
<path d="M42.3674 24.3584H39.1006V37.7027H42.3674V24.3584Z" fill="white"/>
<path d="M85.0406 27.9306C84.0457 27.9306 83.1213 28.2902 82.4514 28.9321V28.2284H79.1846V37.702H82.4514V32.8144C82.4514 31.2677 83.509 30.8539 84.1358 30.8539C84.7625 30.8539 85.5185 31.1439 85.5185 32.5166V37.702H88.7854V32.2189C88.7854 29.2531 86.9052 27.9268 85.0406 27.9268V27.9306Z" fill="white"/>
<path d="M93.9007 24.0605C91.2214 24.0605 90.7944 26.1447 90.7631 28.2289H89.5566V31.1561H90.7631V37.7026H94.03V31.1561H96.1413V28.2289H94.03C94.03 27.7495 94.0535 27.3086 94.3394 27.0766C94.6254 26.8485 95.162 26.8176 95.9885 26.9838L96.1413 27.0148V24.3931L96.0551 24.366C95.4362 24.1688 94.9113 24.0605 93.9046 24.0605H93.9007Z" fill="white"/>
<path d="M103.894 28.8587C103.153 28.2516 102.264 27.9307 101.304 27.9307C98.7426 27.9307 96.6548 30.1889 96.6548 32.9652C96.6548 35.7416 98.7387 37.9998 101.304 37.9998C102.264 37.9998 103.153 37.6788 103.894 37.0717V37.702H107.16V28.2284H103.894V28.8587ZM101.908 35.0765C100.815 35.0765 99.9216 34.1291 99.9216 32.9691C99.9216 31.809 100.811 30.8617 101.908 30.8617C103.004 30.8617 103.894 31.809 103.894 32.9691C103.894 34.1291 103.004 35.0765 101.908 35.0765Z" fill="white"/>
<path d="M114.234 27.9306C113.24 27.9306 112.315 28.2902 111.645 28.9321V28.2284H108.378V37.702H111.645V32.8144C111.645 31.2677 112.703 30.8539 113.33 30.8539C113.956 30.8539 114.712 31.1439 114.712 32.5166V37.702H117.979V32.2189C117.979 29.2531 116.099 27.9268 114.234 27.9268V27.9306Z" fill="white"/>
<path d="M123.295 24.9531H120.028V28.2283H118.821V31.1554H120.028V34.9565C120.028 36.8628 121.089 37.9997 122.868 37.9997C123.769 37.9997 124.372 37.9146 125.018 37.6942L125.104 37.6671V35.0493L124.955 35.0764C124.199 35.2078 123.788 35.1885 123.577 35.0145C123.342 34.8212 123.295 34.3881 123.295 33.7114V31.1554H125.104V28.2283H123.295V24.9531Z" fill="white"/>
<path d="M43.4291 20.9127C43.9109 20.8315 44.1616 20.5609 44.1616 20.1084C44.1616 19.7991 44.0558 19.6754 43.8051 19.4472C43.2842 19.0953 43.2411 19.0567 43.2411 18.4805V13.8636H44.0127C44.7452 13.8636 44.8471 13.7824 44.9333 13.2874L45.0586 12.5876C45.1213 12.2589 45.1017 12.2163 45.1017 12.1545C45.1017 11.8877 44.9137 11.8026 44.33 11.8026H43.245C43.1823 11.4314 42.9747 11.1027 42.5987 10.7934C41.6586 9.96974 41.5763 9.846 41.5763 9.43226C41.5763 9.08038 41.827 8.81357 42.16 8.81357C42.5556 8.81357 42.7436 9.04171 42.7436 9.49413C42.7436 9.72227 42.6809 9.86534 42.6809 10.0316C42.6809 10.2791 43.1001 10.4454 43.766 10.4454C44.7061 10.4454 45.4582 9.78413 45.4582 8.98371C45.4582 7.74634 44.1224 7.00392 42.0346 7.00392C39.7118 7.00005 38.3565 7.97061 38.3565 9.55599C38.3565 10.1553 38.5249 10.5266 39.0459 11.1646C39.2966 11.4739 39.3396 11.5551 39.4219 11.8026H38.6072C38.2115 11.8026 38 11.9263 38 12.1545C38 12.2589 38.0196 12.3826 38.0431 12.5682L38.1488 13.1869C38.2546 13.7863 38.3369 13.8675 38.9205 13.8675H39.4219V17.7613C39.4219 19.0605 39.4219 19.0992 39.1516 19.2655C38.568 19.6792 38.5053 19.7798 38.5053 20.1316C38.5053 20.4835 38.6933 20.731 39.0694 20.8741C39.2378 20.9359 39.3005 20.9359 40.4678 20.9359C43.2019 20.9359 43.2646 20.9166 43.433 20.9166L43.4291 20.9127Z" fill="white"/>
<path d="M50.2685 21.1992C53.4414 21.1992 55.5723 19.4282 55.5723 16.7253C55.5723 15.5498 55.1962 14.4787 54.4677 13.5507C53.4022 12.2128 51.9842 11.5322 50.2294 11.5322C47.2249 11.5322 44.9883 13.6976 44.9883 16.5822C44.9883 19.4669 47.0134 21.1992 50.2685 21.1992ZM49.4969 13.6164C50.0178 13.6164 50.3939 14.0302 50.8757 15.1631C51.3575 16.3154 51.6278 17.286 51.6278 17.924C51.6278 18.6471 51.3144 19.0995 50.7934 19.0995C50.3116 19.0995 49.7906 18.6046 49.4577 17.8003C49.019 16.7911 48.7056 15.5343 48.7056 14.7687C48.7056 14.0031 48.9759 13.6164 49.5008 13.6164H49.4969Z" fill="white"/>
<path d="M67.4371 19.4708C66.9553 19.1614 66.9161 19.0377 66.5792 17.6147L65.7018 14.2158C65.2435 12.4216 64.323 11.5361 62.9442 11.5361C62.1294 11.5361 61.3147 11.888 60.6683 12.6072C60.6488 12.1316 60.6253 11.9885 60.5234 11.8455C60.3785 11.6405 60.1905 11.5361 59.9163 11.5361C59.7478 11.5361 59.6225 11.5361 59.2895 11.6792L56.6181 12.6072C56.1794 12.7503 55.9482 13.021 55.9482 13.369C55.9482 13.6783 56.0109 13.7827 56.4927 14.0921C56.8061 14.3202 56.8688 14.5252 56.8688 15.3681V17.7385C56.8688 19.057 56.8688 19.0996 56.5985 19.262C56.0148 19.6757 55.9522 19.7569 55.9522 20.1049C55.9522 20.4955 56.1402 20.7661 56.5162 20.8667C56.7473 20.9285 56.7238 20.9285 57.9146 20.9285H59.6264C60.6918 20.9285 60.6918 20.9092 60.8564 20.9092C61.3382 20.828 61.5889 20.5573 61.5889 20.1243C61.5889 19.8342 61.4635 19.61 61.2128 19.4437C60.9203 19.2375 60.7532 19.0583 60.7114 18.9062C60.6488 18.8018 60.6683 18.7825 60.6683 17.7307V15.7316C60.6683 14.6412 60.8133 14.2699 61.252 14.2699C61.6084 14.2699 62.0824 14.6837 62.478 16.1453C63.0421 18.2489 63.1048 18.5157 63.1048 18.825C63.1048 19.0918 63.0225 19.2156 62.7483 19.4437C62.435 19.6718 62.3527 19.8149 62.3527 20.1243C62.3527 20.7004 62.5486 20.9285 63.6532 20.9285H66.2424C67.4097 20.9285 67.8092 20.7236 67.8092 20.1243C67.8092 19.8149 67.7465 19.6912 67.4332 19.463L67.4371 19.4708Z" fill="white"/>
<path d="M78.1621 19.3857C77.743 19.0764 77.7234 19.0764 77.7234 17.8004V8.50461C77.7234 7.82406 77.7038 7.63845 77.6412 7.47605C77.5354 7.20924 77.2847 7.04297 76.9713 7.04297C76.7402 7.04297 76.4073 7.12417 76.1566 7.27111L73.9003 8.48528C73.1052 8.87582 73.0425 8.85649 73.0425 9.3321C73.0425 9.59891 73.1482 9.80772 73.3363 9.93146C73.9003 10.322 73.9003 10.2833 73.9003 10.9407V11.9693C73.254 11.6599 72.6899 11.5362 72.0436 11.5362C69.5367 11.5362 67.5742 13.8253 67.5742 16.7911C67.5742 19.3471 69.3291 21.2031 71.7068 21.2031C72.5215 21.2031 73.1247 20.975 73.9003 20.337C73.9199 20.8513 74.1941 21.1219 74.7151 21.1219C74.86 21.1219 74.9658 21.1219 75.0285 21.1026L77.7234 20.8358C78.3697 20.7739 78.6009 20.5458 78.6009 20.1127C78.6009 19.8652 78.4559 19.6177 78.1621 19.3896V19.3857ZM72.8819 18.6627C72.0671 18.6627 71.5462 17.5916 71.5462 15.9636C71.5462 14.4595 71.9849 13.5933 72.737 13.5933C73.489 13.5933 73.9043 14.4595 73.9043 16.2111C73.9043 17.9628 73.6105 18.6627 72.8819 18.6627Z" fill="white"/>
<path d="M78.918 18.3571C78.918 20.0895 80.2106 21.2031 82.2789 21.2031C83.5323 21.2031 84.304 20.9982 85.4517 20.3176C86.0353 20.9556 86.7052 21.2031 87.7079 21.2031C89.0633 21.2031 90.1287 20.7081 90.1287 20.0469C90.1287 19.7569 89.9838 19.5945 89.6704 19.5326C89.0006 19.4708 88.793 19.2658 88.3543 17.8429L87.2457 14.0727C87.1008 13.5971 86.7443 12.8779 86.5563 12.6304C85.9923 11.9073 84.8876 11.5361 83.4657 11.5361C82.2358 11.5361 81.2095 11.8029 80.4182 12.3598C79.8111 12.7928 79.4977 13.2066 79.4977 13.6165C79.4977 14.0921 79.8307 14.4826 80.1871 14.4826C80.2929 14.4826 80.4182 14.4401 80.5436 14.3589C81.3779 13.7595 81.6482 13.6165 82.2553 13.6165C82.8625 13.6165 83.2777 13.9065 83.4461 14.4826L83.5715 14.8732L83.6342 15.1013C83.0701 15.1013 83.0897 15.082 82.9448 15.082C80.4613 15.082 78.9141 16.3193 78.9141 18.3571H78.918ZM83.7909 19.3586C83.121 19.3586 82.5491 18.6278 82.5491 17.7114C82.5491 16.9806 82.9565 16.5088 83.5989 16.5088C83.7673 16.5088 83.9319 16.5552 84.1003 16.6287L84.4098 17.8081C84.5782 18.2798 84.5782 18.3958 84.5782 18.6085C84.5782 19.057 84.2452 19.3625 83.7909 19.3625V19.3586Z" fill="white"/>
<path d="M113.443 16.7292C113.443 15.5537 113.067 14.4826 112.335 13.5546C111.269 12.2167 109.851 11.5361 108.097 11.5361C105.092 11.5361 102.855 13.7015 102.855 16.5862C102.855 19.4708 104.881 21.2031 108.136 21.2031C111.391 21.2031 113.439 19.4321 113.439 16.7292H113.443ZM108.665 19.0996C108.183 19.0996 107.662 18.6046 107.329 17.8003C106.89 16.7911 106.577 15.5344 106.577 14.7688C106.577 14.0031 106.847 13.6165 107.368 13.6165C107.889 13.6165 108.265 14.0302 108.747 15.1632C109.229 16.3155 109.499 17.286 109.499 17.9241C109.499 18.6471 109.185 19.0996 108.665 19.0996Z" fill="white"/>
<path d="M136.668 11.5361C135.771 11.5361 134.936 11.8261 134.411 12.3211C134.306 11.7217 134.161 11.5361 133.679 11.5361C133.448 11.5361 133.428 11.5361 132.99 11.7024L130.631 12.5492C129.879 12.816 129.711 12.963 129.711 13.3961C129.711 13.7054 129.793 13.8291 130.275 14.1578C130.588 14.386 130.631 14.5716 130.631 15.4571V20.6927C130.631 22.0112 130.631 22.0538 130.361 22.2162C129.778 22.6299 129.715 22.7305 129.715 23.0823C129.715 23.4729 129.903 23.7204 130.279 23.8248C130.51 23.8866 130.487 23.8866 131.677 23.8866H133.37C134.455 23.8866 134.455 23.8673 134.599 23.8673C135.081 23.7861 135.332 23.5154 135.332 23.0862C135.332 22.7962 135.207 22.5719 134.956 22.4057C134.517 22.0963 134.517 22.1157 134.455 21.8914C134.426 21.796 134.411 21.3977 134.411 20.6965V20.4916C135.207 20.9672 136.017 21.2147 136.856 21.2147C138.336 21.2147 139.276 20.7623 139.966 19.753C140.53 18.9294 140.824 17.8777 140.824 16.6016C140.824 13.5507 139.175 11.5516 136.668 11.5516V11.5361ZM135.226 18.6665C134.662 18.6665 134.411 18.0053 134.411 16.4392C134.411 14.5445 134.893 13.5933 135.829 13.5933C136.519 13.5933 136.871 14.2119 136.871 15.4687C136.871 17.201 136.1 18.6626 135.222 18.6626L135.226 18.6665Z" fill="white"/>
<path d="M146.676 11.5361C143.672 11.5361 141.435 13.7015 141.435 16.5862C141.435 19.4708 143.46 21.2031 146.715 21.2031C149.97 21.2031 152.019 19.4321 152.019 16.7292C152.019 15.5537 151.643 14.4826 150.911 13.5546C149.845 12.2167 148.427 11.5361 146.672 11.5361H146.676ZM147.24 19.0996C146.758 19.0996 146.237 18.6046 145.904 17.8003C145.466 16.7911 145.152 15.5344 145.152 14.7688C145.152 14.0031 145.423 13.6165 145.944 13.6165C146.465 13.6165 146.841 14.0302 147.322 15.1632C147.804 16.3155 148.075 17.286 148.075 17.9241C148.075 18.6471 147.761 19.0996 147.24 19.0996Z" fill="white"/>
<path d="M162.681 19.4475C162.2 19.1189 162.18 19.0763 162.16 18.6858V13.0789C162.16 12.2553 162.16 12.1741 162.055 11.946C161.949 11.6792 161.722 11.5322 161.408 11.5322C161.177 11.5322 161.115 11.5516 160.637 11.7372L158.279 12.584C157.609 12.8315 157.464 12.9745 157.464 13.3883C157.464 13.6358 157.57 13.8214 157.777 13.9644C158.259 14.2931 158.259 14.2738 158.322 14.5019C158.365 14.645 158.384 15.2637 158.384 16.3154C158.384 18.2334 158.259 18.6664 157.675 18.6664C157.049 18.6664 156.626 18.1522 156.626 16.0912V13.0828C156.626 12.2785 156.645 12.236 156.582 12.0929C156.5 11.7217 156.269 11.5361 155.873 11.5361C155.685 11.5361 155.478 11.5786 155.078 11.7217L153.12 12.4835C152.45 12.7116 152.203 12.9165 152.203 13.3071C152.203 13.5546 152.348 13.7827 152.622 14.007C153.041 14.3163 153.081 14.3782 153.104 14.8113L153.124 15.3487V17.7616C153.124 18.7708 153.186 19.2039 153.374 19.6989C153.813 20.7081 154.71 21.2031 156.069 21.2031C157.072 21.2031 157.593 20.9556 158.282 20.132V20.3176C158.282 20.5844 158.345 20.7506 158.451 20.8125C158.557 20.9169 158.576 20.9169 159.391 20.9362H161.103C162.188 20.9362 162.188 20.9169 162.333 20.9169C162.815 20.8357 163.065 20.565 163.065 20.1126C163.065 19.8651 162.94 19.637 162.689 19.4514L162.681 19.4475Z" fill="white"/>
<path d="M170.602 11.5361C169.618 11.5361 169.078 11.8454 168.263 12.7502L168.075 12.9784C168.055 12.3403 168.075 12.2785 168.012 12.0929C167.93 11.7217 167.699 11.5361 167.303 11.5361C167.135 11.5361 167.115 11.5554 166.677 11.741L164.295 12.5878C163.563 12.8546 163.375 13.0209 163.375 13.4114C163.375 13.7208 163.48 13.8445 163.895 14.1539C164.252 14.4439 164.291 14.5057 164.291 15.4299V17.7384C164.291 19.0569 164.291 19.0995 164.021 19.2619C163.437 19.6756 163.375 19.7568 163.375 20.1048C163.375 20.4954 163.606 20.7661 163.939 20.8666C164.17 20.9285 164.146 20.9285 165.337 20.9285H167.029C168.114 20.9285 168.114 20.9091 168.259 20.9091C168.741 20.8279 168.992 20.5573 168.992 20.1242C168.992 19.8342 168.866 19.6099 168.616 19.4436C168.177 19.1343 168.177 19.1536 168.114 18.9293C168.085 18.834 168.071 18.4357 168.071 17.7345V16.9728C168.071 15.9635 168.114 15.573 168.259 15.1592C168.428 14.6643 168.741 14.3549 169.137 14.3549C169.407 14.3549 169.618 14.4787 169.72 14.7455C169.99 15.426 170.139 15.5691 170.535 15.5691C170.954 15.5691 171.181 15.341 171.35 14.6836L171.914 12.7038C171.976 12.5182 171.996 12.3519 171.996 12.2707C171.996 11.7951 171.495 11.5283 170.598 11.5283L170.602 11.5361Z" fill="white"/>
<path d="M48.4037 27.9658C45.3248 27.9658 43.3389 29.9301 43.3389 32.9656C43.3389 34.1372 43.7345 37.9653 48.8346 37.9653C51.1456 37.9653 52.4618 37.1108 52.5166 37.076L52.5989 37.0218L51.698 34.4581L51.5726 34.5084C50.7579 34.8332 49.712 35.1503 48.7405 35.1503C47.6908 35.1503 46.8525 34.5974 46.5587 33.8279H53.1238L53.1316 33.7119C53.1473 33.4915 53.1708 33.1821 53.1708 32.9656C53.1708 29.7871 51.4316 27.9658 48.4037 27.9658ZM48.2509 30.5566C49.4887 30.5566 49.8765 31.3957 49.9509 32.0685H46.5548C46.6488 31.415 47.162 30.5566 48.2509 30.5566Z" fill="white"/>
<path d="M73.4339 28.001C70.3551 28.001 68.3691 29.9653 68.3691 33.0007C68.3691 34.1724 68.7648 38.0005 73.8648 38.0005C76.1759 38.0005 77.4921 37.1459 77.5469 37.1111L77.6292 37.057L76.7282 34.4933L76.6029 34.5436C75.7881 34.8684 74.7423 35.1855 73.7708 35.1855C72.721 35.1855 71.8828 34.6325 71.589 33.863H78.1541L78.1619 33.747C78.1776 33.5266 78.2011 33.2173 78.2011 33.0007C78.2011 29.8222 76.4619 28.001 73.4339 28.001ZM73.2812 30.5917C74.519 30.5917 74.9068 31.4308 74.9812 32.1036H71.5851C71.6791 31.4501 72.1922 30.5917 73.2812 30.5917Z" fill="white"/>
<path d="M58.8625 31.4768L58.6157 31.442C58.036 31.3608 57.233 31.2835 57.3309 30.8659C57.3896 30.6223 58.0947 30.5527 58.7645 30.5681C60.1199 30.5991 61.4987 31.2293 61.5143 31.2371L61.6514 31.3028L62.4153 28.7855L62.3252 28.7353C60.9111 27.9696 58.7998 27.9619 58.7097 27.9619C54.773 27.9619 54.1854 29.9842 54.1854 31.1907C54.1854 32.3971 54.8749 33.8433 58.0673 34.2416C59.4853 34.404 60.0689 34.6592 60.0689 34.9531C60.0689 34.9995 60.0493 35.0381 60.0063 35.0768C59.783 35.2779 59.0427 35.3436 58.0242 35.2508C58.0046 35.2508 55.9756 34.9376 54.8944 34.1874L54.7534 34.0908L53.8682 36.7395L53.9426 36.7936C54.0092 36.84 55.5799 37.9614 58.2436 37.9614C61.342 37.9614 63.1203 36.7318 63.1203 34.5857C63.1203 32.6678 61.8825 31.8055 58.8585 31.473L58.8625 31.4768Z" fill="white"/>
<path d="M131.023 31.4768L130.776 31.442C130.197 31.3608 129.394 31.2835 129.492 30.8659C129.55 30.6223 130.255 30.5527 130.925 30.5681C132.28 30.5991 133.659 31.2293 133.675 31.2371L133.812 31.3028L134.576 28.7855L134.486 28.7353C133.072 27.9696 130.96 27.9619 130.87 27.9619C126.934 27.9619 126.346 29.9842 126.346 31.1907C126.346 32.3971 127.036 33.8433 130.228 34.2416C131.646 34.404 132.23 34.6592 132.23 34.9531C132.23 34.9995 132.21 35.0381 132.167 35.0768C131.944 35.2779 131.203 35.3436 130.185 35.2508C130.165 35.2508 128.136 34.9376 127.055 34.1874L126.914 34.0908L126.029 36.7395L126.103 36.7936C126.17 36.84 127.741 37.9614 130.404 37.9614C133.503 37.9614 135.281 36.7318 135.281 34.5857C135.281 32.6678 134.043 31.8055 131.019 31.473L131.023 31.4768Z" fill="white"/>
<path d="M125.312 19.4708C124.83 19.1614 124.791 19.0377 124.454 17.6147L123.577 14.2158C123.119 12.4216 122.198 11.5361 120.819 11.5361C120.004 11.5361 119.19 11.888 118.543 12.6072C118.524 12.1316 118.5 11.9885 118.398 11.8455C118.253 11.6405 118.065 11.5361 117.791 11.5361C117.623 11.5361 117.497 11.5361 117.165 11.6792L114.493 12.6072C114.054 12.7503 113.823 13.021 113.823 13.369C113.823 13.6783 113.886 13.7827 114.368 14.0921C114.681 14.3202 114.744 14.5252 114.744 15.3681V17.7385C114.744 19.057 114.744 19.0996 114.473 19.262C113.89 19.6757 113.827 19.7569 113.827 20.1049C113.827 20.4955 114.015 20.7661 114.391 20.8667C114.622 20.9285 114.599 20.9285 115.79 20.9285H117.501C118.567 20.9285 118.567 20.9092 118.731 20.9092C119.213 20.828 119.464 20.5573 119.464 20.1243C119.464 19.8342 119.339 19.61 119.088 19.4437C118.795 19.2375 118.628 19.0583 118.586 18.9062C118.524 18.8018 118.543 18.7825 118.543 17.7307V15.7316C118.543 14.6412 118.688 14.2699 119.127 14.2699C119.483 14.2699 119.957 14.6837 120.353 16.1453C120.917 18.2489 120.98 18.5157 120.98 18.825C120.98 19.0918 120.898 19.2156 120.623 19.4437C120.31 19.6718 120.228 19.8149 120.228 20.1243C120.228 20.7004 120.424 20.9285 121.528 20.9285H124.117C125.285 20.9285 125.684 20.7236 125.684 20.1243C125.684 19.8149 125.622 19.6912 125.308 19.463L125.312 19.4708Z" fill="white"/>
<path d="M101.704 17.7378C101.704 18.439 101.718 18.8373 101.747 18.9327C101.81 19.1608 101.81 19.1376 102.248 19.447C102.499 19.6132 102.624 19.8375 102.624 20.1275C102.624 20.5606 102.374 20.8274 101.892 20.9086C101.747 20.9086 101.747 20.9279 100.662 20.9279H98.9933C97.8025 20.9279 97.826 20.9279 97.5949 20.8661C97.2188 20.7617 97.0308 20.5142 97.0308 20.1237C97.0308 19.7718 97.0935 19.6712 97.6772 19.2575C97.9474 19.0912 97.9474 19.0526 97.9474 17.734V15.4874C97.9474 14.4782 97.9043 14.3351 97.4656 14.0644C97.1523 13.8595 97.0073 13.6313 97.0073 13.3645C97.0073 13.0552 97.258 12.8502 97.9474 12.5834L100.329 11.6747C100.642 11.5317 100.768 11.5317 100.913 11.5317C101.226 11.5317 101.434 11.6554 101.582 11.9222C101.688 12.0885 101.708 12.3746 101.708 13.0977V17.734L101.704 17.7378ZM99.8159 7.2666C98.7269 7.2666 97.8377 8.14049 97.8377 9.21933C97.8377 10.2982 98.723 11.1721 99.8159 11.1721C100.909 11.1721 101.794 10.2943 101.794 9.21933C101.794 8.14436 100.905 7.2666 99.8159 7.2666Z" fill="white"/>
<path d="M95.6753 11.8022C96.2589 11.8022 96.3843 11.8641 96.3843 12.1734C96.3843 12.2778 96.3647 12.2546 96.1336 13.1633C96.0082 13.5771 95.7771 13.782 95.4638 13.782H94.4414V17.6372C94.4414 18.3603 94.461 18.6039 94.5472 18.7701C94.6921 19.0176 94.9428 19.1414 95.2992 19.1414C95.5068 19.1414 95.593 19.1607 96.114 18.8939C96.1336 18.8745 96.1962 18.8745 96.2824 18.8745C96.5958 18.8745 96.8034 19.1414 96.8034 19.4932C96.8034 20.4831 95.4677 21.2024 93.5679 21.2024C91.5623 21.2024 90.4146 20.5218 90.4146 19.3695C90.4146 19.2264 90.4146 18.9364 90.4773 18.6696C90.6222 17.9465 90.6222 17.5985 90.6222 17.0842V13.7859H89.8897C89.4079 13.7859 89.1572 13.5577 89.1572 13.1053C89.1572 12.7766 89.3022 12.506 89.7213 12.0961L92.7257 9.16892C93.1644 8.73584 93.4347 8.59277 93.7676 8.59277C94.0379 8.59277 94.2495 8.69718 94.3513 8.90212C94.4336 9.06839 94.4336 9.10706 94.4336 9.602V11.8061H95.6635L95.6753 11.8022Z" fill="white"/>
<path d="M138.81 28.2592L139.19 30.8732H138.654L138.442 29.164L137.749 30.8732H137.483L136.789 29.1602L136.57 30.8732H136.033L136.413 28.2592H136.903L137.604 29.9606L138.305 28.2592H138.81ZM140.859 30.4401C141.122 30.4401 141.341 30.3511 141.517 30.1733L141.709 30.6257C141.599 30.7262 141.466 30.7997 141.31 30.8577C141.153 30.9118 141 30.9428 140.847 30.9428C140.46 30.9428 140.127 30.8074 139.848 30.5406C139.574 30.2738 139.433 29.949 139.433 29.5739C139.433 29.1988 139.57 28.874 139.848 28.6072C140.127 28.3404 140.456 28.2051 140.847 28.2051C141 28.2051 141.153 28.2321 141.31 28.2863C141.466 28.3404 141.595 28.4178 141.709 28.5144L141.517 28.9668C141.333 28.789 141.114 28.7039 140.859 28.7039C140.604 28.7039 140.393 28.789 140.213 28.9591C140.033 29.1292 139.946 29.3342 139.946 29.5778C139.946 29.8214 140.036 30.0263 140.213 30.1926C140.393 30.3627 140.608 30.4478 140.859 30.4478V30.4401Z" fill="white"/>
</g>
<defs>
<clipPath id="clip0_260_23526">
<rect width="134" height="31" fill="white" transform="translate(38 7)"/>
</clipPath>
</defs>
</svg>
