<svg width="28" height="27" viewBox="0 0 28 27" fill="none" xmlns="http://www.w3.org/2000/svg">
<path fill-rule="evenodd" clip-rule="evenodd" d="M2.86018 0.661642C1.91165 0.860891 1.00676 1.54525 0.576778 2.38867C0.180431 3.16599 0.195386 2.91398 0.195386 8.82606C0.195386 14.7381 0.180431 14.4861 0.576778 15.2634C0.889407 15.8766 1.42631 16.3964 2.05971 16.6991C2.50481 16.9118 3.07967 17.0674 3.42679 17.0693L3.59976 17.0701L3.60093 19.1956C3.60199 21.1569 3.60976 21.3373 3.70115 21.5322C3.84841 21.846 4.08999 21.9912 4.46143 21.9891C4.83015 21.9869 4.46824 22.2588 7.97246 19.3514L10.7219 17.0701L14.9978 17.0693C19.7958 17.0682 19.6788 17.0762 20.4679 16.6991C21.3504 16.2774 22.0485 15.4042 22.254 14.4648C22.3706 13.9318 22.3706 3.7203 22.254 3.18732C21.9855 1.96024 20.9104 0.919424 19.6429 0.659478C19.1073 0.549626 3.38384 0.551687 2.86018 0.661642ZM19.6243 2.39156C20.0022 2.56314 20.2876 2.83947 20.4649 3.20535L20.6043 3.49317V8.82606V14.1589L20.4649 14.4468C20.2876 14.8126 20.0022 15.089 19.6243 15.2606L19.327 15.3955L14.7208 15.4213C10.5272 15.4448 10.103 15.4548 9.98405 15.5334C9.9122 15.5808 8.83552 16.466 7.59144 17.5004L5.32949 19.3811L5.30288 17.6625C5.2776 16.0286 5.27084 15.9369 5.16652 15.8017C4.91643 15.4777 4.82888 15.4494 3.98179 15.4194C3.28894 15.3949 3.16695 15.3767 2.90329 15.2587C2.52642 15.09 2.24046 14.8138 2.06269 14.4468L1.92325 14.1589L1.90894 8.93271C1.89323 3.1935 1.8811 3.43201 2.21433 2.94499C2.40587 2.66495 2.70131 2.45473 3.0835 2.32638C3.34605 2.23827 3.77034 2.23404 11.3436 2.24502L19.327 2.25656L19.6243 2.39156ZM5.80583 5.60051C5.45366 5.74988 5.25072 6.14488 5.32619 6.53426C5.37286 6.77514 5.6386 7.05981 5.87997 7.12752C6.01292 7.16482 7.75595 7.17729 11.3797 7.16678C16.6423 7.15158 16.6859 7.15065 16.8316 7.04523C17.111 6.84336 17.1981 6.67868 17.1981 6.35283C17.1981 6.02699 17.111 5.86231 16.8316 5.66044C16.6858 5.55496 16.6462 5.55409 11.3264 5.54296C6.95309 5.53373 5.9383 5.54435 5.80583 5.60051ZM24.5401 5.7555C24.1965 5.90039 23.9821 6.30543 24.0571 6.66817C24.1115 6.93183 24.2958 7.12077 24.6821 7.30915C25.1065 7.51602 25.4091 7.79483 25.5884 8.14407L25.7137 8.38809V13.7467V19.1054L25.5742 19.3932C25.3965 19.7602 25.1105 20.0364 24.7336 20.2051C24.47 20.3232 24.348 20.3414 23.6551 20.3659C22.8081 20.3958 22.7205 20.4241 22.4704 20.7482C22.3661 20.8834 22.3593 20.975 22.3341 22.609L22.3074 24.3277L20.0189 22.4218C18.7602 21.3735 17.6532 20.4826 17.559 20.4418C17.4151 20.3796 16.7583 20.3679 13.4343 20.3686L9.48084 20.3695L9.26795 20.4848C9.03776 20.6094 8.81556 20.9569 8.81556 21.1922C8.81556 21.4274 9.03776 21.7749 9.26795 21.8996L9.48084 22.0149L13.1979 22.0157L16.915 22.0166L19.6645 24.2978C23.1687 27.2053 22.8068 26.9334 23.1755 26.9355C23.5469 26.9377 23.7885 26.7925 23.9358 26.4786C24.0272 26.2838 24.0349 26.1033 24.036 24.142L24.0372 22.0166L24.2101 22.0157C24.5573 22.0139 25.1321 21.8582 25.5772 21.6455C26.2107 21.3428 26.7475 20.8231 27.0603 20.2096C27.4635 19.4187 27.4487 19.6823 27.4298 13.6265C27.4112 7.67534 27.4333 8.0625 27.072 7.35202C26.7395 6.69811 26.0543 6.07449 25.3805 5.81254C25.0103 5.66863 24.7828 5.65317 24.5401 5.7555ZM5.80583 8.89799C5.4535 9.04777 5.25072 9.44256 5.32619 9.83188C5.37286 10.0727 5.6385 10.3574 5.87997 10.4253C6.01143 10.4623 7.24406 10.4751 9.67654 10.4646C13.2188 10.4494 13.2809 10.4474 13.4254 10.3429C13.7047 10.141 13.7919 9.97631 13.7919 9.65046C13.7919 9.32462 13.7047 9.15994 13.4254 8.95806C13.2808 8.85342 13.2227 8.85166 9.62331 8.84038C6.66585 8.83116 5.93718 8.84213 5.80583 8.89799Z" fill="#C4C4C4"/>
</svg>
