<svg width="189" height="16" viewBox="0 0 189 16" fill="none" xmlns="http://www.w3.org/2000/svg">
<rect x="94.4727" width="11.0043" height="11.0043" transform="rotate(45 94.4727 0)" fill="#D3BB90"/>
<path d="M0.50757 7.78516L4.47266 11.7502L8.43774 7.78516L4.47266 3.82007L0.50757 7.78516ZM77.2785 8.47194C77.6578 8.47194 77.9653 8.16446 77.9653 7.78516C77.9653 7.40587 77.6578 7.09839 77.2785 7.09839L77.2785 8.47194ZM4.47266 8.47193L77.2785 8.47194L77.2785 7.09839L4.47266 7.09838L4.47266 8.47193Z" fill="#D3BB90"/>
<circle cx="77.2786" cy="7.78152" r="3.43387" fill="#D3BB90"/>
<path d="M12.6265 7.78221C11.8101 7.70065 9.64795 6.35786 9.64795 4.55522C9.64795 1.53458 13.5665 2.18785 12.8318 4.55522" stroke="#D3BB90" stroke-width="1.37355" stroke-linecap="round"/>
<path d="M12.6265 7.78029C11.8101 7.86185 9.64795 9.20464 9.64795 11.0073C9.64795 14.0279 13.5665 13.3747 12.8318 11.0073" stroke="#D3BB90" stroke-width="1.37355" stroke-linecap="round"/>
<path d="M188.438 7.78516L184.473 11.7502L180.508 7.78516L184.473 3.82007L188.438 7.78516ZM111.667 8.47194C111.288 8.47194 110.98 8.16446 110.98 7.78516C110.98 7.40587 111.288 7.09839 111.667 7.09839L111.667 8.47194ZM184.473 8.47193L111.667 8.47194L111.667 7.09839L184.473 7.09838L184.473 8.47193Z" fill="#D3BB90"/>
<circle cx="3.43387" cy="3.43387" r="3.43387" transform="matrix(-1 0 0 1 115.101 4.34766)" fill="#D3BB90"/>
<path d="M176.319 7.78221C177.135 7.70065 179.297 6.35786 179.297 4.55522C179.297 1.53458 175.379 2.18785 176.114 4.55522" stroke="#D3BB90" stroke-width="1.37355" stroke-linecap="round"/>
<path d="M176.319 7.78029C177.135 7.86185 179.297 9.20464 179.297 11.0073C179.297 14.0279 175.379 13.3747 176.114 11.0073" stroke="#D3BB90" stroke-width="1.37355" stroke-linecap="round"/>
</svg>
