<svg width="43" height="44" viewBox="0 0 43 44" fill="none" xmlns="http://www.w3.org/2000/svg">
<path fill-rule="evenodd" clip-rule="evenodd" d="M24.4656 0.667581C23.2993 0.937241 22.4643 1.41343 21.67 2.26209C21.0658 2.90766 20.7988 3.353 20.4993 4.2146C20.2803 4.84454 20.2671 4.97147 20.2356 6.74586L20.2024 8.6139L14.5968 8.63718C9.13203 8.65987 8.98384 8.66475 8.69975 8.83152C8.53954 8.92567 8.33139 9.13371 8.2372 9.29385C8.07034 9.5778 8.06547 9.72591 8.04276 15.188L8.01946 20.7908L6.15051 20.8229C4.32452 20.8543 4.26506 20.8608 3.56299 21.1092C2.67364 21.4238 2.04221 21.8361 1.40187 22.5202C0.797697 23.1658 0.530679 23.6111 0.231114 24.4727C0.0296098 25.0523 0.000426996 25.2631 6.49512e-06 26.1447C-0.000498106 27.0236 0.0280119 27.2327 0.221274 27.7699C0.73521 29.1984 1.64299 30.2331 2.91929 30.8451C3.34475 31.0491 3.89342 31.257 4.13849 31.3072C4.38364 31.3573 5.35685 31.3983 6.3013 31.3983H8.01837L8.04225 37.0661C8.06563 42.6407 8.06891 42.7378 8.23947 42.9661C8.33484 43.0937 8.51734 43.2761 8.64508 43.3715C8.87417 43.5425 8.96197 43.5451 15.3051 43.5673C21.6234 43.5895 21.7387 43.587 22.068 43.4191C22.2845 43.3087 22.4627 43.1311 22.5722 42.9165C22.7296 42.6082 22.7416 42.4229 22.7425 40.2909C22.7433 38.601 22.7743 37.8813 22.8605 37.5577C23.4056 35.5112 25.9849 34.8227 27.486 36.323C27.6749 36.5119 27.9242 36.8524 28.0398 37.0795C28.2476 37.4877 28.2506 37.5238 28.2921 40.1134C28.3319 42.5941 28.3434 42.7467 28.5076 42.9662C28.603 43.0938 28.7855 43.2761 28.9132 43.3715C29.1423 43.5425 29.2301 43.5451 35.5733 43.5673C41.8916 43.5895 42.0069 43.587 42.3361 43.4191C42.5538 43.3081 42.7308 43.1311 42.8419 42.9136C43.0098 42.5845 43.0124 42.4693 42.9902 36.1541C42.968 29.8141 42.9654 29.7263 42.7942 29.4973C42.6988 29.3697 42.5164 29.1872 42.3888 29.0919C42.1691 28.9278 42.0165 28.9163 39.5346 28.8766C36.9436 28.835 36.9075 28.832 36.4991 28.6244C35.202 27.9648 34.6073 26.4762 35.1083 25.1428C35.3072 24.6134 35.7817 24.0318 36.252 23.7413C36.8294 23.3846 37.2823 23.3307 39.7121 23.3297C41.8452 23.3288 42.0306 23.3168 42.3391 23.1595C42.5538 23.05 42.7314 22.8719 42.8419 22.6555C43.0098 22.3264 43.0124 22.2111 42.9902 15.896C42.968 9.55594 42.9654 9.46818 42.7942 9.23921C42.6988 9.11152 42.5163 8.92911 42.3887 8.83379C42.1603 8.66332 42.0631 8.66004 36.4858 8.63667L30.8152 8.6128V6.89658C30.8152 5.9526 30.7741 4.97987 30.724 4.73484C30.6738 4.48989 30.4658 3.9415 30.2617 3.51624C29.4246 1.77245 27.7238 0.661024 25.773 0.583018C25.2727 0.563012 24.78 0.59487 24.4656 0.667581ZM26.2506 3.18951C27.0472 3.4015 27.7124 3.96133 28.0567 4.70971C28.2415 5.11142 28.2519 5.24331 28.2921 7.69379C28.3323 10.1442 28.3423 10.2706 28.5176 10.5518C28.9052 11.1736 28.5464 11.1402 34.8439 11.1402H40.4867V15.9656V20.791L38.5734 20.8233C36.7605 20.854 36.6277 20.8674 36.0432 21.0775C34.6138 21.5916 33.5788 22.4988 32.9665 23.7744C32.531 24.6819 32.4131 25.1848 32.4131 26.1353C32.4131 27.5797 32.9293 28.818 33.962 29.8501C34.671 30.5587 35.4288 31.0014 36.3246 31.2305C36.8779 31.3718 37.2575 31.3983 38.734 31.3983H40.4867V36.2317V41.0651H35.6509H30.8152V39.3133C30.8152 37.8375 30.7887 37.4581 30.6472 36.9051C30.418 36.0097 29.9751 35.2522 29.2662 34.5436C28.2335 33.5115 26.9946 32.9954 25.5496 32.9954C24.5986 32.9954 24.0954 33.1133 23.1874 33.5486C21.9112 34.1606 21.0036 35.1951 20.4892 36.6238C20.279 37.208 20.2656 37.3408 20.2349 39.1527L20.2026 41.0651H15.3748H10.547V35.4251C10.547 29.1307 10.5804 29.4893 9.95831 29.1019C9.67699 28.9267 9.55051 28.9167 7.0989 28.8766C4.64721 28.8364 4.51526 28.826 4.11335 28.6413C2.72309 28.0023 2.11563 26.3678 2.75202 24.9785C3.04225 24.3449 3.42019 23.9584 4.05532 23.6457L4.61357 23.3707L7.18485 23.3287C9.99254 23.2828 10.0195 23.278 10.3566 22.7639C10.4935 22.555 10.5082 22.1006 10.547 16.86L10.5891 11.1822L16.2807 11.1402C21.8714 11.0989 21.9766 11.0951 22.2098 10.9241C22.7156 10.5531 22.7413 10.4051 22.7414 7.85619C22.7415 5.28526 22.7832 5.00156 23.2679 4.27672C23.7211 3.59904 24.6593 3.08923 25.4748 3.07746C25.6598 3.07477 26.0089 3.1252 26.2506 3.18951Z" fill="#D9D9D9"/>
</svg>
