<svg width="106" height="14" viewBox="0 0 106 14" fill="none" xmlns="http://www.w3.org/2000/svg">
<path d="M4.79875 2.45707H0.803321V11.2891H3.32675V8.55535H5.21932C7.0856 8.55535 8.16332 7.10964 8.16332 5.40107C8.16332 3.6925 7.09875 2.45707 4.79875 2.45707ZM4.56218 6.45249H3.32675V4.55992H4.56218C5.1536 4.55992 5.63989 4.86221 5.63989 5.50621C5.63989 6.16335 5.1536 6.45249 4.56218 6.45249ZM12.5747 4.34964C10.1958 4.34964 8.78955 5.95307 8.78955 7.92449C8.78955 9.89592 10.2221 11.4993 12.5747 11.4993C14.8221 11.4993 16.3598 9.89592 16.3598 7.92449C16.3598 5.95307 14.809 4.34964 12.5747 4.34964ZM12.5747 9.39649C11.8781 9.39649 11.313 8.73935 11.313 7.92449C11.313 7.10964 11.8781 6.45249 12.5747 6.45249C13.2713 6.45249 13.8364 7.10964 13.8364 7.92449C13.8364 8.73935 13.2713 9.39649 12.5747 9.39649ZM24.8816 4.55992L23.9879 8.02964L22.9365 4.55992H20.9388L19.8874 8.02964L18.9936 4.55992H16.4702L18.7834 11.2891H20.8862L21.9376 8.02964L22.9891 11.2891H25.0919L27.4051 4.55992H24.8816ZM34.455 7.92449C34.455 5.67707 33.259 4.34964 31.0904 4.34964C28.6721 4.34964 27.5155 5.95307 27.5155 7.92449C27.5155 9.88278 28.6984 11.4993 31.4058 11.4993C33.075 11.4993 34.0213 10.8685 34.0213 10.8685L33.3773 8.97592C33.3773 8.97592 32.7201 9.39649 31.6424 9.39649C30.867 9.39649 30.223 9.09421 30.1178 8.55535H34.4024C34.4287 8.34506 34.455 8.13478 34.455 7.92449ZM30.1178 7.29364C30.1178 6.74164 30.4727 6.24221 30.9853 6.24221C31.603 6.24221 31.879 6.74164 31.879 7.29364H30.1178ZM37.8267 5.93992V4.55992H35.3033V11.2891H37.8267V8.54221C37.8267 7.51706 38.6679 6.96506 39.2987 6.92564C39.693 6.91249 40.0084 6.99135 40.3502 7.20164V4.34964C39.1673 4.4285 38.2604 4.92792 37.8267 5.93992ZM47.7095 11.2891V7.92449H50.4432V5.82164H47.7095V4.77021H51.0741V2.45707H45.1861V11.2891H47.7095ZM54.4429 11.4993C55.2052 11.4993 55.9543 11.1576 56.3355 10.4479V11.2891H58.8589V4.55992H56.3355V8.13478C56.3355 8.89706 55.8229 9.18621 55.3892 9.18621C54.9292 9.18621 54.4429 8.92335 54.4429 8.13478V4.55992H51.9195V8.55535C51.9195 10.5268 53.1155 11.4993 54.4429 11.4993ZM60.2285 2.0365V11.2891H62.7519V2.0365H60.2285ZM64.1175 2.0365V11.2891H66.6409V2.0365H64.1175ZM76.7319 6.66278L80.0965 2.45707H76.9422L74.4188 5.82164V2.45707H71.8954V11.2891H74.4188V7.50392L77.1525 11.2891H80.3068L76.7319 6.66278ZM82.411 3.92907C83.1601 3.92907 83.7778 3.31135 83.7778 2.56221C83.7778 1.81307 83.1601 1.19535 82.411 1.19535C81.6487 1.19535 81.0441 1.81307 81.0441 2.56221C81.0441 3.31135 81.6487 3.92907 82.411 3.92907ZM81.1493 11.2891H83.6727V4.55992H81.1493V11.2891ZM89.6645 2.0365V5.24335C89.2045 4.69135 88.5736 4.34964 87.7719 4.34964C86.0239 4.34964 84.6176 5.95307 84.6176 7.92449C84.6176 9.89592 86.0239 11.4993 87.7719 11.4993C88.5736 11.4993 89.2045 11.1576 89.6645 10.6056V11.2891H92.1879V2.0365H89.6645ZM88.4028 9.39649C87.7062 9.39649 87.1411 8.73935 87.1411 7.92449C87.1411 7.10964 87.7062 6.45249 88.4028 6.45249C89.0993 6.45249 89.6645 7.10964 89.6645 7.92449C89.6645 8.73935 89.0993 9.39649 88.4028 9.39649ZM96.7542 6.82049C96.1891 6.75478 95.8737 6.72849 95.8737 6.49192C95.8737 6.30792 96.1234 6.25535 96.7148 6.26849C98.0554 6.29478 98.8177 6.71535 98.8177 6.71535L99.4485 4.91478C98.3971 4.36278 96.8725 4.34964 96.8725 4.34964C94.4411 4.34964 93.3502 5.44049 93.3502 6.87306C93.3502 7.60906 93.7182 8.60792 96.1497 8.94964C97.2537 9.10735 97.3457 9.14678 97.3457 9.34392C97.3457 9.58049 96.6359 9.59363 96.0445 9.52792C96.0445 9.52792 94.6908 9.38335 93.7708 8.76564L93.1399 10.5531C93.1399 10.5531 94.3228 11.4993 96.4125 11.4993C98.8965 11.4993 99.8691 10.4873 99.8691 9.10735C99.8691 7.37249 98.6074 7.04392 96.7542 6.82049Z" fill="white"/>
<path d="M99.993 1.28661V1.99061H100.697V3.97461H101.465V1.99061H102.169V1.28661H99.993ZM105.432 1.28661H104.664L104.024 2.88661L103.384 1.28661H102.616L102.36 3.97461H103.128L103.256 2.56661L103.704 3.97461H104.344L104.792 2.56661L104.92 3.97461H105.688L105.432 1.28661Z" fill="white"/>
</svg>
