<svg width="1008" height="129" viewBox="0 0 1008 129" fill="none" xmlns="http://www.w3.org/2000/svg">
<path d="M46.079 22.1354H7.16702V108.151H31.743V81.5274H50.175C68.351 81.5274 78.847 67.4474 78.847 50.8074C78.847 34.1674 68.479 22.1354 46.079 22.1354ZM43.775 61.0474H31.743V42.6154H43.775C49.535 42.6154 54.271 45.5594 54.271 51.8314C54.271 58.2314 49.535 61.0474 43.775 61.0474ZM121.81 40.5674C98.642 40.5674 84.946 56.1834 84.946 75.3834C84.946 94.5834 98.898 110.199 121.81 110.199C143.698 110.199 158.674 94.5834 158.674 75.3834C158.674 56.1834 143.57 40.5674 121.81 40.5674ZM121.81 89.7194C115.026 89.7194 109.522 83.3194 109.522 75.3834C109.522 67.4474 115.026 61.0474 121.81 61.0474C128.594 61.0474 134.098 67.4474 134.098 75.3834C134.098 83.3194 128.594 89.7194 121.81 89.7194ZM241.669 42.6154L232.965 76.4074L222.725 42.6154H203.269L193.029 76.4074L184.325 42.6154H159.749L182.277 108.151H202.757L212.997 76.4074L223.237 108.151H243.717L266.245 42.6154H241.669ZM334.905 75.3834C334.905 53.4954 323.257 40.5674 302.137 40.5674C278.585 40.5674 267.321 56.1834 267.321 75.3834C267.321 94.4554 278.841 110.199 305.209 110.199C321.465 110.199 330.681 104.055 330.681 104.055L324.409 85.6234C324.409 85.6234 318.009 89.7194 307.513 89.7194C299.961 89.7194 293.689 86.7754 292.665 81.5274H334.393C334.649 79.4794 334.905 77.4314 334.905 75.3834ZM292.665 69.2394C292.665 63.8634 296.121 58.9994 301.113 58.9994C307.129 58.9994 309.817 63.8634 309.817 69.2394H292.665ZM367.743 56.0554V42.6154H343.167V108.151H367.743V81.3994C367.743 71.4154 375.935 66.0394 382.079 65.6554C385.919 65.5274 388.991 66.2954 392.319 68.3434V40.5674C380.799 41.3354 371.967 46.1994 367.743 56.0554ZM746.646 63.0954L779.414 22.1354H748.694L724.118 54.9034V22.1354H699.542V108.151H724.118V71.2874L750.742 108.151H781.462L746.646 63.0954ZM801.955 36.4714C809.251 36.4714 815.267 30.4554 815.267 23.1594C815.267 15.8634 809.251 9.84737 801.955 9.84737C794.531 9.84737 788.643 15.8634 788.643 23.1594C788.643 30.4554 794.531 36.4714 801.955 36.4714ZM789.667 108.151H814.243V42.6154H789.667V108.151ZM872.598 18.0394V49.2714C868.118 43.8954 861.974 40.5674 854.166 40.5674C837.142 40.5674 823.446 56.1834 823.446 75.3834C823.446 94.5834 837.142 110.199 854.166 110.199C861.974 110.199 868.118 106.871 872.598 101.495V108.151H897.174V18.0394H872.598ZM860.31 89.7194C853.526 89.7194 848.022 83.3194 848.022 75.3834C848.022 67.4474 853.526 61.0474 860.31 61.0474C867.094 61.0474 872.598 67.4474 872.598 75.3834C872.598 83.3194 867.094 89.7194 860.31 89.7194ZM941.646 64.6314C936.142 63.9914 933.07 63.7354 933.07 61.4314C933.07 59.6394 935.502 59.1274 941.262 59.2554C954.318 59.5114 961.742 63.6074 961.742 63.6074L967.886 46.0714C957.646 40.6954 942.798 40.5674 942.798 40.5674C919.118 40.5674 908.494 51.1914 908.494 65.1434C908.494 72.3114 912.078 82.0394 935.758 85.3674C946.51 86.9034 947.406 87.2874 947.406 89.2074C947.406 91.5114 940.494 91.6394 934.734 90.9994C934.734 90.9994 921.55 89.5914 912.59 83.5754L906.446 100.983C906.446 100.983 917.966 110.199 938.318 110.199C962.51 110.199 971.982 100.343 971.982 86.9034C971.982 70.0074 959.694 66.8074 941.646 64.6314Z" fill="#2E2E2E"/>
<path d="M463.993 108.151V75.3834H490.617V54.9034H463.993V44.6634H496.761V22.1354H439.417V108.151H463.993ZM529.57 110.199C536.994 110.199 544.29 106.871 548.002 99.9594V108.151H572.578V42.6154H548.002V77.4314C548.002 84.8554 543.01 87.6714 538.786 87.6714C534.306 87.6714 529.57 85.1114 529.57 77.4314V42.6154H504.994V81.5274C504.994 100.727 516.642 110.199 529.57 110.199ZM585.917 18.0394V108.151H610.493V18.0394H585.917ZM623.792 18.0394V108.151H648.368V18.0394H623.792Z" fill="#DA291C"/>
<path d="M972.577 17.5937V21.8177H976.801V33.7217H981.409V21.8177H985.633V17.5937H972.577ZM1005.21 17.5937H1000.6L996.764 27.1937L992.924 17.5937H988.316L986.78 33.7217H991.388L992.156 25.2737L994.844 33.7217H998.684L1001.37 25.2737L1002.14 33.7217H1006.75L1005.21 17.5937Z" fill="#2E2E2E"/>
</svg>
