<svg width="185" height="27" viewBox="0 0 185 27" fill="none" xmlns="http://www.w3.org/2000/svg">
<g style="mix-blend-mode:overlay">
<path d="M6.60501 6.50265C8.34159 6.50265 9.64091 6.88058 10.5029 7.63643C11.3712 8.39228 11.8054 9.46671 11.8054 10.8597C11.8054 11.4844 11.7148 12.0841 11.5337 12.6588C11.3587 13.2335 11.0683 13.7457 10.6622 14.1955C10.2625 14.6452 9.72836 15.0013 9.05996 15.2636C8.39781 15.526 7.5795 15.6572 6.60501 15.6572H5.56494V20.2017H1.86377V6.50265H6.60501ZM6.52068 9.4917H5.56494V12.64H6.2958C6.61438 12.64 6.9111 12.5869 7.18595 12.4807C7.46081 12.3683 7.67944 12.1903 7.84186 11.9467C8.01052 11.6968 8.09485 11.3657 8.09485 10.9534C8.09485 10.5224 7.96679 10.1726 7.71068 9.90398C7.45456 9.62913 7.0579 9.4917 6.52068 9.4917ZM27.1906 13.3334C27.1906 14.3891 27.0626 15.3511 26.8065 16.2194C26.5566 17.0814 26.163 17.8248 25.6258 18.4495C25.0886 19.0741 24.3984 19.5551 23.555 19.8924C22.7117 20.2235 21.7029 20.3891 20.5285 20.3891C19.3791 20.3891 18.3828 20.2235 17.5395 19.8924C16.7024 19.5551 16.0122 19.0773 15.4687 18.4588C14.9252 17.8342 14.5223 17.0877 14.26 16.2194C13.9976 15.3511 13.8664 14.3829 13.8664 13.3147C13.8664 11.8904 14.1007 10.6536 14.5692 9.60414C15.0439 8.54845 15.7748 7.73325 16.7618 7.15856C17.7487 6.57762 19.0106 6.28714 20.5473 6.28714C22.1089 6.28714 23.377 6.57762 24.3515 7.15856C25.3322 7.7395 26.0506 8.55782 26.5066 9.61351C26.9626 10.6692 27.1906 11.9092 27.1906 13.3334ZM17.7644 13.3334C17.7644 14.158 17.8581 14.867 18.0455 15.4604C18.2329 16.0539 18.5296 16.5099 18.9356 16.8284C19.3416 17.147 19.8726 17.3063 20.5285 17.3063C21.2094 17.3063 21.7498 17.147 22.1495 16.8284C22.5556 16.5099 22.846 16.0539 23.021 15.4604C23.2021 14.867 23.2927 14.158 23.2927 13.3334C23.2927 12.0966 23.0865 11.119 22.6743 10.4006C22.262 9.68222 21.553 9.32304 20.5473 9.32304C19.8789 9.32304 19.3385 9.48545 18.9262 9.81028C18.5202 10.1351 18.2235 10.5974 18.0361 11.197C17.8549 11.7967 17.7644 12.5089 17.7644 13.3334ZM48.2166 6.50265L44.8434 20.2017H40.4676L39.1558 14.2329C39.1308 14.1205 39.0902 13.93 39.034 13.6614C38.984 13.3928 38.9247 13.0867 38.856 12.7431C38.7935 12.3995 38.7341 12.0622 38.6779 11.7311C38.628 11.3938 38.5905 11.1096 38.5655 10.8785C38.5405 11.1096 38.4999 11.3938 38.4437 11.7311C38.3875 12.0622 38.325 12.3995 38.2563 12.7431C38.1938 13.0867 38.1313 13.3928 38.0689 13.6614C38.0127 13.93 37.972 14.1205 37.9471 14.2329L36.6259 20.2017H32.2501L28.8581 6.50265H32.4281L33.9179 13.3709C33.9554 13.5396 34.0054 13.7801 34.0679 14.0924C34.1366 14.3985 34.2053 14.7358 34.274 15.1044C34.349 15.4667 34.4177 15.8165 34.4801 16.1538C34.5426 16.4911 34.5863 16.7722 34.6113 16.9971C34.6613 16.6098 34.7269 16.1694 34.8081 15.6759C34.8955 15.1824 34.9893 14.6827 35.0892 14.1767C35.1954 13.6645 35.2953 13.1897 35.389 12.7525C35.4827 12.3152 35.5639 11.9591 35.6327 11.6843L36.8414 6.50265H40.2708L41.4421 11.6843C41.5046 11.9529 41.5826 12.309 41.6763 12.7525C41.7763 13.1897 41.8762 13.6645 41.9762 14.1767C42.0824 14.689 42.1792 15.1949 42.2667 15.6947C42.3541 16.1882 42.4197 16.6223 42.4634 16.9971C42.5009 16.6848 42.5634 16.2912 42.6508 15.8165C42.7383 15.3355 42.8257 14.8701 42.9132 14.4203C43.0069 13.9643 43.0787 13.6208 43.1287 13.3896L44.6466 6.50265H48.2166ZM58.5046 20.2017H50.3714V6.50265H58.5046V9.47296H54.0725V11.6281H58.1766V14.5984H54.0725V17.1845H58.5046V20.2017ZM65.7753 6.50265C67.0184 6.50265 68.0523 6.6557 68.8768 6.96179C69.7014 7.26163 70.3198 7.71139 70.7321 8.31107C71.1506 8.91076 71.3599 9.65724 71.3599 10.5505C71.3599 11.1065 71.2662 11.6125 71.0788 12.0685C70.8914 12.5245 70.6228 12.9336 70.273 13.2959C69.9294 13.652 69.5171 13.9643 69.0361 14.2329L73.0278 20.2017H68.83L65.9253 15.2168H64.9883V20.2017H61.2871V6.50265H65.7753ZM65.7191 9.3043H64.9883V12.4339H65.6816C66.2501 12.4339 66.7155 12.309 67.0778 12.0591C67.4401 11.8092 67.6212 11.3626 67.6212 10.7192C67.6212 10.2757 67.4713 9.92897 67.1715 9.6791C66.8716 9.42923 66.3875 9.3043 65.7191 9.3043ZM83.6714 20.2017H80.0264V6.50265H88.1222V9.47296H83.6714V12.0872H87.7755V15.0575H83.6714V20.2017ZM102.402 6.50265V14.7483C102.402 15.8977 102.183 16.8972 101.746 17.7467C101.309 18.59 100.653 19.2428 99.7781 19.705C98.9036 20.1611 97.8073 20.3891 96.4892 20.3891C94.6027 20.3891 93.1629 19.9049 92.1696 18.9367C91.1764 17.9685 90.6798 16.6004 90.6798 14.8326V6.50265H94.3997V14.5422C94.3997 15.5104 94.5809 16.2131 94.9432 16.6504C95.3055 17.0877 95.8396 17.3063 96.5454 17.3063C97.0514 17.3063 97.4637 17.2126 97.7823 17.0252C98.1009 16.8316 98.332 16.5286 98.4757 16.1163C98.6256 15.704 98.7006 15.1731 98.7006 14.5234V6.50265H102.402ZM105.662 20.2017V6.50265H109.363V17.2126H114.639V20.2017H105.662ZM117.215 20.2017V6.50265H120.916V17.2126H126.192V20.2017H117.215ZM145.84 20.2017H141.661L138.953 14.9638L137.856 15.6197V20.2017H134.137V6.50265H137.856V12.4526C138.013 12.1528 138.191 11.853 138.391 11.5531C138.597 11.2533 138.797 10.969 138.99 10.7004L141.867 6.50265H145.915L141.595 12.64L145.84 20.2017ZM147.713 20.2017V6.50265H151.433V20.2017H147.713ZM166.416 13.0617C166.416 14.6546 166.119 15.9789 165.525 17.0346C164.932 18.0903 164.095 18.8836 163.014 19.4146C161.94 19.9393 160.675 20.2017 159.219 20.2017H154.787V6.50265H159.529C161.003 6.50265 162.252 6.75565 163.277 7.26163C164.301 7.76761 165.079 8.50784 165.61 9.48233C166.147 10.4568 166.416 11.6499 166.416 13.0617ZM162.574 13.1929C162.574 12.3621 162.461 11.6749 162.237 11.1315C162.018 10.5817 161.687 10.1726 161.243 9.90398C160.8 9.62913 160.241 9.4917 159.566 9.4917H158.489V17.1658H159.313C160.438 17.1658 161.262 16.8409 161.787 16.1913C162.312 15.5354 162.574 14.5359 162.574 13.1929ZM178.221 16.0414C178.221 16.7847 178.034 17.4906 177.659 18.159C177.284 18.8211 176.7 19.3584 175.907 19.7706C175.12 20.1829 174.102 20.3891 172.852 20.3891C172.228 20.3891 171.678 20.361 171.203 20.3047C170.735 20.2485 170.298 20.1579 169.892 20.033C169.485 19.9018 169.064 19.7332 168.627 19.527V16.2288C169.37 16.6036 170.12 16.8909 170.875 17.0908C171.631 17.2845 172.315 17.3813 172.927 17.3813C173.296 17.3813 173.596 17.3375 173.827 17.2501C174.064 17.1626 174.239 17.044 174.352 16.894C174.464 16.7379 174.52 16.5598 174.52 16.3599C174.52 16.1226 174.436 15.9227 174.267 15.7603C174.105 15.5916 173.843 15.4167 173.48 15.2355C173.118 15.0544 172.64 14.8295 172.047 14.5609C171.541 14.3235 171.082 14.0799 170.669 13.83C170.263 13.5802 169.913 13.2959 169.62 12.9774C169.332 12.6525 169.111 12.2746 168.955 11.8436C168.798 11.4126 168.72 10.9035 168.72 10.3163C168.72 9.43548 168.936 8.69837 169.367 8.10493C169.804 7.50525 170.41 7.05549 171.185 6.75565C171.965 6.4558 172.865 6.30588 173.883 6.30588C174.776 6.30588 175.579 6.40583 176.291 6.60573C177.01 6.80562 177.653 7.03362 178.221 7.28974L177.088 10.1476C176.501 9.87899 175.923 9.66661 175.354 9.51044C174.786 9.34802 174.258 9.26682 173.771 9.26682C173.452 9.26682 173.19 9.30742 172.984 9.38863C172.784 9.46359 172.634 9.56666 172.534 9.69784C172.44 9.82902 172.393 9.97894 172.393 10.1476C172.393 10.36 172.475 10.5505 172.637 10.7192C172.806 10.8878 173.084 11.0721 173.471 11.272C173.864 11.4657 174.399 11.7186 175.073 12.031C175.742 12.3308 176.31 12.6557 176.779 13.0055C177.247 13.349 177.603 13.7644 177.847 14.2517C178.097 14.7327 178.221 15.3292 178.221 16.0414Z" fill="#3D3D3D"/>
</g>
<g style="mix-blend-mode:overlay">
<path d="M181.016 9.09131H180.576V7.82329H180.179V7.4637H181.412V7.82329H181.016V9.09131ZM182.4 9.09131L182.067 7.91903H182.057C182.06 7.94946 182.063 7.99065 182.066 8.04261C182.07 8.09456 182.073 8.15059 182.076 8.21071C182.079 8.27083 182.08 8.32872 182.08 8.38438V9.09131H181.691V7.4637H182.276L182.616 8.61928H182.625L182.958 7.4637H183.544V9.09131H183.14V8.3777C183.14 8.32649 183.141 8.27157 183.142 8.21294C183.145 8.15356 183.147 8.0979 183.149 8.04595C183.152 7.99325 183.155 7.95169 183.157 7.92126H183.147L182.818 9.09131H182.4Z" fill="#3D3D3D"/>
</g>
</svg>
