<svg width="15" height="19" viewBox="0 0 15 19" fill="none" xmlns="http://www.w3.org/2000/svg">
<path fill-rule="evenodd" clip-rule="evenodd" d="M5.39401 0.801357C4.85925 0.89125 4.30028 1.16034 3.92997 1.50614L3.67528 1.74402H2.63768C2.00035 1.74402 1.52951 1.75901 1.41715 1.78286C0.837814 1.90589 0.343195 2.40051 0.220162 2.97985C0.164894 3.24014 0.164894 16.9561 0.220162 17.2164C0.274084 17.4702 0.434366 17.7746 0.616982 17.9698C0.794766 18.1599 1.15278 18.3586 1.41715 18.4139C1.67671 18.4683 12.7029 18.4681 12.9611 18.4137C13.5469 18.2903 14.0361 17.8012 14.1586 17.2164C14.2134 16.9549 14.2128 3.23786 14.1581 2.97985C14.0344 2.39734 13.541 1.90375 12.9611 1.78234C12.8505 1.75918 12.3675 1.74402 11.7398 1.74402H10.7014L10.4671 1.52299C10.2063 1.27692 9.94265 1.11032 9.59254 0.970234C9.13862 0.788653 8.98811 0.777019 7.16018 0.782128C6.23626 0.784718 5.44148 0.793348 5.39401 0.801357ZM8.981 1.86623C9.10265 1.89488 9.29683 1.96796 9.41251 2.02862C9.7589 2.2102 10.1434 2.65 10.2426 2.97815L10.2662 3.05583H7.18911H4.11207L4.13558 2.97815C4.19137 2.79374 4.356 2.54201 4.55235 2.34096C4.77868 2.10919 5.13946 1.90779 5.43047 1.8507C5.51484 1.83416 6.29847 1.81914 7.17185 1.81735C8.47606 1.81466 8.79935 1.82339 8.981 1.86623ZM3.05535 3.01268C3.02849 3.14168 3.01185 3.37159 3.01806 3.52773C3.03022 3.83266 3.08434 3.93329 3.29513 4.04296C3.43453 4.11549 10.9437 4.11549 11.0831 4.04296C11.2939 3.93329 11.348 3.83266 11.3602 3.52773C11.3664 3.37159 11.3497 3.14168 11.3229 3.01268L11.2744 2.77966H11.9998C12.8378 2.77966 12.9484 2.80738 13.0859 3.05189L13.1613 3.18604V10.0981V17.0102L13.0881 17.1403C13.0479 17.2119 12.9565 17.3033 12.885 17.3435L12.7549 17.4166H7.18911H1.62334L1.49327 17.3435C1.4217 17.3033 1.33029 17.2119 1.29007 17.1403L1.21696 17.0102V10.0981V3.18604L1.29201 3.05255C1.43006 2.8069 1.53804 2.77973 2.37618 2.77969L3.10385 2.77966L3.05535 3.01268ZM8.83245 5.74861C8.5994 5.82111 8.43419 6.10111 8.4801 6.34576C8.52069 6.56224 8.72976 6.74959 8.9307 6.74959C8.97914 6.74959 9.01873 6.76139 9.01873 6.77586C9.01873 6.79029 8.74684 7.07364 8.41454 7.40556L7.81039 8.00899L6.97239 7.1715C6.06531 6.26498 6.01232 6.22718 5.74841 6.29843C5.64291 6.32691 5.42201 6.53055 4.57669 7.3787C3.68487 8.27342 3.53163 8.44209 3.51182 8.55062C3.44982 8.89028 3.67472 9.16607 4.01372 9.16607C4.09188 9.16607 4.18971 9.14887 4.2312 9.12788C4.27266 9.1069 4.66003 8.73807 5.09195 8.30828L5.87731 7.52687L6.69719 8.34281C7.14814 8.79158 7.551 9.17594 7.59246 9.19693C7.6895 9.24605 7.93149 9.24605 8.02853 9.19693C8.06999 9.17594 8.47841 8.78606 8.93609 8.33048L9.76829 7.50222L9.79007 7.63854C9.86719 8.12087 10.5313 8.22143 10.7543 7.78453C10.8087 7.67789 10.8146 7.57454 10.8061 6.86423C10.7956 5.98494 10.794 5.97804 10.559 5.8024C10.4702 5.73605 10.4117 5.73077 9.69807 5.72438C9.27698 5.72062 8.88745 5.73152 8.83245 5.74861ZM4.80716 10.9812C4.7407 11.0097 4.50475 11.2138 4.28285 11.4346L3.87937 11.8361L3.73735 11.7078C3.65922 11.6372 3.55628 11.5646 3.50857 11.5465C3.08428 11.3852 2.65866 11.8462 2.86023 12.2488C2.93701 12.4021 3.48507 12.9542 3.64069 13.035C3.80283 13.1191 3.94675 13.1193 4.10948 13.0355C4.17991 12.9992 4.51152 12.6924 4.84634 12.3537C5.33198 11.8624 5.46278 11.7102 5.49292 11.6009C5.56572 11.3369 5.40561 11.0309 5.15879 10.9624C4.99388 10.9166 4.95259 10.9188 4.80716 10.9812ZM6.56421 11.5919C6.24893 11.8025 6.25701 12.2188 6.58102 12.4607C6.67502 12.5309 6.70765 12.5319 8.93243 12.5319C11.1572 12.5319 11.1898 12.5309 11.2838 12.4607C11.6078 12.2188 11.6159 11.8025 11.3006 11.5919L11.1833 11.5135H8.93243H6.68151L6.56421 11.5919ZM4.9625 13.9133C4.94351 13.9191 4.88296 13.9339 4.82797 13.9462C4.76342 13.9605 4.57707 14.1163 4.3027 14.3853L3.87747 14.8023L3.74932 14.6898C3.60765 14.5654 3.43477 14.4823 3.3175 14.4823C3.17203 14.4823 2.95865 14.6152 2.88033 14.7545C2.71752 15.0442 2.78739 15.2131 3.26437 15.6824C3.64369 16.0557 3.73835 16.1032 4.00454 16.0541C4.11342 16.0339 4.23459 15.9304 4.76666 15.4029C5.11463 15.058 5.42398 14.7291 5.45405 14.6722C5.57432 14.4444 5.48591 14.116 5.27198 13.9957C5.16241 13.9342 5.0188 13.8959 4.9625 13.9133ZM6.61592 14.5316C6.44656 14.6054 6.34334 14.7785 6.34334 14.989C6.34334 15.1821 6.40659 15.2993 6.58102 15.4295C6.67502 15.4997 6.70765 15.5007 8.93243 15.5007C11.1572 15.5007 11.1898 15.4997 11.2838 15.4295C11.4583 15.2993 11.5215 15.1821 11.5215 14.989C11.5215 14.7749 11.4168 14.6035 11.2413 14.5302C11.0746 14.4605 6.7762 14.4619 6.61592 14.5316Z" fill="white"/>
</svg>
