<svg width="29" height="38" viewBox="0 0 29 38" fill="none" xmlns="http://www.w3.org/2000/svg">
<rect x="7.56879" y="0.693787" width="15.2633" height="23.5887" rx="7.63165" stroke="#797979" stroke-width="1.38757"/>
<path d="M15.2031 1.08594V8.68743" stroke="#797979" stroke-width="1.38757" stroke-linecap="round"/>
<path d="M3.97305 35.8617C3.53971 35.8617 3.11638 35.8017 2.70305 35.6817C2.28971 35.5551 1.92638 35.3817 1.61305 35.1617L1.96305 33.9117C2.25638 34.1317 2.58638 34.3117 2.95305 34.4517C3.31971 34.5917 3.68305 34.6617 4.04305 34.6617C4.39638 34.6617 4.66638 34.5884 4.85305 34.4417C5.03971 34.2951 5.13305 34.0851 5.13305 33.8117C5.13305 33.6317 5.08305 33.4851 4.98305 33.3717C4.88971 33.2584 4.75305 33.1617 4.57305 33.0817C4.39971 32.9951 4.12305 32.8817 3.74305 32.7417C3.30971 32.5817 2.95305 32.4151 2.67305 32.2417C2.39971 32.0684 2.17971 31.8551 2.01305 31.6017C1.85305 31.3417 1.77305 31.0251 1.77305 30.6517C1.77305 30.0051 1.99638 29.4951 2.44305 29.1217C2.89638 28.7484 3.48971 28.5617 4.22305 28.5617C4.59638 28.5617 4.96971 28.6084 5.34305 28.7017C5.71638 28.7951 6.02971 28.9117 6.28305 29.0517L5.90305 30.2117C5.66305 30.0784 5.38971 29.9684 5.08305 29.8817C4.77638 29.7951 4.48971 29.7517 4.22305 29.7517C3.89638 29.7517 3.63305 29.8217 3.43305 29.9617C3.23971 30.0951 3.14305 30.2817 3.14305 30.5217C3.14305 30.7017 3.19638 30.8551 3.30305 30.9817C3.41638 31.1017 3.56638 31.2051 3.75305 31.2917C3.93971 31.3784 4.20638 31.4851 4.55305 31.6117C5.00638 31.7784 5.36305 31.9351 5.62305 32.0817C5.88971 32.2284 6.10305 32.4284 6.26305 32.6817C6.42305 32.9284 6.50305 33.2517 6.50305 33.6517C6.50305 34.3451 6.27305 34.8884 5.81305 35.2817C5.35971 35.6684 4.74638 35.8617 3.97305 35.8617ZM9.98313 35.8617C9.47646 35.8617 9.02313 35.7517 8.62313 35.5317C8.22313 35.3117 7.90979 35.0051 7.68313 34.6117C7.46313 34.2117 7.35313 33.7584 7.35313 33.2517C7.35313 32.7317 7.46646 32.2717 7.69313 31.8717C7.92646 31.4717 8.24313 31.1617 8.64313 30.9417C9.04979 30.7151 9.50646 30.6017 10.0131 30.6017C10.6665 30.6017 11.2365 30.7651 11.7231 31.0917L11.3531 32.1517C10.9665 31.8717 10.5498 31.7317 10.1031 31.7317C9.67646 31.7317 9.32979 31.8717 9.06313 32.1517C8.79646 32.4251 8.66313 32.7851 8.66313 33.2317C8.66313 33.6784 8.79313 34.0417 9.05313 34.3217C9.31313 34.5951 9.65979 34.7317 10.0931 34.7317C10.3198 34.7317 10.5531 34.6917 10.7931 34.6117C11.0331 34.5317 11.2598 34.4251 11.4731 34.2917L11.7831 35.3317C11.5498 35.4917 11.2798 35.6217 10.9731 35.7217C10.6665 35.8151 10.3365 35.8617 9.98313 35.8617ZM15.2315 30.5917C15.4448 30.5917 15.6615 30.6317 15.8815 30.7117L15.6815 31.9117C15.4815 31.8451 15.3048 31.8117 15.1515 31.8117C14.3782 31.8117 13.9915 32.3317 13.9915 33.3717V35.7617H12.7515V30.7017H13.9915V31.5117C14.2582 30.8984 14.6715 30.5917 15.2315 30.5917ZM18.9215 35.8617C18.3882 35.8617 17.9115 35.7484 17.4915 35.5217C17.0782 35.2951 16.7548 34.9817 16.5215 34.5817C16.2882 34.1817 16.1715 33.7317 16.1715 33.2317C16.1715 32.7317 16.2882 32.2817 16.5215 31.8817C16.7548 31.4817 17.0782 31.1684 17.4915 30.9417C17.9115 30.7151 18.3882 30.6017 18.9215 30.6017C19.4548 30.6017 19.9282 30.7151 20.3415 30.9417C20.7615 31.1684 21.0848 31.4817 21.3115 31.8817C21.5448 32.2817 21.6615 32.7317 21.6615 33.2317C21.6615 33.7317 21.5448 34.1817 21.3115 34.5817C21.0848 34.9817 20.7615 35.2951 20.3415 35.5217C19.9282 35.7484 19.4548 35.8617 18.9215 35.8617ZM18.9215 34.7117C19.3548 34.7117 19.7048 34.5751 19.9715 34.3017C20.2382 34.0217 20.3715 33.6617 20.3715 33.2217C20.3715 32.7884 20.2348 32.4351 19.9615 32.1617C19.6948 31.8884 19.3482 31.7517 18.9215 31.7517C18.4882 31.7517 18.1348 31.8884 17.8615 32.1617C17.5948 32.4351 17.4615 32.7917 17.4615 33.2317C17.4615 33.6717 17.5948 34.0284 17.8615 34.3017C18.1348 34.5751 18.4882 34.7117 18.9215 34.7117ZM24.1505 35.8617C23.7105 35.8617 23.3705 35.7417 23.1305 35.5017C22.8972 35.2551 22.7805 34.8784 22.7805 34.3717V28.2417H24.0305V34.1717C24.0305 34.5651 24.1872 34.7617 24.5005 34.7617C24.6139 34.7617 24.7705 34.7284 24.9705 34.6617L25.1105 35.6517C24.8172 35.7917 24.4972 35.8617 24.1505 35.8617ZM27.3244 35.8617C26.8844 35.8617 26.5444 35.7417 26.3044 35.5017C26.071 35.2551 25.9544 34.8784 25.9544 34.3717V28.2417H27.2044V34.1717C27.2044 34.5651 27.361 34.7617 27.6744 34.7617C27.7877 34.7617 27.9444 34.7284 28.1444 34.6617L28.2844 35.6517C27.991 35.7917 27.671 35.8617 27.3244 35.8617Z" fill="#797979"/>
</svg>
