<svg width="43" height="44" viewBox="0 0 43 44" fill="none" xmlns="http://www.w3.org/2000/svg">
<rect x="0.319336" y="0.875" width="42.2261" height="42.2261" rx="5" fill="#D9D9D9"/>
<path d="M28.9064 6.90625C27.7621 7.16907 26.4466 9.41848 25.645 10.3991C26.2068 10.653 26.8303 10.6598 27.4881 10.6461C27.8101 10.1088 30.907 6.91517 28.9064 6.90625ZM10.7977 11.3598C11.6267 11.8703 12.7709 11.9664 13.5794 11.9733C15.443 11.987 17.889 11.5519 20.4241 10.7902L21.0134 11.8429C19.5951 13.1192 19.2525 14.1486 19.2525 14.8622C19.2457 15.5759 19.6568 16.07 19.7527 16.1386C20.4721 16.667 21.4587 16.6326 22.6783 16.1317C23.9047 15.6376 25.2613 14.6838 26.4809 13.6133L27.1112 13.0506L27.4538 13.826C28.3308 15.8229 29.1873 17.6345 30.2287 18.8079C31.1194 19.8167 32.0855 20.3794 33.4969 20.3313C32.8871 18.4511 32.5377 17.065 32.0238 15.9258C31.4414 14.6358 30.6535 13.5653 28.8789 12.0899C28.6597 11.9115 28.228 11.8772 27.5497 11.884C25.7341 11.8703 24.4528 11.4998 23.2059 10.1589C22.8085 9.72659 22.507 9.34231 21.7876 8.8002C17.8616 9.29976 13.9768 10.4361 10.7977 11.3598ZM18.8003 12.5085C17.478 12.831 16.2036 13.0437 15.0319 13.1467C14.9429 13.6202 14.4838 14.375 14.0727 14.2927C13.7713 14.2103 13.6274 13.7437 13.7164 13.2084C13.045 13.1947 12.3393 13.1535 11.7638 13.0369C10.7182 14.1142 10.427 15.6445 10.1667 16.9277C10.7216 16.8317 10.7908 17.8061 10.6983 18.1904C10.538 18.7874 10.1447 19.1991 9.80832 19.1373C9.43217 22.1567 9.41025 25.526 9.39312 28.6551C9.37325 32.3813 9.06767 35.4898 11.243 37.521C17.1148 39.1679 24.6858 33.7262 29.1941 29.1286C29.0297 29.1835 28.8858 29.1698 28.7762 29.1012C28.4816 28.9022 28.5295 28.3189 28.8789 27.7974C29.1599 27.4748 29.6189 26.9464 30.0437 27.1935C30.263 27.3444 30.2972 27.715 30.1328 28.1405C31.736 26.37 32.8049 24.8329 33.0173 24.0232C33.1612 23.1654 33.1817 22.342 33.1201 21.5528C33.031 21.5528 32.9488 21.5459 32.8666 21.5391C32.8528 21.7449 32.7843 21.9851 32.6679 22.2116C32.3801 22.7811 31.8936 23.1036 31.5853 22.9458C31.2701 22.788 31.2427 22.2047 31.5305 21.6351C31.5922 21.5116 31.6675 21.395 31.7498 21.2989C31.1468 21.093 30.5987 20.7842 30.1122 20.3931C30.1944 20.6676 30.0985 21.0793 29.845 21.4636C29.4956 21.992 28.968 22.2596 28.6803 22.0606C28.3856 21.8685 28.4336 21.2852 28.783 20.7568C29.0571 20.4411 29.386 20.098 29.7696 20.098C29.6052 19.9471 29.4545 19.7961 29.3037 19.6245C28.4267 18.6364 27.7347 17.3738 27.0907 16.0013C26.8988 16.2552 26.6659 16.3925 26.4603 16.3376C26.2137 16.269 26.0698 15.9396 26.0767 15.5278C25.1311 16.2552 24.1377 16.8728 23.1442 17.2777C22.9592 17.6757 22.6235 18.259 22.2398 18.1766C22.0548 18.1217 21.9246 17.9296 21.8767 17.6551C20.8558 17.8541 19.8554 17.7443 19.0264 17.1404C18.5399 16.7905 18.0946 16.1111 18.0261 15.1367C17.8342 15.4318 17.5807 15.5965 17.3546 15.5347C17.012 15.4455 16.875 14.8759 17.0326 14.2652C17.1833 13.7231 17.5191 13.3251 17.8411 13.3114C18.0329 13.3114 18.1837 13.4829 18.2453 13.6133C18.3687 13.2565 18.5536 12.8928 18.8003 12.5085ZM15.3677 14.8485C15.7034 14.9446 15.8473 15.5141 15.6828 16.118C15.5184 16.7287 15.1142 17.1542 14.7716 17.0581C14.429 16.9689 14.292 16.3993 14.4564 15.7886C14.6414 15.37 14.9086 14.773 15.3677 14.8485ZM12.9422 15.1436C13.278 15.2396 13.4218 15.8092 13.2574 16.4199C13.093 17.0307 12.6887 17.4492 12.3461 17.3532C12.0036 17.264 11.8665 16.6944 12.031 16.0837C12.2228 15.6582 12.4832 15.0818 12.9422 15.1436ZM25.83 16.1043C26.1726 16.1935 26.3096 16.763 26.1452 17.3738C25.9876 17.9845 25.5765 18.4031 25.2339 18.3139C24.8982 18.2178 24.7132 17.6345 24.9187 17.0375C25.0626 16.6052 25.3778 16.0219 25.83 16.1043ZM16.5735 17.3943C16.9161 17.4904 17.06 18.06 16.8956 18.6707C16.7311 19.2814 16.32 19.7 15.9775 19.604C15.6417 19.5147 15.4567 18.9315 15.6623 18.3345C15.8062 17.9021 16.1213 17.3326 16.5735 17.3943ZM19.6088 18.0394C19.9445 18.1286 20.0884 18.6982 19.924 19.3089C19.7595 19.9196 19.3484 20.3382 19.0127 20.249C18.6701 20.1529 18.492 19.5765 18.6907 18.9795C18.8414 18.5403 19.1566 17.9639 19.6088 18.0394ZM24.2199 18.705C24.5625 18.7942 24.7063 19.3638 24.5419 19.9745C24.3775 20.5852 23.9664 21.0107 23.6238 20.9146C23.2881 20.8254 23.1442 20.2559 23.3086 19.6451C23.4936 19.2265 23.7677 18.6295 24.2199 18.705ZM26.9194 18.8285C27.262 18.9177 27.399 19.4873 27.2346 20.098C27.0701 20.7088 26.6659 21.1274 26.3233 21.0381C25.9876 20.9489 25.8437 20.3794 26.0081 19.7686C26.1931 19.3432 26.4603 18.7531 26.9194 18.8285ZM13.3739 19.0344C13.7164 19.1236 13.8603 19.6932 13.6959 20.3039C13.5315 20.9146 13.1204 21.3332 12.7846 21.244C12.4421 21.1479 12.2982 20.5852 12.4626 19.9745C12.6408 19.5628 12.9285 18.9521 13.3739 19.0344ZM21.678 20.3245C22.0205 20.4206 22.1644 20.9901 22 21.6008C21.8355 22.2116 21.4245 22.6302 21.0819 22.541C20.7461 22.4449 20.6023 21.8753 20.7667 21.2646C20.9517 20.846 21.2258 20.2627 21.678 20.3245ZM10.8594 21.3469C11.1951 21.443 11.339 22.0126 11.1745 22.6233C11.0101 23.234 10.6024 23.6526 10.2626 23.5634C9.92206 23.4673 9.77954 22.8978 9.9433 22.2871C10.1331 21.8616 10.4017 21.2852 10.8594 21.3469ZM25.2271 21.7587C25.5696 21.8479 25.7135 22.4174 25.5491 23.0282C25.3847 23.6389 24.9736 24.0575 24.6378 23.9683C23.8362 23.4673 24.4939 21.6283 25.2271 21.7587ZM17.6972 21.9302C18.0466 21.9508 18.307 22.4723 18.2727 23.1036C18.2453 23.735 17.9302 24.2359 17.5807 24.2153C17.2244 24.1947 16.9709 23.6732 17.0052 23.0419C17.0326 22.4106 17.3478 21.9096 17.6972 21.9302ZM14.6757 22.7056C15.0182 22.8017 15.1621 23.3713 14.9977 23.982C14.8333 24.5927 14.4222 25.0113 14.0864 24.9221C13.7439 24.826 13.6 24.2565 13.7644 23.6458C13.9494 23.2272 14.2235 22.6439 14.6757 22.7056ZM28.3103 23.2478C28.6049 23.4399 28.5569 24.0232 28.2075 24.5516C27.8581 25.0799 27.3373 25.3476 27.0427 25.1486C26.7481 24.9496 26.7961 24.3663 27.1455 23.8448C27.399 23.5566 27.9197 22.9527 28.3103 23.2478ZM31.5374 23.6938C31.8388 23.8791 31.8183 24.4624 31.4894 25.0045C31.1605 25.5397 30.6466 25.8279 30.3452 25.6495C30.0437 25.4642 30.0711 24.8741 30.4 24.3388C30.6604 24.0369 31.1126 23.433 31.5374 23.6938ZM20.4995 24.0026C20.8352 24.0918 20.9791 24.6614 20.8147 25.2721C20.6502 25.8828 20.246 26.3014 19.9034 26.2122C19.5677 26.123 19.4238 25.5534 19.5882 24.9427C19.7732 24.5241 20.0473 23.9271 20.4995 24.0026ZM23.9527 24.7437C24.2473 24.9358 24.1993 25.5191 23.8499 26.0475C23.5005 26.5759 22.9798 26.8435 22.6851 26.6445C22.3905 26.4455 22.4385 25.8622 22.7879 25.3407C23.0414 25.0594 23.5621 24.4486 23.9527 24.7437ZM11.2225 25.3956C11.5582 25.4917 11.7021 26.0612 11.5377 26.672C11.3732 27.2827 10.969 27.7013 10.6243 27.6052C10.2845 27.516 10.142 26.9464 10.3057 26.3357C10.4955 25.9103 10.7634 25.3338 11.2225 25.3956ZM26.4672 26.1024C26.7618 26.3014 26.7139 26.8847 26.3644 27.4131C26.015 27.9346 25.4943 28.2022 25.1997 28.0101C24.905 27.8111 24.953 27.2278 25.3024 26.6994C25.5696 26.3975 26.0561 25.8348 26.4672 26.1024ZM17.3546 26.123C17.6972 26.2122 17.8411 26.7818 17.6767 27.3925C17.5122 28.0032 17.1011 28.4218 16.7654 28.3326C16.4228 28.2365 16.2789 27.6738 16.4434 27.0631C16.6215 26.6514 16.9093 26.0406 17.3546 26.123ZM13.7576 26.5279C14.1001 26.6171 14.244 27.1866 14.0796 27.7974C13.9151 28.4081 13.5041 28.8267 13.1615 28.7375C12.8257 28.6483 12.6476 28.065 12.8463 27.468C12.9902 27.0425 13.3122 26.4455 13.7576 26.5279ZM22.0548 27.7287C22.3494 27.9209 22.3015 28.511 21.952 29.0325C21.6026 29.5609 21.0819 29.8285 20.7873 29.6295C20.4926 29.4374 20.5406 28.8473 20.89 28.3257C21.1435 28.0375 21.6643 27.4337 22.0548 27.7287ZM24.124 29.2727C24.4186 29.4717 24.3706 30.055 24.0212 30.5765C23.6718 31.1049 23.151 31.3725 22.8564 31.1735C22.5618 30.9814 22.6098 30.3981 22.9592 29.8697C23.2333 29.5746 23.7129 29.0051 24.124 29.2727ZM26.8851 29.3756C27.1729 29.5746 27.1249 30.1579 26.7755 30.6795C26.4261 31.2078 25.9054 31.4755 25.6108 31.2765C25.323 31.0843 25.3641 30.501 25.7204 29.9727C26.0013 29.657 26.4603 29.1286 26.8851 29.3756ZM17.8342 29.3482C18.17 29.4443 18.3138 30.0138 18.1494 30.6246C17.985 31.2353 17.5807 31.6539 17.2382 31.5647C16.8956 31.4686 16.7174 30.8853 16.923 30.2883C17.0806 29.8217 17.3615 29.307 17.8342 29.3482ZM11.3321 30.2128C11.6747 30.302 11.8186 30.8716 11.6541 31.4823C11.4897 32.0931 11.0786 32.5116 10.7388 32.4224C10.3982 32.3264 10.2557 31.7568 10.4202 31.1529C10.5997 30.7412 10.8868 30.1305 11.3321 30.2128ZM14.6003 30.9265C14.936 31.0157 15.0799 31.5853 14.9155 32.196C14.751 32.8067 14.3468 33.2253 14.0042 33.1361C13.6616 33.0469 13.4766 32.4636 13.6822 31.8666C13.8329 31.4343 14.1481 30.851 14.6003 30.9265ZM19.8554 32.3058C20.1501 32.5048 20.1021 33.0881 19.7527 33.6164C19.4032 34.138 18.8825 34.4056 18.5879 34.2135C18.2933 34.0145 18.3413 33.4312 18.6907 32.9028C18.9579 32.6009 19.4444 32.0382 19.8554 32.3058ZM22.6714 32.7518C22.9661 32.9508 22.9181 33.5341 22.5687 34.0625C22.2192 34.584 21.6985 34.8516 21.4039 34.6595C21.1093 34.4605 21.1572 33.8772 21.5067 33.3488C21.7739 33.0538 22.2603 32.4842 22.6714 32.7518ZM12.216 34.5703C12.5585 34.6664 12.7024 35.2359 12.538 35.8466C12.3735 36.4574 11.9625 36.876 11.6267 36.7799C11.2841 36.6907 11.1403 36.1211 11.3047 35.5104C11.4897 35.0918 11.7706 34.5085 12.216 34.5703ZM16.6215 35.2908C16.9093 35.4898 16.8613 36.0731 16.5119 36.6015C16.1625 37.123 15.6417 37.3906 15.3471 37.1985C15.0525 36.9995 15.1005 36.4162 15.4499 35.8878C15.7308 35.5722 16.1967 35.0438 16.6215 35.2908Z" fill="black"/>
</svg>
