<svg width="16" height="16" viewBox="0 0 16 16" fill="none" xmlns="http://www.w3.org/2000/svg">
<path fill-rule="evenodd" clip-rule="evenodd" d="M2.28281 0.581663C1.77146 0.692614 1.28364 1.0737 1.05184 1.54336C0.838169 1.9762 0.846231 1.83587 0.846231 5.12801C0.846231 8.42014 0.838169 8.27981 1.05184 8.71266C1.22037 9.05412 1.50982 9.34356 1.85128 9.5121C2.09123 9.63054 2.40113 9.71722 2.58826 9.71822L2.68151 9.71871L2.68214 10.9022C2.68271 11.9944 2.6869 12.0949 2.73617 12.2034C2.81556 12.3782 2.94579 12.459 3.14603 12.4578C3.34481 12.4566 3.1497 12.608 5.0388 10.989L6.52103 9.71871L8.82613 9.71822C11.4127 9.71765 11.3496 9.72206 11.775 9.5121C12.2508 9.27726 12.6271 8.79104 12.7379 8.26793C12.8008 7.97114 12.8008 2.28487 12.7379 1.98808C12.5931 1.30478 12.0136 0.725208 11.3303 0.580458C11.0415 0.519287 2.5651 0.520434 2.28281 0.581663ZM11.3202 1.54496C11.524 1.64051 11.6778 1.79438 11.7734 1.99812L11.8486 2.1584V5.12801V8.09762L11.7734 8.25789C11.6778 8.46163 11.524 8.61551 11.3202 8.71105L11.16 8.78622L8.67682 8.80057C6.41604 8.81362 6.18737 8.81922 6.12324 8.86297C6.08451 8.8894 5.50407 9.38232 4.8334 9.95831L3.61399 11.0056L3.59965 10.0486C3.58602 9.13873 3.58238 9.08769 3.52614 9.0124C3.39132 8.83196 3.34412 8.81621 2.88746 8.79951C2.51395 8.78588 2.44819 8.77575 2.30605 8.71002C2.10288 8.61608 1.94872 8.46226 1.85289 8.25789L1.77771 8.09762L1.77 5.1874C1.76153 1.99153 1.75499 2.12434 1.93463 1.85314C2.03789 1.6972 2.19716 1.58014 2.4032 1.50867C2.54473 1.45961 2.77347 1.45725 6.85618 1.46336L11.16 1.46979L11.3202 1.54496ZM3.87079 3.33187C3.68093 3.41504 3.57153 3.635 3.61222 3.85182C3.63738 3.98595 3.78064 4.14448 3.91075 4.18218C3.98243 4.20295 4.92209 4.20989 6.8756 4.20404C9.71268 4.19558 9.73615 4.19506 9.81474 4.13636C9.96531 4.02394 10.0123 3.93224 10.0123 3.7508C10.0123 3.56935 9.96531 3.47765 9.81474 3.36523C9.7361 3.3065 9.71475 3.30601 6.84691 3.29982C4.48927 3.29468 3.9422 3.30059 3.87079 3.33187ZM13.9703 3.41817C13.7851 3.49885 13.6695 3.7244 13.7099 3.92639C13.7393 4.07321 13.8386 4.17842 14.0469 4.28332C14.2757 4.39852 14.4388 4.55377 14.5354 4.74824L14.603 4.88413V7.86808V10.852L14.5278 11.0123C14.432 11.2167 14.2778 11.3705 14.0747 11.4644C13.9325 11.5302 13.8668 11.5403 13.4932 11.5539C13.0366 11.5706 12.9894 11.5864 12.8546 11.7668C12.7983 11.8421 12.7947 11.8932 12.7811 12.803L12.7667 13.7601L11.533 12.6988C10.8544 12.1151 10.2577 11.6189 10.2069 11.5962C10.1293 11.5616 9.7752 11.5551 7.98325 11.5554L5.85196 11.5559L5.73719 11.6201C5.6131 11.6896 5.49331 11.8831 5.49331 12.0141C5.49331 12.1451 5.6131 12.3386 5.73719 12.408L5.85196 12.4722L7.85583 12.4727L9.85967 12.4731L11.3419 13.7434C13.231 15.3625 13.0359 15.2111 13.2347 15.2122C13.4349 15.2134 13.5651 15.1326 13.6445 14.9578C13.6938 14.8493 13.698 14.7488 13.6986 13.6567L13.6992 12.4731L13.7924 12.4726C13.9796 12.4716 14.2895 12.385 14.5294 12.2665C14.8709 12.098 15.1603 11.8085 15.3289 11.4669C15.5463 11.0265 15.5383 11.1733 15.5282 7.80114C15.5181 4.48723 15.53 4.70282 15.3352 4.30719C15.156 3.94306 14.7866 3.5958 14.4233 3.44993C14.2238 3.3698 14.1011 3.36119 13.9703 3.41817ZM3.87079 5.16806C3.68085 5.25147 3.57153 5.47131 3.61222 5.6881C3.63738 5.82218 3.78058 5.98073 3.91075 6.01855C3.98162 6.03915 4.64613 6.04626 5.95746 6.04044C7.86708 6.03194 7.90056 6.03083 7.97846 5.97264C8.12904 5.86022 8.176 5.76852 8.176 5.58708C8.176 5.40563 8.12904 5.31393 7.97846 5.20152C7.90048 5.14324 7.86917 5.14227 5.92877 5.13598C4.33442 5.13085 3.9416 5.13696 3.87079 5.16806Z" fill="white"/>
</svg>
