<svg width="48" height="48" viewBox="0 0 48 48" fill="none" xmlns="http://www.w3.org/2000/svg">
<path d="M42 9H30C28.8357 9 27.6873 9.27109 26.6459 9.7918C25.6045 10.3125 24.6986 11.0685 24 12C23.3014 11.0685 22.3955 10.3125 21.3541 9.7918C20.3127 9.27109 19.1643 9 18 9H6C5.20435 9 4.44129 9.31607 3.87868 9.87868C3.31607 10.4413 3 11.2044 3 12V36C3 36.7956 3.31607 37.5587 3.87868 38.1213C4.44129 38.6839 5.20435 39 6 39H18C19.1935 39 20.3381 39.4741 21.182 40.318C22.0259 41.1619 22.5 42.3065 22.5 43.5C22.5 43.8978 22.658 44.2794 22.9393 44.5607C23.2206 44.842 23.6022 45 24 45C24.3978 45 24.7794 44.842 25.0607 44.5607C25.342 44.2794 25.5 43.8978 25.5 43.5C25.5 42.3065 25.9741 41.1619 26.818 40.318C27.6619 39.4741 28.8065 39 30 39H42C42.7956 39 43.5587 38.6839 44.1213 38.1213C44.6839 37.5587 45 36.7956 45 36V12C45 11.2044 44.6839 10.4413 44.1213 9.87868C43.5587 9.31607 42.7956 9 42 9ZM18 36H6V12H18C19.1935 12 20.3381 12.4741 21.182 13.318C22.0259 14.1619 22.5 15.3065 22.5 16.5V37.5C21.203 36.524 19.6232 35.9974 18 36ZM42 36H30C28.3768 35.9974 26.797 36.524 25.5 37.5V16.5C25.5 15.3065 25.9741 14.1619 26.818 13.318C27.6619 12.4741 28.8065 12 30 12H42V36Z" fill="#F87C56"/>
</svg>
