<svg width="33" height="33" viewBox="0 0 33 33" fill="none" xmlns="http://www.w3.org/2000/svg">
<path d="M31.6152 9.21029C31.5395 9.02755 31.4114 8.87135 31.2469 8.76143C31.0825 8.65152 30.8892 8.59283 30.6914 8.59279H26.8877C26.3558 7.68801 25.599 6.93624 24.6906 6.41055C23.7823 5.88486 22.7534 5.60314 21.7039 5.59279C20.9221 5.58253 20.146 5.72876 19.4215 6.02285C18.697 6.31695 18.0387 6.75298 17.4852 7.30529C16.9155 7.86432 16.4634 8.5316 16.1553 9.2679C15.8473 10.0042 15.6895 10.7947 15.6914 11.5928V12.354C10.6589 11.0265 6.54266 6.93279 6.49891 6.88904C6.36474 6.75369 6.1947 6.6595 6.0088 6.61755C5.8229 6.5756 5.62889 6.58765 5.4496 6.65227C5.27032 6.71689 5.11323 6.83139 4.99685 6.9823C4.88046 7.1332 4.80961 7.31422 4.79266 7.50404C4.25391 13.4778 5.98891 17.4753 7.54266 19.7765C8.30025 20.9142 9.22189 21.9335 10.2777 22.8015C8.37391 24.9928 5.37641 26.144 5.34391 26.1565C5.2028 26.2094 5.07546 26.2934 4.9714 26.4024C4.86734 26.5114 4.78926 26.6425 4.74298 26.7859C4.6967 26.9293 4.68343 27.0813 4.70416 27.2305C4.72488 27.3798 4.77906 27.5224 4.86266 27.6478C4.95641 27.7878 5.33141 28.279 6.24766 28.7378C7.38016 29.3053 8.87641 29.5928 10.6914 29.5928C19.5252 29.5928 26.9064 22.7903 27.6602 14.0378L31.3989 10.3003C31.5387 10.1604 31.6339 9.98211 31.6724 9.78809C31.7109 9.59407 31.691 9.39299 31.6152 9.21029ZM25.9902 12.8865C25.8187 13.0584 25.7156 13.2868 25.7002 13.529C25.1914 21.4153 18.6014 27.5928 10.6914 27.5928C9.37141 27.5928 8.44141 27.4178 7.78891 27.2078C9.22766 26.4265 11.2339 25.0828 12.5239 23.1478C12.5996 23.034 12.6512 22.9059 12.6755 22.7714C12.6998 22.6369 12.6962 22.4989 12.665 22.3658C12.6339 22.2327 12.5758 22.1075 12.4943 21.9977C12.4129 21.888 12.3098 21.7961 12.1914 21.7278C12.1327 21.694 6.70266 18.4353 6.69141 9.72779C8.69141 11.3528 12.3477 13.874 16.5252 14.5765C16.6683 14.6007 16.815 14.5934 16.9551 14.5551C17.0952 14.5168 17.2252 14.4485 17.3362 14.3548C17.4472 14.2612 17.5364 14.1446 17.5978 14.013C17.6591 13.8814 17.6911 13.738 17.6914 13.5928V11.5928C17.6903 11.0594 17.7959 10.5311 18.002 10.0391C18.208 9.54703 18.5105 9.1012 18.8914 8.72779C19.2566 8.36191 19.6914 8.07296 20.1702 7.87801C20.649 7.68306 21.162 7.58608 21.6789 7.59279C23.2614 7.61279 24.7402 8.57779 25.3589 9.99404C25.4369 10.1721 25.5651 10.3236 25.7278 10.4299C25.8906 10.5362 26.0808 10.5928 26.2752 10.5928H28.2752L25.9902 12.8865Z" fill="#2E2E2E"/>
</svg>
