<svg width="33" height="33" viewBox="0 0 33 33" fill="none" xmlns="http://www.w3.org/2000/svg">
<path d="M31.6152 9.05892C31.5395 8.87618 31.4114 8.71998 31.2469 8.61007C31.0825 8.50015 30.8892 8.44146 30.6914 8.44142H26.8877C26.3558 7.53665 25.599 6.78487 24.6906 6.25918C23.7823 5.73349 22.7534 5.45177 21.7039 5.44142C20.9221 5.43117 20.146 5.57739 19.4215 5.87149C18.697 6.16558 18.0387 6.60161 17.4852 7.15392C16.9155 7.71295 16.4634 8.38023 16.1553 9.11653C15.8473 9.85283 15.6895 10.6433 15.6914 11.4414V12.2027C10.6589 10.8752 6.54266 6.78142 6.49891 6.73767C6.36474 6.60232 6.1947 6.50813 6.0088 6.46618C5.8229 6.42423 5.62889 6.43628 5.4496 6.5009C5.27032 6.56552 5.11323 6.68003 4.99685 6.83093C4.88046 6.98183 4.80961 7.16285 4.79266 7.35267C4.25391 13.3264 5.98891 17.3239 7.54266 19.6252C8.30025 20.7628 9.22189 21.7821 10.2777 22.6502C8.37391 24.8414 5.37641 25.9927 5.34391 26.0052C5.2028 26.058 5.07546 26.1421 4.9714 26.2511C4.86734 26.36 4.78926 26.4911 4.74298 26.6345C4.6967 26.7779 4.68343 26.9299 4.70416 27.0792C4.72488 27.2284 4.77906 27.3711 4.86266 27.4964C4.95641 27.6364 5.33141 28.1277 6.24766 28.5864C7.38016 29.1539 8.87641 29.4414 10.6914 29.4414C19.5252 29.4414 26.9064 22.6389 27.6602 13.8864L31.3989 10.1489C31.5387 10.009 31.6339 9.83075 31.6724 9.63673C31.7109 9.4427 31.691 9.24163 31.6152 9.05892ZM25.9902 12.7352C25.8187 12.907 25.7156 13.1354 25.7002 13.3777C25.1914 21.2639 18.6014 27.4414 10.6914 27.4414C9.37141 27.4414 8.44141 27.2664 7.78891 27.0564C9.22766 26.2752 11.2339 24.9314 12.5239 22.9964C12.5996 22.8826 12.6512 22.7545 12.6755 22.6201C12.6998 22.4856 12.6962 22.3475 12.665 22.2144C12.6339 22.0814 12.5758 21.9561 12.4943 21.8464C12.4129 21.7366 12.3098 21.6448 12.1914 21.5764C12.1327 21.5427 6.70266 18.2839 6.69141 9.57642C8.69141 11.2014 12.3477 13.7227 16.5252 14.4252C16.6683 14.4493 16.815 14.442 16.9551 14.4037C17.0952 14.3654 17.2252 14.2971 17.3362 14.2035C17.4472 14.1099 17.5364 13.9932 17.5978 13.8616C17.6591 13.73 17.6911 13.5866 17.6914 13.4414V11.4414C17.6903 10.908 17.7959 10.3797 18.002 9.88769C18.208 9.39566 18.5105 8.94983 18.8914 8.57642C19.2566 8.21054 19.6914 7.92159 20.1702 7.72664C20.649 7.5317 21.162 7.43471 21.6789 7.44142C23.2614 7.46142 24.7402 8.42642 25.3589 9.84267C25.4369 10.0207 25.5651 10.1722 25.7278 10.2785C25.8906 10.3849 26.0808 10.4415 26.2752 10.4414H28.2752L25.9902 12.7352Z" fill="#2E2E2E"/>
</svg>
