<svg width="41" height="41" viewBox="0 0 41 41" fill="none" xmlns="http://www.w3.org/2000/svg">
<path d="M20.5234 0.425781C9.49548 0.425781 0.523438 9.39783 0.523438 20.4258C0.523438 31.4529 9.49548 40.4258 20.5234 40.4258C31.5506 40.4258 40.5234 31.4529 40.5234 20.4258C40.5234 9.39783 31.5522 0.425781 20.5234 0.425781ZM29.4455 15.8483C29.4544 16.0465 29.4592 16.2463 29.4592 16.4461C29.4592 22.5292 24.8302 29.5412 16.3609 29.5412C13.7612 29.5412 11.3411 28.7815 9.30455 27.4748C9.66466 27.5175 10.0312 27.5393 10.4026 27.5393C12.56 27.5393 14.5442 26.803 16.12 25.5688C14.106 25.5317 12.4053 24.2009 11.8197 22.3713C12.1 22.4245 12.3892 22.4543 12.6849 22.4543C13.1046 22.4543 13.5122 22.3995 13.8981 22.294C11.7923 21.8718 10.206 20.0117 10.206 17.7802C10.206 17.7608 10.206 17.7407 10.2068 17.7222C10.8272 18.0662 11.5369 18.274 12.2909 18.2974C11.0567 17.4732 10.2439 16.0634 10.2439 14.4667C10.2439 13.6224 10.4703 12.8313 10.8666 12.1514C13.136 14.9372 16.5292 16.7691 20.3543 16.9625C20.2753 16.6249 20.2358 16.2745 20.2358 15.9128C20.2358 13.3711 22.2966 11.3095 24.8383 11.3095C26.1627 11.3095 27.3574 11.8686 28.1985 12.7628C29.2482 12.5566 30.231 12.1748 31.1228 11.6455C30.7764 12.721 30.0489 13.6224 29.0959 14.1928C30.028 14.0816 30.9174 13.8351 31.7399 13.4686C31.126 14.3902 30.3454 15.2014 29.4455 15.8483Z" fill="#797979"/>
</svg>
