<svg width="33" height="33" viewBox="0 0 33 33" fill="none" xmlns="http://www.w3.org/2000/svg">
<path d="M21.2464 15.7603L15.2464 11.7603C15.0958 11.6598 14.9207 11.6021 14.7398 11.5933C14.5589 11.5845 14.3791 11.6251 14.2194 11.7105C14.0598 11.796 13.9263 11.9232 13.8333 12.0786C13.7403 12.234 13.6913 12.4117 13.6914 12.5928V20.5928C13.6913 20.7739 13.7403 20.9516 13.8333 21.107C13.9263 21.2623 14.0598 21.3896 14.2194 21.475C14.3791 21.5605 14.5589 21.601 14.7398 21.5923C14.9207 21.5835 15.0958 21.5258 15.2464 21.4253L21.2464 17.4253C21.3836 17.334 21.4961 17.2102 21.5739 17.065C21.6517 16.9198 21.6924 16.7575 21.6924 16.5928C21.6924 16.428 21.6517 16.2658 21.5739 16.1206C21.4961 15.9753 21.3836 15.8516 21.2464 15.7603ZM15.6914 18.724V14.4678L18.8889 16.5928L15.6914 18.724ZM29.9827 9.28278C29.8649 8.82196 29.6392 8.39575 29.3243 8.03932C29.0094 7.68288 28.6142 7.40643 28.1714 7.23278C23.8864 5.57778 17.0664 5.59278 16.6914 5.59278C16.3164 5.59278 9.49641 5.57778 5.21141 7.23278C4.76861 7.40643 4.37345 7.68288 4.05852 8.03932C3.7436 8.39575 3.51794 8.82196 3.40016 9.28278C3.07641 10.5303 2.69141 12.8103 2.69141 16.5928C2.69141 20.3753 3.07641 22.6553 3.40016 23.9028C3.51776 24.3638 3.74334 24.7903 4.05828 25.1469C4.37321 25.5036 4.76847 25.7803 5.21141 25.954C9.31641 27.5378 15.7414 27.5928 16.6089 27.5928H16.7739C17.6414 27.5928 24.0702 27.5378 28.1714 25.954C28.6143 25.7803 29.0096 25.5036 29.3245 25.1469C29.6395 24.7903 29.8651 24.3638 29.9827 23.9028C30.3064 22.6528 30.6914 20.3753 30.6914 16.5928C30.6914 12.8103 30.3064 10.5303 29.9827 9.28278ZM28.0464 23.4078C28.0083 23.5611 27.9344 23.7033 27.8308 23.8226C27.7271 23.9419 27.5967 24.0349 27.4502 24.094C23.4939 25.6215 16.7652 25.594 16.7002 25.594H16.6914C16.6239 25.594 9.90016 25.619 5.94141 24.094C5.79487 24.0349 5.66443 23.9419 5.56079 23.8226C5.45715 23.7033 5.38325 23.5611 5.34516 23.4078C5.04141 22.2665 4.69141 20.164 4.69141 16.5928C4.69141 13.0215 5.04141 10.919 5.33641 9.78403C5.37379 9.62975 5.44737 9.4866 5.55105 9.3664C5.65473 9.24619 5.78554 9.1524 5.93266 9.09278C9.74766 7.61903 16.1402 7.59278 16.6639 7.59278H16.6977C16.7652 7.59278 23.4952 7.57028 27.4477 9.09278C27.5942 9.15192 27.7246 9.24495 27.8283 9.36423C27.9319 9.48352 28.0058 9.62567 28.0439 9.77903C28.3414 10.919 28.6914 13.0215 28.6914 16.5928C28.6914 20.164 28.3414 22.2665 28.0464 23.4015V23.4078Z" fill="#2E2E2E"/>
</svg>
