<svg width="41" height="41" viewBox="0 0 41 41" fill="none" xmlns="http://www.w3.org/2000/svg">
<path d="M20.5234 0.425781C16.5678 0.425781 12.701 1.59876 9.41204 3.79639C6.12306 5.99402 3.55961 9.11759 2.04586 12.7721C0.532103 16.4266 0.136037 20.448 0.907741 24.3276C1.67945 28.2072 3.58426 31.7709 6.38131 34.5679C9.17836 37.365 12.742 39.2698 16.6216 40.0415C20.5013 40.8132 24.5226 40.4171 28.1771 38.9034C31.8316 37.3896 34.9552 34.8262 37.1528 31.5372C39.3505 28.2482 40.5234 24.3814 40.5234 20.4258C40.5234 15.1214 38.4163 10.0344 34.6656 6.28364C30.9148 2.53292 25.8278 0.425781 20.5234 0.425781ZM31.0498 23.9652C31.0501 24.4883 30.9474 25.0064 30.7474 25.4897C30.5475 25.9731 30.2543 26.4123 29.8845 26.7824C29.5147 27.1524 29.0757 27.4459 28.5925 27.6461C28.1092 27.8464 27.5913 27.9495 27.0682 27.9495H13.9787C13.4556 27.9495 12.9377 27.8464 12.4544 27.6461C11.9712 27.4459 11.5321 27.1524 11.1624 26.7824C10.7926 26.4123 10.4994 25.9731 10.2995 25.4897C10.0995 25.0064 9.99678 24.4883 9.99713 23.9652V16.8863C9.99678 16.3632 10.0995 15.8452 10.2995 15.3618C10.4994 14.8784 10.7926 14.4392 11.1624 14.0692C11.5321 13.6992 11.9712 13.4057 12.4544 13.2054C12.9377 13.0052 13.4556 12.9021 13.9787 12.9021H27.0682C27.5913 12.9021 28.1092 13.0052 28.5925 13.2054C29.0757 13.4057 29.5147 13.6992 29.8845 14.0692C30.2543 14.4392 30.5475 14.8784 30.7474 15.3618C30.9474 15.8452 31.0501 16.3632 31.0498 16.8863V23.9652Z" fill="#797979"/>
</svg>
