<svg width="33" height="33" viewBox="0 0 33 33" fill="none" xmlns="http://www.w3.org/2000/svg">
<path d="M21.2464 15.6089L15.2464 11.6089C15.0958 11.5084 14.9207 11.4507 14.7398 11.4419C14.5589 11.4332 14.3791 11.4737 14.2194 11.5592C14.0598 11.6446 13.9263 11.7718 13.8333 11.9272C13.7403 12.0826 13.6913 12.2603 13.6914 12.4414V20.4414C13.6913 20.6225 13.7403 20.8002 13.8333 20.9556C13.9263 21.111 14.0598 21.2382 14.2194 21.3237C14.3791 21.4091 14.5589 21.4497 14.7398 21.4409C14.9207 21.4321 15.0958 21.3744 15.2464 21.2739L21.2464 17.2739C21.3836 17.1826 21.4961 17.0589 21.5739 16.9136C21.6517 16.7684 21.6924 16.6062 21.6924 16.4414C21.6924 16.2766 21.6517 16.1144 21.5739 15.9692C21.4961 15.824 21.3836 15.7002 21.2464 15.6089ZM15.6914 18.5727V14.3164L18.8889 16.4414L15.6914 18.5727ZM29.9827 9.13141C29.8649 8.67059 29.6392 8.24439 29.3243 7.88795C29.0094 7.53151 28.6142 7.25507 28.1714 7.08141C23.8864 5.42641 17.0664 5.44141 16.6914 5.44141C16.3164 5.44141 9.49641 5.42641 5.21141 7.08141C4.76861 7.25507 4.37345 7.53151 4.05852 7.88795C3.7436 8.24439 3.51794 8.67059 3.40016 9.13141C3.07641 10.3789 2.69141 12.6589 2.69141 16.4414C2.69141 20.2239 3.07641 22.5039 3.40016 23.7514C3.51776 24.2125 3.74334 24.6389 4.05828 24.9956C4.37321 25.3522 4.76847 25.6289 5.21141 25.8027C9.31641 27.3864 15.7414 27.4414 16.6089 27.4414H16.7739C17.6414 27.4414 24.0702 27.3864 28.1714 25.8027C28.6143 25.6289 29.0096 25.3522 29.3245 24.9956C29.6395 24.6389 29.8651 24.2125 29.9827 23.7514C30.3064 22.5014 30.6914 20.2239 30.6914 16.4414C30.6914 12.6589 30.3064 10.3789 29.9827 9.13141ZM28.0464 23.2564C28.0083 23.4098 27.9344 23.5519 27.8308 23.6712C27.7271 23.7905 27.5967 23.8835 27.4502 23.9427C23.4939 25.4702 16.7652 25.4427 16.7002 25.4427H16.6914C16.6239 25.4427 9.90016 25.4677 5.94141 23.9427C5.79487 23.8835 5.66443 23.7905 5.56079 23.6712C5.45715 23.5519 5.38325 23.4098 5.34516 23.2564C5.04141 22.1152 4.69141 20.0127 4.69141 16.4414C4.69141 12.8702 5.04141 10.7677 5.33641 9.63266C5.37379 9.47839 5.44737 9.33523 5.55105 9.21503C5.65473 9.09483 5.78554 9.00104 5.93266 8.94141C9.74766 7.46766 16.1402 7.44141 16.6639 7.44141H16.6977C16.7652 7.44141 23.4952 7.41891 27.4477 8.94141C27.5942 9.00055 27.7246 9.09358 27.8283 9.21286C27.9319 9.33215 28.0058 9.4743 28.0439 9.62766C28.3414 10.7677 28.6914 12.8702 28.6914 16.4414C28.6914 20.0127 28.3414 22.1152 28.0464 23.2502V23.2564Z" fill="#2E2E2E"/>
</svg>
