<svg xmlns="http://www.w3.org/2000/svg" version="1.1" xmlns:xlink="http://www.w3.org/1999/xlink" xmlns:svgjs="http://svgjs.com/svgjs" width="135" height="135"><svg id="SvgjsSvg1003" xmlns="http://www.w3.org/2000/svg" viewBox="0 0 135 135"><defs><style>.cls-1{fill:#fff;}.cls-2{fill:#da291c;}.cls-3{fill:#ffde76;}</style></defs><g id="SvgjsG1002"><g id="SvgjsG1001"><g id="SvgjsG1000"><rect class="cls-3" width="135" height="135"></rect><g><path class="cls-2" d="M102.857,9.5H31.857V125.5H102.857V9.5Z"></path><path class="cls-2" d="M63.657,70.6c-.6,.4-.7,.7,.1,1.5,7.3,7.3,9.1,14.4,9.6,16.5,.663,2.425,1.132,4.9,1.4,7.4,.2,4.7-2.6,4.9-5.7,2.5-2.434-2.226-4.405-4.911-5.8-7.9-2.005-4.385-3.515-8.98-4.5-13.7-.4-2-.8-1.6-1.4-1.9-1.186-.63-1.738-2.03-1.3-3.3,.4-.8,1.1-.7-.4-1.8-5.5-3.9-14.5-7.1-16.1-7.7-1.4-.5-9.8-3.3-12.3-5.7-3-2.8-2.4-4.8,1.2-7.1,4.6-2.9,17.1-8.9,26.8-11.2,5.1-1.2,12.4-2.9,18.2,1.2,2.557-3.014,5.871-5.292,9.6-6.6,1.562-.637,3.355-.239,4.5,1,3.2,4-.9,4.7-2.4,3.2-.6-.5-1.8-.1-2.7,.6-2.339,1.421-4.432,3.211-6.2,5.3,2,4.4,3.3,12.4-5.6,21.6,1.6,10,9.3,8.6,11.4,8,6-1.6,14.3-8.6,23.1-17.7,2.8-2.8,6.2-.1,3.3,3.1-9.8,10.5-20.4,17.4-26.7,18.9-6.2,1.5-11.9,.2-14.8-8.8-1.046,.933-2.148,1.801-3.3,2.6Zm7.1-27.6c-4.1-3.5-11.7-1.3-15.5-.3-4.857,1.358-9.631,2.994-14.3,4.9-2.2,1-4,2-5.9,3-1.5,.8-5.1,2.4-2.1,4.2,1.5,.8,3.2,1.5,6.1,2.7,3.1,1.3,7.4,3,9.4,3.9,2.445,1.039,4.817,2.242,7.1,3.6,3.1-1.8,4.3-.5,4.9,1.1,.4,1,.9,.4,1.3,.1,1.1-1,2.9-2.5,3.9-3.5-1.074-6.988,.77-14.111,5.1-19.7Zm2.6,3.5c-2.4,3.1-3.9,9.1-3.5,11.8,4.5-5,3.5-11.8,3.5-11.8Zm-10.4,30.6c.8,4.5,4,12.3,5.5,14.5,.4,.6,3.8,4.8,.8-4.8-1.294-3.691-3.454-7.017-6.3-9.7Z"></path><path class="cls-1" d="M63.657,68.1c-.6,.4-.7,.7,.1,1.5,7.3,7.3,9.1,14.4,9.6,16.6,.663,2.425,1.132,4.9,1.4,7.4,.2,4.7-2.6,4.9-5.7,2.5-2.434-2.226-4.405-4.911-5.8-7.9-2.005-4.385-3.515-8.98-4.5-13.7-.4-2-.8-1.6-1.4-1.9-1.186-.63-1.738-2.03-1.3-3.3,.4-.8,1.1-.8-.4-1.8-5.5-3.9-14.5-7.1-16.1-7.7-1.4-.5-9.8-3.3-12.3-5.7-3-2.8-2.4-4.8,1.2-7.1,4.6-2.9,17.1-8.9,26.8-11.2,5.1-1.2,12.4-2.9,18.2,1.2,2.557-3.014,5.871-5.292,9.6-6.6,1.562-.637,3.355-.239,4.5,1,3.2,4-.9,4.7-2.4,3.2-.6-.5-1.8,0-2.7,.6-2.339,1.421-4.432,3.211-6.2,5.3,2,4.4,3.3,12.4-5.6,21.6,1.6,10,9.3,8.6,11.4,8,6.1-1.7,14.4-8.7,23.2-17.8,2.8-2.8,6.2-.1,3.3,3.1-9.8,10.5-20.5,17.5-26.7,18.9-6.2,1.5-11.9,.2-14.8-8.8,0,0-1.5,1.2-3.4,2.6Zm7.1-27.6c-4.1-3.5-11.7-1.3-15.5-.3-4.857,1.358-9.631,2.994-14.3,4.9-2.2,1-4,2-5.9,3-1.5,.8-5.1,2.4-2.1,4.2,1.5,.8,3.2,1.5,6.1,2.7,3.1,1.3,7.4,3,9.4,3.9,2.445,1.039,4.817,2.242,7.1,3.6,3.1-1.8,4.3-.5,4.9,1.1,.4,1,.9,.4,1.3,.1,1.1-1,2.9-2.5,3.9-3.5-1.074-6.988,.77-14.111,5.1-19.7Zm2.6,3.5c-2.4,3.1-3.9,9.1-3.5,11.8,4.5-5,3.5-11.8,3.5-11.8Zm-10.4,30.6c.8,4.5,4,12.3,5.5,14.5,.4,.6,3.8,4.8,.8-4.8-1.294-3.691-3.454-7.017-6.3-9.7Z"></path></g></g></g></g></svg><style>@media (prefers-color-scheme: light) { :root { filter: none; } }
</style></svg>