<svg width="495" height="588" viewBox="0 0 495 588" fill="none" xmlns="http://www.w3.org/2000/svg">
<g clip-path="url(#clip0_1168_44906)">
<path d="M0 32C0 14.3269 14.3269 0 32 0H495V588H32C14.3269 588 0 573.673 0 556V32Z" fill="#F9D3D0"/>
<g clip-path="url(#clip1_1168_44906)">
<path d="M24.8475 48.0559C21.4701 42.4749 15.2892 32.8676 11.569 27.5048C10.8937 26.5354 10.1548 25.5209 9.05258 25.0953C7.35679 24.4451 5.50794 25.4158 3.9605 26.3658C-3.85215 31.1557 -11.5023 36.2193 -18.9669 41.5378C-17.5485 44.0592 -16.1346 46.5796 -14.7162 49.1011C-11.6213 45.7669 -8.10165 42.9049 -4.26259 40.4653C0.0685778 37.7124 3.54217 35.4005 7.15973 38.1546C8.89596 39.4787 11.6529 44.2497 12.8338 46.0867C13.5682 47.2284 16.4717 51.7779 17.2061 52.9195L24.8475 48.0559Z" fill="#20AD67"/>
<path d="M19.3393 47.2938C11.8008 42.6395 -1.53027 45.7414 -7.79715 51.312C-14.0658 56.8799 -17.5464 63.8681 -18.7424 70.1369C-21.0453 82.1978 -12.8467 97.447 -7.74317 106.527C1.91637 123.7 11.6014 135.877 27.2565 148.059C40.887 158.665 54.0226 147.658 60.5195 143.523C70.1542 137.39 71.7389 128.321 83.8144 120.829C94.7807 114.024 100.043 116.995 107.86 112.334C113.994 108.678 128.187 96.847 125.841 85.5566C120.821 61.4047 108.5 46.0744 94.0016 27.3061C89.5585 21.5521 79.139 9.49666 72.3273 5.6973C65.5128 1.89969 56.1138 0.248479 45.7258 3.09788C36.2735 5.68997 26.6097 12.039 20.589 19.614C14.5684 27.1889 16.8749 41.0967 19.3393 47.2938Z" fill="#E74F44"/>
</g>
<g clip-path="url(#clip2_1168_44906)">
<path d="M100.645 236.163C106.571 233.437 116.814 228.379 122.562 225.287C123.602 224.726 124.693 224.106 125.24 223.059C126.077 221.447 125.321 219.5 124.552 217.856C120.674 209.553 116.505 201.38 112.063 193.364C109.397 194.489 106.733 195.609 104.068 196.734C107.032 200.185 109.479 204.005 111.47 208.095C113.717 212.709 115.622 216.421 112.478 219.705C110.966 221.281 105.915 223.482 103.956 224.448C102.739 225.049 97.891 227.421 96.6738 228.022L100.645 236.163Z" fill="#20AD67"/>
<path d="M102.024 230.777C107.499 223.811 105.92 210.215 101.092 203.36C96.2666 196.503 89.7155 192.257 83.6216 190.362C71.8973 186.713 55.8208 193.14 46.2228 197.187C28.0708 204.848 14.8791 213.098 1.00897 227.279C-11.0671 239.626 -1.61125 253.92 1.7648 260.841C6.77141 271.106 15.6045 273.704 21.6863 286.547C27.2111 298.211 23.6662 303.105 27.4156 311.398C30.3559 317.905 40.5113 333.341 51.9942 332.283C76.5581 330.019 93.1802 319.505 113.464 307.217C119.682 303.451 132.836 294.457 137.379 288.118C141.921 281.775 144.622 272.622 142.962 261.979C141.453 252.295 136.234 241.977 129.386 235.14C122.539 228.304 108.46 229.027 102.024 230.777Z" fill="#E74F44"/>
</g>
<g clip-path="url(#clip3_1168_44906)">
<path d="M36.1898 452.558C32.4062 447.244 26.0384 437.759 22.591 432.217C21.9689 431.213 21.3308 430.132 21.3773 428.951C21.4529 427.137 23.0774 425.825 24.5632 424.781C32.059 419.509 39.7415 414.494 47.5844 409.752C49.3365 412.054 51.0894 414.351 52.8414 416.653C48.5532 418.172 44.5299 420.268 40.7677 422.824C36.5228 425.709 33.0228 427.98 34.1161 432.393C34.643 434.512 37.9292 438.936 39.1471 440.748C39.9039 441.875 42.9286 446.345 43.6854 447.472L36.1898 452.558Z" fill="#20AD67"/>
<path d="M37.6743 447.2C36.3917 438.433 44.5267 427.426 52.126 423.883C59.7236 420.337 67.5191 419.913 73.748 421.302C85.7332 423.971 96.4798 437.546 102.791 445.832C114.724 461.51 122.06 475.231 127.034 494.434C131.365 511.153 116.05 518.845 109.677 523.169C100.226 529.582 91.272 527.439 79.6055 535.553C69.0091 542.92 69.6486 548.929 62.2696 554.257C56.481 558.438 39.9909 566.773 30.5571 560.142C10.3771 545.954 1.19127 528.563 -10.2874 507.81C-13.8071 501.449 -20.7411 487.103 -21.5271 479.343C-22.3103 471.581 -20.0982 462.298 -13.3623 453.892C-7.23376 446.243 2.42751 439.89 11.7691 437.368C21.1107 434.846 32.9629 442.479 37.6743 447.2Z" fill="#E74F44"/>
</g>
<g clip-path="url(#clip4_1168_44906)">
<path d="M251.314 -33.2874C250.383 -42.098 239.773 -50.7446 231.532 -52.2932C223.293 -53.8449 215.635 -52.3222 209.945 -49.4327C198.996 -43.8749 191.951 -28.0598 187.891 -18.4672C180.218 -0.32002 176.512 14.7911 176.455 34.6276C176.405 51.8985 193.149 55.5536 200.395 58.1624C211.14 62.0312 219.284 57.7355 232.598 62.7032C244.69 67.2137 245.56 73.1936 254.03 76.5252C260.674 79.1405 278.716 83.1271 286.211 74.3636C302.243 55.6158 306.831 36.4902 312.805 13.5393C314.638 6.50442 317.799 -9.11329 316.636 -16.8258C315.47 -24.5395 311.026 -32.9841 302.416 -39.4574C294.582 -45.348 283.648 -49.1072 273.972 -49.2347C264.297 -49.3622 254.708 -39.0284 251.314 -33.2874Z" fill="#E74F44"/>
</g>
<g clip-path="url(#clip5_1168_44906)">
<path d="M255.764 197.397C251.257 192.681 243.139 184.643 238.345 180.214C237.475 179.414 236.534 178.584 235.366 178.408C233.569 178.141 231.975 179.489 230.67 180.752C224.082 187.122 217.712 193.724 211.579 200.535C213.51 202.689 215.437 204.843 217.368 206.996C219.666 203.071 222.482 199.513 225.7 196.299C229.332 192.673 232.221 189.663 236.35 191.567C238.332 192.483 242.058 196.543 243.609 198.08C244.573 199.035 248.394 202.847 249.359 203.802L255.764 197.397Z" fill="#20AD67"/>
<path d="M250.22 197.847C241.852 194.939 229.511 200.857 224.601 207.654C219.689 214.449 217.806 222.026 217.998 228.405C218.365 240.678 229.676 253.787 236.627 261.544C249.78 276.213 261.875 286 279.8 294.498C295.406 301.896 305.842 288.302 311.287 282.857C319.363 274.781 318.943 265.584 329.107 255.652C338.337 246.631 344.118 248.389 350.739 242.144C355.934 237.246 367.223 222.618 362.485 212.105C352.347 189.617 336.994 177.323 318.772 162.145C313.187 157.491 300.401 147.982 292.927 145.75C285.451 143.521 275.918 143.947 266.395 148.981C257.73 153.561 249.673 161.855 245.438 170.555C241.203 179.255 246.471 192.332 250.22 197.847Z" fill="#E74F44"/>
</g>
<g clip-path="url(#clip6_1168_44906)">
<path d="M262.021 376.046C267.743 372.913 277.608 367.153 283.127 363.668C284.124 363.035 285.17 362.34 285.643 361.258C286.366 359.591 285.476 357.702 284.593 356.115C280.145 348.103 275.417 340.241 270.426 332.554C267.846 333.862 265.267 335.166 262.686 336.474C265.884 339.71 268.591 343.35 270.862 347.291C273.426 351.737 275.585 355.307 272.677 358.802C271.28 360.48 266.394 363.028 264.508 364.128C263.335 364.813 258.665 367.517 257.492 368.201L262.021 376.046Z" fill="#20AD67"/>
<path d="M263.02 370.575C267.996 363.245 265.473 349.792 260.178 343.291C254.886 336.787 248.055 333.008 241.844 331.542C229.894 328.721 214.304 336.253 205.012 340.959C187.439 349.868 174.855 359.018 162.007 374.132C150.822 387.291 161.252 400.89 165.102 407.56C170.813 417.45 179.805 419.426 186.768 431.813C193.093 443.063 189.898 448.193 194.217 456.204C197.604 462.49 208.811 477.18 220.192 475.324C244.538 471.353 260.387 459.705 279.764 446.031C285.704 441.841 298.199 431.952 302.289 425.311C306.377 418.667 308.433 409.348 306.035 398.847C303.854 389.291 297.928 379.362 290.62 373.02C283.313 366.678 269.318 368.381 263.02 370.575Z" fill="#E74F44"/>
</g>
<g clip-path="url(#clip7_1168_44906)">
<path d="M205.181 595.744C209.897 591.236 217.935 583.119 222.363 578.325C223.163 577.455 223.993 576.514 224.17 575.346C224.437 573.549 223.088 571.955 221.825 570.65C215.455 564.062 208.853 557.692 202.043 551.559C199.889 553.49 197.735 555.417 195.581 557.348C199.507 559.646 203.064 562.462 206.278 565.68C209.905 569.311 212.915 572.201 211.011 576.33C210.095 578.312 206.035 582.038 204.498 583.589C203.543 584.553 199.731 588.374 198.776 589.339L205.181 595.744Z" fill="#20AD67"/>
<path d="M204.732 590.202C207.641 581.834 201.722 569.492 194.925 564.583C188.13 559.671 180.554 557.788 174.175 557.98C161.901 558.347 148.793 569.658 141.035 576.609C126.366 589.762 116.579 601.857 108.082 619.782C100.683 635.388 114.277 645.824 119.723 651.269C127.798 659.345 136.996 658.925 146.928 669.089C155.949 678.319 154.19 684.1 160.435 690.721C165.334 695.916 179.961 707.205 190.474 702.467C212.963 692.329 225.257 676.976 240.435 658.754C245.088 653.168 254.597 640.383 256.829 632.909C259.059 625.433 258.633 615.9 253.598 606.377C249.018 597.712 240.725 589.655 232.024 585.42C223.324 581.185 210.247 586.453 204.732 590.202Z" fill="#E74F44"/>
</g>
<g clip-path="url(#clip8_1168_44906)">
<path d="M408.85 76.7873C402.588 74.9569 391.539 72.054 385.173 70.6161C384.02 70.3581 382.79 70.1099 381.69 70.5412C380 71.2081 379.294 73.1732 378.796 74.9192C376.275 83.73 374.06 92.6325 372.153 101.597C374.903 102.497 377.648 103.399 380.398 104.299C380.425 99.7495 381.085 95.2612 382.265 90.8684C383.596 85.9122 384.594 81.8605 389.121 81.4452C391.296 81.2475 396.553 82.9003 398.664 83.456C399.977 83.801 405.192 85.1916 406.505 85.5366L408.85 76.7873Z" fill="#20AD67"/>
<path d="M404.277 79.9486C395.575 81.6136 387.847 92.9101 386.994 101.251C386.137 109.592 388.295 117.095 391.651 122.523C398.105 132.969 414.455 138.666 424.353 141.908C443.079 148.035 458.447 150.464 478.219 148.861C495.433 147.465 497.674 130.474 499.668 123.035C502.624 112.004 497.661 104.248 501.497 90.5652C504.98 78.1378 510.866 76.7701 513.477 68.0516C515.527 61.2115 517.99 42.8993 508.63 36.164C488.606 21.757 469.164 18.7866 445.793 14.7536C438.63 13.516 422.802 11.6737 415.214 13.4776C407.625 15.2847 399.582 20.4206 393.852 29.5417C388.638 37.8409 385.807 49.0519 386.489 58.7039C387.172 68.356 398.272 77.047 404.277 79.9486Z" fill="#E74F44"/>
</g>
<g clip-path="url(#clip9_1168_44906)">
<path d="M475.825 323.622C480.306 318.882 487.924 310.368 492.104 305.356C492.859 304.447 493.64 303.465 493.757 302.289C493.933 300.481 492.505 298.957 491.178 297.718C484.483 291.461 477.567 285.433 470.454 279.652C468.401 281.69 466.347 283.724 464.294 285.762C468.331 287.858 472.026 290.49 475.399 293.542C479.205 296.985 482.357 299.718 480.665 303.938C479.85 305.964 475.984 309.891 474.528 311.517C473.622 312.529 470.009 316.538 469.104 317.55L475.825 323.622Z" fill="#20AD67"/>
<path d="M475.09 318.111C477.572 309.606 471.036 297.58 463.999 293.021C456.965 288.459 449.302 286.962 442.941 287.477C430.702 288.465 418.183 300.424 410.787 307.759C396.803 321.638 387.64 334.213 380.061 352.544C373.462 368.505 387.567 378.24 393.281 383.403C401.755 391.059 410.919 390.175 421.353 399.822C430.83 408.584 429.366 414.447 435.938 420.743C441.093 425.683 456.273 436.217 466.533 430.953C488.48 419.69 499.981 403.735 514.217 384.767C518.582 378.954 527.432 365.703 529.282 358.126C531.131 350.547 530.222 341.048 524.713 331.792C519.7 323.369 511.009 315.742 502.106 311.953C493.202 308.164 480.409 314.087 475.09 318.111Z" fill="#E74F44"/>
</g>
<g clip-path="url(#clip10_1168_44906)">
<path d="M411.423 522.763C416.139 518.256 424.177 510.139 428.606 505.344C429.406 504.475 430.236 503.534 430.412 502.365C430.679 500.569 429.331 498.974 428.068 497.67C421.698 491.082 415.096 484.712 408.285 478.578C406.131 480.509 403.977 482.436 401.823 484.368C405.749 486.666 409.306 489.481 412.52 492.7C416.147 496.331 419.157 499.221 417.253 503.349C416.337 505.331 412.277 509.057 410.74 510.608C409.785 511.573 405.973 515.394 405.018 516.358L411.423 522.763Z" fill="#20AD67"/>
<path d="M410.974 517.222C413.883 508.853 407.964 496.512 401.167 491.602C394.373 486.69 386.796 484.808 380.417 485C368.144 485.367 355.035 496.677 347.277 503.628C332.609 516.782 322.821 528.877 314.324 546.801C306.925 562.407 320.519 572.843 325.965 578.289C334.041 586.365 343.238 585.945 353.17 596.109C362.191 605.338 360.432 611.12 366.677 617.74C371.576 622.936 386.204 634.224 396.717 629.486C419.205 619.348 431.499 603.996 446.677 585.773C451.33 580.188 460.84 567.402 463.071 559.929C465.301 552.453 464.875 542.919 459.841 533.397C455.26 524.731 446.967 516.674 438.267 512.439C429.566 508.205 416.49 513.472 410.974 517.222Z" fill="#E74F44"/>
</g>
<path d="M147.35 17.509C150.776 13.3415 150.572 7.09693 148.177 2.4231C145.781 -2.25197 141.605 -5.67603 137.408 -8.78359C132.287 -12.5728 126.847 -16.1513 120.661 -17.7967C119.891 -12.5687 119.489 -7.2512 120.235 -2.07018C120.984 3.10894 122.87 8.25043 126.457 11.9516C133.592 19.3078 147.351 17.5071 147.351 17.5071" fill="#20AD67"/>
<path d="M327.811 118.461C333.19 118.039 337.547 113.561 339.254 108.594C340.96 103.626 340.53 98.2425 339.858 93.0634C339.037 86.7466 337.842 80.3452 334.738 74.7481C330.437 77.8186 326.327 81.2167 323.112 85.3479C319.9 89.4787 317.504 94.4032 317.325 99.5546C316.974 109.797 327.814 118.46 327.814 118.46" fill="#20AD67"/>
<path d="M165.461 132.544C170.572 134.272 176.34 131.869 179.862 127.974C183.386 124.077 185.108 118.959 186.528 113.933C188.258 107.803 189.677 101.447 189.025 95.0801C183.863 96.2111 178.748 97.7186 174.167 100.252C169.589 102.786 165.449 106.371 163.258 111.037C158.906 120.315 165.464 132.544 165.464 132.544" fill="#20AD67"/>
<path d="M432.165 237.149C437.358 235.687 440.758 230.445 441.464 225.242C442.17 220.036 440.699 214.84 439.031 209.891C436.994 203.855 434.574 197.809 430.439 192.925C426.819 196.774 423.45 200.908 421.102 205.587C418.756 210.264 417.366 215.562 418.195 220.649C419.846 230.763 432.167 237.148 432.167 237.148" fill="#20AD67"/>
<path d="M164.626 286.852C164.28 292.236 168.094 297.184 172.767 299.579C177.443 301.974 182.833 302.313 188.055 302.384C194.424 302.468 200.931 302.194 206.912 299.916C204.483 295.223 201.703 290.672 198.071 286.903C194.438 283.137 189.904 280.066 184.83 279.157C174.742 277.355 164.626 286.854 164.626 286.854" fill="#20AD67"/>
<path d="M98.5625 381.447C94.5105 385.009 93.7082 391.205 95.3196 396.203C96.9325 401.203 100.504 405.254 104.147 408.996C108.591 413.559 113.385 417.966 119.225 420.585C120.827 415.549 122.079 410.366 122.175 405.132C122.27 399.9 121.235 394.522 118.29 390.292C112.431 381.884 98.5609 381.448 98.5609 381.448" fill="#20AD67"/>
<path d="M350.86 450.842C355.971 452.57 361.738 450.167 365.261 446.272C368.784 442.376 370.507 437.257 371.926 432.231C373.656 426.101 375.076 419.745 374.424 413.378C369.261 414.509 364.146 416.017 359.566 418.55C354.987 421.085 350.847 424.669 348.657 429.335C344.305 438.613 350.862 450.843 350.862 450.843" fill="#20AD67"/>
<path d="M370.341 315.348C370.36 309.952 366.253 305.244 361.442 303.138C356.63 301.031 351.229 301.019 346.013 301.266C339.65 301.568 333.172 302.236 327.34 304.872C330.049 309.41 333.1 313.784 336.955 317.325C340.809 320.864 345.521 323.655 350.641 324.254C360.82 325.441 370.34 315.345 370.34 315.345" fill="#20AD67"/>
<path d="M458.877 489.409C463.367 492.401 469.559 491.572 473.97 488.722C478.382 485.87 481.371 481.372 484.043 476.885C487.3 471.411 490.316 465.639 491.334 459.321C486.055 459.077 480.724 459.209 475.644 460.471C470.566 461.734 465.639 464.125 462.315 468.065C455.71 475.9 458.879 489.41 458.879 489.41" fill="#20AD67"/>
<path d="M269.358 522.863C269.35 517.467 265.219 512.78 260.399 510.697C255.576 508.614 250.175 508.629 244.96 508.902C238.599 509.236 232.124 509.936 226.306 512.601C229.037 517.125 232.11 521.484 235.982 525.006C239.854 528.526 244.58 531.293 249.702 531.866C259.887 533.003 269.357 522.86 269.357 522.86" fill="#20AD67"/>
<path d="M89.1315 604.558C94.4218 603.499 98.2146 598.534 99.3181 593.4C100.421 588.264 99.354 582.97 98.0702 577.908C96.5031 571.733 94.5546 565.52 90.8065 560.332C86.9015 563.892 83.2254 567.755 80.5252 572.24C77.8272 576.724 76.0342 581.898 76.4701 587.034C77.34 597.245 89.1338 604.557 89.1338 604.557" fill="#20AD67"/>
</g>
<defs>
<clipPath id="clip0_1168_44906">
<path d="M0 32C0 14.3269 14.3269 0 32 0H495V588H32C14.3269 588 0 573.673 0 556V32Z" fill="white"/>
</clipPath>
<clipPath id="clip1_1168_44906">
<rect width="130.593" height="129.366" fill="white" transform="translate(-40.9648 54.8931) rotate(-32.4761)"/>
</clipPath>
<clipPath id="clip2_1168_44906">
<rect width="130.593" height="129.366" fill="white" transform="translate(101.273 170) rotate(63.9995)"/>
</clipPath>
<clipPath id="clip3_1168_44906">
<rect width="130.593" height="129.366" fill="white" transform="matrix(-0.827509 0.561452 0.561452 0.827509 68.5703 394.856)"/>
</clipPath>
<clipPath id="clip4_1168_44906">
<rect width="130.593" height="129.366" fill="white" transform="translate(208.402 -76.3369) rotate(19.8008)"/>
</clipPath>
<clipPath id="clip5_1168_44906">
<rect width="130.593" height="129.366" fill="white" transform="translate(193 218.343) rotate(-45)"/>
</clipPath>
<clipPath id="clip6_1168_44906">
<rect width="130.593" height="129.366" fill="white" transform="translate(258.035 310) rotate(60)"/>
</clipPath>
<clipPath id="clip7_1168_44906">
<rect width="130.593" height="129.366" fill="white" transform="translate(184.234 532.98) rotate(45)"/>
</clipPath>
<clipPath id="clip8_1168_44906">
<rect width="130.593" height="129.366" fill="white" transform="translate(364.969 126.309) rotate(-75)"/>
</clipPath>
<clipPath id="clip9_1168_44906">
<rect width="130.593" height="129.366" fill="white" transform="translate(451.727 262) rotate(42.0988)"/>
</clipPath>
<clipPath id="clip10_1168_44906">
<rect width="130.593" height="129.366" fill="white" transform="translate(390.477 460) rotate(45)"/>
</clipPath>
</defs>
</svg>
