<svg width="495" height="588" viewBox="0 0 495 588" fill="none" xmlns="http://www.w3.org/2000/svg">
<g clip-path="url(#clip0_1168_44908)">
<path d="M0 32C0 14.3269 14.3269 0 32 0H495V588H32C14.3269 588 0 573.673 0 556V32Z" fill="#D2F7E5"/>
<g clip-path="url(#clip1_1168_44908)">
<path d="M6.17414 103.73C1.38083 120.98 -9.03619 136.925 -22.5877 147.765C-18.7846 150.297 -15.3938 153.505 -12.5583 157.249C-5.73088 154.789 1.12434 152.325 8.08284 150.876C15.0413 149.426 22.154 149.016 28.7448 150.673C28.6095 148.301 28.8675 145.851 29.4987 143.477C17.4816 142.616 9.09645 140.079 -2.664 145.247C2.47684 140.487 1.73125 141.793 6.63859 138.844C11.5459 135.894 16.9703 133.998 22.2658 134.051C22.7353 128.901 23.7826 123.741 25.371 118.727C14.3492 124.363 7.66716 129.683 -1.31003 136.335C6.51395 126.857 11.0833 120.115 16.0859 111.997L10.6527 109.215C9.44553 108.595 8.20913 107.956 7.32431 106.88C6.43949 105.804 5.96364 104.183 6.49177 102.689L6.17705 103.723L6.17414 103.73Z" fill="#20AD67"/>
<path d="M98.3872 176.243C100.308 168.103 97.343 159.455 91.7523 154.153C97.2942 156.412 104.183 152.076 106.818 146.034C109.451 139.991 108.608 132.995 106.31 127.134C113.523 126.229 123.39 119.92 126.682 112.796C130.755 103.985 129.323 96.2935 125.839 90.1377C124.042 86.9663 119.556 82.7146 116.384 81.2082C120.742 78.7643 123.02 72.8985 122.184 67.8943C121.35 62.8911 117.843 58.8728 113.582 56.8154C106.14 53.2253 96.304 55.5578 90.3852 62.3186C92.4395 56.1378 89.8676 48.879 84.6419 46.098C79.4162 43.317 72.1585 45.3479 68.4233 50.6348C70.1949 44.4499 66.8387 37.4385 61.2593 35.676C56.6965 34.2338 51.2563 36.5005 48.2012 40.6795C48.0979 37.0439 45.8587 33.5637 42.7725 32.0178C38.7564 30.008 33.8093 30.721 29.5227 32.6558C25.8243 34.3261 22.3669 36.9326 20.0374 40.4821C17.7079 44.0315 16.6117 48.5788 17.6 52.5827C18.6517 56.84 21.8117 59.9366 25.3275 62.2012C19.8457 59.5047 12.0202 62.4604 9.23141 68.6902C6.19427 75.4714 9.95313 84.267 16.5367 85.7852C10.1867 87.2884 4.04132 91.4626 0.834903 97.6627C-2.37055 103.86 -2.07965 112.071 2.30572 116.804C6.03704 120.833 11.7887 121.803 17.2033 122.252C13.8004 124.909 11.9665 129.753 12.7584 133.995C13.5503 138.237 16.9209 141.614 20.926 142.184C17.4327 147.019 14.2764 153.006 15.507 158.698C16.0964 161.429 17.6519 163.748 19.382 165.784C22.3877 169.317 26.1686 172.283 30.6294 173.202C35.0912 174.119 40.2856 172.651 43.3163 168.721C41.4296 172.646 43.1557 177.402 46.0527 180.169C49.1482 183.125 53.5578 184.5 57.8099 183.691C62.062 182.883 66.0628 179.861 68.1591 175.712C66.9695 183.962 73.8226 191.592 81.5209 191.473C89.2192 191.354 96.4659 184.383 98.3895 176.244" fill="#FFD760"/>
</g>
<g clip-path="url(#clip2_1168_44908)">
<path d="M13.2845 359.751C19.9768 376.356 21.4131 395.349 17.2555 412.197C21.8137 411.892 26.4567 412.374 30.9849 413.62C34.9061 407.513 38.847 401.387 43.4869 396.002C48.1267 390.618 53.5213 385.964 59.76 383.269C58.2094 381.469 56.9232 379.368 55.9798 377.1C45.9194 383.729 37.7217 386.818 31.5335 398.075C32.7169 391.17 32.92 392.66 35.0195 387.333C37.119 382.007 40.2699 377.201 44.5044 374.021C41.7432 369.649 39.4341 364.916 37.6436 359.971C32.3269 371.15 30.2614 379.438 27.1854 390.179C27.6267 377.897 27.1504 369.767 26.1802 360.28L20.1757 361.378C18.8407 361.621 17.4705 361.866 16.1137 361.551C14.7569 361.235 13.393 360.239 12.903 358.732L13.2821 359.743L13.2845 359.751Z" fill="#20AD67"/>
<path d="M130.587 361.185C127.159 353.556 119.543 348.498 111.88 347.693C117.653 346.113 120.481 338.48 118.896 332.082C117.308 325.684 112.381 320.646 106.992 317.393C112.165 312.286 116.156 301.276 114.434 293.619C112.305 284.148 106.488 278.916 99.977 276.151C96.6211 274.728 90.4745 274.083 87.0404 274.818C89.0118 270.227 87.2504 264.186 83.5416 260.724C79.8353 257.261 74.6075 256.206 69.9742 257.166C61.8841 258.845 55.4976 266.682 54.9146 275.649C52.7838 269.494 46.326 265.298 40.4869 266.271C34.6477 267.244 30.1241 273.272 30.3771 279.74C28.0195 273.754 21.0898 270.233 15.5897 272.229C11.0913 273.861 8.15344 278.97 8.27193 284.145C5.97774 281.323 2.08314 279.924 -1.30658 280.575C-5.7166 281.424 -9.20856 285 -11.4329 289.144C-13.3515 292.72 -14.509 296.892 -14.1978 301.126C-13.8865 305.36 -11.9895 309.636 -8.76885 312.212C-5.34369 314.95 -0.951795 315.485 3.21621 315.143C-2.77473 316.338 -7.18616 323.446 -5.60848 330.086C-3.89229 337.316 4.44267 342.008 10.591 339.207C6.46649 344.264 4.12978 351.316 5.35804 358.187C6.58554 365.056 11.8128 371.395 18.1724 372.482C23.5852 373.408 28.7398 370.678 33.3099 367.74C32.226 371.919 33.7185 376.879 36.928 379.763C40.1375 382.648 44.8676 383.277 48.3927 381.292C48.5623 387.254 49.7008 393.926 54.1408 397.694C56.2707 399.503 58.9162 400.397 61.5275 400.959C66.0627 401.934 70.8681 401.987 74.9672 400.002C79.0654 398.014 82.2944 393.689 82.3079 388.726C83.1992 392.989 87.4633 395.713 91.4457 396.146C95.7008 396.608 100.037 395.016 102.919 391.787C105.801 388.558 107.138 383.726 106.276 379.157C110.352 386.428 120.433 388.313 126.47 383.534C132.507 378.755 134.016 368.814 130.589 361.184" fill="#FFD760"/>
</g>
<g clip-path="url(#clip3_1168_44908)">
<path d="M13.2845 593.751C19.9768 610.356 21.4131 629.349 17.2555 646.197C21.8137 645.892 26.4567 646.374 30.9849 647.62C34.9061 641.513 38.847 635.387 43.4869 630.002C48.1267 624.618 53.5213 619.964 59.76 617.269C58.2094 615.469 56.9232 613.368 55.9798 611.1C45.9194 617.729 37.7217 620.818 31.5335 632.075C32.7169 625.17 32.92 626.66 35.0195 621.333C37.119 616.007 40.2699 611.201 44.5044 608.021C41.7432 603.649 39.4341 598.916 37.6436 593.971C32.3269 605.15 30.2614 613.438 27.1854 624.179C27.6267 611.897 27.1504 603.767 26.1802 594.28L20.1757 595.378C18.8407 595.621 17.4705 595.866 16.1137 595.551C14.7569 595.235 13.393 594.239 12.903 592.732L13.2821 593.743L13.2845 593.751Z" fill="#20AD67"/>
<path d="M130.587 595.185C127.159 587.556 119.543 582.498 111.88 581.693C117.653 580.113 120.481 572.48 118.896 566.082C117.308 559.684 112.381 554.646 106.992 551.393C112.165 546.286 116.156 535.276 114.434 527.619C112.305 518.148 106.488 512.916 99.977 510.151C96.6211 508.728 90.4745 508.083 87.0404 508.818C89.0118 504.227 87.2504 498.186 83.5416 494.724C79.8353 491.261 74.6075 490.206 69.9742 491.166C61.8841 492.845 55.4976 500.682 54.9146 509.649C52.7838 503.494 46.326 499.298 40.4869 500.271C34.6477 501.244 30.1241 507.272 30.3771 513.74C28.0195 507.754 21.0898 504.233 15.5897 506.229C11.0913 507.861 8.15344 512.97 8.27193 518.145C5.97774 515.323 2.08314 513.924 -1.30658 514.575C-5.7166 515.424 -9.20856 519 -11.4329 523.144C-13.3515 526.72 -14.509 530.892 -14.1978 535.126C-13.8865 539.36 -11.9895 543.636 -8.76885 546.212C-5.34369 548.95 -0.951795 549.485 3.21621 549.143C-2.77473 550.338 -7.18616 557.446 -5.60848 564.086C-3.89229 571.316 4.44267 576.008 10.591 573.207C6.46649 578.264 4.12978 585.316 5.35804 592.187C6.58554 599.056 11.8128 605.395 18.1724 606.482C23.5852 607.408 28.7398 604.678 33.3099 601.74C32.226 605.919 33.7185 610.879 36.928 613.763C40.1375 616.648 44.8676 617.277 48.3927 615.292C48.5623 621.254 49.7008 627.926 54.1408 631.694C56.2707 633.503 58.9162 634.397 61.5275 634.959C66.0627 635.934 70.8681 635.987 74.9672 634.002C79.0654 632.014 82.2944 627.689 82.3079 622.726C83.1992 626.989 87.4633 629.713 91.4457 630.146C95.7008 630.608 100.037 629.016 102.919 625.787C105.801 622.558 107.138 617.726 106.276 613.157C110.352 620.428 120.433 622.313 126.47 617.534C132.507 612.755 134.016 602.814 130.589 595.184" fill="#FFD760"/>
</g>
<g clip-path="url(#clip4_1168_44908)">
<path d="M208.71 68.4754C210.41 86.2975 206.393 104.916 197.621 119.889C202.078 120.891 206.393 122.673 210.381 125.153C215.875 120.412 221.394 115.657 227.372 111.812C233.35 107.967 239.844 105.037 246.592 104.225C245.616 102.059 244.98 99.6789 244.719 97.2366C233.19 100.735 224.453 101.369 215.322 110.404C218.418 104.12 218.19 105.606 221.716 101.095C225.242 96.584 229.628 92.8718 234.591 91.0251C233.186 86.0484 232.316 80.855 232.004 75.6048C223.731 84.8137 219.396 92.1732 213.396 101.599C217.308 89.9475 219.16 82.0166 220.924 72.6453L214.855 71.9927C213.506 71.8465 212.123 71.6922 210.912 71.0044C209.7 70.3167 208.676 68.9737 208.634 67.3896L208.71 68.4673V68.4754Z" fill="#20AD67"/>
<path d="M320.771 103.167C319.65 94.8789 313.785 87.8659 306.667 84.9173C312.65 85.0418 317.53 78.5271 317.827 71.942C318.122 65.3569 314.829 59.1264 310.586 54.4773C316.996 51.0494 323.95 41.6266 324.473 33.796C325.122 24.1105 321.031 17.4415 315.574 12.9413C312.76 10.6235 307.05 8.25967 303.549 7.9889C306.743 4.14668 306.77 -2.146 304.197 -6.51893C301.627 -10.8919 296.914 -13.3884 292.199 -13.7837C283.965 -14.4714 275.616 -8.77174 272.51 -0.339972C272.215 -6.84657 267.215 -12.7033 261.34 -13.429C255.465 -14.1546 249.416 -9.65986 247.821 -3.38613C247.261 -9.79525 241.617 -15.1402 235.776 -14.7882C230.999 -14.5012 226.731 -10.437 225.375 -5.44127C223.977 -8.79881 220.64 -11.2466 217.205 -11.585C212.736 -12.0237 208.372 -9.58675 205.062 -6.24546C202.207 -3.36176 199.912 0.309875 199.008 4.45807C198.103 8.60626 198.708 13.2445 201.064 16.6292C203.57 20.2277 207.63 21.9877 211.723 22.8433C205.639 22.2882 199.391 27.8499 199.017 34.6651C198.61 42.0842 205.268 48.9509 211.959 48.0114C206.568 51.6884 202.325 57.7861 201.551 64.7233C200.777 71.6577 203.988 79.2203 209.777 82.0688C214.704 84.4949 220.421 83.3414 225.638 81.8223C223.412 85.5211 223.434 90.7009 225.692 94.3779C227.95 98.055 232.307 100.002 236.25 99.1002C234.719 104.865 233.916 111.585 237.103 116.459C238.631 118.799 240.914 120.407 243.258 121.688C247.329 123.911 251.922 125.327 256.416 124.588C260.91 123.846 265.235 120.616 266.657 115.861C266.301 120.201 269.616 124.024 273.311 125.571C277.26 127.222 281.869 126.927 285.55 124.65C289.231 122.373 291.885 118.119 292.356 113.494C294.199 121.623 303.33 126.294 310.475 123.426C317.62 120.559 321.891 111.455 320.773 103.167" fill="#FFD760"/>
</g>
<g clip-path="url(#clip5_1168_44908)">
<path d="M261.707 301.124C279.474 303.325 296.779 311.281 309.496 323.089C311.44 318.955 314.115 315.129 317.4 311.773C313.962 305.382 310.516 298.964 308.058 292.295C305.599 285.626 304.146 278.651 304.815 271.888C302.489 272.371 300.028 272.477 297.587 272.202C298.504 284.215 297.23 292.882 304.072 303.754C298.608 299.369 300.009 299.915 296.37 295.495C292.73 291.075 290.056 285.989 289.329 280.744C284.166 281.037 278.907 280.761 273.714 279.928C280.912 290 287.157 295.826 295.059 303.726C284.532 297.383 277.191 293.856 268.424 290.103L266.472 295.886C266.037 297.172 265.587 298.489 264.653 299.522C263.719 300.556 262.186 301.265 260.63 300.963L261.699 301.122L261.707 301.124Z" fill="#20AD67"/>
<path d="M319.852 199.242C311.518 198.54 303.401 202.747 298.98 209.057C300.398 203.243 295.095 197.067 288.731 195.35C282.366 193.636 275.57 195.5 270.112 198.635C268.155 191.634 260.463 182.804 252.931 180.596C243.617 177.864 236.219 180.413 230.644 184.766C227.771 187.01 224.226 192.073 223.203 195.432C220.145 191.481 214.007 190.091 209.181 191.655C204.355 193.217 200.897 197.277 199.489 201.794C197.033 209.684 200.789 219.07 208.347 223.929C201.931 222.807 195.13 226.419 193.149 231.997C191.167 237.575 194.244 244.455 200.024 247.371C193.645 246.529 187.204 250.881 186.283 256.659C185.528 261.385 188.571 266.432 193.154 268.839C189.573 269.476 186.46 272.203 185.386 275.483C183.989 279.752 185.423 284.54 187.967 288.495C190.164 291.907 193.251 294.943 197.105 296.725C200.958 298.506 205.618 298.921 209.432 297.354C213.488 295.687 216.086 292.106 217.808 288.295C215.948 294.114 220.024 301.419 226.596 303.26C233.751 305.266 241.897 300.253 242.43 293.518C244.851 299.577 249.885 305.041 256.489 307.3C263.091 309.558 271.17 308.062 275.205 303.027C278.641 298.744 278.754 292.912 278.401 287.49C281.53 290.465 286.591 291.566 290.67 290.158C294.749 288.75 297.594 284.919 297.568 280.874C302.864 283.617 309.251 285.858 314.699 283.803C317.315 282.817 319.379 280.937 321.137 278.927C324.19 275.433 326.567 271.257 326.82 266.71C327.069 262.161 324.853 257.24 320.519 254.821C324.679 256.109 329.13 253.701 331.44 250.429C333.908 246.932 334.619 242.368 333.193 238.281C331.768 234.194 328.19 230.682 323.777 229.219C332.112 229.181 338.65 221.28 337.399 213.683C336.148 206.086 328.186 199.944 319.853 199.24" fill="#FFD760"/>
</g>
<g clip-path="url(#clip6_1168_44908)">
<path d="M228.707 491.124C246.474 493.325 263.779 501.281 276.496 513.089C278.44 508.955 281.115 505.129 284.4 501.773C280.962 495.382 277.516 488.964 275.058 482.295C272.599 475.626 271.146 468.651 271.815 461.888C269.489 462.371 267.028 462.477 264.587 462.202C265.504 474.215 264.23 482.882 271.072 493.754C265.608 489.369 267.009 489.915 263.37 485.495C259.73 481.075 257.056 475.989 256.329 470.744C251.166 471.037 245.907 470.761 240.714 469.928C247.912 480 254.157 485.826 262.059 493.726C251.532 487.383 244.191 483.856 235.424 480.103L233.472 485.886C233.037 487.172 232.587 488.489 231.653 489.522C230.719 490.556 229.186 491.265 227.63 490.963L228.699 491.122L228.707 491.124Z" fill="#20AD67"/>
<path d="M286.852 389.242C278.518 388.54 270.401 392.747 265.98 399.057C267.398 393.243 262.095 387.067 255.731 385.35C249.366 383.636 242.57 385.5 237.112 388.635C235.155 381.634 227.463 372.804 219.931 370.596C210.617 367.864 203.219 370.413 197.644 374.766C194.771 377.01 191.226 382.073 190.203 385.432C187.145 381.481 181.007 380.091 176.181 381.655C171.355 383.217 167.897 387.277 166.489 391.794C164.033 399.684 167.789 409.07 175.347 413.929C168.931 412.807 162.13 416.419 160.149 421.997C158.167 427.575 161.244 434.455 167.024 437.371C160.645 436.529 154.204 440.881 153.283 446.659C152.528 451.385 155.571 456.432 160.154 458.839C156.573 459.476 153.46 462.203 152.386 465.483C150.989 469.752 152.423 474.54 154.967 478.495C157.164 481.907 160.251 484.943 164.105 486.725C167.958 488.506 172.618 488.921 176.432 487.354C180.488 485.687 183.086 482.106 184.808 478.295C182.948 484.114 187.024 491.419 193.596 493.26C200.751 495.266 208.897 490.253 209.43 483.518C211.851 489.577 216.885 495.041 223.489 497.3C230.091 499.558 238.17 498.062 242.205 493.027C245.641 488.744 245.754 482.912 245.401 477.49C248.53 480.465 253.591 481.566 257.67 480.158C261.749 478.75 264.594 474.919 264.568 470.874C269.864 473.617 276.251 475.858 281.699 473.803C284.315 472.817 286.379 470.937 288.137 468.927C291.19 465.433 293.567 461.257 293.82 456.71C294.069 452.161 291.853 447.24 287.519 444.821C291.679 446.109 296.13 443.701 298.44 440.429C300.908 436.932 301.619 432.368 300.193 428.281C298.768 424.194 295.19 420.682 290.777 419.219C299.112 419.181 305.65 411.28 304.399 403.683C303.148 396.086 295.186 389.944 286.853 389.24" fill="#FFD760"/>
</g>
<g clip-path="url(#clip7_1168_44908)">
<path d="M444.728 101.794C458.532 113.194 468.857 129.199 473.242 145.99C477.102 143.547 481.413 141.755 485.987 140.689C486.519 133.452 487.059 126.188 488.568 119.242C490.076 112.296 492.597 105.632 496.793 100.286C494.572 99.4445 492.439 98.2115 490.528 96.6687C484.849 107.295 479.119 113.921 479.052 126.766C476.797 120.133 477.686 121.346 476.99 115.663C476.293 109.98 476.77 104.254 478.974 99.4383C474.461 96.913 470.173 93.8558 466.24 90.364C466.902 102.726 469.041 110.994 471.463 121.902C465.99 110.898 461.692 103.98 456.313 96.1055L451.56 99.9356C450.503 100.786 449.416 101.655 448.073 102.025C446.73 102.396 445.056 102.17 443.906 101.08L444.722 101.788L444.728 101.794Z" fill="#20AD67"/>
<path d="M548.498 47.0856C541.845 42.0172 532.739 41.2056 525.621 44.154C529.939 40.0114 528.783 31.9542 524.337 27.0876C519.889 22.2227 513.156 20.1453 506.868 19.8585C508.977 12.9016 507.231 1.32166 502.064 -4.58553C495.674 -11.8928 488.065 -13.7157 481.024 -13.039C477.396 -12.6885 471.687 -10.3221 469.019 -8.03774C468.561 -13.0133 464.131 -17.482 459.219 -18.755C454.31 -20.0298 449.212 -18.4626 445.598 -15.408C439.29 -10.0721 437.416 -0.137953 441.182 8.02035C436.373 3.62798 428.696 3.02236 424.029 6.66348C419.361 10.3046 418.262 17.7605 421.571 23.3243C416.642 19.1885 408.872 19.4 404.991 23.7788C401.816 27.3593 401.672 33.2512 404.246 37.7427C400.883 36.3572 396.793 36.9858 394.124 39.1755C390.654 42.0257 389.291 46.8346 389.314 51.5376C389.334 55.5956 390.307 59.8146 392.601 63.3872C394.895 66.9598 398.602 69.8121 402.662 70.5392C406.978 71.3116 411.093 69.6858 414.593 67.3962C409.898 71.3057 409.413 79.6566 413.968 84.7399C418.925 90.2744 428.489 90.4214 432.556 85.0259C431.344 91.438 432.655 98.7503 437.013 104.203C441.369 109.654 448.988 112.73 455.095 110.651C460.294 108.883 463.522 104.024 466.136 99.2615C467.178 103.451 470.856 107.098 475.053 108.101C479.249 109.105 483.707 107.401 485.858 103.975C488.851 109.133 493.035 114.454 498.735 115.647C501.47 116.22 504.222 115.743 506.785 114.991C511.236 113.684 515.484 111.438 518.139 107.738C520.793 104.035 521.566 98.6934 519.21 94.3253C522.027 97.6464 527.075 98.006 530.781 96.4861C534.741 94.862 537.792 91.3938 538.784 87.1809C539.777 82.968 538.645 78.0837 535.709 74.4799C542.76 78.9245 552.519 75.7709 555.544 68.6908C558.569 61.6107 555.151 52.154 548.5 47.0839" fill="#FFD760"/>
</g>
<g clip-path="url(#clip8_1168_44908)">
<path d="M444.704 219.506C428.301 226.68 409.358 228.669 392.396 225.003C392.834 229.551 392.487 234.206 391.374 238.768C397.592 242.51 403.83 246.271 409.348 250.752C414.865 255.233 419.674 260.49 422.55 266.647C424.304 265.045 426.367 263.698 428.606 262.689C421.687 252.826 418.36 244.722 406.928 238.864C413.864 239.846 412.381 240.092 417.766 242.036C423.152 243.979 428.047 246.989 431.349 251.129C435.64 248.241 440.303 245.795 445.194 243.862C433.864 238.873 425.52 237.05 414.693 234.288C426.984 234.371 435.097 233.658 444.551 232.412L443.278 226.442C442.996 225.115 442.712 223.752 442.987 222.387C443.263 221.021 444.22 219.629 445.712 219.096L444.711 219.504L444.704 219.506Z" fill="#20AD67"/>
<path d="M446.69 336.797C454.216 333.148 459.05 325.388 459.632 317.705C461.379 323.429 469.091 326.034 475.44 324.263C481.789 322.489 486.682 317.418 489.776 311.936C495.032 316.958 506.154 320.627 513.757 318.682C523.162 316.278 528.222 310.311 530.796 303.723C532.121 300.327 532.586 294.164 531.752 290.753C536.399 292.59 542.386 290.653 545.738 286.845C549.092 283.04 549.994 277.783 548.899 273.18C546.985 265.142 538.966 258.987 529.986 258.665C536.076 256.356 540.082 249.779 538.939 243.97C537.797 238.162 531.639 233.816 525.181 234.257C531.096 231.726 534.415 224.697 532.259 219.257C530.496 214.808 525.304 212.021 520.134 212.29C522.889 209.914 524.174 205.981 523.424 202.611C522.447 198.228 518.771 194.842 514.564 192.739C510.934 190.925 506.729 189.89 502.506 190.324C498.283 190.759 494.064 192.779 491.583 196.074C488.946 199.577 488.539 203.983 489.003 208.139C487.633 202.185 480.4 197.983 473.809 199.753C466.632 201.679 462.184 210.148 465.164 216.212C459.989 212.236 452.872 210.106 446.039 211.534C439.209 212.961 433.025 218.37 432.124 224.759C431.355 230.196 434.234 235.269 437.304 239.752C433.096 238.79 428.181 240.427 425.392 243.719C422.602 247.011 422.111 251.757 424.197 255.223C418.243 255.566 411.607 256.899 407.97 261.447C406.224 263.628 405.407 266.299 404.922 268.925C404.079 273.487 404.166 278.292 406.269 282.331C408.376 286.37 412.794 289.472 417.755 289.341C413.52 290.356 410.921 294.697 410.604 298.691C410.266 302.957 411.984 307.245 415.296 310.032C418.607 312.819 423.476 314.014 428.017 313.02C420.869 317.306 419.278 327.438 424.231 333.333C429.184 339.227 439.165 340.446 446.691 336.799" fill="#FFD760"/>
</g>
<g clip-path="url(#clip9_1168_44908)">
<path d="M397.426 477.552C403.228 494.489 403.654 513.53 398.608 530.134C403.176 530.071 407.787 530.8 412.242 532.284C416.482 526.394 420.743 520.485 425.662 515.355C430.581 510.224 436.215 505.863 442.588 503.503C441.135 501.623 439.962 499.456 439.14 497.142C428.742 503.227 420.392 505.877 413.615 516.79C415.164 509.957 415.287 511.456 417.666 506.248C420.046 501.041 423.447 496.409 427.844 493.458C425.319 488.945 423.265 484.097 421.739 479.064C415.836 489.945 413.334 498.111 409.692 508.675C410.785 496.433 410.741 488.289 410.275 478.764L404.221 479.542C402.875 479.714 401.494 479.886 400.156 479.499C398.817 479.112 397.508 478.044 397.099 476.513L397.424 477.544L397.426 477.552Z" fill="#20AD67"/>
<path d="M514.485 485.209C511.466 477.409 504.13 471.954 496.521 470.743C502.368 469.472 505.598 462 504.354 455.527C503.108 449.054 498.456 443.761 493.247 440.227C498.684 435.401 503.253 424.619 501.94 416.881C500.316 407.311 494.785 401.777 488.431 398.671C485.155 397.071 479.051 396.102 475.583 396.653C477.795 392.173 476.357 386.047 472.837 382.393C469.32 378.738 464.155 377.407 459.478 378.12C451.31 379.368 444.516 386.854 443.458 395.777C441.657 389.518 435.431 384.986 429.549 385.648C423.666 386.309 418.829 392.089 418.738 398.561C416.702 392.458 409.969 388.574 404.37 390.276C399.792 391.667 396.587 396.613 396.431 401.787C394.289 398.847 390.474 397.243 387.055 397.713C382.606 398.327 378.929 401.713 376.488 405.733C374.383 409.202 373.005 413.307 373.091 417.551C373.177 421.796 374.845 426.166 377.924 428.909C381.199 431.826 385.557 432.593 389.737 432.472C383.691 433.348 378.909 440.211 380.132 446.926C381.462 454.237 389.536 459.365 395.824 456.894C391.437 461.725 388.729 468.643 389.591 475.569C390.453 482.494 395.336 489.101 401.629 490.524C406.985 491.737 412.277 489.284 416.997 486.593C415.693 490.708 416.92 495.74 419.972 498.791C423.024 501.841 427.714 502.721 431.339 500.926C431.192 506.889 431.975 513.612 436.209 517.61C438.239 519.529 440.834 520.562 443.412 521.262C447.889 522.477 452.684 522.785 456.883 521.02C461.081 519.252 464.535 515.104 464.812 510.149C465.476 514.453 469.589 517.4 473.543 518.044C477.768 518.731 482.182 517.371 485.232 514.3C488.281 511.228 489.872 506.474 489.254 501.866C492.939 509.342 502.906 511.76 509.187 507.308C515.469 502.856 517.503 493.009 514.487 485.209" fill="#FFD760"/>
</g>
<g clip-path="url(#clip10_1168_44908)">
<path d="M393.404 666.934C391.683 658.749 385.324 652.181 378.01 649.757C383.986 649.447 388.38 642.594 388.197 636.005C388.013 629.416 384.276 623.441 379.706 619.113C385.85 615.228 392.1 605.325 392.053 597.477C391.996 587.77 387.43 581.416 381.66 577.324C378.686 575.217 372.819 573.275 369.307 573.259C372.213 569.195 371.783 562.917 368.899 558.743C366.018 554.568 361.136 552.421 356.404 552.37C348.142 552.282 340.23 558.574 337.745 567.209C336.978 560.741 331.565 555.264 325.653 554.967C319.741 554.671 314.034 559.593 312.9 565.966C311.875 559.615 305.857 554.694 300.058 555.47C295.315 556.104 291.353 560.468 290.364 565.549C288.725 562.302 285.219 560.103 281.769 560.015C277.279 559.903 273.104 562.65 270.046 566.224C267.408 569.307 265.386 573.136 264.786 577.339C264.186 581.542 265.126 586.124 267.722 589.328C270.483 592.735 274.66 594.195 278.805 594.751C272.697 594.64 266.869 600.641 266.992 607.465C267.125 614.894 274.265 621.259 280.87 619.835C275.761 623.895 271.972 630.285 271.704 637.26C271.436 644.232 275.189 651.541 281.17 653.961C286.26 656.023 291.879 654.456 296.971 652.562C295.02 656.413 295.418 661.578 297.938 665.081C300.457 668.584 304.944 670.209 308.811 669.023C307.704 674.883 307.391 681.645 310.924 686.274C312.618 688.496 315.012 689.934 317.443 691.041C321.665 692.962 326.348 694.041 330.777 692.977C335.205 691.91 339.283 688.374 340.356 683.528C340.317 687.883 343.901 691.455 347.699 692.728C351.757 694.089 356.333 693.459 359.838 690.92C363.344 688.382 365.681 683.946 365.815 679.299C368.244 687.272 377.691 691.267 384.608 687.887C391.526 684.508 395.124 675.118 393.406 666.933" fill="#FFD760"/>
</g>
<path d="M114.184 190.2C115.98 191.181 118.006 191.357 119.959 191.734C127.646 193.207 134.777 197.995 140.384 203.898C145.994 209.802 150.246 216.799 154.185 223.838C146.264 225.633 137.531 222.014 129.898 217.709C124.408 214.613 118.914 210.922 115.467 205.621C112.02 200.319 114.184 190.2 114.184 190.2Z" fill="#20AD67"/>
<path d="M182.825 305.769C181.843 307.566 181.668 309.592 181.291 311.544C179.817 319.232 175.029 326.363 169.126 331.969C163.222 337.58 156.226 341.831 149.186 345.77C147.391 337.849 151.01 329.117 155.316 321.484C158.412 315.994 162.102 310.5 167.404 307.052C172.705 303.605 182.825 305.769 182.825 305.769Z" fill="#20AD67"/>
<path d="M103.435 434.065C104.5 435.812 106.167 436.978 107.669 438.28C113.59 443.4 117.372 451.112 119.275 459.028C121.182 466.946 121.366 475.131 121.258 483.196C113.5 480.791 107.747 473.29 103.289 465.745C100.083 460.319 97.1701 454.376 96.8354 448.061C96.5008 441.746 103.435 434.065 103.435 434.065Z" fill="#20AD67"/>
<path d="M206.272 528.452C205.291 530.248 205.115 532.274 204.738 534.226C203.265 541.914 198.477 549.045 192.573 554.651C186.67 560.262 179.673 564.513 172.634 568.453C170.839 560.531 174.458 551.799 178.763 544.166C181.859 538.676 185.55 533.182 190.851 529.734C196.152 526.287 206.272 528.452 206.272 528.452Z" fill="#20AD67"/>
<path d="M328.628 475.731C330.109 477.144 332.021 477.838 333.809 478.707C340.853 482.12 346.502 488.59 350.39 495.744C354.281 502.898 356.577 510.757 358.56 518.576C350.444 518.26 342.946 512.504 336.687 506.37C332.186 501.958 327.834 496.971 325.876 490.958C323.918 484.945 328.628 475.731 328.628 475.731Z" fill="#20AD67"/>
<path d="M467.161 554.269C466.678 556.257 467.033 558.26 467.174 560.243C467.741 568.05 464.962 576.178 460.711 583.121C456.46 590.068 450.802 595.986 445.022 601.613C441.238 594.426 442.474 585.055 444.657 576.567C446.227 570.463 448.37 564.201 452.598 559.499C456.827 554.797 467.161 554.269 467.161 554.269Z" fill="#20AD67"/>
<path d="M-15.4723 205.755C-13.6762 206.736 -11.6499 206.912 -9.69775 207.289C-2.00996 208.762 5.12093 213.55 10.7275 219.454C16.3378 225.357 20.5894 232.354 24.5287 239.393C16.6076 241.188 7.87523 237.569 0.241902 233.264C-5.24794 230.168 -10.7422 226.477 -14.1894 221.176C-17.6366 215.874 -15.4723 205.755 -15.4723 205.755Z" fill="#20AD67"/>
<path d="M171.272 23.4516C170.291 25.2476 170.115 27.2739 169.738 29.2261C168.265 36.9139 163.477 44.0448 157.573 49.6513C151.67 55.2617 144.673 59.5133 137.634 63.4525C135.839 55.5314 139.458 46.7991 143.763 39.1657C146.859 33.6759 150.55 28.1816 155.851 24.7344C161.152 21.2872 171.272 23.4516 171.272 23.4516Z" fill="#20AD67"/>
<path d="M39.2719 -8.54844C38.2906 -6.75236 38.1149 -4.72607 37.738 -2.77392C36.2646 4.91387 31.4767 12.0448 25.5732 17.6513C19.6695 23.2617 12.6729 27.5133 5.63375 31.4525C3.83863 23.5314 7.45752 14.7991 11.7628 7.16573C14.8589 1.67589 18.5497 -3.81837 23.851 -7.26559C29.1524 -10.7128 39.2719 -8.54844 39.2719 -8.54844Z" fill="#20AD67"/>
<path d="M350.341 15.9014C351.406 17.6493 353.073 18.8146 354.575 20.1171C360.496 25.237 364.278 32.9488 366.181 40.8647C368.088 48.7826 368.272 56.9677 368.164 65.0334C360.406 62.6274 354.653 55.1272 350.195 47.5821C346.989 42.1559 344.076 36.2125 343.742 29.8977C343.407 23.583 350.341 15.9014 350.341 15.9014Z" fill="#20AD67"/>
<path d="M354.443 147.449C356.405 148.032 358.423 147.78 360.411 147.739C368.237 147.571 376.212 150.76 382.93 155.359C389.652 159.957 395.274 165.909 400.6 171.967C393.23 175.381 383.934 173.67 375.568 171.058C369.552 169.18 363.407 166.721 358.926 162.259C354.445 157.797 354.443 147.449 354.443 147.449Z" fill="#20AD67"/>
<path d="M368.123 342.184C367.142 343.981 366.966 346.007 366.59 347.959C365.116 355.647 360.328 362.778 354.425 368.384C348.521 373.995 341.524 378.246 334.485 382.185C332.69 374.264 336.309 365.532 340.614 357.899C343.71 352.409 347.401 346.915 352.703 343.467C358.004 340.02 368.123 342.184 368.123 342.184Z" fill="#20AD67"/>
</g>
<defs>
<clipPath id="clip0_1168_44908">
<path d="M0 32C0 14.3269 14.3269 0 32 0H495V588H32C14.3269 588 0 573.673 0 556V32Z" fill="white"/>
</clipPath>
<clipPath id="clip1_1168_44908">
<rect width="126.92" height="141.426" fill="white" transform="translate(25.6367 22) rotate(20.9796)"/>
</clipPath>
<clipPath id="clip2_1168_44908">
<rect width="126.92" height="141.426" fill="white" transform="translate(-21 283.05) rotate(-16.5012)"/>
</clipPath>
<clipPath id="clip3_1168_44908">
<rect width="126.92" height="141.426" fill="white" transform="translate(-21 517.05) rotate(-16.5012)"/>
</clipPath>
<clipPath id="clip4_1168_44908">
<rect width="126.92" height="141.426" fill="white" transform="translate(197.621 -14.8047)"/>
</clipPath>
<clipPath id="clip5_1168_44908">
<rect width="126.92" height="141.426" fill="white" transform="translate(178 293.905) rotate(-77.486)"/>
</clipPath>
<clipPath id="clip6_1168_44908">
<rect width="126.92" height="141.426" fill="white" transform="translate(145 483.905) rotate(-77.486)"/>
</clipPath>
<clipPath id="clip7_1168_44908">
<rect width="126.92" height="141.426" fill="white" transform="translate(378 50.7461) rotate(-45)"/>
</clipPath>
<clipPath id="clip8_1168_44908">
<rect width="126.92" height="141.426" fill="white" transform="translate(520.375 183) rotate(71.8297)"/>
</clipPath>
<clipPath id="clip9_1168_44908">
<rect width="126.92" height="141.426" fill="white" transform="translate(367.258 399.14) rotate(-13.459)"/>
</clipPath>
<clipPath id="clip10_1168_44908">
<rect width="126.92" height="141.426" fill="white" transform="translate(262 558.229) rotate(-4.16955)"/>
</clipPath>
</defs>
</svg>
