<svg width="495" height="588" viewBox="0 0 495 588" fill="none" xmlns="http://www.w3.org/2000/svg">
<g clip-path="url(#clip0_1168_44905)">
<path d="M0 32C0 14.3269 14.3269 0 32 0H495V588H32C14.3269 588 0 573.673 0 556V32Z" fill="#D2F7E5"/>
<g clip-path="url(#clip1_1168_44905)">
<path d="M262.912 123.888C265.348 116.661 261.28 110.112 256.674 103.913C262.147 108.209 276.455 113.018 284.91 106.589C289.782 102.884 298.518 95.0125 295.316 86.1439C293.869 82.1382 290.369 75.6388 287.068 72.9081C292.694 75.8445 304.594 74.2056 309.389 61.5754C311.616 55.7162 306.401 44.4074 301.279 40.6541C296.936 37.4708 293.119 34.2177 287.787 33.3604C295.635 25.1319 294.603 12.3868 286.916 3.66984C278.812 -5.51874 263.144 -6.65424 254.037 1.28665C258.123 -6.59509 254.635 -17.5612 246.69 -21.8118C238.746 -26.0624 227.752 -22.8463 223.529 -15.038C224.101 -19.0455 209.165 -27.943 200.503 -20.862C190.816 -12.9414 187.895 2.0981 196.014 13.3085C191.55 9.91837 185.041 9.06547 181.089 12.9631C173.706 20.2435 177.834 28.8435 179.835 31.4532C172.342 25.8786 163.346 27.9577 159.909 33.0954C156.474 38.2347 153.239 48.5183 160.344 54.4385C153.625 52.0263 145.147 53.481 140.822 60.7147C137.696 65.9433 136.693 75.7655 140.547 80.5912C145.825 87.1936 156.559 91.5026 162.687 92.1462C168.815 92.7898 174.79 90.1304 179.625 84.4908C174.922 88.6147 176.111 96.3496 179.106 101.926C183.212 109.564 190.193 115.859 198.533 118.265C206.872 120.674 216.481 118.83 222.618 112.85C222.271 118.186 223.353 123.767 226.451 128.185C229.551 132.604 238.821 138.751 244.191 138.767C252.322 138.794 260.466 131.114 262.902 123.887" fill="#20AD67"/>
<path d="M284.872 32.5314C284.821 31.3469 285.947 30.3545 286.814 29.4832C291.202 25.0705 295.863 20.5441 301.44 18.5406C302.834 18.0394 304.405 17.725 305.55 18.4257C306.197 18.8234 306.625 19.5001 307.033 20.1586C307.796 21.393 308.557 22.626 309.322 23.8583C302.525 27.6269 295.729 31.3994 288.932 35.1681C288.563 35.3736 288.18 35.5815 287.787 35.6114C287.283 35.6528 286.846 35.4021 286.434 35.157C285.29 34.4736 284.907 33.294 284.87 32.5298" fill="#0075BD"/>
<path d="M295.046 29.626C299.178 28.2069 303.493 27.8036 307.516 28.4564C311.196 29.0544 314.583 30.51 317.878 32.0628C323.567 34.7405 329.297 37.9309 332.526 43.4438C328.61 44.7 325.328 48.1949 321.396 49.3418C317.434 50.4971 313.481 49.0113 310.625 46.5415C307.772 44.0695 305.781 40.7036 303.649 37.5217C301.514 34.3404 299.108 31.2259 295.722 29.5291" fill="#0075BD"/>
</g>
<g clip-path="url(#clip2_1168_44905)">
<path d="M285.08 226.793C277.462 227.149 272.839 233.318 268.736 239.861C270.75 233.201 270.033 218.124 260.972 212.582C255.75 209.389 245.243 204.109 238.143 210.315C234.937 213.118 230.153 218.739 228.808 222.808C229.5 216.499 223.65 206.007 210.141 206.128C203.873 206.182 195.231 215.148 193.595 221.285C192.207 226.487 190.563 231.225 191.701 236.505C181.184 232.181 169.684 237.773 164.355 248.101C158.739 258.99 163.373 274 174.079 279.6C165.252 278.656 156.302 285.89 155.228 294.836C154.154 303.782 161.144 312.856 169.953 313.954C166.011 314.877 163.148 332.025 172.892 337.523C183.79 343.671 198.864 340.929 206.359 329.292C204.822 334.682 206.392 341.056 211.459 343.323C220.924 347.556 227.437 340.586 229.141 337.774C226.669 346.779 231.875 354.406 237.91 355.742C243.946 357.075 254.702 356.353 257.637 347.583C257.83 354.719 262.266 362.089 270.576 363.491C276.583 364.505 286.099 361.87 289.195 356.526C293.429 349.211 293.544 337.644 291.917 331.701C290.291 325.758 285.642 321.157 278.632 318.702C284.182 321.585 290.957 317.668 295.063 312.851C300.689 306.251 304.017 297.461 303.229 288.816C302.444 280.172 297.235 271.889 289.434 268.344C294.532 266.728 299.339 263.693 302.33 259.202C305.321 254.708 307.68 243.838 305.744 238.829C302.815 231.244 292.702 226.447 285.083 226.802" fill="#20AD67"/>
<path d="M191.987 239.52C190.903 239.999 189.569 239.309 188.442 238.818C182.737 236.333 176.826 233.635 172.934 229.167C171.96 228.05 171.097 226.701 171.334 225.379C171.469 224.633 171.944 223.988 172.409 223.368C173.282 222.209 174.154 221.052 175.025 219.891C181.005 224.855 186.989 229.817 192.969 234.78C193.295 235.049 193.627 235.33 193.798 235.685C194.02 236.14 193.945 236.639 193.866 237.111C193.645 238.426 192.685 239.211 191.987 239.523" fill="#0075BD"/>
<path d="M185.585 231.098C182.762 227.764 180.818 223.89 179.965 219.904C179.185 216.259 179.311 212.575 179.561 208.94C179.989 202.667 180.88 196.17 184.843 191.159C187.436 194.351 191.884 196.139 194.381 199.386C196.897 202.658 196.949 206.88 195.685 210.438C194.419 213.995 192.006 217.072 189.816 220.214C187.628 223.359 185.6 226.732 185.249 230.504" fill="#0075BD"/>
</g>
<path d="M150.987 172.13C150.209 167.831 150.463 163.505 151.717 159.627C152.864 156.08 154.815 152.952 156.849 149.929C160.356 144.711 164.376 139.529 170.314 137.171C170.964 141.232 173.922 145.005 174.461 149.065C175.004 153.157 172.937 156.839 170.064 159.288C167.189 161.735 163.561 163.194 160.093 164.82C156.625 166.45 153.183 168.357 150.993 171.448" fill="#0075BD"/>
<path d="M387.595 50.1114C383.482 48.6353 379.863 46.2524 377.131 43.2274C374.633 40.4603 372.9 37.2067 371.299 33.9345C368.533 28.2877 366.056 22.2152 366.982 15.8939C370.824 17.3618 375.571 16.6863 379.357 18.2499C383.171 19.8253 385.327 23.4561 386.011 27.169C386.693 30.8826 386.142 34.7538 385.817 38.5701C385.495 42.3883 385.425 46.3228 387.007 49.7645" fill="#0075BD"/>
<path d="M306.811 194.198C302.457 193.837 298.344 192.472 294.922 190.257C291.794 188.231 289.277 185.537 286.884 182.791C282.751 178.052 278.786 172.828 278.045 166.482C282.136 166.905 286.546 165.024 290.608 165.555C294.7 166.089 297.722 169.038 299.344 172.448C300.964 175.858 301.433 179.74 302.107 183.511C302.784 187.282 303.735 191.101 306.154 194.016" fill="#0075BD"/>
<path d="M122.811 42.1985C118.457 41.837 114.344 40.4721 110.922 38.2573C107.794 36.2309 105.277 33.5368 102.884 30.7905C98.7507 26.052 94.7861 20.8276 94.0451 14.4818C98.1357 14.9054 102.546 13.0244 106.608 13.5547C110.7 14.0893 113.722 17.0383 115.344 20.4476C116.964 23.8582 117.433 27.7402 118.107 31.5106C118.784 35.2821 119.735 39.1007 122.154 42.0156" fill="#0075BD"/>
<path d="M55.5551 269.867C57.0312 265.755 59.4141 262.135 62.4391 259.403C65.2063 256.906 68.4598 255.172 71.732 253.571C77.3788 250.805 83.4513 248.328 89.7726 249.255C88.3047 253.096 88.9802 257.843 87.4166 261.629C85.8412 265.444 82.2104 267.6 78.4975 268.284C74.7839 268.966 70.9127 268.415 67.0964 268.089C63.2782 267.767 59.3437 267.697 55.902 269.279" fill="#0075BD"/>
<path d="M203.95 416.291C200.36 413.801 197.48 410.562 195.624 406.933C193.928 403.614 193.096 400.023 192.396 396.448C191.186 390.277 190.365 383.771 192.896 377.905C196.226 380.317 200.986 380.893 204.239 383.383C207.515 385.892 208.658 389.957 208.358 393.721C208.056 397.484 206.521 401.081 205.219 404.683C203.92 408.287 202.834 412.07 203.472 415.804" fill="#0075BD"/>
<path d="M351.374 254.403C350.596 250.104 350.85 245.778 352.103 241.899C353.251 238.353 355.202 235.225 357.235 232.202C360.743 226.984 364.763 221.802 370.701 219.444C371.35 223.505 374.309 227.278 374.848 231.338C375.39 235.429 373.324 239.112 370.451 241.561C367.576 244.008 363.947 245.467 360.48 247.093C357.012 248.723 353.57 250.63 351.38 253.721" fill="#0075BD"/>
<path d="M487.987 286.13C487.209 281.831 487.463 277.505 488.717 273.627C489.864 270.08 491.815 266.952 493.849 263.929C497.356 258.711 501.376 253.529 507.314 251.171C507.964 255.232 510.922 259.005 511.461 263.065C512.004 267.157 509.937 270.839 507.064 273.288C504.189 275.735 500.561 277.194 497.093 278.82C493.625 280.45 490.183 282.357 487.993 285.448" fill="#0075BD"/>
<path d="M341.198 372.471C336.844 372.11 332.731 370.745 329.309 368.53C326.18 366.504 323.664 363.81 321.271 361.063C317.137 356.325 313.173 351.101 312.432 344.755C316.522 345.178 320.933 343.297 324.994 343.828C329.087 344.362 332.109 347.311 333.731 350.721C335.351 354.131 335.82 358.013 336.494 361.784C337.171 365.555 338.121 369.374 340.54 372.289" fill="#0075BD"/>
<path d="M514.198 487.471C509.844 487.11 505.731 485.745 502.309 483.53C499.18 481.504 496.664 478.81 494.271 476.063C490.137 471.325 486.173 466.101 485.432 459.755C489.522 460.178 493.933 458.297 497.994 458.828C502.087 459.362 505.109 462.311 506.731 465.721C508.351 469.131 508.82 473.013 509.494 476.784C510.171 480.555 511.121 484.374 513.54 487.289" fill="#0075BD"/>
<path d="M423.198 512.471C418.844 512.11 414.731 510.745 411.309 508.53C408.18 506.504 405.664 503.81 403.271 501.063C399.137 496.325 395.173 491.101 394.432 484.755C398.522 485.178 402.933 483.297 406.994 483.828C411.087 484.362 414.109 487.311 415.731 490.721C417.351 494.131 417.82 498.013 418.494 501.784C419.171 505.555 420.121 509.374 422.54 512.289" fill="#0075BD"/>
<path d="M123.987 484.13C123.209 479.831 123.463 475.505 124.717 471.627C125.864 468.08 127.815 464.952 129.849 461.929C133.356 456.711 137.376 451.529 143.314 449.171C143.964 453.232 146.922 457.005 147.461 461.065C148.004 465.157 145.937 468.839 143.064 471.288C140.189 473.735 136.561 475.194 133.093 476.82C129.625 478.45 126.183 480.357 123.993 483.448" fill="#0075BD"/>
<path d="M-19.8316 502.595C-18.3555 498.482 -15.9726 494.863 -12.9476 492.131C-10.1805 489.633 -6.92694 487.9 -3.65475 486.299C1.99204 483.533 8.06457 481.056 14.3859 481.982C12.918 485.824 13.5935 490.571 12.0299 494.357C10.4545 498.171 6.82369 500.327 3.11078 501.011C-0.602827 501.693 -4.47403 501.142 -8.2903 500.817C-12.1085 500.495 -16.043 500.425 -19.4847 502.007" fill="#0075BD"/>
<path d="M167.198 589.471C162.844 589.11 158.731 587.745 155.309 585.53C152.18 583.504 149.664 580.81 147.271 578.063C143.137 573.325 139.173 568.101 138.432 561.755C142.522 562.178 146.933 560.297 150.994 560.828C155.087 561.362 158.109 564.311 159.731 567.721C161.351 571.131 161.82 575.013 162.494 578.784C163.171 582.555 164.121 586.374 166.54 589.289" fill="#0075BD"/>
<g clip-path="url(#clip3_1168_44905)">
<path d="M196.539 463.797C204.157 464.153 208.78 470.322 212.883 476.865C210.869 470.205 211.586 455.127 220.647 449.586C225.869 446.392 236.376 441.113 243.476 447.318C246.682 450.121 251.466 455.743 252.811 459.811C252.119 453.503 257.969 443.011 271.478 443.132C277.746 443.186 286.388 452.152 288.024 458.289C289.412 463.491 291.056 468.228 289.918 473.508C300.436 469.185 311.935 474.777 317.264 485.105C322.88 495.994 318.247 511.004 307.54 516.604C316.367 515.66 325.317 522.894 326.391 531.84C327.465 540.786 320.475 549.86 311.666 550.958C315.608 551.881 318.471 569.029 308.727 574.527C297.829 580.675 282.755 577.933 275.261 566.296C276.797 571.686 275.227 578.06 270.16 580.327C260.695 584.56 254.182 577.59 252.478 574.777C254.95 583.783 249.744 591.41 243.709 592.746C237.673 594.079 226.917 593.357 223.982 584.587C223.789 591.723 219.354 599.093 211.043 600.495C205.036 601.508 195.52 598.874 192.425 593.53C188.191 586.214 188.076 574.648 189.702 568.705C191.329 562.762 195.977 558.161 202.988 555.706C197.437 558.589 190.662 554.672 186.556 549.855C180.931 543.255 177.602 534.464 178.39 525.82C179.175 517.176 184.384 508.893 192.185 505.348C187.087 503.732 182.28 500.697 179.289 496.206C176.298 491.712 173.939 480.842 175.875 475.833C178.804 468.248 188.918 463.451 196.536 463.806" fill="#20AD67"/>
<path d="M289.63 476.519C290.714 476.997 292.048 476.308 293.175 475.817C298.88 473.332 304.791 470.633 308.684 466.165C309.657 465.049 310.52 463.7 310.284 462.378C310.148 461.631 309.673 460.986 309.208 460.367C308.335 459.207 307.463 458.05 306.593 456.89C300.612 461.853 294.628 466.815 288.648 471.779C288.323 472.047 287.99 472.329 287.819 472.684C287.597 473.139 287.672 473.637 287.751 474.109C287.972 475.424 288.932 476.209 289.631 476.521" fill="#0075BD"/>
<path d="M296.028 468.098C298.852 464.763 300.795 460.889 301.648 456.904C302.428 453.259 302.302 449.574 302.053 445.94C301.625 439.667 300.734 433.169 296.77 428.158C294.177 431.35 289.729 433.138 287.232 436.386C284.716 439.657 284.665 443.88 285.928 447.437C287.195 450.994 289.608 454.071 291.797 457.213C293.986 460.359 296.013 463.731 296.364 467.503" fill="#0075BD"/>
</g>
<g clip-path="url(#clip4_1168_44905)">
<path d="M79.1962 441.509C80.8245 434.058 76.062 427.996 70.8038 422.34C76.7151 426.008 91.4647 429.218 99.1624 421.9C103.599 417.683 111.418 408.9 107.261 400.436C105.384 396.613 101.192 390.537 97.6102 388.186C103.525 390.487 115.173 387.551 118.553 374.471C120.123 368.403 113.699 357.735 108.195 354.567C103.529 351.879 99.3786 349.065 93.9839 348.798C100.882 339.758 98.4566 327.203 89.8599 319.382C80.7955 311.139 65.0979 311.73 56.9174 320.623C60.1141 312.34 55.4429 301.823 47.08 298.47C38.7171 295.117 28.1423 299.521 24.802 307.745C24.9309 303.699 9.10851 296.495 1.27558 304.484C-7.48337 313.42 -8.73598 328.689 0.564819 338.941C-4.24462 336.061 -10.8075 335.928 -14.3081 340.236C-20.847 348.283 -15.8002 356.377 -13.5246 358.752C-21.584 354.033 -30.298 357.087 -33.1502 362.571C-36 368.057 -38.087 378.633 -30.3749 383.738C-37.3184 382.078 -45.5853 384.454 -49.0904 392.119C-51.6237 397.659 -51.542 407.532 -47.1815 411.905C-41.2108 417.889 -30.0686 420.993 -23.907 420.96C-17.7455 420.927 -12.098 417.628 -7.91185 411.492C-12.1338 416.107 -10.1029 423.665 -6.51344 428.878C-1.59395 436.02 6.03536 441.51 14.5895 442.987C23.1422 444.465 32.4906 441.578 37.9339 434.96C38.1756 440.303 39.8628 445.731 43.4271 449.782C46.9937 453.835 56.8829 458.927 62.2218 458.353C70.3066 457.487 77.5582 448.96 79.1865 441.509" fill="#20AD67"/>
<path d="M91.0021 348.297C90.8206 347.126 91.8314 346.016 92.5978 345.054C96.4743 340.187 100.611 335.176 105.934 332.573C107.265 331.921 108.791 331.436 110.007 332.007C110.693 332.332 111.193 332.957 111.671 333.567C112.565 334.71 113.457 335.852 114.352 336.993C108.01 341.485 101.669 345.981 95.3261 350.473C94.9828 350.717 94.6247 350.966 94.2376 351.039C93.7404 351.135 93.2784 350.934 92.8428 350.736C91.6299 350.182 91.12 349.052 90.9998 348.296" fill="#0075BD"/>
<path d="M100.792 344.295C104.743 342.431 108.988 341.557 113.059 341.764C116.781 341.954 120.308 343.03 123.753 344.211C129.702 346.248 135.748 348.79 139.562 353.915C135.808 355.594 132.929 359.428 129.146 361C125.335 362.583 121.243 361.54 118.134 359.398C115.026 357.255 112.678 354.128 110.21 351.199C107.738 348.271 105.005 345.44 101.453 344.125" fill="#0075BD"/>
</g>
<g clip-path="url(#clip5_1168_44905)">
<path d="M402.417 678.512C400.789 671.061 405.551 664.999 410.809 659.343C404.898 663.011 390.149 666.221 382.451 658.902C378.014 654.686 370.196 645.903 374.352 637.439C376.229 633.616 380.421 627.54 384.003 625.189C378.089 627.49 366.44 624.554 363.06 611.474C361.49 605.406 367.914 594.738 373.418 591.57C378.084 588.882 382.235 586.068 387.629 585.801C380.731 576.761 383.157 564.206 391.753 556.385C400.818 548.142 416.515 548.733 424.696 557.626C421.499 549.343 426.17 538.826 434.533 535.473C442.896 532.12 453.471 536.524 456.811 544.748C456.682 540.702 472.505 533.498 480.338 541.487C489.097 550.423 490.349 565.692 481.048 575.944C485.858 573.064 492.421 572.931 495.921 577.239C502.46 585.285 497.413 593.38 495.138 595.755C503.197 591.036 511.911 594.09 514.763 599.574C517.613 605.059 519.7 615.636 511.988 620.741C518.932 619.081 527.199 621.457 530.704 629.122C533.237 634.662 533.155 644.535 528.795 648.908C522.824 654.891 511.682 657.996 505.52 657.963C499.359 657.93 493.711 654.631 489.525 648.495C493.747 653.11 491.716 660.668 488.127 665.881C483.207 673.023 475.578 678.513 467.024 679.99C458.471 681.468 449.123 678.581 443.679 671.963C443.438 677.306 441.75 682.734 438.186 686.785C434.62 690.838 424.73 695.929 419.391 695.356C411.307 694.49 404.055 685.963 402.427 678.512" fill="#20AD67"/>
<path d="M390.615 585.297C390.797 584.125 389.786 583.015 389.019 582.054C385.143 577.186 381.006 572.176 375.683 569.572C374.353 568.921 372.826 568.436 371.611 569.007C370.924 569.331 370.425 569.957 369.947 570.566C369.052 571.71 368.16 572.851 367.265 573.992C373.607 578.484 379.949 582.98 386.291 587.472C386.634 587.717 386.992 587.965 387.38 588.038C387.877 588.135 388.339 587.934 388.774 587.735C389.987 587.182 390.497 586.051 390.617 585.296" fill="#0075BD"/>
<path d="M380.822 581.292C376.87 579.428 372.625 578.553 368.555 578.761C364.832 578.951 361.306 580.026 357.86 581.208C351.911 583.245 345.865 585.787 342.051 590.912C345.805 592.591 348.684 596.425 352.467 597.996C356.278 599.579 360.37 598.537 363.479 596.395C366.587 594.251 368.935 591.124 371.403 588.196C373.875 585.268 376.608 582.436 380.16 581.121" fill="#0075BD"/>
</g>
<g clip-path="url(#clip6_1168_44905)">
<path d="M120.602 116.424C113.826 112.922 106.738 115.954 99.9139 119.569C104.988 114.808 111.905 101.392 106.829 92.0626C103.904 86.686 97.4435 76.8602 88.1926 78.6844C84.0142 79.5086 77.0603 81.9851 73.8617 84.8361C77.6151 79.7188 77.7947 67.7078 66.035 61.0574C60.5799 57.9703 48.6126 61.4145 44.1278 65.9108C40.3244 69.7218 36.5315 73.0027 34.8776 78.1446C27.9307 69.1418 15.176 68.2351 5.39691 74.5147C-4.91167 81.1367 -8.4035 96.4524 -1.93121 106.656C-9.10431 101.424 -20.4719 103.214 -25.875 110.424C-31.2781 117.635 -29.7617 128.989 -22.6818 134.344C-26.5567 133.172 -37.6106 146.591 -31.9211 156.225C-25.5565 166.998 -11.1317 172.16 1.1777 165.829C-2.84861 169.73 -4.67599 176.034 -1.42086 180.531C4.65933 188.929 13.7846 186.15 16.667 184.566C10.0233 191.13 10.718 200.337 15.2769 204.511C19.8377 208.684 29.5136 213.437 36.4403 207.309C33.0397 213.586 33.1956 222.187 39.692 227.556C44.3877 231.437 53.9453 233.913 59.2983 230.833C66.623 226.615 72.5057 216.656 74.0686 210.695C75.6315 204.735 73.9064 198.426 69.0628 192.795C72.428 198.067 80.2537 198.062 86.2186 195.944C94.3902 193.04 101.668 187.092 105.308 179.212C108.95 171.333 108.58 161.556 103.597 154.585C108.82 155.734 114.5 155.51 119.336 153.115C124.173 150.719 131.651 142.485 132.479 137.179C133.735 129.146 127.375 119.934 120.6 116.433" fill="#20AD67"/>
<path d="M33.6174 80.8988C32.4387 80.7709 31.628 79.5072 30.8979 78.5182C27.1995 73.5139 23.4301 68.2216 22.2931 62.4056C22.0084 60.952 21.9351 59.3521 22.8009 58.3257C23.2919 57.7469 24.0255 57.4259 24.7382 57.122C26.0739 56.5542 27.4077 55.9882 28.7415 55.4185C31.439 62.7073 34.1402 69.9962 36.8376 77.2851C36.9851 77.6801 37.1326 78.0903 37.1028 78.4831C37.0674 78.9883 36.7535 79.3825 36.449 79.7519C35.6003 80.7802 34.3764 80.9802 33.6155 80.9007" fill="#0075BD"/>
<path d="M32.2838 70.4039C31.506 66.1045 31.7598 61.7783 33.0136 57.8999C34.1612 54.3532 36.1122 51.2255 38.1455 48.2028C41.6528 42.984 45.6731 37.8024 51.6108 35.4442C52.2604 39.5051 55.2187 43.2781 55.7577 47.3388C56.3006 51.43 54.2342 55.1124 51.3609 57.5616C48.4857 60.0089 44.8576 61.4671 41.3899 63.0934C37.9222 64.7235 34.4797 66.6302 32.2903 69.7213" fill="#0075BD"/>
</g>
<g clip-path="url(#clip7_1168_44905)">
<path d="M457.808 194.6C461.309 187.824 458.278 180.736 454.663 173.912C459.423 178.986 472.839 185.904 482.169 180.827C487.545 177.902 497.371 171.442 495.547 162.191C494.723 158.012 492.246 151.058 489.395 147.86C494.513 151.613 506.524 151.793 513.174 140.033C516.261 134.578 512.817 122.611 508.321 118.126C504.51 114.322 501.229 110.53 496.087 108.876C505.09 101.929 505.996 89.174 499.717 79.395C493.095 69.0864 477.779 65.5945 467.576 72.0668C472.807 64.8937 471.017 53.5262 463.807 48.1231C456.597 42.72 445.243 44.2364 439.887 51.3163C441.059 47.4414 427.641 36.3875 418.007 42.077C407.233 48.4416 402.072 62.8664 408.402 75.1758C404.502 71.1494 398.197 69.3221 393.701 72.5772C385.302 78.6574 388.082 87.7827 389.665 90.665C383.102 84.0214 373.894 84.716 369.72 89.2749C365.548 93.8357 360.794 103.512 366.922 110.438C360.645 107.038 352.045 107.194 346.675 113.69C342.795 118.386 340.318 127.943 343.398 133.296C347.617 140.621 357.576 146.504 363.536 148.067C369.496 149.63 375.805 147.904 381.437 143.061C376.164 146.426 376.17 154.252 378.288 160.217C381.191 168.388 387.139 175.666 395.02 179.306C402.899 182.948 412.676 182.578 419.646 177.595C418.497 182.818 418.722 188.498 421.116 193.334C423.512 198.171 431.747 205.649 437.052 206.477C445.085 207.733 454.297 201.373 457.798 194.598" fill="#20AD67"/>
<path d="M493.337 107.617C493.465 106.438 494.729 105.628 495.718 104.897C500.722 101.199 506.014 97.4296 511.83 96.2926C513.284 96.0079 514.884 95.9346 515.91 96.8004C516.489 97.2914 516.81 98.025 517.114 98.7377C517.682 100.073 518.248 101.407 518.817 102.741C511.529 105.438 504.24 108.14 496.951 110.837C496.556 110.985 496.146 111.132 495.753 111.102C495.248 111.067 494.853 110.753 494.484 110.449C493.456 109.6 493.256 108.376 493.335 107.615" fill="#0075BD"/>
</g>
<g clip-path="url(#clip8_1168_44905)">
<path d="M502.218 328.701C494.767 327.072 488.705 331.835 483.049 337.093C486.717 331.182 489.927 316.432 482.609 308.735C478.392 304.298 469.609 296.479 461.145 300.636C457.322 302.513 451.246 306.705 448.895 310.287C451.196 304.372 448.26 292.724 435.18 289.344C429.112 287.774 418.444 294.198 415.276 299.702C412.588 304.368 409.774 308.518 409.507 313.913C400.467 307.015 387.912 309.44 380.091 318.037C371.848 327.101 372.439 342.799 381.332 350.98C373.049 347.783 362.532 352.454 359.179 360.817C355.826 369.18 360.23 379.755 368.454 383.095C364.408 382.966 357.204 398.788 365.193 406.621C374.129 415.38 389.398 416.633 399.65 407.332C396.77 412.142 396.637 418.704 400.945 422.205C408.992 428.744 417.086 423.697 419.461 421.422C414.742 429.481 417.796 438.195 423.28 441.047C428.766 443.897 439.342 445.984 444.447 438.272C442.787 445.215 445.163 453.482 452.828 456.987C458.368 459.521 468.241 459.439 472.614 455.078C478.598 449.108 481.702 437.966 481.669 431.804C481.636 425.642 478.337 419.995 472.201 415.809C476.816 420.031 484.374 418 489.587 414.41C496.729 409.491 502.219 401.862 503.696 393.307C505.174 384.755 502.287 375.406 495.669 369.963C501.012 369.721 506.44 368.034 510.491 364.47C514.544 360.903 519.636 351.014 519.062 345.675C518.196 337.59 509.669 330.339 502.218 328.71" fill="#20AD67"/>
<path d="M409.002 316.897C407.831 317.078 406.721 316.067 405.759 315.301C400.892 311.425 395.881 307.288 393.278 301.965C392.626 300.634 392.141 299.108 392.712 297.892C393.037 297.206 393.662 296.706 394.272 296.228C395.415 295.334 396.557 294.442 397.698 293.547C402.19 299.889 406.686 306.23 411.178 312.573C411.422 312.916 411.671 313.274 411.744 313.661C411.84 314.158 411.639 314.62 411.441 315.056C410.887 316.269 409.757 316.779 409.001 316.899" fill="#0075BD"/>
<path d="M404.999 307.107C403.135 303.155 402.26 298.911 402.468 294.84C402.658 291.117 403.733 287.591 404.915 284.145C406.952 278.196 409.494 272.151 414.619 268.336C416.298 272.09 420.132 274.969 421.703 278.752C423.286 282.563 422.244 286.655 420.102 289.764C417.958 292.872 414.831 295.22 411.903 297.688C408.975 300.161 406.143 302.893 404.828 306.446" fill="#0075BD"/>
</g>
<g clip-path="url(#clip9_1168_44905)">
<path d="M-20.5984 565.703C-13.1477 564.075 -7.08544 568.837 -1.42945 574.096C-5.09811 568.184 -8.30792 553.435 -0.989389 545.737C3.22738 541.301 12.0106 533.482 20.4741 537.638C24.2968 539.516 30.3728 543.708 32.7246 547.289C30.4235 541.375 33.3587 529.727 46.4389 526.346C52.5072 524.776 63.1753 531.201 66.3436 536.704C69.031 541.37 71.8454 545.521 72.1122 550.916C81.1525 544.017 93.7073 546.443 101.528 555.039C109.771 564.104 109.18 579.801 100.288 587.982C108.57 584.785 119.087 589.457 122.44 597.819C125.793 606.182 121.389 616.757 113.165 620.097C117.211 619.968 124.415 635.791 116.426 643.624C107.49 652.383 92.2208 653.635 81.9693 644.335C84.849 649.144 84.9823 655.707 80.6744 659.208C72.6276 665.746 64.5327 660.7 62.1584 658.424C66.8769 666.483 63.8228 675.197 58.3389 678.05C52.8536 680.899 42.2771 682.986 37.1725 675.274C38.8326 682.218 36.4561 690.485 28.7913 693.99C23.2512 696.523 13.3783 696.441 9.00481 692.081C3.02164 686.11 -0.0830405 674.968 -0.050117 668.806C-0.0171955 662.645 3.28203 656.997 9.41817 652.811C4.80304 657.033 -2.75462 655.002 -7.9681 651.413C-15.1098 646.493 -20.6001 638.864 -22.0765 630.31C-23.5552 621.757 -20.6676 612.409 -14.0501 606.966C-19.3926 606.724 -24.8211 605.037 -28.8721 601.472C-32.9245 597.906 -38.0164 588.017 -37.443 582.678C-36.5772 574.593 -28.0498 567.341 -20.5991 565.713" fill="#20AD67"/>
<path d="M72.6187 553.898C73.7903 554.08 74.9004 553.069 75.8616 552.303C80.7292 548.426 85.74 544.29 88.3435 538.966C88.9947 537.636 89.4796 536.109 88.9089 534.894C88.5845 534.208 87.9589 533.708 87.3492 533.23C86.206 532.336 85.0641 531.444 83.9232 530.548C79.4312 536.89 74.9355 543.232 70.4435 549.574C70.1988 549.918 69.9501 550.276 69.8773 550.663C69.7806 551.16 69.9819 551.622 70.1804 552.058C70.734 553.27 71.8644 553.78 72.62 553.901" fill="#0075BD"/>
<path d="M76.6183 544.106C78.4823 540.154 79.3569 535.91 79.1496 531.839C78.9591 528.116 77.8841 524.59 76.7024 521.144C74.6654 515.195 72.1232 509.15 66.9981 505.335C65.3196 509.089 61.4856 511.968 59.9139 515.751C58.3307 519.562 59.3736 523.654 61.5151 526.763C63.6589 529.871 66.786 532.219 69.7146 534.687C72.6422 537.16 75.4739 539.892 76.7887 543.445" fill="#0075BD"/>
</g>
</g>
<defs>
<clipPath id="clip0_1168_44905">
<path d="M0 32C0 14.3269 14.3269 0 32 0H495V588H32C14.3269 588 0 573.673 0 556V32Z" fill="white"/>
</clipPath>
<clipPath id="clip1_1168_44905">
<rect width="146" height="149.893" fill="white" transform="translate(218.742 -47) rotate(36.3019)"/>
</clipPath>
<clipPath id="clip2_1168_44905">
<rect width="146" height="149.893" fill="white" transform="translate(141.914 330.025) rotate(-75)"/>
</clipPath>
<clipPath id="clip3_1168_44905">
<rect width="146" height="149.893" fill="white" transform="matrix(-0.258819 -0.965926 -0.965926 0.258819 339.703 567.025)"/>
</clipPath>
<clipPath id="clip4_1168_44905">
<rect width="146" height="149.893" fill="white" transform="translate(16.5391 276.505) rotate(30)"/>
</clipPath>
<clipPath id="clip5_1168_44905">
<rect width="146" height="149.893" fill="white" transform="matrix(-0.866025 0.5 0.5 0.866025 465.078 513.505)"/>
</clipPath>
<clipPath id="clip6_1168_44905">
<rect width="146" height="149.893" fill="white" transform="translate(-55 134.242) rotate(-45)"/>
</clipPath>
<clipPath id="clip7_1168_44905">
<rect width="146" height="149.893" fill="white" transform="translate(439.992 19) rotate(45)"/>
</clipPath>
<clipPath id="clip8_1168_44905">
<rect width="146" height="149.893" fill="white" transform="translate(337.211 391.36) rotate(-60)"/>
</clipPath>
<clipPath id="clip9_1168_44905">
<rect width="146" height="149.893" fill="white" transform="matrix(-0.5 -0.866025 -0.866025 0.5 144.406 628.36)"/>
</clipPath>
</defs>
</svg>
