<svg width="495" height="588" viewBox="0 0 495 588" fill="none" xmlns="http://www.w3.org/2000/svg">
<g clip-path="url(#clip0_1168_44907)">
<path d="M0 32C0 14.3269 14.3269 0 32 0H495V588H32C14.3269 588 0 573.673 0 556V32Z" fill="#FEE5DD"/>
<g clip-path="url(#clip1_1168_44907)">
<path d="M108.458 110.105C110.628 104.725 114.898 90.4729 106.804 76.2724C101.086 66.2329 92.1785 59.3482 76.4943 54.0396C67.9163 51.1354 56.3088 57.2926 52.4266 59.4807C52.5812 56.7598 45.7506 45.3955 36.5073 42.532C24.7544 38.8921 16.3282 43.4435 9.76949 49.7196C-9.73337 68.3805 -22.4182 88.4556 -32.5433 112.116C-36.9579 122.433 -39.3543 133.64 -27.3814 144.515C-17.2854 153.682 -14.7308 148.329 -10.1374 151.817C-5.18233 155.581 -13.7994 155.691 -0.878492 165.237C21.1745 181.531 45.1149 181.396 63.7472 172.63C77.524 166.145 88.4649 146.232 96.2763 133.929C100.651 127.037 105.393 117.714 108.46 110.106" fill="#F87C56"/>
<path d="M50.5971 63.4497C53.5858 58.9579 52.7525 52.7659 49.8991 48.3573C47.0439 43.9476 42.5437 40.962 38.0545 38.2935C32.5781 35.0398 26.8044 32.0281 20.4849 31.0147C20.2452 36.2938 20.3813 41.6247 21.6466 46.7041C22.9131 51.7814 25.3079 56.7065 29.2504 60.0271C37.0906 66.6265 50.5982 63.4476 50.5982 63.4476" fill="#20AD67"/>
</g>
<path d="M101.435 17.843C106.773 18.6284 112.017 15.2316 114.786 10.7694C117.555 6.30513 118.334 0.961101 118.831 -4.23771C119.435 -10.579 119.694 -17.0858 117.913 -23.2333C113.037 -21.1966 108.274 -18.7979 104.221 -15.4855C100.17 -12.1728 96.7384 -7.90484 95.4184 -2.92217C92.7972 6.98493 101.438 17.8432 101.438 17.8432" fill="#20AD67"/>
<path d="M-4.05089 276.369C1.28682 277.154 6.5307 273.758 9.29949 269.295C12.0685 264.831 12.8474 259.487 13.3443 254.288C13.949 247.947 14.2079 241.44 12.4268 235.293C7.55052 237.329 2.78779 239.728 -1.26541 243.04C-5.31628 246.353 -8.74793 250.621 -10.068 255.604C-12.6891 265.511 -4.04856 276.369 -4.04856 276.369" fill="#20AD67"/>
<path d="M294.896 264.468C300.234 265.254 305.478 261.857 308.247 257.395C311.016 252.931 311.795 247.587 312.292 242.388C312.896 236.047 313.155 229.54 311.374 223.392C306.498 225.429 301.735 227.828 297.682 231.14C293.631 234.453 290.199 238.721 288.879 243.703C286.258 253.61 294.899 264.469 294.899 264.469" fill="#20AD67"/>
<path d="M175.755 173.458C179.344 169.429 179.386 163.181 177.178 158.417C174.969 153.65 170.931 150.064 166.86 146.793C161.894 142.804 156.599 139.013 150.483 137.125C149.507 142.318 148.895 147.616 149.436 152.822C149.979 158.027 151.66 163.239 155.099 167.079C161.937 174.712 175.757 173.456 175.757 173.456" fill="#20AD67"/>
<path d="M372.296 359.482C372.642 354.098 368.828 349.149 364.155 346.754C359.479 344.36 354.089 344.02 348.867 343.95C342.498 343.866 335.991 344.14 330.01 346.417C332.439 351.111 335.219 355.661 338.851 359.43C342.484 363.197 347.018 366.268 352.092 367.176C362.18 368.979 372.296 359.479 372.296 359.479" fill="#20AD67"/>
<path d="M362.773 563.756C367.686 561.526 370.255 555.831 370.167 550.581C370.078 545.328 367.839 540.413 365.442 535.774C362.516 530.115 359.211 524.504 354.385 520.301C351.388 524.653 348.682 529.249 347.069 534.228C345.457 539.207 344.883 544.653 346.471 549.557C349.632 559.305 362.775 563.755 362.775 563.755" fill="#20AD67"/>
<path d="M177.656 311.53C179.697 316.524 185.289 319.309 190.54 319.421C195.792 319.533 200.788 317.483 205.516 315.265C211.282 312.558 217.015 309.469 221.4 304.807C217.165 301.646 212.676 298.767 207.762 296.964C202.849 295.163 197.428 294.382 192.467 295.782C182.605 298.568 177.657 311.532 177.657 311.532" fill="#20AD67"/>
<path d="M382.608 222.524C386.17 226.576 392.367 227.378 397.365 225.767C402.364 224.154 406.415 220.583 410.158 216.94C414.721 212.496 419.128 207.701 421.747 201.861C416.711 200.26 411.527 199.008 406.294 198.911C401.062 198.817 395.684 199.851 391.454 202.797C383.046 208.656 382.61 222.526 382.61 222.526" fill="#20AD67"/>
<path d="M99.0591 541.604C100.118 546.894 105.083 550.687 110.217 551.791C115.353 552.894 120.647 551.827 125.71 550.543C131.884 548.976 138.098 547.027 143.285 543.279C139.725 539.374 135.862 535.698 131.377 532.998C126.894 530.3 121.719 528.507 116.583 528.943C106.372 529.813 99.0597 541.606 99.0597 541.606" fill="#20AD67"/>
<path d="M470.059 338.251C471.118 343.541 476.083 347.334 481.217 348.437C486.353 349.54 491.647 348.473 496.71 347.189C502.884 345.622 509.098 343.674 514.285 339.926C510.725 336.021 506.862 332.344 502.377 329.644C497.894 326.946 492.719 325.153 487.583 325.589C477.372 326.459 470.06 338.253 470.06 338.253" fill="#20AD67"/>
<path d="M496.027 -13.9409C490.736 -12.882 486.944 -7.91709 485.84 -2.78292C484.737 2.3533 485.804 7.64732 487.088 12.7096C488.655 18.8838 490.604 25.0975 494.352 30.2854C498.257 26.7249 501.933 22.8618 504.633 18.3774C507.331 13.8937 509.124 8.71903 508.688 3.58294C507.818 -6.62805 496.024 -13.9403 496.024 -13.9403" fill="#20AD67"/>
<path d="M501.673 206.059C496.383 207.118 492.59 212.083 491.487 217.217C490.384 222.353 491.451 227.647 492.734 232.71C494.302 238.884 496.25 245.098 499.998 250.285C503.903 246.725 507.579 242.862 510.28 238.377C512.977 233.894 514.771 228.719 514.335 223.583C513.465 213.372 501.671 206.06 501.671 206.06" fill="#20AD67"/>
<g clip-path="url(#clip2_1168_44907)">
<path d="M410.44 277.631C408.271 272.251 404 257.998 412.095 243.798C417.813 233.758 426.72 226.874 442.404 221.565C450.982 218.661 462.59 224.818 466.472 227.006C466.317 224.285 473.148 212.921 482.391 210.057C494.144 206.418 502.57 210.969 509.129 217.245C528.632 235.906 541.317 255.981 551.442 279.642C555.856 289.958 558.253 301.165 546.28 312.04C536.184 321.207 533.629 315.854 529.036 319.342C524.081 323.106 532.698 323.216 519.777 332.763C497.724 349.056 473.784 348.921 455.151 340.155C441.374 333.67 430.434 313.757 422.622 301.454C418.248 294.562 413.505 285.239 410.438 277.632" fill="#F87C56"/>
<path d="M468.301 230.975C465.313 226.483 466.146 220.291 468.999 215.883C471.854 211.473 476.355 208.487 480.844 205.819C486.32 202.565 492.094 199.554 498.414 198.54C498.653 203.819 498.517 209.15 497.252 214.229C495.985 219.307 493.591 224.232 489.648 227.553C481.808 234.152 468.3 230.973 468.3 230.973" fill="#20AD67"/>
</g>
<g clip-path="url(#clip3_1168_44907)">
<path d="M479.018 485.981C483.869 482.799 495.506 473.528 496.956 457.247C497.986 445.74 494.596 435.004 484.741 421.698C479.352 414.42 466.306 412.857 461.869 412.44C463.548 410.293 464.419 397.063 458.46 389.439C450.882 379.746 441.365 378.678 432.398 380.092C405.735 384.297 383.866 393.551 362.054 407.211C352.543 413.167 344.183 421.005 347.815 436.767C350.879 450.055 356.03 447.115 357.814 452.6C359.737 458.518 352.597 453.694 357.765 468.905C366.586 494.866 386.327 508.41 406.631 511.837C421.646 514.368 441.991 504.252 455.424 498.601C462.948 495.435 472.161 490.483 479.019 485.983" fill="#F87C56"/>
<path d="M458.101 414.656C463.118 412.671 465.965 407.11 466.136 401.861C466.306 396.611 464.312 391.592 462.147 386.839C459.504 381.043 456.48 375.276 451.867 370.84C448.659 375.039 445.73 379.495 443.872 384.389C442.017 389.282 441.175 394.693 442.519 399.67C445.195 409.562 458.103 414.655 458.103 414.655" fill="#20AD67"/>
</g>
<g clip-path="url(#clip4_1168_44907)">
<path d="M353.44 622.865C351.271 628.245 347 642.497 355.095 656.697C360.813 666.737 369.72 673.622 385.404 678.93C393.982 681.834 405.59 675.677 409.472 673.489C409.317 676.21 416.148 687.574 425.391 690.438C437.144 694.078 445.57 689.526 452.129 683.25C471.632 664.589 484.317 644.514 494.442 620.854C498.856 610.537 501.253 599.33 489.28 588.455C479.184 579.288 476.629 584.641 472.036 581.153C467.081 577.389 475.698 577.279 462.777 567.732C440.724 551.439 416.784 551.574 398.151 560.34C384.374 566.825 373.434 586.738 365.622 599.041C361.248 605.933 356.505 615.256 353.438 622.864" fill="#F87C56"/>
</g>
<g clip-path="url(#clip5_1168_44907)">
<path d="M279.561 97.3043C284.135 93.728 294.972 83.517 295.074 67.1785C295.15 55.6299 290.884 45.2215 279.96 32.7953C273.986 25.9985 260.85 25.5368 256.392 25.4941C257.888 23.2149 257.665 9.96354 251.094 2.86984C242.739 -6.14881 233.162 -6.41318 224.338 -4.25163C198.102 2.17426 177.062 13.2282 156.443 28.6649C147.453 35.3957 139.765 43.9049 144.687 59.2995C148.839 72.2775 153.732 68.9171 155.963 74.2305C158.369 79.9634 150.852 75.7576 157.26 90.4747C168.198 115.593 188.999 127.426 209.525 129.135C224.704 130.395 244.152 118.611 257.079 111.855C264.32 108.07 273.096 102.364 279.562 97.3061" fill="#F87C56"/>
<path d="M252.819 28.0163C257.657 25.6182 260.037 19.8398 259.774 14.5976C259.509 9.35353 257.107 4.52168 254.556 -0.0301517C251.443 -5.58147 247.951 -11.0716 242.986 -15.1037C240.134 -10.6515 237.582 -5.96682 236.134 -0.9364C234.688 4.09285 234.295 9.5535 236.046 14.3971C239.531 24.0258 252.821 28.0152 252.821 28.0152" fill="#20AD67"/>
</g>
<g clip-path="url(#clip6_1168_44907)">
<path d="M226.462 265.019C221.889 261.443 211.052 251.232 210.95 234.893C210.873 223.345 215.139 212.936 226.063 200.51C232.037 193.713 245.174 193.252 249.632 193.209C248.135 190.93 248.359 177.678 254.929 170.585C263.285 161.566 272.862 161.302 281.685 163.463C307.921 169.889 328.961 180.943 349.58 196.38C358.57 203.111 366.259 211.62 361.337 227.014C357.184 239.992 352.291 236.632 350.06 241.945C347.654 247.678 355.172 243.472 348.763 258.189C337.826 283.308 317.025 295.141 296.499 296.85C281.32 298.11 261.871 286.326 248.944 279.57C241.704 275.785 232.928 270.079 226.461 265.021" fill="#F87C56"/>
<path d="M253.205 195.73C248.367 193.332 245.987 187.554 246.25 182.311C246.514 177.067 248.916 172.236 251.467 167.684C254.58 162.132 258.072 156.642 263.037 152.61C265.889 157.062 268.441 161.747 269.889 166.777C271.335 171.807 271.728 177.267 269.977 182.111C266.493 191.74 253.202 195.729 253.202 195.729" fill="#20AD67"/>
</g>
<g clip-path="url(#clip7_1168_44907)">
<path d="M190.208 349.347C184.596 350.834 170.614 355.953 164.087 370.932C159.47 381.518 159.293 392.765 164.442 408.488C167.258 417.088 179.151 422.685 183.232 424.479C180.959 425.985 175.947 438.254 179.194 447.362C183.324 458.942 192.023 462.956 200.985 464.443C227.632 468.866 251.325 466.989 276.356 460.917C287.27 458.27 297.688 453.475 299.225 437.386C300.518 423.822 294.697 424.984 294.738 419.221C294.783 413.004 300.038 419.83 299.942 403.779C299.777 376.383 285.315 357.316 267.12 347.663C253.663 340.528 231.146 343.703 216.603 344.823C208.457 345.452 198.143 347.242 190.208 349.345" fill="#F87C56"/>
<path d="M187.509 423.568C182.118 423.868 177.655 428.243 175.833 433.165C174.011 438.09 174.317 443.477 174.87 448.665C175.546 454.994 176.594 461.416 179.57 467.077C183.945 464.107 188.135 460.806 191.447 456.752C194.756 452.698 197.268 447.833 197.565 442.691C198.153 432.468 187.507 423.569 187.507 423.569" fill="#20AD67"/>
</g>
<g clip-path="url(#clip8_1168_44907)">
<path d="M304.662 603.697C308.152 599.061 315.972 586.398 311.835 570.589C308.915 559.415 302.096 550.463 288.323 541.283C280.79 536.261 267.982 539.209 263.664 540.32C264.519 537.732 260.868 524.99 252.682 519.835C242.273 513.283 232.954 515.502 224.991 519.87C201.315 532.856 183.858 548.969 167.943 569.207C161.005 578.032 155.784 588.238 164.53 601.836C171.905 613.299 175.761 608.789 179.293 613.344C183.104 618.26 174.752 616.14 184.757 628.7C201.835 650.136 224.994 656.192 245.264 652.539C260.253 649.834 275.984 633.427 286.719 623.561C292.731 618.034 299.728 610.254 304.663 603.698" fill="#F87C56"/>
<path d="M260.864 543.68C264.916 540.114 265.716 533.917 264.103 528.922C262.488 523.924 258.916 519.878 255.271 516.14C250.825 511.583 246.029 507.182 240.187 504.57C238.587 509.607 237.337 514.792 237.242 520.025C237.149 525.256 238.185 530.632 241.132 534.859C246.995 543.259 260.866 543.678 260.866 543.678" fill="#20AD67"/>
</g>
<g clip-path="url(#clip9_1168_44907)">
<path d="M348.462 45.6928C343.889 49.2691 333.052 59.4801 332.95 75.8186C332.873 87.3672 337.139 97.7756 348.063 110.202C354.037 116.999 367.174 117.46 371.632 117.503C370.135 119.782 370.359 133.034 376.929 140.127C385.285 149.146 394.862 149.41 403.685 147.249C429.921 140.823 450.961 129.769 471.58 114.332C480.57 107.601 488.259 99.0921 483.337 83.6976C479.184 70.7195 474.291 74.0799 472.06 68.7666C469.654 63.0337 477.172 67.2395 470.763 52.5224C459.826 27.4041 439.025 15.5713 418.499 13.8623C403.32 12.6016 383.871 24.3857 370.944 31.1417C363.704 34.9268 354.928 40.6332 348.461 45.691" fill="#F87C56"/>
<path d="M375.205 114.982C370.367 117.38 367.987 123.158 368.25 128.4C368.514 133.645 370.916 138.476 373.467 143.028C376.58 148.58 380.072 154.07 385.037 158.102C387.889 153.65 390.441 148.965 391.889 143.934C393.335 138.905 393.728 133.445 391.977 128.601C388.493 118.972 375.202 114.983 375.202 114.983" fill="#20AD67"/>
</g>
<g clip-path="url(#clip10_1168_44907)">
<path d="M159.809 270.002C161.396 264.422 164.133 249.792 154.59 236.497C147.848 227.097 138.27 221.169 122.125 217.512C113.295 215.512 102.412 222.846 98.7862 225.427C98.6523 222.702 90.6646 212.099 81.1778 210.208C69.1154 207.805 61.224 213.21 55.3704 220.138C37.9641 240.737 27.4816 262.036 19.9213 286.639C16.625 297.366 15.4281 308.77 28.4736 318.353C39.4736 326.429 41.4463 320.836 46.3788 323.831C51.7 327.063 43.1497 328.067 56.9967 336.229C80.6303 350.158 104.403 347.539 121.99 336.88C134.994 328.995 143.761 308.038 150.222 294.981C153.84 287.666 157.567 277.894 159.811 270.003" fill="#F87C56"/>
<path d="M97.383 229.566C99.878 224.785 98.3957 218.708 95.0948 214.616C91.7919 210.523 87.005 208.018 82.2625 205.828C76.4773 203.158 70.4223 200.759 64.0361 200.406C64.3557 205.686 65.0543 210.978 66.8482 215.903C68.6431 220.825 71.543 225.479 75.8111 228.375C84.2986 234.131 97.3839 229.564 97.3839 229.564" fill="#20AD67"/>
</g>
<g clip-path="url(#clip11_1168_44907)">
<path d="M89.5612 490.635C94.1346 487.059 104.972 476.848 105.074 460.51C105.15 448.961 100.884 438.553 89.9602 426.126C83.986 419.33 70.8498 418.868 66.3918 418.825C67.8884 416.546 67.6648 403.295 61.094 396.201C52.7387 387.182 43.1619 386.918 34.3385 389.079C8.10222 395.505 -12.9378 406.559 -33.5568 421.996C-42.547 428.727 -50.2353 437.236 -45.3133 452.631C-41.1611 465.609 -36.2679 462.248 -34.0368 467.562C-31.6306 473.294 -39.1484 469.089 -32.74 483.806C-21.8021 508.924 -1.00148 520.757 19.5249 522.466C34.7039 523.726 54.1524 511.942 67.0795 505.186C74.3198 501.401 83.0959 495.695 89.5623 490.637" fill="#F87C56"/>
<path d="M62.8189 421.346C67.6569 418.948 70.0365 413.17 69.7735 407.928C69.5094 402.684 67.1075 397.852 64.5562 393.3C61.4431 387.749 57.9513 382.258 52.9861 378.226C50.1344 382.679 47.5823 387.363 46.1342 392.394C44.688 397.423 44.2952 402.884 46.0463 407.727C49.5309 417.356 62.8209 421.345 62.8209 421.345" fill="#20AD67"/>
</g>
<g clip-path="url(#clip12_1168_44907)">
<path d="M-32.5378 659.348C-37.1112 655.772 -47.9481 645.561 -48.0502 629.222C-48.1266 617.674 -43.8609 607.265 -32.9368 594.839C-26.9626 588.042 -13.8263 587.581 -9.36837 587.538C-10.865 585.259 -10.6414 572.007 -4.07058 564.914C4.28471 555.895 13.8616 555.631 22.685 557.792C48.9212 564.218 69.9612 575.272 90.5803 590.709C99.5704 597.44 107.259 605.949 102.337 621.343C98.1845 634.321 93.2914 630.961 91.0602 636.274C88.6541 642.007 96.1719 637.802 89.7634 652.519C78.8255 677.637 58.0249 689.47 37.4985 691.179C22.3196 692.439 2.87101 680.655 -10.0561 673.899C-17.2963 670.114 -26.0724 664.408 -32.5389 659.35" fill="#F87C56"/>
<path d="M-5.79548 590.059C-10.6335 587.661 -13.0131 581.883 -12.7501 576.641C-12.486 571.396 -10.084 566.565 -7.53275 562.013C-4.41967 556.461 -0.927877 550.971 4.03738 546.939C6.88901 551.391 9.44111 556.076 10.8893 561.107C12.3354 566.136 12.7283 571.596 10.9771 576.44C7.49255 586.069 -5.79751 590.058 -5.79751 590.058" fill="#20AD67"/>
</g>
</g>
<defs>
<clipPath id="clip0_1168_44907">
<path d="M0 32C0 14.3269 14.3269 0 32 0H495V588H32C14.3269 588 0 573.673 0 556V32Z" fill="white"/>
</clipPath>
<clipPath id="clip1_1168_44907">
<rect width="124.177" height="137.132" fill="white" transform="matrix(0.866393 0.499363 -0.500637 0.865657 19.3125 19.1572)"/>
</clipPath>
<clipPath id="clip2_1168_44907">
<rect width="124.177" height="137.132" fill="white" transform="matrix(-0.866393 0.499363 0.500637 0.865657 499.586 186.683)"/>
</clipPath>
<clipPath id="clip3_1168_44907">
<rect width="124.177" height="137.132" fill="white" transform="matrix(0.426832 0.904331 -0.904958 0.425501 457.668 360.432)"/>
</clipPath>
<clipPath id="clip4_1168_44907">
<rect width="124.177" height="137.132" fill="white" transform="matrix(-0.866393 -0.499363 0.500637 -0.865657 442.586 713.812)"/>
</clipPath>
<clipPath id="clip5_1168_44907">
<rect width="124.072" height="137.248" fill="white" transform="matrix(0.500637 0.865657 -0.866393 0.499363 247.91 -25.9561)"/>
</clipPath>
<clipPath id="clip6_1168_44907">
<rect width="124.072" height="137.248" fill="white" transform="matrix(-0.500637 0.865657 0.866393 0.499363 258.113 141.759)"/>
</clipPath>
<clipPath id="clip7_1168_44907">
<rect width="124.072" height="137.248" fill="white" transform="matrix(-0.119365 -0.99285 0.993025 -0.117904 170.771 475.113)"/>
</clipPath>
<clipPath id="clip8_1168_44907">
<rect width="124.125" height="137.19" fill="white" transform="matrix(0.707707 0.706506 -0.707707 0.706506 242.133 492.814)"/>
</clipPath>
<clipPath id="clip9_1168_44907">
<rect width="124.072" height="137.248" fill="white" transform="matrix(-0.500637 -0.865657 0.866393 -0.499363 380.113 168.953)"/>
</clipPath>
<clipPath id="clip10_1168_44907">
<rect width="124.206" height="137.1" fill="white" transform="matrix(0.913407 0.407047 -0.406061 0.913846 61.623 188.726)"/>
</clipPath>
<clipPath id="clip11_1168_44907">
<rect width="124.072" height="137.248" fill="white" transform="matrix(0.500637 0.865657 -0.866393 0.499363 57.9102 367.375)"/>
</clipPath>
<clipPath id="clip12_1168_44907">
<rect width="124.072" height="137.248" fill="white" transform="matrix(-0.500637 0.865657 0.866393 0.499363 -0.886719 536.088)"/>
</clipPath>
</defs>
</svg>
