<svg width="574" height="504" viewBox="0 0 574 504" fill="none" xmlns="http://www.w3.org/2000/svg">
<g clip-path="url(#clip0_1524_60838)">
<path d="M523.664 296.361C515.977 359.783 534.14 426.037 573.797 479.321C553.646 482.887 534.14 489.227 516.111 498.053C491.272 481.181 466.322 464.261 439.296 450.579C412.269 436.896 382.909 426.47 352.405 423.58C356.815 415.871 359.692 407.402 360.87 398.71C412.991 411.159 452.492 413.414 493.771 445.568C479.775 423.204 480.808 428.494 464.867 412.441C448.927 396.388 429.098 383.178 406.659 376.606C413.013 358.896 416.945 340.415 418.356 321.732C455.758 354.502 475.354 380.692 502.481 414.233C484.796 372.771 476.42 344.549 468.444 311.2L495.882 308.878C501.981 308.358 508.235 307.808 513.711 305.361C519.188 302.914 523.82 298.134 524.009 292.498L523.664 296.333V296.361Z" fill="#F87C56"/>
<path d="M17.0513 419.811C22.1168 390.317 48.6327 365.361 80.8139 354.868C53.7648 355.311 31.7034 332.128 30.3593 308.694C29.0263 285.261 43.9116 263.089 63.0959 246.545C34.114 234.346 2.677 200.814 0.310897 172.948C-2.62174 138.482 15.8738 114.75 40.5457 98.7353C53.2649 90.4873 79.081 82.0755 94.9106 81.1119C80.4696 67.439 80.3474 45.046 91.978 29.4846C103.597 13.9231 124.903 5.03915 146.221 3.63236C183.445 1.18493 221.192 21.4678 235.233 51.4729C236.566 28.3187 259.172 7.47695 285.732 4.89462C312.292 2.31229 339.641 18.3073 346.851 40.6329C349.383 17.8255 374.9 -1.19506 401.304 0.0575659C422.899 1.07894 442.195 15.5419 448.327 33.3195C454.647 21.3714 469.733 12.6609 485.262 11.4564C505.468 9.89547 525.197 18.5675 540.16 30.4578C553.068 40.7196 563.444 53.7854 567.531 68.5471C571.619 83.3088 568.887 99.8145 558.234 111.859C546.903 124.665 528.552 130.928 510.045 133.973C537.55 131.997 565.799 151.789 567.487 176.041C569.331 202.443 539.227 226.879 508.979 223.535C533.351 236.62 552.535 258.319 556.034 283.006C559.533 307.682 545.015 334.595 518.843 344.731C496.571 353.365 470.721 349.26 447.138 343.854C457.202 357.017 457.102 375.449 446.894 388.534C436.685 401.62 416.99 408.548 399.16 405.339C406.081 425.853 409.713 449.768 395.306 467.112C388.396 475.438 378.077 481.161 367.479 485.719C349.072 493.63 328.311 498.669 307.993 496.038C287.676 493.398 268.125 481.903 261.693 464.983C263.304 480.429 248.319 494.034 231.611 499.536C213.76 505.414 192.921 504.364 176.28 496.26C159.64 488.157 147.642 473.019 145.51 456.562C137.178 485.487 95.8992 502.109 63.5958 491.905C31.2924 481.701 11.9859 449.306 17.0402 419.811" fill="#FFD760"/>
</g>
<defs>
<clipPath id="clip0_1524_60838">
<rect width="573.797" height="503.275" fill="white" transform="matrix(-1 0 0 1 573.797 0)"/>
</clipPath>
</defs>
</svg>
