<svg width="70" height="125" viewBox="0 0 70 125" fill="none" xmlns="http://www.w3.org/2000/svg">
<g filter="url(#filter0_d_1602_62350)">
<path d="M14.2421 114.601L61.6896 116.148L66.6399 4.37616L19.0627 2.82919C15.9987 2.72939 13.4237 5.11471 13.294 8.16876L8.84264 108.763C8.70291 111.877 11.1382 114.501 14.2521 114.601H14.2421Z" fill="url(#paint0_linear_1602_62350)"/>
<path d="M25.0218 76.6327L24.9028 79.316L31.4921 82.2969L24.6647 84.6826L24.5457 87.366L35.7561 89.2076L35.8752 86.5242L29.4709 85.4336L36.018 83.3043L36.0894 81.6943L29.7566 78.9936L36.2323 78.4743L36.3513 75.7909L25.0218 76.6327ZM27.8893 66.5388L25.4743 66.4317L25.153 73.6767L36.4229 74.1766L36.7443 66.9317L34.3293 66.8245L34.127 71.3862L32.1145 71.2969L32.2811 67.5402L29.8661 67.4331L29.6995 71.1898L27.687 71.1005L27.8893 66.5388ZM37.1728 57.2726L37.3037 54.321L25.8269 58.4833L25.7168 60.9654L36.78 66.1276L36.9109 63.1759L35.0638 62.3882L35.2632 57.8937L37.1728 57.2726ZM32.6898 61.3587L29.2602 59.8791L32.8073 58.7089L32.6898 61.3587ZM35.0555 50.4555L26.2005 50.0627L26.0815 52.746L37.3514 53.2459L37.6609 46.2693L35.2459 46.1622L35.0555 50.4555ZM30.4447 39.2373L30.8284 36.6497C29.489 36.5399 28.9888 35.6943 29.0252 34.8725C29.0639 34.0004 29.6333 33.2863 30.7066 33.3339C31.4613 33.3674 32.4546 34.0836 33.5809 35.209L37.9462 39.8389L38.3628 30.4472L35.9478 30.3401L35.7811 34.0968C33.8426 31.9607 32.3015 30.7161 30.8257 30.6506C28.2262 30.5353 26.7226 32.233 26.605 34.8828C26.4904 37.4655 28.2537 39.0056 30.4447 39.2373Z" fill="#8D6542"/>
</g>
<defs>
<filter id="filter0_d_1602_62350" x="0.453264" y="0.0316219" width="68.9814" height="124.5" filterUnits="userSpaceOnUse" color-interpolation-filters="sRGB">
<feFlood flood-opacity="0" result="BackgroundImageFix"/>
<feColorMatrix in="SourceAlpha" type="matrix" values="0 0 0 0 0 0 0 0 0 0 0 0 0 0 0 0 0 0 127 0" result="hardAlpha"/>
<feOffset dx="-2.79455" dy="2.79455"/>
<feGaussianBlur stdDeviation="2.79455"/>
<feColorMatrix type="matrix" values="0 0 0 0 0 0 0 0 0 0 0 0 0 0 0 0 0 0 0.2 0"/>
<feBlend mode="normal" in2="BackgroundImageFix" result="effect1_dropShadow_1602_62350"/>
<feBlend mode="normal" in="SourceGraphic" in2="effect1_dropShadow_1602_62350" result="shape"/>
</filter>
<linearGradient id="paint0_linear_1602_62350" x1="20.6296" y1="4.29633" x2="58.9549" y2="122.655" gradientUnits="userSpaceOnUse">
<stop offset="0.328125" stop-color="#FFD234"/>
<stop offset="1" stop-color="#FFBF00"/>
</linearGradient>
</defs>
</svg>
