<svg width="70" height="125" viewBox="0 0 70 125" fill="none" xmlns="http://www.w3.org/2000/svg">
<g filter="url(#filter0_d_1602_62344)">
<path d="M14.2421 114.783L61.6896 116.33L66.6399 4.55787L19.0627 3.01083C15.9987 2.91103 13.4237 5.29647 13.294 8.35052L8.84264 108.944C8.70291 112.058 11.1382 114.683 14.2521 114.783H14.2421Z" fill="url(#paint0_linear_1602_62344)"/>
</g>
<path d="M25.0116 76.8944L24.8925 79.5777L31.4818 82.5586L24.6545 84.9444L24.5354 87.6277L35.7459 89.4693L35.8649 86.786L29.4606 85.6953L36.0078 83.566L36.0792 81.956L29.7463 79.2553L36.222 78.736L36.341 76.0527L25.0116 76.8944ZM27.8791 66.8006L25.4641 66.6934L25.1427 73.9384L36.4127 74.4383L36.734 67.1934L34.3191 67.0862L34.1167 71.6479L32.1042 71.5586L32.2709 67.802L29.8559 67.6948L29.6892 71.4515L27.6767 71.3622L27.8791 66.8006ZM37.1625 57.5343L37.2935 54.5827L25.8167 58.745L25.7066 61.2271L36.7697 66.3893L36.9007 63.4376L35.0536 62.6499L35.253 58.1554L37.1625 57.5343ZM32.6795 61.6204L29.25 60.1408L32.797 58.9706L32.6795 61.6204ZM35.0452 50.7172L26.1902 50.3244L26.0712 53.0077L37.3412 53.5076L37.6506 46.531L35.2356 46.4239L35.0452 50.7172ZM33.7433 31.5799L27.0349 31.2824L26.8862 34.6365L33.6426 39.9101L35.7892 40.0054L36.0392 34.3704L38.1859 34.4656L38.3049 31.7823L36.1582 31.6871L36.2178 30.3454L33.8028 30.2383L33.7433 31.5799ZM33.6242 34.2633L33.5089 36.8627L29.6328 34.0862L33.6242 34.2633Z" fill="#8D6542"/>
<defs>
<filter id="filter0_d_1602_62344" x="0.453264" y="0.213263" width="68.9814" height="124.5" filterUnits="userSpaceOnUse" color-interpolation-filters="sRGB">
<feFlood flood-opacity="0" result="BackgroundImageFix"/>
<feColorMatrix in="SourceAlpha" type="matrix" values="0 0 0 0 0 0 0 0 0 0 0 0 0 0 0 0 0 0 127 0" result="hardAlpha"/>
<feOffset dx="-2.79455" dy="2.79455"/>
<feGaussianBlur stdDeviation="2.79455"/>
<feColorMatrix type="matrix" values="0 0 0 0 0 0 0 0 0 0 0 0 0 0 0 0 0 0 0.2 0"/>
<feBlend mode="normal" in2="BackgroundImageFix" result="effect1_dropShadow_1602_62344"/>
<feBlend mode="normal" in="SourceGraphic" in2="effect1_dropShadow_1602_62344" result="shape"/>
</filter>
<linearGradient id="paint0_linear_1602_62344" x1="23.514" y1="2.60163" x2="51.6991" y2="110.821" gradientUnits="userSpaceOnUse">
<stop stop-color="#FFD234"/>
<stop offset="1" stop-color="#FFBF00"/>
</linearGradient>
</defs>
</svg>
