<svg width="74" height="126" viewBox="0 0 74 126" fill="none" xmlns="http://www.w3.org/2000/svg">
<g filter="url(#filter0_d_1602_62341)">
<path d="M22.839 117.366L70.3962 114.691L61.8629 3.12891L14.5352 5.79375C11.4113 5.9734 9.0359 8.67815 9.27543 11.8021L16.9604 112.206C17.19 115.24 19.8149 117.536 22.849 117.366H22.839Z" fill="url(#paint0_linear_1602_62341)"/>
<path d="M29.1742 77.9939L29.3793 80.672L36.2797 82.8373L29.7896 86.0282L29.9947 88.7063L41.3454 89.1838L41.1402 86.5057L34.6512 86.1946L40.8941 83.292L40.771 81.6851L34.1589 79.7671L40.5248 78.4714L40.3197 75.7933L29.1742 77.9939ZM30.8047 67.6281L28.3944 67.8127L28.9482 75.0436L40.1963 74.1821L39.6424 66.9512L37.2321 67.1358L37.5809 71.6886L35.5723 71.8424L35.2851 68.0931L32.8748 68.2777L33.162 72.027L31.1534 72.1809L30.8047 67.6281ZM38.904 57.3109L38.6784 54.3649L27.7867 59.8797L27.9765 62.357L39.581 66.1486L39.3553 63.2027L37.4268 62.6433L37.0832 58.1574L38.904 57.3109ZM34.946 61.9073L31.3632 60.8517L34.7434 59.2627L34.946 61.9073ZM35.9808 50.7985L27.143 51.4754L27.3481 54.1535L38.5962 53.292L38.0629 46.3289L35.6526 46.5135L35.9808 50.7985ZM29.6944 35.5475C29.6944 35.5475 29.7803 36.669 30.1985 37.2936L28.4758 37.2235L28.1181 32.5535L25.7078 32.7381L26.2309 39.5673L32.9993 40.0086L32.8134 37.5815C32.1942 37.1912 31.9189 36.4547 31.8664 35.7684C31.7715 34.5298 32.4425 33.8386 33.3296 33.7706C34.2168 33.7027 35.0006 34.4845 35.0801 35.5222C35.157 36.5265 34.549 37.3813 33.7172 37.5123L34.0898 40.1776C36.5941 39.9016 37.6981 38.0492 37.4904 35.3376C37.2712 32.4754 35.4679 30.913 32.9404 31.1066C30.5803 31.2874 29.5251 33.3381 29.6944 35.5475Z" fill="#8D6542"/>
</g>
<defs>
<filter id="filter0_d_1602_62341" x="0.875139" y="0.334356" width="72.3154" height="125.424" filterUnits="userSpaceOnUse" color-interpolation-filters="sRGB">
<feFlood flood-opacity="0" result="BackgroundImageFix"/>
<feColorMatrix in="SourceAlpha" type="matrix" values="0 0 0 0 0 0 0 0 0 0 0 0 0 0 0 0 0 0 127 0" result="hardAlpha"/>
<feOffset dx="-2.79455" dy="2.79455"/>
<feGaussianBlur stdDeviation="2.79455"/>
<feColorMatrix type="matrix" values="0 0 0 0 0 0 0 0 0 0 0 0 0 0 0 0 0 0 0.2 0"/>
<feBlend mode="normal" in2="BackgroundImageFix" result="effect1_dropShadow_1602_62341"/>
<feBlend mode="normal" in="SourceGraphic" in2="effect1_dropShadow_1602_62341" result="shape"/>
</filter>
<linearGradient id="paint0_linear_1602_62341" x1="19.1462" y1="4.28665" x2="55.645" y2="101.018" gradientUnits="userSpaceOnUse">
<stop stop-color="#FFD234"/>
<stop offset="1" stop-color="#FFBF00"/>
</linearGradient>
</defs>
</svg>
