<svg width="74" height="126" viewBox="0 0 74 126" fill="none" xmlns="http://www.w3.org/2000/svg">
<g filter="url(#filter0_d_1602_62347)">
<path d="M22.839 117.183L70.3962 114.508L61.8629 2.94531L14.5352 5.61016C11.4113 5.78981 9.0359 8.49455 9.27543 11.6185L16.9604 112.023C17.19 115.057 19.8149 117.352 22.849 117.183H22.839Z" fill="url(#paint0_linear_1602_62347)"/>
<path d="M29.1742 77.82L29.3793 80.4982L36.2797 82.6634L29.7896 85.8544L29.9947 88.5325L41.3454 89.01L41.1402 86.3319L34.6512 86.0208L40.8941 83.1182L40.771 81.5113L34.1589 79.5933L40.5248 78.2975L40.3197 75.6194L29.1742 77.82ZM30.8047 67.4543L28.3944 67.6389L28.9482 74.8698L40.1963 74.0082L39.6424 66.7773L37.2321 66.9619L37.5809 71.5147L35.5723 71.6686L35.2851 67.9192L32.8748 68.1038L33.162 71.8532L31.1534 72.0071L30.8047 67.4543ZM38.904 57.137L38.6784 54.1911L27.7867 59.7059L27.9765 62.1831L39.581 65.9748L39.3553 63.0289L37.4268 62.4695L37.0832 57.9836L38.904 57.137ZM34.946 61.7335L31.3632 60.6778L34.7434 59.0888L34.946 61.7335ZM35.9808 50.6246L27.143 51.3016L27.3481 53.9797L38.5962 53.1181L38.0629 46.155L35.6526 46.3397L35.9808 50.6246ZM31.0549 32.6935C30.5749 31.9221 29.563 31.4609 28.5922 31.5352C27.069 31.6519 25.481 33.1204 25.7067 36.0664C25.8977 38.5604 27.4925 40.0377 29.7843 40.0642L29.8521 37.4325C28.7718 37.3974 28.1926 36.8693 28.1131 35.8315C28.0426 34.9109 28.3956 34.2441 29.0652 34.1928C30.3373 34.0954 30.5219 36.5057 30.5219 36.5057L32.6644 36.3416C32.5682 35.0862 32.7103 33.6442 33.6477 33.5724C34.5013 33.5071 35.0019 34.3274 35.0711 35.2312C35.1621 36.4197 34.674 37.08 33.6168 37.3462L34.0898 40.0038C36.4498 39.823 37.6904 37.775 37.4904 35.1638C37.2301 31.7659 35.0661 30.77 33.3923 30.8982C32.3043 30.9815 31.435 31.7216 31.0549 32.6935Z" fill="#8D6542"/>
</g>
<defs>
<filter id="filter0_d_1602_62347" x="0.875139" y="0.150763" width="72.3154" height="125.424" filterUnits="userSpaceOnUse" color-interpolation-filters="sRGB">
<feFlood flood-opacity="0" result="BackgroundImageFix"/>
<feColorMatrix in="SourceAlpha" type="matrix" values="0 0 0 0 0 0 0 0 0 0 0 0 0 0 0 0 0 0 127 0" result="hardAlpha"/>
<feOffset dx="-2.79455" dy="2.79455"/>
<feGaussianBlur stdDeviation="2.79455"/>
<feColorMatrix type="matrix" values="0 0 0 0 0 0 0 0 0 0 0 0 0 0 0 0 0 0 0.2 0"/>
<feBlend mode="normal" in2="BackgroundImageFix" result="effect1_dropShadow_1602_62347"/>
<feBlend mode="normal" in="SourceGraphic" in2="effect1_dropShadow_1602_62347" result="shape"/>
</filter>
<linearGradient id="paint0_linear_1602_62347" x1="19.0564" y1="5.10111" x2="62.9907" y2="118.889" gradientUnits="userSpaceOnUse">
<stop stop-color="#FFD234"/>
<stop offset="1" stop-color="#FFBF00"/>
</linearGradient>
</defs>
</svg>
