<svg width="92" height="92" viewBox="0 0 92 92" fill="none" xmlns="http://www.w3.org/2000/svg">
<g filter="url(#filter0_d_2829_129468)">
<rect x="18" y="14.2241" width="56.0003" height="55.0699" rx="27.5349" fill="#F3D03E" stroke="white" stroke-width="4"/>
<path d="M55.3851 65.0758C61.3661 61.2517 63.0658 53.3783 59.1814 47.4901C55.2971 41.6019 47.2997 39.9286 41.3188 43.7526C35.3378 47.5767 33.6381 55.4501 37.5224 61.3383C41.4067 67.2266 49.4041 68.8999 55.3851 65.0758Z" fill="#516A7F"/>
<path d="M51.0427 41.9801C44.096 40.5266 37.2143 44.8765 35.7253 51.7739C35.1563 54.4096 35.4641 57.0348 36.4566 59.3506C39.1426 59.0723 41.6779 58.1006 43.8248 56.5853C45.3436 55.5134 47.3669 55.4247 48.9937 56.3302C52.4996 58.2816 56.774 58.8521 60.8397 57.6821C62.7396 50.6199 58.2408 43.4861 51.0427 41.9801Z" fill="#465E72"/>
<path d="M48.3763 20.5562C48.1503 19.7702 47.7993 19.0194 47.3361 18.3318C45.1857 15.1404 41.0079 13.9172 37.4168 15.463C36.1748 15.9972 35.4474 17.2922 35.6321 18.6134C35.8952 20.5002 36.8461 22.2753 38.3742 23.5577C39.054 24.1282 39.8152 24.5733 40.5813 24.8766L42.1594 25.5521C43.2478 26.018 44.4975 25.9389 45.5164 25.3397L46.7154 24.6345C48.138 23.7977 48.8177 22.1287 48.3763 20.5562Z" fill="#A2D176"/>
<path d="M40.585 24.8766L42.1632 25.552C43.2515 26.0179 44.5012 25.9388 45.5201 25.3396L46.7191 24.6345C48.1416 23.7978 48.8214 22.1287 48.3801 20.5563C48.1541 19.7703 47.8031 19.0195 47.3399 18.3319C44.0196 19.4693 40.9483 21.1754 38.3781 23.5577C38.7685 23.8853 39.1958 24.1813 39.6597 24.4382C39.9624 24.6054 40.2718 24.7525 40.585 24.8766Z" fill="#8EC557"/>
<path d="M44.9787 23.1718C44.7005 21.8535 44.0825 20.8153 43.4011 20.0227C42.2015 18.6273 40.8049 17.9956 40.714 17.9557C40.3081 17.777 39.8329 17.9558 39.6502 18.3549C39.4672 18.754 39.6479 19.2242 40.0528 19.4056C40.0691 19.413 41.0554 19.8664 41.9707 20.8384C42.5807 21.4863 43.1594 22.3642 43.3982 23.4953C43.4892 23.9263 43.9175 24.2008 44.3527 24.1116C44.7892 24.0222 45.0695 23.6015 44.9787 23.1718Z" fill="#8EC557"/>
<path d="M43.4014 23.4956C43.4924 23.9266 43.9208 24.2011 44.3559 24.1119C44.7924 24.0226 45.0727 23.6019 44.982 23.1722C44.7037 21.8539 44.0857 20.8157 43.4043 20.0231C42.915 20.2812 42.4382 20.5532 41.9738 20.8387C42.584 21.4866 43.1626 22.3645 43.4014 23.4956Z" fill="#77BD3F"/>
<path d="M57.1976 30.8382L57.1393 30.4314C56.6946 28.1668 56.7909 25.7025 57.5393 23.1047C58.0489 21.3352 58.7375 19.9855 59.3216 18.9562C59.8329 18.0559 59.5933 16.7805 58.752 16.1669C57.712 15.4088 56.2293 15.7225 55.5913 16.838C55.4105 17.1555 55.2205 17.5056 55.0273 17.8855C54.5711 18.7856 53.7363 19.2891 52.7309 19.4665C45.1381 20.7978 38.7124 24.6399 35.6022 31.5852L35.514 31.824C35.0701 33.0256 35.7842 34.3407 37.0458 34.6444C38.1374 34.9073 39.2533 34.3108 39.6239 33.2663L39.874 32.5613C42.1122 28.1338 46.0665 25.4978 50.9106 24.1887C51.8558 23.9336 52.7761 24.6808 52.6776 25.6416C52.5642 26.745 52.5546 27.6901 52.5933 28.4974C52.6552 29.7926 52.8416 30.7325 52.9255 31.3967C53.0602 32.4649 53.9863 33.2644 55.0797 33.2566C56.3832 33.2472 57.38 32.1092 57.1976 30.8382Z" fill="#CF8C5D"/>
<path d="M35.5152 31.823C35.0713 33.0247 35.7854 34.3397 37.0471 34.6434C38.1386 34.9063 39.2545 34.3098 39.6251 33.2653L39.8753 32.5603C40.259 31.8013 40.6903 31.1017 41.1616 30.456C39.7922 29.8512 38.344 29.4475 36.8415 29.2544C36.3857 29.9887 35.9708 30.7639 35.6035 31.5842L35.5152 31.823Z" fill="#C97C48"/>
<path d="M52.9271 31.3971C53.0618 32.4654 53.9879 33.2649 55.0813 33.2571C56.3851 33.2477 57.3818 32.1096 57.1994 30.8387L57.1411 30.4319C56.9834 29.6287 56.8968 28.813 56.8782 27.9862C55.4112 27.9561 53.9713 28.1338 52.595 28.4979C52.6567 29.793 52.8431 30.7329 52.9271 31.3971Z" fill="#C97C48"/>
<path d="M41.8876 54.9386C47.8685 51.1145 49.5682 43.2411 45.6839 37.3529C41.7996 31.4647 33.8022 29.7914 27.8212 33.6154C21.8402 37.4395 20.1406 45.3129 24.0249 51.2011C27.9092 57.0894 35.9066 58.7627 41.8876 54.9386Z" fill="#6A8098"/>
<path d="M27.4433 43.1176C28.6516 37.5202 32.9352 33.3757 38.1589 31.9884C31.007 30.1327 23.7573 34.5388 22.2249 41.6375C20.7967 48.2531 24.8873 54.8047 31.4867 56.5548C28.0362 53.15 26.3569 48.15 27.4433 43.1176Z" fill="#516A7F"/>
<path d="M60.3474 31.1357C53.4007 29.6823 47.6669 34.6484 46.1779 41.5458C44.7009 48.3878 47.6225 53.8419 54.6217 55.3064C55.5945 55.5099 56.6891 55.8511 56.6891 55.8511C62.5613 55.7579 67.9161 51.7027 69.195 45.7784C70.4737 39.8555 67.2423 34.0102 61.933 31.5699C61.933 31.57 61.3281 31.3409 60.3474 31.1357Z" fill="#6A8098"/>
<path d="M49.4253 41.6418C50.7122 35.6804 56.0277 31.6229 61.9316 31.5696C61.0881 31.1908 60.1903 30.8955 59.2459 30.6978C52.2992 29.2444 45.4174 33.5942 43.9284 40.4917C42.4514 47.3336 46.8771 54.1074 53.8762 55.5718C54.8198 55.7693 55.7613 55.8588 56.6878 55.8507C51.287 53.4265 48.1477 47.5601 49.4253 41.6418Z" fill="#516A7F"/>
<path d="M59.3709 36.4258C59.7093 36.9375 60.8259 37.3976 60.6869 38.0411C60.548 38.6847 59.3379 38.658 58.8174 38.9899C58.2976 39.3231 57.8303 40.4224 57.1766 40.2856C56.5229 40.1488 56.5501 38.9575 56.2129 38.445C55.8745 37.9333 54.758 37.4733 54.8969 36.8297C55.0359 36.1861 56.2459 36.2129 56.7665 35.8809C57.2862 35.5477 57.7535 34.4484 58.4072 34.5852C59.061 34.722 59.0338 35.9133 59.3709 36.4258Z" fill="#465E72"/>
<path d="M37.6683 37.5703C38.0067 38.0821 39.1232 38.5421 38.9843 39.1857C38.8454 39.8293 37.6353 39.8025 37.1147 40.1345C36.595 40.4677 36.1277 41.5669 35.474 41.4301C34.8203 41.2933 34.8475 40.102 34.5103 39.5895C34.1719 39.0778 33.0553 38.6178 33.1943 37.9742C33.3332 37.3306 34.5433 37.3574 35.0638 37.0254C35.5836 36.6922 36.0509 35.593 36.7046 35.7298C37.3584 35.8667 37.3312 37.0579 37.6683 37.5703Z" fill="#516A7F"/>
<path d="M48.9722 46.4582C48.5362 46.3669 48.2577 45.945 48.3504 45.5158L48.6188 44.2723C48.7115 43.843 49.1401 43.5691 49.5762 43.6603C50.0123 43.7516 50.2906 44.1735 50.198 44.6027L49.9295 45.8462C49.8369 46.2754 49.4083 46.5494 48.9722 46.4582Z" fill="#4E5660"/>
<path d="M62.1172 49.2087C61.6812 49.1174 61.4028 48.6955 61.4954 48.2662L61.7639 47.0228C61.8565 46.5935 62.2851 46.3196 62.7212 46.4108C63.1572 46.502 63.4357 46.9239 63.343 47.3532L63.0746 48.5967C62.9819 49.0259 62.5532 49.2999 62.1172 49.2087Z" fill="#4E5660"/>
<path d="M55.3832 48.5736C54.4911 48.387 53.7246 47.829 53.2806 47.0429C53.0639 46.6593 53.2042 46.1756 53.5937 45.9623C53.9833 45.7491 54.4747 45.8872 54.6915 46.2707C55.1464 47.0762 56.2162 47.3019 56.9666 46.7467C57.3229 46.4831 57.8289 46.5537 58.0967 46.9045C58.3646 47.2552 58.2928 47.7533 57.9365 48.017C57.2061 48.5575 56.2755 48.7603 55.3832 48.5736Z" fill="#4E5660"/>
<path d="M27.2681 47.6042C26.8321 47.5129 26.5536 47.091 26.6463 46.6618L26.9147 45.4183C27.0074 44.989 27.436 44.7151 27.8721 44.8063C28.3081 44.8975 28.5865 45.3194 28.4939 45.7487L28.2254 46.9922C28.1328 47.4215 27.7042 47.6954 27.2681 47.6042Z" fill="#4E5660"/>
<path d="M40.4175 50.3551C39.9815 50.2639 39.7031 49.842 39.7957 49.4127L40.0642 48.1693C40.1568 47.74 40.5854 47.466 41.0215 47.5573C41.4575 47.6485 41.736 48.0704 41.6433 48.4997L41.3749 49.7431C41.2822 50.1725 40.8535 50.4464 40.4175 50.3551Z" fill="#4E5660"/>
<path d="M33.6826 49.7196C32.7904 49.533 32.0239 48.975 31.5799 48.1889C31.3632 47.8053 31.5035 47.3216 31.893 47.1083C32.2826 46.8951 32.7741 47.0332 32.9908 47.4167C33.4457 48.2222 34.5155 48.4479 35.2659 47.8927C35.6222 47.6291 36.1282 47.6997 36.3962 48.0505C36.664 48.4013 36.5922 48.8993 36.2359 49.163C35.5054 49.7035 34.5748 49.9063 33.6826 49.7196Z" fill="#4E5660"/>
</g>
<defs>
<filter id="filter0_d_2829_129468" x="0" y="0.224121" width="92.0005" height="91.0698" filterUnits="userSpaceOnUse" color-interpolation-filters="sRGB">
<feFlood flood-opacity="0" result="BackgroundImageFix"/>
<feColorMatrix in="SourceAlpha" type="matrix" values="0 0 0 0 0 0 0 0 0 0 0 0 0 0 0 0 0 0 127 0" result="hardAlpha"/>
<feOffset dy="4"/>
<feGaussianBlur stdDeviation="8"/>
<feComposite in2="hardAlpha" operator="out"/>
<feColorMatrix type="matrix" values="0 0 0 0 0 0 0 0 0 0 0 0 0 0 0 0 0 0 0.1 0"/>
<feBlend mode="normal" in2="BackgroundImageFix" result="effect1_dropShadow_2829_129468"/>
<feBlend mode="normal" in="SourceGraphic" in2="effect1_dropShadow_2829_129468" result="shape"/>
</filter>
</defs>
</svg>
