<svg width="24" height="24" viewBox="0 0 24 24" fill="none" xmlns="http://www.w3.org/2000/svg">
<path d="M20.6507 14.863C20.5438 14.7956 20.4215 14.7562 20.2953 14.7487C20.1691 14.7412 20.043 14.7657 19.9288 14.8199C19.6431 14.9551 19.3277 15.0158 19.0122 14.9964C18.6967 14.977 18.3912 14.8781 18.1241 14.709C17.857 14.5399 17.637 14.3059 17.4846 14.029C17.3321 13.752 17.2522 13.441 17.2522 13.1249C17.2522 12.8088 17.3321 12.4978 17.4846 12.2208C17.637 11.9439 17.857 11.7099 18.1241 11.5408C18.3912 11.3717 18.6967 11.2728 19.0122 11.2534C19.3277 11.234 19.6431 11.2947 19.9288 11.4299C20.0432 11.4842 20.1694 11.5086 20.2957 11.501C20.422 11.4933 20.5444 11.4538 20.6513 11.3862C20.7583 11.3185 20.8464 11.2249 20.9074 11.114C20.9685 11.0032 21.0004 10.8786 21.0004 10.7521V6.7499C21.0004 6.35207 20.8424 5.97054 20.5611 5.68923C20.2798 5.40793 19.8982 5.24989 19.5004 5.24989H16.1048C16.1187 5.12539 16.1256 5.00018 16.1254 4.87489C16.1247 4.41395 16.0299 3.958 15.8468 3.53499C15.6636 3.11198 15.396 2.73083 15.0604 2.4149C14.5956 1.97841 14.0168 1.68249 13.3908 1.56141C12.7648 1.44034 12.1173 1.49905 11.5233 1.73076C10.9293 1.96247 10.4131 2.3577 10.0345 2.87067C9.65585 3.38364 9.43025 3.99338 9.38383 4.62927C9.36943 4.83612 9.37382 5.04384 9.39696 5.24989H6.0004C5.60257 5.24989 5.22104 5.40793 4.93974 5.68923C4.65843 5.97054 4.5004 6.35207 4.5004 6.7499V9.77052C4.37589 9.75656 4.25069 9.74968 4.1254 9.7499C3.66446 9.75064 3.20852 9.84548 2.78552 10.0286C2.36253 10.2117 1.98137 10.4793 1.6654 10.8149C1.34716 11.1511 1.10212 11.5496 0.945752 11.9853C0.789388 12.421 0.725102 12.8843 0.756959 13.3461C0.810704 14.1593 1.15622 14.9257 1.72996 15.5045C2.30371 16.0832 3.06711 16.4354 3.87977 16.4961C4.08661 16.511 4.29438 16.5066 4.5004 16.483V19.4999C4.5004 19.8977 4.65843 20.2793 4.93974 20.5606C5.22104 20.8419 5.60257 20.9999 6.0004 20.9999H19.5004C19.8982 20.9999 20.2798 20.8419 20.5611 20.5606C20.8424 20.2793 21.0004 19.8977 21.0004 19.4999V15.4977C21.0005 15.371 20.9684 15.2463 20.9073 15.1353C20.8461 15.0243 20.7579 14.9307 20.6507 14.863ZM19.5004 19.4999H6.0004V15.4977C6.00044 15.3711 5.96845 15.2466 5.90742 15.1358C5.84638 15.0249 5.75829 14.9313 5.65133 14.8636C5.54437 14.796 5.42203 14.7565 5.29571 14.7488C5.16938 14.7412 5.04317 14.7656 4.92883 14.8199C4.64305 14.9551 4.32773 15.0158 4.0122 14.9964C3.69666 14.977 3.39115 14.8781 3.12407 14.709C2.85699 14.5399 2.637 14.3059 2.48457 14.029C2.33214 13.752 2.25221 13.441 2.25221 13.1249C2.25221 12.8088 2.33214 12.4978 2.48457 12.2208C2.637 11.9439 2.85699 11.7099 3.12407 11.5408C3.39115 11.3717 3.69666 11.2728 4.0122 11.2534C4.32773 11.234 4.64305 11.2947 4.92883 11.4299C5.04317 11.4842 5.16938 11.5086 5.29571 11.501C5.42203 11.4933 5.54437 11.4538 5.65133 11.3862C5.75829 11.3185 5.84638 11.2249 5.90742 11.114C5.96845 11.0032 6.00044 10.8786 6.0004 10.7521V6.7499H10.3776C10.5041 6.74994 10.6287 6.71795 10.7395 6.65692C10.8504 6.59588 10.944 6.50779 11.0117 6.40083C11.0793 6.29387 11.1188 6.17153 11.1265 6.0452C11.1341 5.91888 11.1097 5.79267 11.0554 5.67833C10.9202 5.39255 10.8595 5.07723 10.8789 4.7617C10.8983 4.44616 10.9972 4.14065 11.1663 3.87357C11.3354 3.60649 11.5694 3.3865 11.8463 3.23407C12.1233 3.08164 12.4343 3.00171 12.7504 3.00171C13.0665 3.00171 13.3775 3.08164 13.6545 3.23407C13.9314 3.3865 14.1654 3.60649 14.3345 3.87357C14.5036 4.14065 14.6025 4.44616 14.6219 4.7617C14.6413 5.07723 14.5806 5.39255 14.4454 5.67833C14.3911 5.79267 14.3667 5.91888 14.3743 6.0452C14.382 6.17153 14.4215 6.29387 14.4891 6.40083C14.5568 6.50779 14.6504 6.59588 14.7613 6.65692C14.8721 6.71795 14.9967 6.74994 15.1232 6.7499H19.5004V9.77146C19.2944 9.74786 19.0866 9.74346 18.8798 9.75833C18.0069 9.82014 17.1921 10.2186 16.6073 10.8696C16.0226 11.5206 15.7135 12.3733 15.7454 13.2478C15.7773 14.1223 16.1475 14.9502 16.7781 15.557C17.4087 16.1637 18.2503 16.5018 19.1254 16.4999C19.2507 16.5001 19.3759 16.4932 19.5004 16.4793V19.4999Z" fill="#F2F2F2"/>
</svg>
