<svg width="48" height="48" viewBox="0 0 48 48" fill="none" xmlns="http://www.w3.org/2000/svg">
<path d="M41.3004 29.7262C41.0866 29.5913 40.8421 29.5127 40.5897 29.4976C40.3372 29.4825 40.0851 29.5315 39.8567 29.64C39.2851 29.9103 38.6545 30.0317 38.0234 29.9929C37.3923 29.9541 36.7813 29.7564 36.2472 29.4182C35.713 29.0799 35.273 28.6121 34.9682 28.0581C34.6633 27.5042 34.5034 26.8822 34.5034 26.25C34.5034 25.6177 34.6633 24.9957 34.9682 24.4418C35.273 23.8879 35.713 23.4201 36.2472 23.0818C36.7813 22.7435 37.3923 22.5458 38.0234 22.507C38.6545 22.4683 39.2851 22.5897 39.8567 22.86C40.0854 22.9685 40.3378 23.0174 40.5904 23.0021C40.8431 22.9868 41.0878 22.9078 41.3017 22.7725C41.5156 22.6372 41.6918 22.45 41.8139 22.2282C41.9359 22.0065 41.9999 21.7575 41.9998 21.5043V13.5C41.9998 12.7043 41.6837 11.9413 41.1211 11.3787C40.5585 10.816 39.7955 10.5 38.9998 10.5H32.2086C32.2365 10.251 32.2503 10.0006 32.2498 9.74997C32.2484 8.82808 32.0588 7.91618 31.6925 7.07016C31.3263 6.22415 30.7911 5.46184 30.1198 4.82997C29.1903 3.957 28.0326 3.36516 26.7806 3.12301C25.5286 2.88086 24.2337 2.99829 23.0457 3.46171C21.8577 3.92513 20.8253 4.71558 20.068 5.74152C19.3107 6.76747 18.8595 7.98694 18.7667 9.25872C18.7379 9.67242 18.7467 10.0879 18.7929 10.5H11.9998C11.2042 10.5 10.4411 10.816 9.8785 11.3787C9.31589 11.9413 8.99982 12.7043 8.99982 13.5V19.5412C8.7508 19.5133 8.50039 19.4995 8.24982 19.5C7.32794 19.5015 6.41607 19.6911 5.57007 20.0574C4.72407 20.4237 3.96176 20.9588 3.32982 21.63C2.69334 22.3023 2.20326 23.0993 1.89053 23.9707C1.5778 24.8421 1.44923 25.7689 1.51294 26.6925C1.62043 28.3188 2.31146 29.8516 3.45895 31.0091C4.60644 32.1666 6.13323 32.8709 7.75857 32.9925C8.17224 33.0222 8.58777 33.0134 8.99982 32.9662V39C8.99982 39.7956 9.31589 40.5587 9.8785 41.1213C10.4411 41.6839 11.2042 42 11.9998 42H38.9998C39.7955 42 40.5585 41.6839 41.1211 41.1213C41.6837 40.5587 41.9998 39.7956 41.9998 39V30.9956C42 30.7422 41.9359 30.4928 41.8136 30.2708C41.6913 30.0489 41.5148 29.8615 41.3004 29.7262ZM38.9998 39H11.9998V30.9956C11.9999 30.7425 11.9359 30.4935 11.8139 30.2717C11.6918 30.05 11.5156 29.8627 11.3017 29.7274C11.0878 29.5921 10.8431 29.5131 10.5904 29.4978C10.3378 29.4826 10.0854 29.5315 9.85669 29.64C9.28513 29.9103 8.65449 30.0317 8.02342 29.9929C7.39235 29.9541 6.78133 29.7564 6.24716 29.4182C5.713 29.0799 5.27303 28.6121 4.96817 28.0581C4.66331 27.5042 4.50344 26.8822 4.50344 26.25C4.50344 25.6177 4.66331 24.9957 4.96817 24.4418C5.27303 23.8879 5.713 23.4201 6.24716 23.0818C6.78133 22.7435 7.39235 22.5458 8.02342 22.507C8.65449 22.4683 9.28513 22.5897 9.85669 22.86C10.0854 22.9685 10.3378 23.0174 10.5904 23.0021C10.8431 22.9868 11.0878 22.9078 11.3017 22.7725C11.5156 22.6372 11.6918 22.45 11.8139 22.2282C11.9359 22.0065 11.9999 21.7575 11.9998 21.5043V13.5H20.7542C21.0073 13.5001 21.2563 13.4361 21.4781 13.314C21.6998 13.1919 21.887 13.0158 22.0224 12.8018C22.1577 12.5879 22.2366 12.3432 22.2519 12.0906C22.2672 11.8379 22.2183 11.5855 22.1098 11.3568C21.8395 10.7853 21.7181 10.1546 21.7569 9.52358C21.7957 8.89251 21.9934 8.28149 22.3316 7.74732C22.6699 7.21316 23.1377 6.77319 23.6916 6.46833C24.2456 6.16346 24.8676 6.0036 25.4998 6.0036C26.1321 6.0036 26.7541 6.16346 27.308 6.46833C27.8619 6.77319 28.3297 7.21316 28.668 7.74732C29.0063 8.28149 29.204 8.89251 29.2428 9.52358C29.2815 10.1546 29.1601 10.7853 28.8898 11.3568C28.7813 11.5855 28.7324 11.8379 28.7477 12.0906C28.763 12.3432 28.842 12.5879 28.9773 12.8018C29.1126 13.0158 29.2998 13.1919 29.5216 13.314C29.7433 13.4361 29.9923 13.5001 30.2454 13.5H38.9998V19.5431C38.5878 19.4959 38.1722 19.4871 37.7586 19.5168C36.0128 19.6405 34.3833 20.4373 33.2137 21.7394C32.0442 23.0414 31.4261 24.7468 31.4898 26.4958C31.5535 28.2448 32.2941 29.9006 33.5553 31.1141C34.8165 32.3276 36.4997 33.0037 38.2498 33C38.5004 33.0004 38.7508 32.9866 38.9998 32.9587V39Z" fill="#F87C56"/>
</svg>
