<svg width="21" height="24" viewBox="0 0 21 24" fill="none" xmlns="http://www.w3.org/2000/svg">
<path fill-rule="evenodd" clip-rule="evenodd" d="M9.83905 0.917506C9.54364 0.973949 9.05424 1.20895 8.78417 1.42401C8.49651 1.65314 8.177 2.10085 8.03727 2.47062C7.94736 2.70854 7.92556 2.85241 7.91424 3.28184L7.90053 3.80384L7.58451 3.93805C6.69373 4.31627 5.96694 4.80041 5.30464 5.45675C4.20554 6.54596 3.55717 7.76412 3.25437 9.30875C3.1931 9.62116 3.17804 10.1044 3.15802 12.3917C3.13513 15.0121 3.13143 15.1064 3.04983 15.166C3.00336 15.2 2.91523 15.2285 2.854 15.2293C2.32265 15.2365 1.62048 15.4997 1.18804 15.8536C0.284392 16.5933 0.0226306 17.8879 0.567607 18.9219C0.86662 19.4891 1.35176 19.9053 1.98208 20.1353L2.30746 20.2541L4.69969 20.2671C6.50291 20.2769 7.10011 20.2929 7.12513 20.3324C7.14345 20.3611 7.15868 20.4302 7.15907 20.4858C7.16025 20.6632 7.37662 21.2453 7.55139 21.5413C7.9736 22.2562 8.6262 22.761 9.46771 23.0237C9.89584 23.1573 10.7286 23.1663 11.1634 23.0421C11.8977 22.8322 12.6079 22.3211 13.0139 21.7105C13.2894 21.296 13.407 20.9985 13.5334 20.3955L13.5585 20.2759L15.8315 20.2751C18.3667 20.2743 18.4733 20.2648 19.031 19.9903C19.6544 19.6836 20.1998 18.9731 20.3418 18.2828C20.5696 17.1751 20.0131 16.0418 18.9929 15.5363C18.6522 15.3675 18.1406 15.2337 17.8191 15.2293C17.7579 15.2285 17.6697 15.2 17.6233 15.1661C17.5417 15.1064 17.538 15.0128 17.5151 12.4571C17.4924 9.91778 17.4873 9.79028 17.392 9.33238C17.1399 8.12166 16.6207 7.01247 15.8708 6.08262C15.1264 5.15956 13.9303 4.26483 12.9476 3.89593L12.7518 3.82242V3.31287C12.7518 2.68965 12.6579 2.37467 12.335 1.91485C11.7749 1.1173 10.8106 0.731989 9.83905 0.917506ZM10.7517 2.40591C11.1055 2.57063 11.3375 2.9068 11.3375 3.25482V3.42619L10.6521 3.40443C10.2751 3.39247 9.82469 3.40056 9.65114 3.42241L9.33563 3.46214V3.27279C9.33563 2.76524 9.81228 2.30377 10.3365 2.30377C10.4507 2.30377 10.6238 2.34634 10.7517 2.40591ZM11.7074 4.99672C13.8303 5.54287 15.4843 7.31431 15.9788 9.57151C16.0387 9.84493 16.0543 10.3304 16.0769 12.6167C16.1039 15.3346 16.104 15.3367 16.2054 15.5897C16.2704 15.7518 16.399 15.9413 16.5628 16.1164C16.8897 16.4658 17.191 16.6078 17.7345 16.6685C18.202 16.7207 18.3724 16.7854 18.6128 17.0021C18.8441 17.2107 18.9509 17.4478 18.9522 17.7549C18.954 18.2149 18.6065 18.6787 18.1725 18.7956C18.0587 18.8262 15.5054 18.8371 10.2431 18.8294L2.48153 18.818L2.30746 18.7241C1.69442 18.3933 1.52901 17.6136 1.96402 17.1054C2.19044 16.8408 2.45359 16.7226 2.93586 16.6688C3.59163 16.5955 4.06398 16.3122 4.35337 15.8182C4.58467 15.4234 4.59216 15.3241 4.59216 12.6458C4.59216 9.87488 4.61318 9.58914 4.87494 8.80259C5.56313 6.73452 7.29272 5.24703 9.42266 4.89132C9.67281 4.84958 10.018 4.83487 10.4889 4.84597C11.0918 4.86016 11.2552 4.88035 11.7074 4.99672ZM12.0768 20.352C12.076 20.5116 11.8522 20.8994 11.6215 21.1413C11.0681 21.7215 10.2586 21.8665 9.53929 21.5143C9.23367 21.3646 8.8494 20.9711 8.70405 20.6589C8.50931 20.2405 8.35843 20.2759 10.3365 20.2759C11.9655 20.2759 12.0772 20.2807 12.0768 20.352Z" fill="white"/>
</svg>
