<svg width="12" height="7" viewBox="0 0 12 7" fill="none" xmlns="http://www.w3.org/2000/svg">
<path d="M11.1545 1.32831L6.07636 6.40643C6.02919 6.45365 5.97319 6.4911 5.91154 6.51666C5.84989 6.54222 5.78381 6.55537 5.71708 6.55537C5.65034 6.55537 5.58426 6.54222 5.52262 6.51666C5.46097 6.4911 5.40496 6.45365 5.3578 6.40643L0.279677 1.32831C0.184391 1.23302 0.130859 1.10379 0.130859 0.969032C0.130859 0.834277 0.184391 0.705041 0.279677 0.609755C0.374963 0.514468 0.504199 0.460938 0.638954 0.460938C0.773709 0.460938 0.902945 0.514468 0.998232 0.609755L5.71708 5.32924L10.4359 0.609755C10.4831 0.562574 10.5391 0.525148 10.6008 0.499614C10.6624 0.47408 10.7285 0.460938 10.7952 0.460938C10.8619 0.460938 10.928 0.47408 10.9896 0.499614C11.0513 0.525148 11.1073 0.562574 11.1545 0.609755C11.2017 0.656936 11.2391 0.712948 11.2646 0.774593C11.2902 0.836238 11.3033 0.902308 11.3033 0.969032C11.3033 1.03576 11.2902 1.10183 11.2646 1.16347C11.2391 1.22512 11.2017 1.28113 11.1545 1.32831Z" fill="#D3BB90"/>
</svg>
