<svg width="16" height="16" viewBox="0 0 16 16" fill="none" xmlns="http://www.w3.org/2000/svg">
<path d="M10.3537 12.6465C10.4002 12.693 10.4371 12.7481 10.4622 12.8088C10.4873 12.8695 10.5003 12.9346 10.5003 13.0003C10.5003 13.066 10.4873 13.131 10.4622 13.1917C10.4371 13.2524 10.4002 13.3076 10.3537 13.354C10.3073 13.4005 10.2521 13.4373 10.1914 13.4625C10.1307 13.4876 10.0657 13.5006 10 13.5006C9.9343 13.5006 9.86924 13.4876 9.80855 13.4625C9.74785 13.4373 9.6927 13.4005 9.64625 13.354L4.64625 8.35403C4.59976 8.30759 4.56288 8.25245 4.53772 8.19175C4.51255 8.13105 4.4996 8.06599 4.4996 8.00028C4.4996 7.93457 4.51255 7.86951 4.53772 7.80881C4.56288 7.74811 4.59976 7.69296 4.64625 7.64653L9.64625 2.64653C9.74007 2.55271 9.86731 2.5 10 2.5C10.1327 2.5 10.2599 2.55271 10.3537 2.64653C10.4476 2.74035 10.5003 2.8676 10.5003 3.00028C10.5003 3.13296 10.4476 3.26021 10.3537 3.35403L5.70687 8.00028L10.3537 12.6465Z" fill="#0084D5"/>
</svg>
