<svg width="16" height="16" viewBox="0 0 16 16" fill="none" xmlns="http://www.w3.org/2000/svg">
<path d="M11.3538 8.35403L6.35375 13.354C6.3073 13.4005 6.25215 13.4373 6.19145 13.4625C6.13076 13.4876 6.0657 13.5006 6 13.5006C5.93431 13.5006 5.86925 13.4876 5.80856 13.4625C5.74786 13.4373 5.69271 13.4005 5.64625 13.354C5.5998 13.3076 5.56295 13.2524 5.53781 13.1917C5.51267 13.131 5.49973 13.066 5.49973 13.0003C5.49973 12.9346 5.51267 12.8695 5.53781 12.8088C5.56295 12.7481 5.5998 12.693 5.64625 12.6465L10.2931 8.00028L5.64625 3.35403C5.55243 3.26021 5.49973 3.13296 5.49973 3.00028C5.49973 2.8676 5.55243 2.74035 5.64625 2.64653C5.74007 2.55271 5.86732 2.5 6 2.5C6.13269 2.5 6.25993 2.55271 6.35375 2.64653L11.3538 7.64653C11.4002 7.69296 11.4371 7.74811 11.4623 7.80881C11.4874 7.86951 11.5004 7.93457 11.5004 8.00028C11.5004 8.06599 11.4874 8.13105 11.4623 8.19175C11.4371 8.25245 11.4002 8.30759 11.3538 8.35403Z" fill="#0084D5"/>
</svg>
