<svg width="24" height="24" viewBox="0 0 24 24" fill="none" xmlns="http://www.w3.org/2000/svg">
<path d="M16.125 10.5004C16.3321 10.5004 16.5 10.3325 16.5 10.1254C16.5 9.91829 16.3321 9.7504 16.125 9.7504C15.9179 9.7504 15.75 9.91829 15.75 10.1254C15.75 10.3325 15.9179 10.5004 16.125 10.5004Z" fill="#3D3D3D"/>
<path fill-rule="evenodd" clip-rule="evenodd" d="M16.125 10.2504C16.194 10.2504 16.25 10.1944 16.25 10.1254C16.25 10.0564 16.194 10.0004 16.125 10.0004C16.056 10.0004 16 10.0564 16 10.1254C16 10.1944 16.056 10.2504 16.125 10.2504ZM15.25 10.1254C15.25 9.64215 15.6418 9.2504 16.125 9.2504C16.6082 9.2504 17 9.64215 17 10.1254C17 10.6086 16.6082 11.0004 16.125 11.0004C15.6418 11.0004 15.25 10.6086 15.25 10.1254Z" fill="#3D3D3D"/>
<path d="M12.75 13.8754C12.9571 13.8754 13.125 13.7075 13.125 13.5004C13.125 13.2933 12.9571 13.1254 12.75 13.1254C12.5429 13.1254 12.375 13.2933 12.375 13.5004C12.375 13.7075 12.5429 13.8754 12.75 13.8754Z" fill="#3D3D3D"/>
<path fill-rule="evenodd" clip-rule="evenodd" d="M12.75 13.6254C12.819 13.6254 12.875 13.5694 12.875 13.5004C12.875 13.4314 12.819 13.3754 12.75 13.3754C12.681 13.3754 12.625 13.4314 12.625 13.5004C12.625 13.5694 12.681 13.6254 12.75 13.6254ZM11.875 13.5004C11.875 13.0171 12.2668 12.6254 12.75 12.6254C13.2332 12.6254 13.625 13.0171 13.625 13.5004C13.625 13.9836 13.2332 14.3754 12.75 14.3754C12.2668 14.3754 11.875 13.9836 11.875 13.5004Z" fill="#3D3D3D"/>
<path fill-rule="evenodd" clip-rule="evenodd" d="M4.88514 2.78735C6.73891 2.21695 9.25423 1.87549 12 1.87549C14.7458 1.87549 17.2611 2.21695 19.1149 2.78735C20.0372 3.07113 20.8381 3.42434 21.425 3.85127C21.9954 4.26625 22.5 4.85634 22.5 5.62549L22.5 5.62909C22.4963 6.3888 22.0016 6.98404 21.375 7.42876L21.375 20.3755C21.375 21.342 20.5915 22.1255 19.625 22.1255H4.375C3.4085 22.1255 2.625 21.342 2.625 20.3755L2.625 7.43025C1.99763 6.98502 1.50246 6.38882 1.5 5.6279L1.5 5.62549C1.5 4.85634 2.00456 4.26625 2.575 3.85127C3.16187 3.42434 3.96285 3.07113 4.88514 2.78735ZM3.00001 5.62421C3.00101 5.69287 3.07408 5.97745 3.75306 6.37374C3.98338 6.50817 4.125 6.7548 4.125 7.02148L4.125 20.3755C4.125 20.5136 4.23693 20.6255 4.375 20.6255H19.625C19.7631 20.6255 19.875 20.5136 19.875 20.3755L19.875 7.02002C19.875 6.75335 20.0166 6.50674 20.2469 6.3723C20.9233 5.97745 20.9985 5.69349 21 5.6236C20.9991 5.56209 20.9546 5.36398 20.5426 5.06426C20.1427 4.77336 19.5158 4.48012 18.6737 4.22101C16.9987 3.70561 14.639 3.37549 12 3.37549C9.361 3.37549 7.00132 3.70561 5.32627 4.22101C4.48417 4.48012 3.85729 4.77336 3.45741 5.06426C3.04405 5.36496 3.0006 5.56339 3.00001 5.62421Z" fill="#3D3D3D"/>
<path d="M16.125 17.2504C16.3321 17.2504 16.5 17.0825 16.5 16.8754C16.5 16.6683 16.3321 16.5004 16.125 16.5004C15.9179 16.5004 15.75 16.6683 15.75 16.8754C15.75 17.0825 15.9179 17.2504 16.125 17.2504Z" fill="#3D3D3D"/>
<path fill-rule="evenodd" clip-rule="evenodd" d="M16.125 17.0004C16.194 17.0004 16.25 16.9444 16.25 16.8754C16.25 16.8064 16.194 16.7504 16.125 16.7504C16.056 16.7504 16 16.8064 16 16.8754C16 16.9444 16.056 17.0004 16.125 17.0004ZM15.25 16.8754C15.25 16.3921 15.6418 16.0004 16.125 16.0004C16.6082 16.0004 17 16.3921 17 16.8754C17 17.3586 16.6082 17.7504 16.125 17.7504C15.6418 17.7504 15.25 17.3586 15.25 16.8754Z" fill="#3D3D3D"/>
</svg>
