<svg width="24" height="24" viewBox="0 0 24 24" fill="none" xmlns="http://www.w3.org/2000/svg">
<path d="M2.57436 17.4414L6.3672 21.2343C6.73052 21.5959 7.22225 21.7989 7.73485 21.7989C8.24744 21.7989 8.73917 21.5959 9.10249 21.2343L12.6309 17.7058C12.8711 17.4628 13.0129 17.1396 13.0292 16.7984C13.3704 16.7821 13.6936 16.6403 13.9366 16.4002L16.5478 13.7889C16.7879 13.5459 16.9298 13.2228 16.946 12.8815C17.2873 12.8652 17.6105 12.7234 17.8535 12.4833L18.4475 11.8892C18.775 11.5638 18.9753 11.132 19.0122 10.6717L19.2799 7.14002L19.4855 6.93439C19.5721 7.02096 19.6895 7.06959 19.8119 7.06959C19.9343 7.06959 20.0517 7.02096 20.1383 6.93439L21.4439 5.62876C21.5305 5.54219 21.5791 5.42478 21.5791 5.30235C21.5791 5.17993 21.5305 5.06252 21.4439 4.97595L18.8327 2.36469C18.7461 2.27813 18.6287 2.22949 18.5063 2.22949C18.3838 2.22949 18.2664 2.27813 18.1799 2.36469L16.8742 3.67032C16.7877 3.75689 16.739 3.8743 16.739 3.99673C16.739 4.11915 16.7877 4.23657 16.8742 4.32313L16.6686 4.52877L13.1369 4.79642C12.6767 4.83331 12.2448 5.0336 11.9194 5.36111L11.3253 5.95517C11.0852 6.19817 10.9434 6.52135 10.9271 6.86258C10.5859 6.87885 10.2627 7.02068 10.0197 7.2608L7.40844 9.87205C7.16832 10.115 7.0265 10.4382 7.01023 10.7795C6.66899 10.7957 6.34581 10.9376 6.10281 11.1777L2.57436 14.7061C2.21276 15.0695 2.00977 15.5612 2.00977 16.0738C2.00977 16.5864 2.21276 17.0781 2.57436 17.4414ZM18.5063 3.34391L20.4647 5.30235L19.8119 5.95517L17.8535 3.99673L18.5063 3.34391ZM6.75563 11.8305C6.8422 11.7439 6.95961 11.6953 7.08203 11.6953C7.20446 11.6953 7.32187 11.7439 7.40844 11.8305L7.73485 12.1569L8.38766 11.5041L8.06125 11.1777C7.97469 11.0911 7.92605 10.9737 7.92605 10.8513C7.92605 10.7288 7.97469 10.6114 8.06125 10.5249L10.6725 7.91361C10.7591 7.82704 10.8765 7.77841 10.9989 7.77841C11.1213 7.77841 11.2388 7.82704 11.3253 7.91361L11.6517 8.24002L12.3045 7.5872L11.9781 7.2608C11.8916 7.17423 11.8429 7.05681 11.8429 6.93439C11.8429 6.81196 11.8916 6.69455 11.9781 6.60798L12.5722 6.01392C12.7436 5.84285 12.9705 5.73867 13.212 5.72016L16.9101 5.43618C17.0198 5.42762 17.1229 5.38016 17.2006 5.30235L17.5271 4.97595L18.8327 6.28157L18.5063 6.60798C18.4285 6.68577 18.381 6.78879 18.3724 6.89848L18.0885 10.5967C18.07 10.8381 17.9658 11.065 17.7947 11.2364L17.2006 11.8305C17.1141 11.9171 16.9967 11.9657 16.8742 11.9657C16.7518 11.9657 16.6344 11.9171 16.5478 11.8305L12.3045 7.5872L11.6517 8.24002L15.895 12.4833C15.9816 12.5699 16.0302 12.6873 16.0302 12.8097C16.0302 12.9321 15.9816 13.0495 15.895 13.1361L13.2838 15.7474C13.1972 15.8339 13.0798 15.8826 12.9574 15.8826C12.8349 15.8826 12.7175 15.8339 12.6309 15.7474L8.38766 11.5041L7.73485 12.1569L11.9781 16.4002C12.0647 16.4868 12.1133 16.6042 12.1133 16.7266C12.1133 16.849 12.0647 16.9664 11.9781 17.053L8.44968 20.5815C8.26009 20.771 8.00296 20.8775 7.73485 20.8775C7.46673 20.8775 7.2096 20.771 7.02002 20.5815L6.42922 19.9907C6.77136 19.9437 7.09619 19.8196 7.38025 19.6302C7.59211 19.4889 7.58939 19.1924 7.40933 19.0123C7.22857 18.8316 6.93666 18.8406 6.7066 18.9521C6.52013 19.0424 6.31396 19.0906 6.10281 19.0906C5.73553 19.0906 5.3833 18.9447 5.12359 18.685C4.86389 18.4253 4.71799 18.0731 4.71799 17.7058C4.71799 17.4947 4.76621 17.2885 4.85654 17.102C4.968 16.872 4.97706 16.5801 4.7963 16.3993C4.61624 16.2192 4.31971 16.2165 4.17843 16.4284C3.98902 16.7124 3.86495 17.0373 3.81797 17.3794L3.22717 16.7886C3.03759 16.599 2.93108 16.3419 2.93108 16.0738C2.93108 15.8057 3.03759 15.5485 3.22717 15.3589L6.75563 11.8305Z" fill="#3D3D3D"/>
<path d="M7.73485 12.1569L7.40844 11.8305C7.32187 11.7439 7.20446 11.6953 7.08203 11.6953C6.95961 11.6953 6.8422 11.7439 6.75563 11.8305L3.22717 15.3589C3.03759 15.5485 2.93108 15.8057 2.93108 16.0738C2.93108 16.3419 3.03759 16.599 3.22717 16.7886L3.81797 17.3794C3.86495 17.0373 3.98902 16.7124 4.17843 16.4284C4.3197 16.2165 4.61624 16.2192 4.7963 16.3993C4.97706 16.5801 4.968 16.872 4.85654 17.102C4.76621 17.2885 4.71799 17.4947 4.71799 17.7058C4.71799 18.0731 4.86389 18.4253 5.12359 18.685C5.3833 18.9447 5.73553 19.0906 6.10281 19.0906C6.31396 19.0906 6.52013 19.0424 6.7066 18.9521C6.93666 18.8406 7.22857 18.8316 7.40933 19.0123C7.58939 19.1924 7.59211 19.4889 7.38025 19.6302C7.09619 19.8196 6.77136 19.9437 6.42922 19.9907L7.02002 20.5815C7.2096 20.771 7.46673 20.8775 7.73485 20.8775C8.00296 20.8775 8.26009 20.771 8.44968 20.5815L11.9781 17.053C12.0647 16.9664 12.1133 16.849 12.1133 16.7266C12.1133 16.6042 12.0647 16.4868 11.9781 16.4002L7.73485 12.1569ZM7.73485 12.1569L8.38766 11.5041M8.38766 11.5041L8.06125 11.1777C7.97469 11.0911 7.92605 10.9737 7.92605 10.8513C7.92605 10.7288 7.97469 10.6114 8.06125 10.5249L10.6725 7.91361C10.7591 7.82704 10.8765 7.77841 10.9989 7.77841C11.1213 7.77841 11.2388 7.82704 11.3253 7.91361L11.6517 8.24002M8.38766 11.5041L12.6309 15.7474C12.7175 15.8339 12.8349 15.8826 12.9574 15.8826C13.0798 15.8826 13.1972 15.8339 13.2838 15.7474L15.895 13.1361C15.9816 13.0495 16.0302 12.9321 16.0302 12.8097C16.0302 12.6873 15.9816 12.5699 15.895 12.4833L11.6517 8.24002M11.6517 8.24002L12.3045 7.5872M12.3045 7.5872L11.9781 7.2608C11.8916 7.17423 11.8429 7.05681 11.8429 6.93439C11.8429 6.81196 11.8916 6.69455 11.9781 6.60798L12.5722 6.01392C12.7436 5.84285 12.9705 5.73867 13.212 5.72016L16.9101 5.43618C17.0198 5.42762 17.1229 5.38016 17.2006 5.30235L17.5271 4.97595L18.8327 6.28157L18.5063 6.60798C18.4285 6.68577 18.381 6.7888 18.3724 6.89848L18.0885 10.5967C18.07 10.8381 17.9658 11.065 17.7947 11.2364L17.2006 11.8305C17.1141 11.9171 16.9967 11.9657 16.8742 11.9657C16.7518 11.9657 16.6344 11.9171 16.5478 11.8305L12.3045 7.5872ZM2.57436 17.4414L6.3672 21.2343C6.73052 21.5959 7.22225 21.7989 7.73485 21.7989C8.24744 21.7989 8.73917 21.5959 9.10249 21.2343L12.6309 17.7058C12.8711 17.4628 13.0129 17.1396 13.0292 16.7984C13.3704 16.7821 13.6936 16.6403 13.9366 16.4002L16.5478 13.7889C16.7879 13.5459 16.9298 13.2228 16.946 12.8815C17.2873 12.8652 17.6105 12.7234 17.8535 12.4833L18.4475 11.8892C18.775 11.5638 18.9753 11.132 19.0122 10.6717L19.2799 7.14002L19.4855 6.93439C19.5721 7.02096 19.6895 7.06959 19.8119 7.06959C19.9343 7.06959 20.0517 7.02096 20.1383 6.93439L21.4439 5.62876C21.5305 5.54219 21.5791 5.42478 21.5791 5.30235C21.5791 5.17993 21.5305 5.06252 21.4439 4.97595L18.8327 2.36469C18.7461 2.27813 18.6287 2.22949 18.5063 2.22949C18.3838 2.22949 18.2664 2.27813 18.1799 2.36469L16.8742 3.67032C16.7877 3.75689 16.739 3.8743 16.739 3.99673C16.739 4.11915 16.7877 4.23657 16.8742 4.32313L16.6686 4.52877L13.1369 4.79642C12.6767 4.83331 12.2448 5.0336 11.9194 5.36111L11.3253 5.95517C11.0852 6.19817 10.9434 6.52135 10.9271 6.86258C10.5859 6.87885 10.2627 7.02068 10.0197 7.2608L7.40844 9.87205C7.16832 10.115 7.0265 10.4382 7.01023 10.7795C6.66899 10.7957 6.34581 10.9376 6.10281 11.1777L2.57436 14.7061C2.21276 15.0695 2.00977 15.5612 2.00977 16.0738C2.00977 16.5864 2.21276 17.0781 2.57436 17.4414ZM18.5063 3.34391L20.4647 5.30235L19.8119 5.95517L17.8535 3.99673L18.5063 3.34391Z" stroke="#3D3D3D" stroke-width="0.5"/>
</svg>
