<svg width="24" height="24" viewBox="0 0 24 24" fill="none" xmlns="http://www.w3.org/2000/svg">
<g clip-path="url(#clip0_2202_66141)">
<path d="M23.6054 6.84375C23.4858 6.77964 23.351 6.74919 23.2155 6.75563C23.0799 6.76207 22.9487 6.80516 22.8357 6.88031L19.502 9.09844V6.75C19.502 6.35218 19.3439 5.97064 19.0626 5.68934C18.7813 5.40804 18.3998 5.25 18.002 5.25H3.00195C2.60413 5.25 2.2226 5.40804 1.94129 5.68934C1.65999 5.97064 1.50195 6.35218 1.50195 6.75V17.25C1.50195 17.6478 1.65999 18.0294 1.94129 18.3107C2.2226 18.592 2.60413 18.75 3.00195 18.75H18.002C18.3998 18.75 18.7813 18.592 19.0626 18.3107C19.3439 18.0294 19.502 17.6478 19.502 17.25V14.9062L22.8357 17.1291C22.9595 17.2095 23.1043 17.2515 23.252 17.25C23.4509 17.25 23.6416 17.171 23.7823 17.0303C23.9229 16.8897 24.002 16.6989 24.002 16.5V7.5C24.001 7.36505 23.9637 7.23287 23.8939 7.11737C23.8241 7.00187 23.7244 6.90734 23.6054 6.84375ZM18.002 17.25H3.00195V6.75H18.002V17.25ZM22.502 15.0984L19.502 13.0988V10.9012L22.502 8.90625V15.0984Z" fill="#3D3D3D"/>
</g>
<defs>
<clipPath id="clip0_2202_66141">
<rect width="24" height="24" fill="white"/>
</clipPath>
</defs>
</svg>
