<svg width="24" height="24" viewBox="0 0 24 24" fill="#3D3D3D" xmlns="http://www.w3.org/2000/svg">
<path d="M21.7501 6.37988H19.0604L21.5307 3.91051C21.6004 3.84083 21.6557 3.7581 21.6934 3.66706C21.7311 3.57601 21.7505 3.47843 21.7505 3.37988C21.7505 3.28134 21.7311 3.18376 21.6934 3.09271C21.6557 3.00167 21.6004 2.91894 21.5307 2.84926C21.4611 2.77958 21.3783 2.7243 21.2873 2.68659C21.1962 2.64888 21.0987 2.62947 21.0001 2.62947C20.9016 2.62947 20.804 2.64888 20.7129 2.68659C20.6219 2.7243 20.5392 2.77958 20.4695 2.84926L18.0001 5.31957V2.62988C18.0001 2.43097 17.9211 2.2402 17.7804 2.09955C17.6398 1.9589 17.449 1.87988 17.2501 1.87988C17.0512 1.87988 16.8604 1.9589 16.7198 2.09955C16.5791 2.2402 16.5001 2.43097 16.5001 2.62988V5.68332C15.3573 5.02359 14.0289 4.75899 12.7205 4.93051C11.4121 5.10202 10.1968 5.70007 9.26261 6.63207C5.50324 10.3249 2.67668 19.1083 2.40105 19.9868C2.2711 20.2657 2.23009 20.5779 2.28358 20.8809C2.33707 21.184 2.48248 21.4632 2.70008 21.6809C2.91769 21.8985 3.19695 22.0439 3.5 22.0974C3.80305 22.1508 4.11522 22.1098 4.39418 21.9799C5.27261 21.7043 14.0673 18.8739 17.7507 15.1164C18.6821 14.182 19.2795 12.9667 19.4505 11.6585C19.6215 10.3504 19.3565 9.0223 18.6967 7.87988H21.7501C21.949 7.87988 22.1398 7.80087 22.2804 7.66021C22.4211 7.51956 22.5001 7.32879 22.5001 7.12988C22.5001 6.93097 22.4211 6.74021 22.2804 6.59955C22.1398 6.4589 21.949 6.37988 21.7501 6.37988ZM16.6764 14.0674C15.8382 14.9224 14.6842 15.7361 13.4092 16.4796L11.0298 14.0993C10.9601 14.0296 10.8774 13.9743 10.7863 13.9366C10.6953 13.8989 10.5977 13.8795 10.4992 13.8795C10.4006 13.8795 10.303 13.8989 10.212 13.9366C10.121 13.9743 10.0382 14.0296 9.96855 14.0993C9.89887 14.1689 9.84359 14.2517 9.80588 14.3427C9.76817 14.4338 9.74876 14.5313 9.74876 14.6299C9.74876 14.7284 9.76817 14.826 9.80588 14.9171C9.84359 15.0081 9.89887 15.0908 9.96855 15.1605L12.0395 17.2314C8.20793 19.218 3.94699 20.5521 3.88324 20.5718C3.83707 20.5867 3.79248 20.6062 3.75011 20.6299C3.77276 20.5877 3.79129 20.5434 3.80543 20.4977C3.83261 20.4105 6.43043 12.0996 9.80543 8.24738L12.9714 11.4133C13.1121 11.5541 13.303 11.6331 13.502 11.6331C13.701 11.6331 13.8919 11.5541 14.0326 11.4133C14.1733 11.2726 14.2524 11.0817 14.2524 10.8827C14.2524 10.6837 14.1733 10.4928 14.0326 10.3521L10.892 7.21238C11.8121 6.5577 12.9448 6.27291 14.0652 6.41455C15.1855 6.55618 16.2117 7.11388 16.94 7.97696C17.6683 8.84003 18.0454 9.94538 17.9966 11.0736C17.9477 12.2018 17.4765 13.2705 16.6764 14.0674Z" fill="#3D3D3D"/>
</svg>
