<svg width="11" height="9" viewBox="0 0 11 9" fill="none" xmlns="http://www.w3.org/2000/svg">
<path d="M10.2655 1.64052L4.26552 7.64052C4.23069 7.67539 4.18934 7.70305 4.14381 7.72192C4.09829 7.74079 4.04949 7.7505 4.00021 7.7505C3.95093 7.7505 3.90213 7.74079 3.85661 7.72192C3.81108 7.70305 3.76972 7.67539 3.7349 7.64052L1.1099 5.01552C1.03953 4.94516 1 4.84972 1 4.75021C1 4.6507 1.03953 4.55526 1.1099 4.4849C1.18026 4.41453 1.2757 4.375 1.37521 4.375C1.47472 4.375 1.57016 4.41453 1.64052 4.4849L4.00021 6.84505L9.7349 1.1099C9.80526 1.03953 9.9007 1 10.0002 1C10.0997 1 10.1952 1.03953 10.2655 1.1099C10.3359 1.18026 10.3754 1.2757 10.3754 1.37521C10.3754 1.47472 10.3359 1.57016 10.2655 1.64052Z" fill="#F2F2F2" stroke="white"/>
</svg>
