<svg width="40" height="41" viewBox="0 0 40 41" fill="none" xmlns="http://www.w3.org/2000/svg">
<path fill-rule="evenodd" clip-rule="evenodd" d="M18.5535 0.689228C16.5786 1.00386 14.9423 1.77094 13.4056 3.10244C12.8754 3.56177 12.0019 4.59232 11.6247 5.20345L11.368 5.61918L10.0349 5.61793C8.5613 5.61653 7.89544 5.72083 6.70791 6.13938C5.23726 6.65762 4.08991 7.38806 2.94742 8.5333C1.09051 10.3947 0.142705 12.5175 0.0125983 15.1063C-0.0956151 17.2581 0.494789 19.3579 1.72611 21.2005C2.23699 21.9651 3.52938 23.2408 4.34004 23.7807L4.98244 24.2085L4.9851 30.7356C4.98799 37.825 4.97994 37.6821 5.42624 38.5621C5.70553 39.1129 6.3846 39.8046 6.93239 40.0964C7.88684 40.6048 7.12888 40.5769 20 40.5769C32.8712 40.5769 32.1132 40.6048 33.0676 40.0964C33.6154 39.8046 34.2945 39.1129 34.5738 38.5621C35.0203 37.6817 35.0122 37.826 35.0133 30.7356L35.0143 24.2085L35.6193 23.8199C36.3752 23.3343 37.7509 21.9757 38.2718 21.2005C39.502 19.3697 40.0957 17.2605 39.9874 15.1063C39.8579 12.5291 38.8926 10.3661 37.0553 8.53595C35.8736 7.35892 34.7849 6.66559 33.2921 6.13946C32.1048 5.72091 31.4388 5.61653 29.9651 5.61793L28.632 5.61918L28.3754 5.20345C28.2342 4.97484 27.8797 4.49793 27.5876 4.14377C25.428 1.52538 21.8625 0.161926 18.5535 0.689228ZM21.8098 3.29738C23.2036 3.66334 24.2967 4.29628 25.3197 5.32987C26.6691 6.69301 27.3374 8.19733 27.496 10.2281C27.5646 11.1067 27.6449 11.2974 28.0836 11.6247C28.3863 11.8506 29.128 11.8506 29.4308 11.6247C29.9042 11.2715 29.9696 11.1005 29.9625 10.2362C29.9589 9.79932 29.8974 9.16561 29.8257 8.828C29.7541 8.4904 29.6954 8.17741 29.6954 8.13256C29.6954 8.00763 31.1187 8.12022 31.818 8.30054C33.2004 8.65705 34.3026 9.29436 35.3279 10.3302C36.334 11.3466 36.9803 12.4983 37.3347 13.906C37.5371 14.7098 37.5143 16.573 37.2918 17.4112C37.072 18.2391 36.3688 19.6317 35.8523 20.2617C35.3075 20.9262 34.4242 21.6591 33.6348 22.1019C32.9422 22.4904 32.7213 22.6856 32.5937 23.0221C32.5389 23.1666 32.5102 24.5013 32.5102 26.9091V30.5762H20H7.4898V26.9091C7.4898 24.5013 7.46118 23.1666 7.40637 23.0221C7.27877 22.6856 7.05789 22.4904 6.36529 22.1019C4.48915 21.0497 3.1841 19.335 2.66774 17.2434C2.48282 16.4943 2.48172 14.6404 2.66586 13.906C3.0181 12.5012 3.66558 11.3471 4.67219 10.3302C5.69943 9.29241 6.79916 8.6569 8.17763 8.30453C8.8868 8.12327 10.3046 8.00865 10.3046 8.13256C10.3046 8.17741 10.246 8.4904 10.1743 8.828C10.1026 9.16561 10.0411 9.79932 10.0375 10.2362C10.0304 11.1005 10.0958 11.2715 10.5693 11.6247C10.872 11.8506 11.6137 11.8506 11.9165 11.6247C12.3552 11.2974 12.4354 11.1067 12.5041 10.2281C12.6646 8.17311 13.3356 6.67871 14.7184 5.29705C15.9467 4.06954 17.1012 3.49138 19.0618 3.1219C19.5203 3.03541 21.2274 3.14448 21.8098 3.29738ZM32.4943 35.1726L32.4711 37.2688L32.2458 37.5639C31.8237 38.1165 32.7263 38.0804 19.8891 38.0579C8.30484 38.0376 8.28271 38.0373 8.06723 37.8765C7.94846 37.7879 7.77879 37.6185 7.69012 37.4999C7.53812 37.2966 7.52757 37.164 7.50575 35.1803L7.48261 33.0763H20H32.5174L32.4943 35.1726Z" fill="#D9D9D9"/>
</svg>
