<svg width="48" height="48" viewBox="0 0 48 48" fill="none" xmlns="http://www.w3.org/2000/svg">
<path d="M29.9997 7.5C26.9353 7.50235 23.9321 8.35713 21.3258 9.96874C18.7194 11.5803 16.6128 13.8852 15.2416 16.6256C13.6102 16.3877 11.9474 16.4885 10.3567 16.9216C8.76607 17.3548 7.28172 18.1111 5.99628 19.1433C4.71084 20.1755 3.65188 21.4615 2.88544 22.9211C2.11901 24.3807 1.66154 25.9826 1.54158 27.6268C1.42162 29.271 1.64173 30.9223 2.1882 32.4777C2.73466 34.0331 3.59575 35.4592 4.71775 36.667C5.83976 37.8749 7.19861 38.8386 8.70955 39.4981C10.2205 40.1576 11.8511 40.4986 13.4997 40.5H29.9997C34.3758 40.5 38.5726 38.7616 41.667 35.6673C44.7613 32.5729 46.4997 28.3761 46.4997 24C46.4997 19.6239 44.7613 15.4271 41.667 12.3327C38.5726 9.23839 34.3758 7.5 29.9997 7.5ZM29.9997 37.5H13.4997C11.1127 37.5 8.82355 36.5518 7.13573 34.864C5.4479 33.1761 4.49969 30.8869 4.49969 28.5C4.49969 26.1131 5.4479 23.8239 7.13573 22.136C8.82355 20.4482 11.1127 19.5 13.4997 19.5C13.7059 19.5 13.9122 19.5 14.1166 19.5206C13.7064 20.9784 13.4988 22.4856 13.4997 24C13.4997 24.3978 13.6577 24.7794 13.939 25.0607C14.2203 25.342 14.6019 25.5 14.9997 25.5C15.3975 25.5 15.779 25.342 16.0603 25.0607C16.3417 24.7794 16.4997 24.3978 16.4997 24C16.4997 21.33 17.2914 18.7199 18.7748 16.4998C20.2582 14.2797 22.3667 12.5494 24.8335 11.5276C27.3003 10.5058 30.0147 10.2385 32.6334 10.7594C35.2522 11.2803 37.6576 12.566 39.5456 14.4541C41.4336 16.3421 42.7194 18.7475 43.2403 21.3663C43.7612 23.985 43.4938 26.6994 42.4721 29.1662C41.4503 31.633 39.7199 33.7414 37.4999 35.2248C35.2798 36.7082 32.6697 37.5 29.9997 37.5Z" fill="#F87C56"/>
</svg>
