<svg width="24" height="24" viewBox="0 0 24 24" fill="none" xmlns="http://www.w3.org/2000/svg">
<path fill-rule="evenodd" clip-rule="evenodd" d="M7.05237 1.99316C6.13105 1.99316 5.39255 2.73166 5.39255 3.65298C5.39255 4.27243 5.72348 4.80786 6.23325 5.08958L4.83313 8.01712C4.81415 8.04791 4.79344 8.0879 4.77566 8.12305C4.74669 8.18033 4.70961 8.25744 4.66737 8.35078C4.58287 8.5375 4.47638 8.79212 4.37182 9.08691C4.16436 9.6718 3.95714 10.435 3.95714 11.1447V19.4818C3.95714 19.4604 3.95243 19.5804 3.95474 19.6918C3.95737 19.8192 3.96789 19.9927 3.99966 20.1873C4.06221 20.5704 4.21178 21.0641 4.57529 21.4398C4.94368 21.8305 5.42499 22.0068 5.99056 22.0068H12.2828C12.723 22.0068 13.1059 21.8885 13.4241 21.6695C14.1446 21.8895 14.8779 22.0068 15.583 22.0068C16.7699 22.0068 17.9061 21.5158 18.7423 20.6451C19.5781 19.7747 20.046 18.5963 20.046 17.3695C20.046 16.1427 19.5781 14.9643 18.7423 14.094C17.9061 13.2233 16.7699 12.7322 15.583 12.7322C15.1677 12.7322 14.7427 12.7729 14.3162 12.8513V10.9006H14.2693C14.2303 10.2553 14.0468 9.59206 13.865 9.07304C13.7617 8.77835 13.6572 8.52522 13.5757 8.34144C13.535 8.24952 13.4998 8.17449 13.4731 8.11981C13.4561 8.08486 13.4377 8.04812 13.4228 8.02188L12.0191 5.08692C12.5145 4.80602 12.8611 4.27427 12.8611 3.65298C12.8611 2.73166 12.1226 1.99316 11.2013 1.99316H7.05237ZM13.1005 13.1755V12.3915H5.13349V15.4231H9.6793C10.0317 15.0097 10.4823 14.6085 11.0121 14.2405C11.6597 13.7913 12.3703 13.4311 13.1005 13.1755ZM8.95637 16.6191H5.13349V19.5212C5.13349 19.5246 5.13324 19.5308 5.13289 19.5396C5.13061 19.5969 5.12398 19.7632 5.15329 19.9743C5.18751 20.2206 5.26567 20.4786 5.41989 20.6503C5.5452 20.7736 5.71546 20.8501 5.9709 20.8501H11.5623C11.3747 20.7399 11.1909 20.6226 11.012 20.4985C10.3404 20.032 9.79635 19.5125 9.41807 18.982C9.0412 18.4536 8.8188 17.8996 8.8188 17.3695C8.8188 17.1229 8.86694 16.8711 8.95637 16.6191ZM6.5689 3.65298C6.5689 3.39451 6.7939 3.16951 7.05237 3.16951H11.2013C11.4598 3.16951 11.6848 3.39451 11.6848 3.65298C11.6848 3.91145 11.4598 4.13645 11.2013 4.13645H7.05237C6.77852 4.13645 6.5689 3.91577 6.5689 3.65298ZM5.86221 8.54476L7.40303 5.3128H10.8121L12.3721 8.54554L12.3738 8.54968C12.3766 8.5565 12.3799 8.56396 12.3827 8.57045L12.4072 8.62461C12.4275 8.66924 12.456 8.73245 12.4903 8.81132C12.5588 8.96919 12.65 9.18946 12.7411 9.4447C12.9254 9.96109 13.1005 10.5976 13.1005 11.1447V11.1955H5.13349V11.1447C5.13349 10.5976 5.30864 9.96109 5.4929 9.4447C5.58397 9.18946 5.67518 8.96919 5.74374 8.81132C5.77799 8.73245 5.80656 8.66924 5.82679 8.62461L5.85126 8.57045C5.85415 8.56396 5.85743 8.5565 5.86023 8.54968L5.86221 8.54476ZM15.5828 14.0191C14.3109 14.0192 12.8984 14.4857 11.7161 15.3065C11.2105 15.6575 10.7931 16.0496 10.5047 16.4232C10.2104 16.8045 10.074 17.1358 10.074 17.3695C10.074 17.6032 10.2104 17.9345 10.5047 18.3158C10.7931 18.6895 11.2105 19.0816 11.7161 19.4325C12.8984 20.2533 14.3108 20.7199 15.5827 20.7199C16.43 20.7189 17.2444 20.3681 17.8467 19.741C18.4492 19.1136 18.7898 18.2609 18.7908 17.3695C18.7898 16.4782 18.4492 15.6255 17.8467 14.9981C17.2444 14.371 16.4301 14.0201 15.5828 14.0191Z" fill="#3D3D3D" stroke="#3D3D3D" stroke-width="0.3"/>
</svg>
