<svg width="18" height="16" viewBox="0 0 18 16" fill="none" xmlns="http://www.w3.org/2000/svg">
<path d="M17.9996 8.00042C17.9996 8.19933 17.9206 8.3901 17.7799 8.53075C17.6393 8.6714 17.4485 8.75042 17.2496 8.75042H2.55993L8.03024 14.2198C8.09992 14.2895 8.1552 14.3722 8.19291 14.4632C8.23062 14.5543 8.25003 14.6519 8.25003 14.7504C8.25003 14.849 8.23062 14.9465 8.19291 15.0376C8.1552 15.1286 8.09992 15.2114 8.03024 15.281C7.96056 15.3507 7.87783 15.406 7.78679 15.4437C7.69574 15.4814 7.59816 15.5008 7.49961 15.5008C7.40107 15.5008 7.30349 15.4814 7.21244 15.4437C7.1214 15.406 7.03867 15.3507 6.96899 15.281L0.218988 8.53104C0.149256 8.46139 0.0939369 8.37867 0.0561936 8.28762C0.0184504 8.19657 -0.000976562 8.09898 -0.000976562 8.00042C-0.000976562 7.90186 0.0184504 7.80426 0.0561936 7.71321C0.0939369 7.62216 0.149256 7.53945 0.218988 7.46979L6.96899 0.719792C7.10972 0.579062 7.30059 0.5 7.49961 0.5C7.69864 0.5 7.88951 0.579062 8.03024 0.719792C8.17097 0.860523 8.25003 1.05139 8.25003 1.25042C8.25003 1.44944 8.17097 1.64031 8.03024 1.78104L2.55993 7.25042H17.2496C17.4485 7.25042 17.6393 7.32943 17.7799 7.47009C17.9206 7.61074 17.9996 7.8015 17.9996 8.00042Z" fill="#777777"/>
</svg>
