<svg width="33" height="27" viewBox="0 0 33 27" fill="none" xmlns="http://www.w3.org/2000/svg">
<path d="M3.3 26.293C2.3925 26.293 1.6159 25.975 0.9702 25.3391C0.3234 24.7021 0 23.9367 0 23.043V3.54297C0 2.64922 0.3234 1.88439 0.9702 1.24847C1.6159 0.611468 2.3925 0.292969 3.3 0.292969H13.2L16.5 3.54297H29.7C30.6075 3.54297 31.3846 3.86147 32.0314 4.49847C32.6772 5.13439 33 5.89922 33 6.79297V23.043C33 23.9367 32.6772 24.7021 32.0314 25.3391C31.3846 25.975 30.6075 26.293 29.7 26.293H3.3ZM3.3 3.54297V23.043H29.7V6.79297H15.1388L11.8387 3.54297H3.3ZM3.3 3.54297V23.043V3.54297Z" fill="#797979"/>
</svg>
