<svg width="18" height="19" viewBox="0 0 18 19" fill="none" xmlns="http://www.w3.org/2000/svg">
<path fill-rule="evenodd" clip-rule="evenodd" d="M8.51814 1.01776C6.12942 1.29241 4.15392 2.90832 3.43578 5.17502C2.8396 7.05675 3.20829 9.16136 4.40112 10.6854C4.51515 10.8311 4.71083 11.0818 4.83591 11.2424C5.23557 11.7557 5.50921 12.3841 5.61378 13.0288C5.64818 13.2411 5.66536 13.5776 5.66546 14.0414C5.66553 14.4278 5.68234 14.815 5.70335 14.914C5.79339 15.3379 6.10985 15.7483 6.49783 15.9442C6.68412 16.0382 6.70661 16.0611 6.73929 16.1906C6.97068 17.1076 7.61173 17.7833 8.51897 18.0664C8.879 18.1788 9.49964 18.1788 9.85967 18.0664C10.7669 17.7833 11.408 17.1076 11.6394 16.1906C11.672 16.0611 11.6945 16.0382 11.8808 15.9442C12.2688 15.7483 12.5853 15.3379 12.6753 14.914C12.6963 14.815 12.7131 14.4278 12.7132 14.0414C12.7134 13.048 12.796 12.6046 13.0989 11.9708C13.2687 11.6158 13.3918 11.4297 13.7878 10.9304C14.1799 10.4359 14.4279 10.0481 14.6414 9.59521C15.4952 7.78422 15.4077 5.683 14.4076 3.98219C13.3061 2.10877 11.2886 0.960977 9.13898 0.984737C8.93595 0.986985 8.65657 1.00185 8.51814 1.01776ZM10.1461 2.08716C10.6278 2.18566 10.9627 2.3013 11.421 2.52749C13.6726 3.63871 14.7505 6.22176 13.9559 8.60212C13.7414 9.24472 13.4624 9.73804 12.9823 10.3238C12.3202 11.1318 11.9518 11.8852 11.7873 12.7678L11.7263 13.095H9.18932H6.65234L6.59247 12.7678C6.43327 11.8976 6.06076 11.1307 5.41474 10.3431C4.77406 9.56209 4.44578 8.89875 4.25215 7.994C4.15261 7.5288 4.14335 6.60145 4.23339 6.11468C4.62851 3.97873 6.32708 2.34463 8.4726 2.03638C8.91836 1.97235 9.70043 1.99608 10.1461 2.08716ZM8.94639 3.06035C8.80483 3.13793 8.68593 3.33728 8.68593 3.49705C8.68593 3.66055 8.80473 3.85711 8.94645 3.92815C9.02622 3.96812 9.18177 3.99849 9.3739 4.01162C10.8937 4.11545 12.0946 5.31644 12.1985 6.8362C12.2239 7.20851 12.2932 7.36271 12.4773 7.45661C12.7364 7.58884 13.0248 7.4997 13.1534 7.24764C13.2173 7.12246 13.2232 7.07108 13.2054 6.79935C13.1666 6.20871 13.0189 5.67428 12.7546 5.16817C12.0919 3.89902 10.8149 3.07863 9.39145 3.00752C9.11375 2.99366 9.05542 3.00058 8.94639 3.06035ZM1.08475 3.68173C0.763021 3.79556 0.653652 4.17324 0.859538 4.45933C0.958571 4.59689 1.64123 5.25885 1.73433 5.30761C1.85598 5.37127 2.0862 5.36191 2.21248 5.28815C2.44464 5.15257 2.52425 4.82634 2.38155 4.59541C2.3439 4.53454 2.13388 4.30925 1.91484 4.09484C1.61506 3.80137 1.48394 3.69592 1.38457 3.6683C1.22641 3.62441 1.24973 3.62337 1.08475 3.68173ZM16.9783 3.66982C16.8533 3.70613 16.1181 4.39966 15.9971 4.59541C15.8544 4.82634 15.934 5.15257 16.1662 5.28815C16.2924 5.36187 16.5226 5.37127 16.6443 5.30764C16.7547 5.24992 17.4683 4.5442 17.5509 4.41104C17.7893 4.02648 17.4157 3.54283 16.9783 3.66982ZM0.858598 7.08998C0.716911 7.16478 0.598145 7.36278 0.598145 7.52417C0.598145 7.69069 0.716844 7.88402 0.865746 7.96C0.984009 8.02034 1.06304 8.02756 1.60492 8.02756C2.31104 8.02756 2.42404 7.99537 2.54415 7.75995C2.62972 7.59222 2.62972 7.45611 2.54415 7.28838C2.4235 7.05192 2.31188 7.02054 1.59788 7.02225C1.05328 7.02356 0.969948 7.03121 0.858598 7.08998ZM16.0274 7.08998C15.8857 7.16478 15.7669 7.36278 15.7669 7.52417C15.7669 7.69069 15.8856 7.88402 16.0345 7.96C16.1528 8.02034 16.2318 8.02756 16.7737 8.02756C17.3156 8.02756 17.3946 8.02034 17.5129 7.96C17.6618 7.88402 17.7805 7.69069 17.7805 7.52417C17.7805 7.35765 17.6618 7.16431 17.5129 7.08833C17.3941 7.02772 17.3173 7.02095 16.7667 7.02225C16.2221 7.02356 16.1387 7.03121 16.0274 7.08998ZM1.8095 9.71049C1.68449 9.7468 0.949275 10.4403 0.828294 10.6361C0.6856 10.867 0.765203 11.1932 0.997366 11.3288C1.12362 11.4025 1.35383 11.4119 1.47552 11.3483C1.58593 11.2906 2.2995 10.5849 2.38206 10.4517C2.62053 10.0672 2.24691 9.5835 1.8095 9.71049ZM16.2536 9.7224C15.9318 9.83623 15.8224 10.2139 16.0283 10.5C16.1274 10.6376 16.81 11.2995 16.9031 11.3483C17.0248 11.4119 17.255 11.4026 17.3813 11.3288C17.6134 11.1932 17.693 10.867 17.5503 10.6361C17.5127 10.5752 17.3027 10.3499 17.0836 10.1355C16.7839 9.84204 16.6527 9.7366 16.5534 9.70898C16.3952 9.66508 16.4185 9.66404 16.2536 9.7224ZM11.7063 14.4052C11.7063 14.779 11.639 14.9388 11.4387 15.041C11.3101 15.1066 11.2447 15.1086 9.18932 15.1086C7.13392 15.1086 7.06858 15.1066 6.93998 15.041C6.73963 14.9388 6.67238 14.779 6.67238 14.4052V14.1018H9.18932H11.7063V14.4052ZM10.5988 16.1332C10.5988 16.2082 10.3907 16.5317 10.2428 16.6868C9.97451 16.9681 9.55404 17.1549 9.18932 17.1549C8.8246 17.1549 8.40413 16.9681 8.13586 16.6868C7.9879 16.5317 7.77983 16.2082 7.77983 16.1332C7.77983 16.1234 8.4141 16.1153 9.18932 16.1153C9.96454 16.1153 10.5988 16.1234 10.5988 16.1332Z" fill="white"/>
</svg>
