<svg width="43" height="32" viewBox="0 0 43 32" fill="none" xmlns="http://www.w3.org/2000/svg">
<path d="M39.4621 23.4494C39.3521 17.0794 35.9721 11.2493 30.3921 8.04934C28.4921 6.95934 26.4521 6.28935 24.3721 5.93935C24.6021 5.42935 24.7321 4.85934 24.7121 4.26934C24.6521 2.13934 22.8621 0.449362 20.7321 0.509362C18.6021 0.569362 16.9121 2.35934 16.9721 4.48934C16.9921 5.08934 17.1521 5.63937 17.4121 6.13937C15.3621 6.60937 13.3521 7.39935 11.5221 8.58935C6.13208 12.0993 3.0921 18.1094 3.3521 24.4794C1.8721 25.0594 0.832099 26.5094 0.882099 28.1894C0.942099 30.3194 2.73211 32.0094 4.86211 31.9494L38.4021 30.9893C40.5321 30.9293 42.2221 29.1394 42.1621 27.0094C42.1121 25.3294 40.9921 23.9494 39.4821 23.4494H39.4621ZM20.8021 3.08935C21.5121 3.06935 22.1121 3.62935 22.1321 4.33935C22.1521 5.04935 21.6121 5.61936 20.9221 5.65936H20.8421C20.1521 5.65936 19.5721 5.10937 19.5521 4.41937C19.5321 3.72937 20.0921 3.10935 20.8021 3.08935ZM12.9221 10.7594C15.3521 9.17936 18.1021 8.33935 20.8821 8.24935C20.9021 8.24935 20.9221 8.24935 20.9521 8.24935C20.9821 8.24935 20.9921 8.24935 21.0221 8.24935C23.8021 8.17935 26.5921 8.85934 29.1121 10.2993C33.8421 13.0093 36.7221 17.9094 36.8921 23.2894L5.92211 24.1793C5.77211 18.7993 8.37209 13.7294 12.9321 10.7594H12.9221ZM38.3121 28.4094L4.77208 29.3693C4.06208 29.3893 3.4621 28.8293 3.4421 28.1193C3.4221 27.4093 3.9821 26.8094 4.6921 26.7894L38.2321 25.8293C38.9421 25.8093 39.5421 26.3693 39.5621 27.0793C39.5821 27.7893 39.0221 28.3894 38.3121 28.4094Z" fill="#EADAB6"/>
</svg>
