<svg width="48" height="48" viewBox="0 0 48 48" fill="none" xmlns="http://www.w3.org/2000/svg">
<path d="M46.4998 24.0015C46.5092 27.5737 45.3504 31.051 43.1998 33.9033C43.0814 34.0609 42.9331 34.1936 42.7634 34.2939C42.5936 34.3942 42.4058 34.46 42.2106 34.4877C42.0155 34.5154 41.8167 34.5044 41.6258 34.4552C41.4349 34.4061 41.2555 34.3199 41.098 34.2015C40.9404 34.083 40.8077 33.9347 40.7074 33.765C40.6071 33.5953 40.5413 33.4074 40.5136 33.2123C40.4859 33.0171 40.4969 32.8184 40.546 32.6275C40.5952 32.4365 40.6814 32.2572 40.7998 32.0996C42.5601 29.7675 43.5084 26.9233 43.4998 24.0015C43.4998 20.421 42.0775 16.9873 39.5458 14.4555C37.014 11.9238 33.5803 10.5015 29.9998 10.5015C26.4194 10.5015 22.9856 11.9238 20.4539 14.4555C17.9221 16.9873 16.4998 20.421 16.4998 24.0015C16.4998 24.3993 16.3418 24.7808 16.0605 25.0621C15.7792 25.3434 15.3977 25.5015 14.9998 25.5015C14.602 25.5015 14.2205 25.3434 13.9392 25.0621C13.6579 24.7808 13.4998 24.3993 13.4998 24.0015C13.4991 22.4877 13.7067 20.9811 14.1167 19.524C13.9123 19.5015 13.7061 19.5015 13.4998 19.5015C11.1129 19.5015 8.82369 20.4497 7.13587 22.1375C5.44804 23.8253 4.49983 26.1145 4.49983 28.5015C4.49983 30.8884 5.44804 33.1776 7.13587 34.8654C8.82369 36.5532 11.1129 37.5015 13.4998 37.5015H17.9998C18.3977 37.5015 18.7792 37.6595 19.0605 37.9408C19.3418 38.2221 19.4998 38.6036 19.4998 39.0015C19.4998 39.3993 19.3418 39.7808 19.0605 40.0621C18.7792 40.3434 18.3977 40.5015 17.9998 40.5015H13.4998C11.8502 40.5018 10.2181 40.1621 8.70566 39.5034C7.1932 38.8447 5.83279 37.8812 4.7094 36.6732C3.58602 35.4651 2.72378 34.0384 2.17655 32.4821C1.62931 30.9259 1.40884 29.2735 1.52889 27.6282C1.64894 25.9829 2.10694 24.38 2.87428 22.9197C3.64162 21.4593 4.70182 20.1729 5.98867 19.1407C7.27552 18.1085 8.76138 17.3527 10.3534 16.9205C11.9455 16.4884 13.6096 16.3891 15.2417 16.629C16.9037 13.3049 19.6392 10.6392 23.0052 9.06377C26.3711 7.48831 30.1704 7.09533 33.7876 7.94847C37.4047 8.80161 40.628 10.8509 42.9352 13.7644C45.2424 16.6779 46.4984 20.285 46.4998 24.0015ZM29.5611 22.9402C29.4218 22.8007 29.2563 22.6901 29.0742 22.6146C28.8921 22.5391 28.697 22.5003 28.4998 22.5003C28.3027 22.5003 28.1075 22.5391 27.9254 22.6146C27.7433 22.6901 27.5779 22.8007 27.4386 22.9402L21.4386 28.9402C21.2992 29.0796 21.1887 29.245 21.1132 29.4271C21.0378 29.6092 20.999 29.8044 20.999 30.0015C20.999 30.1985 21.0378 30.3937 21.1132 30.5758C21.1887 30.7579 21.2992 30.9233 21.4386 31.0627C21.72 31.3442 22.1018 31.5023 22.4998 31.5023C22.6969 31.5023 22.8921 31.4635 23.0742 31.388C23.2563 31.3126 23.4217 31.2021 23.5611 31.0627L26.9998 27.6221V39.0015C26.9998 39.3993 27.1579 39.7808 27.4392 40.0621C27.7205 40.3434 28.102 40.5015 28.4998 40.5015C28.8977 40.5015 29.2792 40.3434 29.5605 40.0621C29.8418 39.7808 29.9998 39.3993 29.9998 39.0015V27.6221L33.4386 31.0627C33.5779 31.2021 33.7434 31.3126 33.9255 31.388C34.1076 31.4635 34.3027 31.5023 34.4998 31.5023C34.6969 31.5023 34.8921 31.4635 35.0742 31.388C35.2563 31.3126 35.4217 31.2021 35.5611 31.0627C35.7004 30.9233 35.811 30.7579 35.8864 30.5758C35.9618 30.3937 36.0007 30.1985 36.0007 30.0015C36.0007 29.8044 35.9618 29.6092 35.8864 29.4271C35.811 29.245 35.7004 29.0796 35.5611 28.9402L29.5611 22.9402Z" fill="#26D07C"/>
</svg>
