<svg width="24" height="24" viewBox="0 0 24 24" fill="none" xmlns="http://www.w3.org/2000/svg">
<path d="M20.5438 7.56775L15.2256 2.24957C15.155 2.17904 15.0712 2.12311 14.979 2.08498C14.8868 2.04685 14.7879 2.02727 14.6881 2.02734H5.57124C5.16825 2.02734 4.78176 2.18743 4.4968 2.47239C4.21185 2.75735 4.05176 3.14383 4.05176 3.54682V20.2611C4.05176 20.6641 4.21185 21.0506 4.4968 21.3355C4.78176 21.6205 5.16825 21.7806 5.57124 21.7806H19.2466C19.6496 21.7806 20.036 21.6205 20.321 21.3355C20.606 21.0506 20.766 20.6641 20.766 20.2611V8.10527C20.7661 8.00547 20.7465 7.90663 20.7084 7.8144C20.6703 7.72217 20.6143 7.63836 20.5438 7.56775ZM15.4479 4.62091L18.1725 7.34553H15.4479V4.62091ZM19.2466 20.2611H5.57124V3.54682H13.9284V8.10527C13.9284 8.30676 14.0084 8.5 14.1509 8.64248C14.2934 8.78496 14.4866 8.86501 14.6881 8.86501H19.2466V20.2611Z" fill="#3D3D3D"/>
</svg>
