<svg width="20" height="21" viewBox="0 0 20 21" fill="none" xmlns="http://www.w3.org/2000/svg">
<path d="M10 0.922852C8.07164 0.922852 6.18657 1.49468 4.58319 2.56602C2.97982 3.63737 1.73013 5.16011 0.992179 6.94169C0.254225 8.72327 0.061142 10.6837 0.437348 12.575C0.813554 14.4663 1.74215 16.2036 3.10571 17.5671C4.46928 18.9307 6.20656 19.8593 8.09787 20.2355C9.98919 20.6117 11.9496 20.4186 13.7312 19.6807C15.5127 18.9427 17.0355 17.693 18.1068 16.0897C19.1782 14.4863 19.75 12.6012 19.75 10.6729C19.7473 8.08783 18.7192 5.60946 16.8913 3.78158C15.0634 1.95369 12.585 0.925581 10 0.922852ZM18.25 10.6729C18.2508 11.7313 18.0471 12.7799 17.65 13.761L13.4594 11.1838C13.2812 11.0738 13.0819 11.0026 12.8744 10.9747L10.735 10.686C10.4402 10.6475 10.1406 10.697 9.8738 10.828C9.60696 10.9591 9.38475 11.166 9.235 11.4229H8.4175L8.06125 10.686C7.96277 10.4808 7.81863 10.3009 7.63988 10.16C7.46114 10.0191 7.25252 9.92099 7.03 9.87316L6.28 9.71098L7.01313 8.42285H8.57969C8.83319 8.42235 9.08245 8.35786 9.30438 8.23535L10.4528 7.6016C10.5537 7.54536 10.648 7.47807 10.7341 7.40098L13.2569 5.1191C13.5098 4.89243 13.6779 4.5863 13.7335 4.25123C13.7891 3.91616 13.7287 3.57216 13.5625 3.27598L13.5288 3.21504C14.9404 3.88441 16.1333 4.94041 16.969 6.26047C17.8047 7.58052 18.2489 9.11051 18.25 10.6729ZM11.4353 2.54848L12.25 4.00723L9.72719 6.2891L8.57969 6.92285H7.01313C6.74945 6.92246 6.49033 6.99159 6.26188 7.12326C6.03342 7.25493 5.84372 7.4445 5.71188 7.67285L4.89344 9.10066L3.94188 6.56566L4.9675 4.14035C5.87532 3.43891 6.91965 2.93482 8.03358 2.66037C9.14751 2.38592 10.3065 2.34717 11.4363 2.5466L11.4353 2.54848ZM1.75 10.6729C1.74875 9.44662 2.02233 8.23569 2.55063 7.1291L3.61375 9.96691C3.70235 10.2019 3.84852 10.4108 4.03885 10.5746C4.22918 10.7384 4.45759 10.8518 4.70313 10.9044L6.71219 11.3366L7.06938 12.0791C7.19334 12.3316 7.38545 12.5445 7.62401 12.6936C7.86256 12.8427 8.13806 12.9221 8.41938 12.9229H8.55813L7.88032 14.4444C7.76089 14.7123 7.72264 15.0094 7.77029 15.2988C7.81795 15.5883 7.94942 15.8574 8.14844 16.0729L8.16157 16.086L10 17.9797L9.81813 18.9172C7.66359 18.8671 5.61396 17.9769 4.10662 16.4366C2.59927 14.8964 1.75358 12.828 1.75 10.6729ZM11.3669 18.8085L11.4728 18.2638C11.5164 18.0324 11.5051 17.794 11.44 17.5677C11.3749 17.3414 11.2577 17.1335 11.0978 16.9607C11.0932 16.9565 11.0888 16.9521 11.0847 16.9475L9.25 15.0547L10.5344 12.1729L12.6738 12.4616L16.96 15.0979C16.339 16.0731 15.5204 16.9072 14.557 17.5464C13.5936 18.1855 12.5068 18.6155 11.3669 18.8085Z" fill="#F2F2F2"/>
</svg>
