<svg width="37" height="37" viewBox="0 0 37 37" fill="none" xmlns="http://www.w3.org/2000/svg">
<path d="M3.43066 26.7109H32.6807C32.979 26.7109 33.2652 26.5924 33.4762 26.3814C33.6871 26.1705 33.8057 25.8843 33.8057 25.5859C33.8057 25.2876 33.6871 25.0014 33.4762 24.7904C33.2652 24.5795 32.979 24.4609 32.6807 24.4609H31.5557V22.2109C31.5516 18.8265 30.278 15.5668 27.9867 13.076C25.6953 10.5852 22.553 9.04465 19.1807 8.75875V6.46094H21.4307C21.729 6.46094 22.0152 6.34241 22.2262 6.13143C22.4371 5.92045 22.5557 5.63431 22.5557 5.33594C22.5557 5.03757 22.4371 4.75142 22.2262 4.54044C22.0152 4.32946 21.729 4.21094 21.4307 4.21094H14.6807C14.3823 4.21094 14.0961 4.32946 13.8852 4.54044C13.6742 4.75142 13.5557 5.03757 13.5557 5.33594C13.5557 5.63431 13.6742 5.92045 13.8852 6.13143C14.0961 6.34241 14.3823 6.46094 14.6807 6.46094H16.9307V8.75875C13.5584 9.04465 10.416 10.5852 8.12467 13.076C5.83334 15.5668 4.55976 18.8265 4.55566 22.2109V24.4609H3.43066C3.1323 24.4609 2.84615 24.5795 2.63517 24.7904C2.42419 25.0014 2.30566 25.2876 2.30566 25.5859C2.30566 25.8843 2.42419 26.1705 2.63517 26.3814C2.84615 26.5924 3.1323 26.7109 3.43066 26.7109ZM6.80566 22.2109C6.80566 19.2273 7.99093 16.3658 10.1007 14.256C12.2105 12.1462 15.072 10.9609 18.0557 10.9609C21.0394 10.9609 23.9008 12.1462 26.0106 14.256C28.1204 16.3658 29.3057 19.2273 29.3057 22.2109V24.4609H6.80566V22.2109ZM33.8057 30.0859C33.8057 30.3843 33.6871 30.6705 33.4762 30.8814C33.2652 31.0924 32.979 31.2109 32.6807 31.2109H3.43066C3.1323 31.2109 2.84615 31.0924 2.63517 30.8814C2.42419 30.6705 2.30566 30.3843 2.30566 30.0859C2.30566 29.7876 2.42419 29.5014 2.63517 29.2904C2.84615 29.0795 3.1323 28.9609 3.43066 28.9609H32.6807C32.979 28.9609 33.2652 29.0795 33.4762 29.2904C33.6871 29.5014 33.8057 29.7876 33.8057 30.0859Z" fill="#EADAB6"/>
</svg>
