<svg width="24" height="24" viewBox="0 0 24 24" fill="none" xmlns="http://www.w3.org/2000/svg">
<path d="M19.4997 8.37844V8.25C19.4997 6.26088 18.7095 4.35322 17.303 2.9467C15.8965 1.54018 13.9888 0.75 11.9997 0.75C10.0106 0.75 8.10294 1.54018 6.69641 2.9467C5.28989 4.35322 4.49971 6.26088 4.49971 8.25V8.37844C3.99913 8.55524 3.57719 8.90335 3.30849 9.36122C3.0398 9.81909 2.94166 10.3572 3.03143 10.8805C3.1212 11.4037 3.39309 11.8783 3.79904 12.2205C4.20498 12.5626 4.71883 12.7502 5.24971 12.75H5.56471L11.3482 22.875C11.4137 22.99 11.5085 23.0856 11.6229 23.1521C11.7374 23.2185 11.8674 23.2536 11.9997 23.2536C12.1321 23.2536 12.2621 23.2185 12.3765 23.1521C12.4909 23.0856 12.5857 22.99 12.6513 22.875L18.4347 12.75H18.7497C19.2806 12.7502 19.7944 12.5626 20.2004 12.2205C20.6063 11.8783 20.8782 11.4037 20.968 10.8805C21.0578 10.3572 20.9596 9.81909 20.6909 9.36122C20.4222 8.90335 20.0003 8.55524 19.4997 8.37844ZM11.9997 20.9888L7.29253 12.75H9.10003L12.9035 19.4063L11.9997 20.9888ZM12.6363 12.75L14.6716 16.3125L13.7678 17.895L10.8278 12.75H12.6363ZM15.535 14.8013L14.3632 12.75H16.7069L15.535 14.8013ZM18.7497 11.25H5.24971C5.0508 11.25 4.86004 11.171 4.71938 11.0303C4.57873 10.8897 4.49971 10.6989 4.49971 10.5C4.49971 10.3011 4.57873 10.1103 4.71938 9.96967C4.86004 9.82902 5.0508 9.75 5.24971 9.75C5.44863 9.75 5.63939 9.67098 5.78004 9.53033C5.9207 9.38968 5.99971 9.19891 5.99971 9V8.25C5.99971 6.6587 6.63185 5.13258 7.75707 4.00736C8.88229 2.88214 10.4084 2.25 11.9997 2.25C13.591 2.25 15.1171 2.88214 16.2424 4.00736C17.3676 5.13258 17.9997 6.6587 17.9997 8.25V9C17.9997 9.19891 18.0787 9.38968 18.2194 9.53033C18.36 9.67098 18.5508 9.75 18.7497 9.75C18.9486 9.75 19.1394 9.82902 19.28 9.96967C19.4207 10.1103 19.4997 10.3011 19.4997 10.5C19.4997 10.6989 19.4207 10.8897 19.28 11.0303C19.1394 11.171 18.9486 11.25 18.7497 11.25Z" fill="#3D3D3D"/>
</svg>
