<svg width="49" height="48" viewBox="0 0 49 48" fill="none" xmlns="http://www.w3.org/2000/svg">
<path d="M32.0312 24C32.0312 24.3978 31.8732 24.7794 31.5919 25.0607C31.3106 25.342 30.9291 25.5 30.5312 25.5H18.5312C18.1334 25.5 17.7519 25.342 17.4706 25.0607C17.1893 24.7794 17.0312 24.3978 17.0312 24C17.0312 23.6022 17.1893 23.2206 17.4706 22.9393C17.7519 22.658 18.1334 22.5 18.5312 22.5H30.5312C30.9291 22.5 31.3106 22.658 31.5919 22.9393C31.8732 23.2206 32.0312 23.6022 32.0312 24ZM30.5312 28.5H18.5312C18.1334 28.5 17.7519 28.658 17.4706 28.9393C17.1893 29.2206 17.0312 29.6022 17.0312 30C17.0312 30.3978 17.1893 30.7794 17.4706 31.0607C17.7519 31.342 18.1334 31.5 18.5312 31.5H30.5312C30.9291 31.5 31.3106 31.342 31.5919 31.0607C31.8732 30.7794 32.0312 30.3978 32.0312 30C32.0312 29.6022 31.8732 29.2206 31.5919 28.9393C31.3106 28.658 30.9291 28.5 30.5312 28.5ZM41.0312 9V37.5C41.0312 39.0913 40.3991 40.6174 39.2739 41.7426C38.1487 42.8679 36.6225 43.5 35.0312 43.5H14.0312C12.44 43.5 10.9138 42.8679 9.78861 41.7426C8.66339 40.6174 8.03125 39.0913 8.03125 37.5V9C8.03125 8.20435 8.34732 7.44129 8.90993 6.87868C9.47254 6.31607 10.2356 6 11.0312 6H14.0312V4.5C14.0312 4.10218 14.1893 3.72064 14.4706 3.43934C14.7519 3.15804 15.1334 3 15.5312 3C15.9291 3 16.3106 3.15804 16.5919 3.43934C16.8732 3.72064 17.0312 4.10218 17.0312 4.5V6H23.0312V4.5C23.0312 4.10218 23.1893 3.72064 23.4706 3.43934C23.7519 3.15804 24.1334 3 24.5312 3C24.9291 3 25.3106 3.15804 25.5919 3.43934C25.8732 3.72064 26.0312 4.10218 26.0312 4.5V6H32.0312V4.5C32.0312 4.10218 32.1893 3.72064 32.4706 3.43934C32.7519 3.15804 33.1334 3 33.5312 3C33.9291 3 34.3106 3.15804 34.5919 3.43934C34.8732 3.72064 35.0312 4.10218 35.0312 4.5V6H38.0312C38.8269 6 39.59 6.31607 40.1526 6.87868C40.7152 7.44129 41.0312 8.20435 41.0312 9ZM38.0312 9H35.0312V10.5C35.0312 10.8978 34.8732 11.2794 34.5919 11.5607C34.3106 11.842 33.9291 12 33.5312 12C33.1334 12 32.7519 11.842 32.4706 11.5607C32.1893 11.2794 32.0312 10.8978 32.0312 10.5V9H26.0312V10.5C26.0312 10.8978 25.8732 11.2794 25.5919 11.5607C25.3106 11.842 24.9291 12 24.5312 12C24.1334 12 23.7519 11.842 23.4706 11.5607C23.1893 11.2794 23.0312 10.8978 23.0312 10.5V9H17.0312V10.5C17.0312 10.8978 16.8732 11.2794 16.5919 11.5607C16.3106 11.842 15.9291 12 15.5312 12C15.1334 12 14.7519 11.842 14.4706 11.5607C14.1893 11.2794 14.0312 10.8978 14.0312 10.5V9H11.0312V37.5C11.0312 38.2957 11.3473 39.0587 11.9099 39.6213C12.4725 40.1839 13.2356 40.5 14.0312 40.5H35.0312C35.8269 40.5 36.59 40.1839 37.1526 39.6213C37.7152 39.0587 38.0312 38.2957 38.0312 37.5V9Z" fill="#F87C56"/>
</svg>
