<svg width="24" height="17" viewBox="0 0 24 17" fill="none" xmlns="http://www.w3.org/2000/svg">
<path d="M16.4997 7.17285H14.2497C14.0508 7.17285 13.8601 7.09383 13.7194 6.95318C13.5787 6.81253 13.4997 6.62176 13.4997 6.42285C13.4997 6.22394 13.5787 6.03317 13.7194 5.89252C13.8601 5.75187 14.0508 5.67285 14.2497 5.67285H16.4997C16.6986 5.67285 16.8894 5.75187 17.0301 5.89252C17.1707 6.03317 17.2497 6.22394 17.2497 6.42285C17.2497 6.62176 17.1707 6.81253 17.0301 6.95318C16.8894 7.09383 16.6986 7.17285 16.4997 7.17285ZM9.74973 5.67285H8.99973V4.92285C8.99973 4.72394 8.92071 4.53317 8.78006 4.39252C8.63941 4.25187 8.44864 4.17285 8.24973 4.17285C8.05082 4.17285 7.86005 4.25187 7.7194 4.39252C7.57875 4.53317 7.49973 4.72394 7.49973 4.92285V5.67285H6.74973C6.55082 5.67285 6.36005 5.75187 6.2194 5.89252C6.07875 6.03317 5.99973 6.22394 5.99973 6.42285C5.99973 6.62176 6.07875 6.81253 6.2194 6.95318C6.36005 7.09383 6.55082 7.17285 6.74973 7.17285H7.49973V7.92285C7.49973 8.12176 7.57875 8.31253 7.7194 8.45318C7.86005 8.59383 8.05082 8.67285 8.24973 8.67285C8.44864 8.67285 8.63941 8.59383 8.78006 8.45318C8.92071 8.31253 8.99973 8.12176 8.99973 7.92285V7.17285H9.74973C9.94864 7.17285 10.1394 7.09383 10.2801 6.95318C10.4207 6.81253 10.4997 6.62176 10.4997 6.42285C10.4997 6.22394 10.4207 6.03317 10.2801 5.89252C10.1394 5.75187 9.94864 5.67285 9.74973 5.67285ZM22.6385 15.4838C22.3558 15.8874 21.9882 16.2243 21.5615 16.4707C21.1347 16.717 20.6592 16.867 20.1683 16.91C19.6774 16.953 19.1831 16.8879 18.72 16.7194C18.2569 16.5509 17.8364 16.2831 17.4879 15.9347C17.4766 15.9235 17.4654 15.9122 17.455 15.9L13.7322 11.6729H10.2635L6.54442 15.9L6.5116 15.9347C5.87804 16.5669 5.01975 16.9222 4.12473 16.9229C3.63201 16.9227 3.14532 16.8146 2.69882 16.6063C2.25233 16.3979 1.85686 16.0943 1.54022 15.7168C1.22357 15.3393 0.993414 14.8971 0.865921 14.4212C0.738428 13.9452 0.716688 13.4471 0.802228 12.9619C0.801777 12.9576 0.801777 12.9532 0.802228 12.9488L2.33692 5.06535C2.56532 3.7651 3.24466 2.58695 4.25556 1.7379C5.26647 0.888846 6.54426 0.423226 7.86442 0.422852H16.1247C17.4409 0.424951 18.7148 0.887909 19.7252 1.73134C20.7356 2.57478 21.4187 3.74543 21.656 5.04004C21.656 5.04566 21.656 5.05129 21.656 5.05691L23.1907 12.9479C23.1911 12.9522 23.1911 12.9566 23.1907 12.961C23.2701 13.3971 23.2622 13.8447 23.1674 14.2777C23.0726 14.7108 22.8928 15.1207 22.6385 15.4838ZM16.1247 10.1729C17.2187 10.1729 18.268 9.73825 19.0415 8.96467C19.8151 8.19108 20.2497 7.14187 20.2497 6.04785C20.2497 4.95383 19.8151 3.90462 19.0415 3.13104C18.268 2.35745 17.2187 1.92285 16.1247 1.92285H7.86442C6.89593 1.92372 5.95878 2.2661 5.21783 2.88976C4.47688 3.51342 3.9796 4.37841 3.81348 5.33254V5.34473L2.27785 13.2282C2.20998 13.619 2.2678 14.0213 2.44302 14.3772C2.61824 14.7331 2.90181 15.0242 3.25296 15.2088C3.60411 15.3933 4.00474 15.4617 4.39723 15.4042C4.78972 15.3466 5.15384 15.1661 5.43723 14.8885L9.36723 10.4269C9.4376 10.3471 9.52415 10.2831 9.62113 10.2393C9.71812 10.1955 9.82331 10.1729 9.92973 10.1729H16.1247ZM21.7216 13.2282L20.9022 9.00941C20.3983 9.82316 19.695 10.4949 18.859 10.9609C18.023 11.427 17.0819 11.672 16.1247 11.6729H15.731L18.5622 14.8894C18.7757 15.097 19.0354 15.2511 19.3199 15.3389C19.6044 15.4268 19.9057 15.4459 20.1991 15.3947C20.6878 15.3085 21.1224 15.032 21.4076 14.6259C21.6928 14.2198 21.8054 13.7171 21.7207 13.2282H21.7216Z" fill="#F2F2F2"/>
</svg>
