<svg width="17" height="14" viewBox="0 0 17 14" fill="none" xmlns="http://www.w3.org/2000/svg">
<path fill-rule="evenodd" clip-rule="evenodd" d="M7.71833 0.45759C6.67455 0.647826 5.81084 1.44607 5.52899 2.48105C5.43664 2.82018 5.42994 3.45795 5.51522 3.79334C5.68644 4.46669 6.08831 5.05737 6.62767 5.42846C6.84397 5.57729 7.25189 5.7619 7.52513 5.83462C7.87497 5.92774 8.50302 5.92774 8.85286 5.83462C9.12609 5.7619 9.53401 5.57729 9.75031 5.42846C10.2897 5.05737 10.6915 4.46669 10.8628 3.79334C10.948 3.45795 10.9413 2.82018 10.849 2.48105C10.593 1.54096 9.91409 0.841613 8.96093 0.536142C8.74049 0.465494 8.63171 0.450334 8.28163 0.441472C8.05236 0.435636 7.79889 0.442892 7.71833 0.45759ZM8.6181 1.40148C8.92882 1.47475 9.22471 1.64548 9.47316 1.89487C10.3464 2.77151 10.1107 4.24051 9.00962 4.78312C8.44775 5.06006 7.93024 5.06006 7.36836 4.78312C6.46983 4.34027 6.11696 3.25197 6.57503 2.33633C6.79117 1.90429 7.27798 1.51616 7.74575 1.40293C7.98622 1.34473 8.37451 1.34408 8.6181 1.40148ZM2.89351 3.03425C2.493 3.13402 2.16786 3.33021 1.8643 3.65526C1.05408 4.52279 1.17243 5.93815 2.1149 6.65235C2.3346 6.81881 2.66171 6.97792 2.90895 7.0385C3.12605 7.0917 3.61583 7.09207 3.83527 7.03921C4.07541 6.98135 4.46795 6.78555 4.67761 6.61903C4.99173 6.3696 5.28364 5.90153 5.38078 5.4916C5.43682 5.25508 5.43071 4.77734 5.36852 4.5344C5.18326 3.8106 4.57491 3.20581 3.86343 3.03811C3.62636 2.98222 3.11055 2.98018 2.89351 3.03425ZM12.5007 3.03774C11.7935 3.21572 11.1926 3.81888 11.0095 4.5344C10.9473 4.77734 10.9412 5.25508 10.9972 5.4916C11.0943 5.90153 11.3863 6.3696 11.7004 6.61903C11.91 6.78555 12.3026 6.98135 12.5427 7.03921C12.7622 7.09207 13.2519 7.0917 13.469 7.0385C13.7163 6.97792 14.0434 6.81881 14.2631 6.65235C15.0301 6.07108 15.2718 4.99401 14.8353 4.10212C14.7478 3.92337 14.6583 3.80702 14.4429 3.59218C14.1604 3.31048 13.9853 3.20022 13.608 3.0667C13.396 2.9917 12.7507 2.97481 12.5007 3.03774ZM3.69324 3.95344C4.00362 4.03644 4.33663 4.35645 4.44226 4.67316C4.51544 4.8927 4.5063 5.21633 4.42046 5.44377C4.32332 5.70114 4.0428 5.98317 3.78896 6.07867C3.3852 6.23059 2.9331 6.14691 2.62219 5.86278C2.00832 5.30174 2.18707 4.31032 2.95934 3.99281C3.16449 3.90848 3.46487 3.89233 3.69324 3.95344ZM13.3936 3.98191C14.1803 4.27627 14.3766 5.29541 13.7558 5.86278C13.4449 6.14691 12.9928 6.23059 12.589 6.07867C12.3352 5.98317 12.0547 5.70114 11.9575 5.44377C11.8717 5.21633 11.8625 4.8927 11.9357 4.67316C12.0372 4.36884 12.3732 4.03758 12.6633 3.95591C12.8658 3.89891 13.2039 3.91095 13.3936 3.98191ZM6.2867 6.22942C5.69403 6.37516 5.13389 6.78336 4.84938 7.27678C4.78883 7.38183 4.73961 7.43506 4.71259 7.42468C4.55416 7.36389 4.05475 7.34017 3.18089 7.35194C2.29233 7.36392 2.19549 7.37052 1.98263 7.43392C1.57971 7.55387 1.28977 7.72849 0.977873 8.03899C0.669562 8.34591 0.504152 8.61998 0.372151 9.04251C0.30033 9.27242 0.299805 9.28524 0.299805 10.818C0.299805 12.5159 0.300885 12.5276 0.489269 12.8439C0.667339 13.1429 0.96472 13.3726 1.30122 13.4708C1.45203 13.5148 2.14569 13.5197 8.18899 13.5197C14.2323 13.5197 14.926 13.5148 15.0768 13.4708C15.4133 13.3726 15.7106 13.1429 15.8887 12.8439C16.0771 12.5276 16.0782 12.5159 16.0782 10.818C16.0782 9.28524 16.0777 9.27242 16.0058 9.04251C15.8738 8.61998 15.7084 8.34591 15.4001 8.03899C15.0882 7.72849 14.7983 7.55387 14.3954 7.43392C14.1825 7.37052 14.0857 7.36392 13.1971 7.35194C12.3232 7.34017 11.8238 7.36389 11.6654 7.42468C11.6384 7.43506 11.5892 7.38183 11.5286 7.27678C11.3158 6.90764 10.9529 6.58556 10.5273 6.388C10.0658 6.17381 10.031 6.17063 8.16747 6.17319C6.6953 6.1752 6.48119 6.18159 6.2867 6.22942ZM9.92023 7.147C10.1822 7.22469 10.3519 7.32362 10.5313 7.50299C10.7107 7.68239 10.8096 7.85215 10.8873 8.11408C10.931 8.26131 10.9371 8.54498 10.9371 10.4376V12.5934H8.18899H5.4409V10.4376C5.4409 8.10334 5.43797 8.14857 5.61082 7.80741C5.69755 7.63616 5.96986 7.35941 6.13564 7.274C6.47199 7.10072 6.4723 7.10069 8.17565 7.0989C9.53917 7.09744 9.77523 7.10396 9.92023 7.147ZM4.47598 8.31099C4.50624 8.33057 4.51458 8.79561 4.51458 10.4647V12.5934H3.02159H1.5286L1.42368 12.5233C1.20933 12.3801 1.21078 12.3913 1.21075 10.9071C1.21072 10.1305 1.22381 9.50663 1.24222 9.40967C1.34701 8.85706 1.80814 8.3984 2.35316 8.30469C2.55648 8.26974 4.42077 8.27526 4.47598 8.31099ZM13.994 8.30305C14.5663 8.39433 15.0281 8.84187 15.1358 9.40967C15.1542 9.50663 15.1673 10.1305 15.1672 10.9071C15.1672 12.3913 15.1687 12.3801 14.9543 12.5233L14.8494 12.5934H13.3562H11.863L11.8709 10.4552L11.8788 8.31689L11.9869 8.2978C12.1719 8.26511 13.7825 8.26934 13.994 8.30305Z" fill="white"/>
</svg>
