<svg width="24" height="25" viewBox="0 0 24 25" fill="none" xmlns="http://www.w3.org/2000/svg">
<path d="M20.5153 10.4016L13.0153 3.3254C13.0116 3.3222 13.0082 3.31875 13.005 3.31509C12.7289 3.06396 12.369 2.9248 11.9958 2.9248C11.6225 2.9248 11.2627 3.06396 10.9866 3.31509L10.9763 3.3254L3.48469 10.4016C3.33187 10.5422 3.20989 10.7129 3.12646 10.903C3.04303 11.0931 2.99997 11.2984 3 11.506V20.1732C3 20.571 3.15804 20.9526 3.43934 21.2339C3.72064 21.5152 4.10218 21.6732 4.5 21.6732H9C9.39782 21.6732 9.77936 21.5152 10.0607 21.2339C10.342 20.9526 10.5 20.571 10.5 20.1732V15.6732H13.5V20.1732C13.5 20.571 13.658 20.9526 13.9393 21.2339C14.2206 21.5152 14.6022 21.6732 15 21.6732H19.5C19.8978 21.6732 20.2794 21.5152 20.5607 21.2339C20.842 20.9526 21 20.571 21 20.1732V11.506C21 11.2984 20.957 11.0931 20.8735 10.903C20.7901 10.7129 20.6681 10.5422 20.5153 10.4016ZM19.5 20.1732H15V15.6732C15 15.2754 14.842 14.8939 14.5607 14.6126C14.2794 14.3312 13.8978 14.1732 13.5 14.1732H10.5C10.1022 14.1732 9.72064 14.3312 9.43934 14.6126C9.15804 14.8939 9 15.2754 9 15.6732V20.1732H4.5V11.506L4.51031 11.4966L12 4.42321L19.4906 11.4948L19.5009 11.5041L19.5 20.1732Z" fill="#F2F2F2"/>
</svg>
