<svg width="33" height="33" viewBox="0 0 33 33" fill="none" xmlns="http://www.w3.org/2000/svg">
<path d="M16.6914 10.4414C15.5047 10.4414 14.3447 10.7933 13.358 11.4526C12.3713 12.1119 11.6023 13.0489 11.1481 14.1453C10.694 15.2417 10.5752 16.4481 10.8067 17.6119C11.0382 18.7758 11.6097 19.8449 12.4488 20.684C13.2879 21.5232 14.357 22.0946 15.5209 22.3261C16.6848 22.5576 17.8912 22.4388 18.9875 21.9847C20.0839 21.5306 21.0209 20.7615 21.6802 19.7748C22.3395 18.7881 22.6914 17.6281 22.6914 16.4414C22.6898 14.8506 22.0571 13.3255 20.9322 12.2006C19.8074 11.0757 18.2822 10.4431 16.6914 10.4414ZM16.6914 20.4414C15.9003 20.4414 15.1269 20.2068 14.4691 19.7673C13.8113 19.3278 13.2986 18.703 12.9959 17.9721C12.6931 17.2412 12.6139 16.437 12.7683 15.661C12.9226 14.8851 13.3036 14.1724 13.863 13.613C14.4224 13.0536 15.1351 12.6726 15.911 12.5183C16.687 12.3639 17.4912 12.4431 18.2221 12.7459C18.953 13.0486 19.5778 13.5613 20.0173 14.2191C20.4568 14.8769 20.6914 15.6503 20.6914 16.4414C20.6914 17.5023 20.27 18.5197 19.5198 19.2698C18.7697 20.02 17.7523 20.4414 16.6914 20.4414ZM22.6914 3.44141H10.6914C8.8355 3.44339 7.05618 4.18153 5.74385 5.49385C4.43153 6.80618 3.69339 8.5855 3.69141 10.4414V22.4414C3.69339 24.2973 4.43153 26.0766 5.74385 27.389C7.05618 28.7013 8.8355 29.4394 10.6914 29.4414H22.6914C24.5473 29.4394 26.3266 28.7013 27.639 27.389C28.9513 26.0766 29.6894 24.2973 29.6914 22.4414V10.4414C29.6894 8.5855 28.9513 6.80618 27.639 5.49385C26.3266 4.18153 24.5473 3.44339 22.6914 3.44141ZM27.6914 22.4414C27.6914 23.7675 27.1646 25.0393 26.2269 25.9769C25.2893 26.9146 24.0175 27.4414 22.6914 27.4414H10.6914C9.36532 27.4414 8.09355 26.9146 7.15587 25.9769C6.21819 25.0393 5.69141 23.7675 5.69141 22.4414V10.4414C5.69141 9.11532 6.21819 7.84355 7.15587 6.90587C8.09355 5.96819 9.36532 5.44141 10.6914 5.44141H22.6914C24.0175 5.44141 25.2893 5.96819 26.2269 6.90587C27.1646 7.84355 27.6914 9.11532 27.6914 10.4414V22.4414ZM24.6914 9.94141C24.6914 10.2381 24.6034 10.5281 24.4386 10.7748C24.2738 11.0214 24.0395 11.2137 23.7654 11.3272C23.4913 11.4408 23.1897 11.4705 22.8988 11.4126C22.6078 11.3547 22.3405 11.2118 22.1307 11.0021C21.921 10.7923 21.7781 10.525 21.7202 10.234C21.6624 9.94307 21.6921 9.64147 21.8056 9.36738C21.9191 9.09329 22.1114 8.85902 22.3581 8.6942C22.6047 8.52938 22.8947 8.44141 23.1914 8.44141C23.5892 8.44141 23.9708 8.59944 24.2521 8.88075C24.5334 9.16205 24.6914 9.54358 24.6914 9.94141Z" fill="#2E2E2E"/>
</svg>
