<svg width="25" height="24" viewBox="0 0 25 24" fill="none" xmlns="http://www.w3.org/2000/svg">
<path d="M15.5654 18.9698C15.6351 19.0395 15.6904 19.1222 15.7281 19.2132C15.7658 19.3043 15.7852 19.4019 15.7852 19.5004C15.7852 19.599 15.7658 19.6965 15.7281 19.7876C15.6904 19.8786 15.6351 19.9614 15.5654 20.031C15.4957 20.1007 15.413 20.156 15.3219 20.1937C15.2309 20.2314 15.1333 20.2508 15.0348 20.2508C14.9362 20.2508 14.8386 20.2314 14.7476 20.1937C14.6566 20.156 14.5738 20.1007 14.5041 20.031L7.00414 12.531C6.93441 12.4614 6.87909 12.3787 6.84135 12.2876C6.80361 12.1966 6.78418 12.099 6.78418 12.0004C6.78418 11.9019 6.80361 11.8043 6.84135 11.7132C6.87909 11.6222 6.93441 11.5394 7.00414 11.4698L14.5041 3.96979C14.6449 3.82906 14.8357 3.75 15.0348 3.75C15.2338 3.75 15.4247 3.82906 15.5654 3.96979C15.7061 4.11052 15.7852 4.30139 15.7852 4.50042C15.7852 4.69944 15.7061 4.89031 15.5654 5.03104L8.59508 12.0004L15.5654 18.9698Z" fill="#A59176" stroke="#A59176"/>
</svg>
