<svg width="293" height="290" viewBox="0 0 293 290" fill="none" xmlns="http://www.w3.org/2000/svg">
<g clip-path="url(#clip0_935_38343)">
<path d="M286.429 20.723C289.987 24.4924 290.426 32.8582 288.899 39.2255C287.372 45.5984 284.397 50.7556 282.143 56.5456C277.708 67.9535 276.17 81.5209 274.299 94.6109C271.779 112.236 269.691 223.268 238.826 255.687C207.273 288.834 165.977 287.863 128.094 289.756C105.223 290.899 51.0479 288.451 32.8119 273.629C27.7935 269.555 11.5837 283.361 9.85725 283.427C6.6264 283.561 2.72383 283.194 1.15837 278.681C-0.107332 275.034 0.864146 270.548 1.7246 266.612C13.1547 214.38 3.11242 155.031 17.2294 104.498C27.8879 66.3436 44.353 32.5196 68.4179 16.1155C96.8239 -3.25302 134.739 0.099964 160.903 0.410837C212.108 1.01593 244.461 18.1306 270.141 22.2163C270.141 22.2163 280.855 14.822 286.429 20.723Z" fill="#FFD733"/>
<path d="M272.961 39.1313C274.21 43.0173 277.047 46.0982 279.462 49.3568C288.988 62.1748 292.58 78.8509 292.124 94.9552C291.675 111.065 287.467 126.803 282.715 142.164C267.821 133.592 259.982 116.311 254.881 99.6072C251.211 87.5942 248.447 74.7429 251.289 62.5023C254.131 50.2617 272.961 39.1313 272.961 39.1313Z" fill="#20AD67"/>
</g>
<defs>
<clipPath id="clip0_935_38343">
<rect width="291.61" height="290" fill="white" transform="translate(0.553711)"/>
</clipPath>
</defs>
</svg>
