<svg width="18" height="14" viewBox="0 0 18 14" fill="none" xmlns="http://www.w3.org/2000/svg">
<path fill-rule="evenodd" clip-rule="evenodd" d="M8.82758 0.877188C8.53857 0.939999 8.30128 1.07487 8.06006 1.31347C7.6192 1.74952 7.46981 2.38315 7.67213 2.95877L7.73447 3.13608L7.47821 3.19536C5.86153 3.5693 4.45184 4.43669 3.37745 5.71864C2.35976 6.9329 1.75277 8.51468 1.66897 10.1708L1.64681 10.6082L1.45858 10.6998C1.20983 10.8208 0.889514 11.1452 0.758646 11.4085C0.449802 12.0301 0.571961 12.7622 1.06608 13.2509C1.31225 13.4944 1.54416 13.624 1.84937 13.6887C2.19137 13.7612 16.1867 13.7612 16.5287 13.6887C16.8339 13.624 17.0658 13.4944 17.3119 13.2509C17.8061 12.7622 17.9282 12.0301 17.6194 11.4085C17.4853 11.1386 17.1675 10.8193 16.9143 10.7001L16.721 10.6091L16.721 10.3999C16.7209 10.0564 16.6567 9.48328 16.5658 9.01593C16.3442 7.87611 15.8002 6.71154 15.0587 5.78962C14.7582 5.41604 14.143 4.81473 13.7787 4.53844C12.9354 3.89902 11.9455 3.43722 10.8998 3.19536L10.6436 3.13608L10.7059 2.95877C10.9082 2.38315 10.7588 1.74952 10.318 1.31347C10.0718 1.06999 9.83989 0.940369 9.53468 0.875675C9.25798 0.817067 9.10293 0.817403 8.82758 0.877188ZM9.5023 2.01294C9.82987 2.26277 9.77789 2.74979 9.40472 2.92686C9.04604 3.09707 8.61494 2.78359 8.65982 2.38523C8.70562 1.97901 9.18188 1.76852 9.5023 2.01294ZM9.98589 4.10521C12.4616 4.42354 14.5263 6.10973 15.3047 8.44888C15.5072 9.05725 15.6427 9.80897 15.6444 10.3337L15.645 10.5102H9.18901H2.73303L2.7336 10.3337C2.73703 9.30134 3.12698 8.01807 3.7288 7.05879C5.03731 4.9731 7.54166 3.79095 9.98589 4.10521ZM8.96877 5.17751C8.6451 5.31847 8.55347 5.75182 8.79029 6.02156C8.91403 6.16248 9.01036 6.18972 9.55465 6.23757C10.5965 6.32916 11.3955 6.69271 12.1735 7.4291C12.5359 7.77211 12.6812 7.84749 12.9003 7.80641C13.2206 7.74632 13.4247 7.33747 13.2771 7.052C13.1988 6.90058 12.5558 6.30559 12.2314 6.08434C11.4765 5.56958 10.6007 5.25132 9.69668 5.16335C9.26208 5.12105 9.09073 5.12438 8.96877 5.17751ZM16.4068 11.6414C16.4707 11.6717 16.5638 11.75 16.6136 11.8153C16.743 11.9849 16.743 12.2635 16.6136 12.4331C16.423 12.683 17.0979 12.6622 9.18901 12.6622C1.2801 12.6622 1.95502 12.683 1.76443 12.4331C1.63528 12.2638 1.63508 11.9848 1.76396 11.8159C1.95394 11.5668 1.27291 11.5878 9.18394 11.587C15.7031 11.5862 16.3001 11.5908 16.4068 11.6414Z" fill="white"/>
</svg>
