<svg width="48" height="48" viewBox="0 0 48 48" fill="none" xmlns="http://www.w3.org/2000/svg">
<path d="M13.5 16.5V7.49998C13.5 7.10216 13.658 6.72063 13.9394 6.43932C14.2207 6.15802 14.6022 5.99998 15 5.99998C15.3978 5.99998 15.7794 6.15802 16.0607 6.43932C16.342 6.72063 16.5 7.10216 16.5 7.49998V16.5C16.5 16.8978 16.342 17.2793 16.0607 17.5606C15.7794 17.8419 15.3978 18 15 18C14.6022 18 14.2207 17.8419 13.9394 17.5606C13.658 17.2793 13.5 16.8978 13.5 16.5ZM40.5 7.49998V42C40.5 42.3978 40.342 42.7793 40.0607 43.0606C39.7794 43.342 39.3978 43.5 39 43.5C38.6022 43.5 38.2207 43.342 37.9394 43.0606C37.658 42.7793 37.5 42.3978 37.5 42V33H28.5C28.1022 33 27.7207 32.842 27.4394 32.5606C27.158 32.2793 27 31.8978 27 31.5C27.0697 27.9069 27.5235 24.3315 28.3538 20.835C30.1875 13.2431 33.6638 8.15436 38.4094 6.12186C38.6375 6.02415 38.8863 5.98456 39.1334 6.00663C39.3806 6.0287 39.6184 6.11174 39.8256 6.24831C40.0328 6.38488 40.2028 6.57071 40.3205 6.78916C40.4382 7.00761 40.4999 7.25184 40.5 7.49998ZM37.5 10.1062C31.4681 14.7131 30.2869 25.935 30.0563 30H37.5V10.1062ZM22.4794 7.25436C22.45 7.0574 22.3817 6.86826 22.2785 6.69797C22.1752 6.52769 22.0391 6.37967 21.8781 6.26254C21.717 6.14541 21.5342 6.06152 21.3404 6.01577C21.1466 5.97002 20.9456 5.96332 20.7492 5.99606C20.5528 6.02879 20.3648 6.10032 20.1963 6.20646C20.0278 6.31259 19.8822 6.45122 19.7678 6.61425C19.6534 6.77728 19.5727 6.96144 19.5303 7.15601C19.4878 7.35058 19.4846 7.55164 19.5206 7.74748L21 16.6181C21 18.2094 20.3679 19.7355 19.2427 20.8608C18.1174 21.986 16.5913 22.6181 15 22.6181C13.4087 22.6181 11.8826 21.986 10.7574 20.8608C9.63216 19.7355 9.00001 18.2094 9.00001 16.6181L10.4775 7.74748C10.5136 7.55164 10.5103 7.35058 10.4679 7.15601C10.4255 6.96144 10.3447 6.77728 10.2304 6.61425C10.116 6.45122 9.97032 6.31259 9.80182 6.20646C9.63332 6.10032 9.44538 6.02879 9.24895 5.99606C9.05252 5.96332 8.85154 5.97002 8.65773 6.01577C8.46391 6.06152 8.28115 6.14541 8.1201 6.26254C7.95905 6.37967 7.82293 6.52769 7.71969 6.69797C7.61645 6.86826 7.54814 7.0574 7.51876 7.25436L6.01876 16.2544C6.00593 16.3356 5.99966 16.4177 6.00001 16.5C6.00301 18.6259 6.75736 20.6823 8.12977 22.3058C9.50217 23.9294 11.4043 25.0156 13.5 25.3725V42C13.5 42.3978 13.658 42.7793 13.9394 43.0606C14.2207 43.342 14.6022 43.5 15 43.5C15.3978 43.5 15.7794 43.342 16.0607 43.0606C16.342 42.7793 16.5 42.3978 16.5 42V25.3725C18.5957 25.0156 20.4979 23.9294 21.8703 22.3058C23.2427 20.6823 23.997 18.6259 24 16.5C23.9997 16.4177 23.9929 16.3355 23.9794 16.2544L22.4794 7.25436Z" fill="#F87C56"/>
</svg>
