<svg width="24" height="24" viewBox="0 0 24 24" fill="none" xmlns="http://www.w3.org/2000/svg">
<path fill-rule="evenodd" clip-rule="evenodd" d="M9.40621 1.95314C12.6773 1.94921 16.419 3.06957 18.6704 5.4476C20.1799 7.04213 21.0247 9.21623 21.2544 11.4159C21.4841 13.6153 21.1062 15.9064 20.0908 17.7622C18.6651 20.368 16.2554 21.6739 13.9726 21.9768C11.7461 22.2722 9.43298 21.6231 8.35306 20.0289C7.18504 18.3047 7.11979 16.6354 7.15075 15.2546C7.15477 15.0754 7.16013 14.9055 7.16526 14.7429C7.18049 14.2598 7.19367 13.8416 7.16363 13.4376C7.12522 12.9211 7.01855 12.5175 6.7943 12.1752C6.44744 11.6458 6.0061 11.2635 5.50927 10.9258C5.2581 10.755 4.99938 10.5999 4.72807 10.4386C4.71174 10.4289 4.69534 10.4192 4.67887 10.4094C4.4284 10.2606 4.16349 10.1032 3.91318 9.93551C3.37712 9.5763 2.83163 9.12138 2.48335 8.43393C2.13071 7.73788 2.02661 6.89795 2.18604 5.85031L2.19209 5.81052L2.20237 5.77161C2.56284 4.40691 3.6015 3.44757 4.88491 2.84374C6.16662 2.24072 7.75921 1.95511 9.40621 1.95314ZM3.62134 6.50689C3.58378 7.08969 3.67964 7.47617 3.82142 7.75602C3.99992 8.10835 4.29901 8.38842 4.74819 8.68941C4.96342 8.83364 5.19552 8.97156 5.45574 9.12619C5.46859 9.13383 5.4815 9.14151 5.49449 9.14922C5.76398 9.30941 6.05907 9.48576 6.35258 9.6853C6.94513 10.0881 7.55665 10.6017 8.049 11.3532C8.46267 11.9846 8.61043 12.6666 8.6595 13.3264C8.696 13.8172 8.67909 14.3469 8.66302 14.8499C8.65826 14.9989 8.65358 15.1456 8.65038 15.2882C8.62142 16.5793 8.69442 17.8583 9.59494 19.1877C10.2006 20.0817 11.6977 20.6855 13.5018 20.5205C13.4723 20.3648 13.4475 20.2016 13.4295 20.0242C13.3803 19.5388 13.3841 18.9731 13.4516 18.1632C13.5109 17.4522 13.6914 16.657 13.8575 15.9251C13.9195 15.6521 13.9795 15.388 14.0304 15.1402C14.2353 14.1438 14.3066 13.3781 14.1227 12.8291C13.7028 11.5755 12.8129 10.4781 11.8612 9.62973C11.1432 8.98961 10.4303 8.52664 9.93396 8.26501C9.5593 8.64143 9.04066 8.87443 8.4676 8.87443C7.35103 8.87443 6.44106 7.98989 6.40019 6.88331C5.77653 6.73211 4.74059 6.54312 3.62134 6.50689ZM6.89526 5.46095C7.27471 5.01767 7.83835 4.73674 8.4676 4.73674C9.61019 4.73674 10.5364 5.66299 10.5364 6.80558C10.5364 6.83292 10.5359 6.86014 10.5349 6.88722C11.1775 7.21341 12.0315 7.77192 12.8594 8.51009C12.9916 8.62793 13.1242 8.75133 13.2562 8.88013C14.4257 8.69913 16.6295 8.71748 19.3526 9.58409C18.9792 8.40278 18.385 7.32804 17.5811 6.47884C15.7029 4.49497 12.4176 3.44952 9.40801 3.45313C7.91465 3.45493 6.55347 3.71643 5.52349 4.20103C5.01813 4.43879 4.60873 4.72123 4.29792 5.0421C5.36456 5.12363 6.30768 5.31027 6.89526 5.46095ZM19.7308 11.3017C17.5233 10.4761 15.6748 10.2748 14.4725 10.2893C14.9139 10.9077 15.2923 11.5982 15.545 12.3526C15.8712 13.3263 15.7015 14.4608 15.4997 15.4423C15.4336 15.7637 15.3636 16.0719 15.2961 16.3692C15.1396 17.0581 14.9964 17.6882 14.9464 18.2878C14.8829 19.0494 14.8855 19.5143 14.9218 19.8729C14.9342 19.9946 14.9506 20.1069 14.9712 20.2187C16.4425 19.7413 17.8546 18.7243 18.7749 17.0422C19.623 15.4921 19.9654 13.5148 19.7625 11.5717C19.7531 11.4815 19.7425 11.3915 19.7308 11.3017ZM8.4676 6.23674C8.15344 6.23674 7.89876 6.49142 7.89876 6.80558C7.89876 7.11975 8.15344 7.37443 8.4676 7.37443C8.78176 7.37443 9.03645 7.11975 9.03645 6.80558C9.03645 6.49142 8.78176 6.23674 8.4676 6.23674Z" fill="#3D3D3D"/>
</svg>
