<svg width="24" height="24" viewBox="0 0 24 24" fill="none" xmlns="http://www.w3.org/2000/svg">
<path d="M19.9613 2.40839C19.8714 2.33839 19.7668 2.28977 19.6554 2.26621C19.5439 2.24266 19.4286 2.24479 19.3181 2.27245L7.31813 5.27245C7.15587 5.31301 7.01183 5.40664 6.90889 5.53845C6.80596 5.67027 6.75003 5.83271 6.75 5.99995V16.32C6.12435 15.9019 5.37694 15.705 4.62652 15.7604C3.8761 15.8158 3.16571 16.1203 2.60823 16.6257C2.05075 17.1311 1.67814 17.8083 1.54961 18.5497C1.42108 19.2911 1.54399 20.0542 1.89883 20.7177C2.25366 21.3813 2.82007 21.9072 3.50805 22.212C4.19603 22.5167 4.96612 22.5829 5.69598 22.3998C6.42584 22.2168 7.0736 21.7951 7.53635 21.2017C7.99909 20.6084 8.25028 19.8774 8.25 19.125V6.58589L18.75 3.96089V13.32C18.1243 12.9019 17.3769 12.705 16.6265 12.7604C15.8761 12.8158 15.1657 13.1203 14.6082 13.6257C14.0507 14.1311 13.6781 14.8083 13.5496 15.5497C13.4211 16.2911 13.544 17.0542 13.8988 17.7177C14.2537 18.3813 14.8201 18.9072 15.508 19.212C16.196 19.5167 16.9661 19.5829 17.696 19.3998C18.4258 19.2168 19.0736 18.7951 19.5363 18.2017C19.9991 17.6084 20.2503 16.8774 20.25 16.125V2.99995C20.25 2.88588 20.224 2.77331 20.174 2.6708C20.124 2.56829 20.0512 2.47855 19.9613 2.40839ZM4.875 21C4.50416 21 4.14165 20.89 3.83331 20.684C3.52497 20.4779 3.28464 20.1851 3.14273 19.8425C3.00082 19.4999 2.96368 19.1229 3.03603 18.7592C3.10838 18.3954 3.28696 18.0614 3.54918 17.7991C3.8114 17.5369 4.1455 17.3583 4.50921 17.286C4.87292 17.2136 5.24992 17.2508 5.59254 17.3927C5.93515 17.5346 6.22798 17.7749 6.43401 18.0833C6.64004 18.3916 6.75 18.7541 6.75 19.125C6.75 19.6222 6.55246 20.0991 6.20083 20.4508C5.8492 20.8024 5.37229 21 4.875 21ZM16.875 18C16.5042 18 16.1417 17.89 15.8333 17.684C15.525 17.4779 15.2846 17.1851 15.1427 16.8425C15.0008 16.4999 14.9637 16.1229 15.036 15.7592C15.1084 15.3954 15.287 15.0614 15.5492 14.7991C15.8114 14.5369 16.1455 14.3583 16.5092 14.286C16.8729 14.2136 17.2499 14.2508 17.5925 14.3927C17.9351 14.5346 18.228 14.7749 18.434 15.0833C18.64 15.3916 18.75 15.7541 18.75 16.125C18.75 16.3712 18.7015 16.615 18.6073 16.8425C18.5131 17.07 18.3749 17.2767 18.2008 17.4508C18.0267 17.6249 17.82 17.763 17.5925 17.8572C17.3651 17.9515 17.1212 18 16.875 18Z" fill="#3D3D3D"/>
</svg>
