<svg width="25" height="25" viewBox="0 0 25 25" fill="none" xmlns="http://www.w3.org/2000/svg">
<path d="M21.285 12.7849L14.535 19.5349C14.3943 19.6757 14.2034 19.7547 14.0044 19.7547C13.8054 19.7547 13.6145 19.6757 13.4738 19.5349C13.333 19.3942 13.254 19.2033 13.254 19.0043C13.254 18.8053 13.333 18.6144 13.4738 18.4737L18.9441 13.0043H4.25439C4.05548 13.0043 3.86472 12.9253 3.72406 12.7847C3.58341 12.644 3.50439 12.4532 3.50439 12.2543C3.50439 12.0554 3.58341 11.8646 3.72406 11.724C3.86472 11.5833 4.05548 11.5043 4.25439 11.5043H18.9441L13.4738 6.03495C13.333 5.89422 13.254 5.70335 13.254 5.50432C13.254 5.3053 13.333 5.11443 13.4738 4.9737C13.6145 4.83297 13.8054 4.75391 14.0044 4.75391C14.2034 4.75391 14.3943 4.83297 14.535 4.9737L21.285 11.7237C21.3548 11.7934 21.4101 11.8761 21.4478 11.9671C21.4856 12.0582 21.505 12.1558 21.505 12.2543C21.505 12.3529 21.4856 12.4505 21.4478 12.5415C21.4101 12.6326 21.3548 12.7153 21.285 12.7849Z" fill="white"/>
</svg>
