<svg width="19" height="21" viewBox="0 0 19 21" fill="none" xmlns="http://www.w3.org/2000/svg">
<path fill-rule="evenodd" clip-rule="evenodd" d="M8.7127 0.0418791C8.44332 0.0933505 7.99702 0.307649 7.75074 0.503772C7.48842 0.712713 7.19705 1.12099 7.06963 1.45819C6.98764 1.67515 6.96775 1.80635 6.95744 2.19796L6.94494 2.67398L6.65674 2.79637C5.84443 3.14127 5.18166 3.58277 4.57769 4.1813C3.57541 5.17457 2.98414 6.28543 2.70801 7.69401C2.65214 7.97891 2.63841 8.41957 2.62015 10.5054C2.59928 12.895 2.5959 12.981 2.5215 13.0354C2.47911 13.0664 2.39875 13.0923 2.34291 13.0931C1.85836 13.0997 1.21804 13.3396 0.823695 13.6624C-0.000363072 14.3369 -0.239068 15.5175 0.257906 16.4604C0.530582 16.9777 0.972989 17.3572 1.54779 17.567L1.84451 17.6753L4.02603 17.6871C5.67042 17.696 6.21501 17.7107 6.23783 17.7466C6.25454 17.7729 6.26843 17.8358 6.26878 17.8866C6.26986 18.0483 6.46717 18.5792 6.62654 18.8491C7.01157 19.501 7.60668 19.9614 8.37407 20.2009C8.76449 20.3227 9.52386 20.331 9.92039 20.2177C10.59 20.0263 11.2377 19.5602 11.6079 19.0034C11.8592 18.6254 11.9664 18.3541 12.0817 17.8043L12.1046 17.6951L14.1774 17.6945C16.4892 17.6937 16.5864 17.685 17.095 17.4348C17.6635 17.155 18.1609 16.5071 18.2903 15.8776C18.4981 14.8675 17.9906 13.834 17.0602 13.373C16.7496 13.2191 16.283 13.0971 15.9898 13.0931C15.934 13.0923 15.8536 13.0664 15.8113 13.0354C15.7369 12.981 15.7335 12.8957 15.7126 10.565C15.6919 8.2494 15.6873 8.13312 15.6004 7.71556C15.3705 6.61148 14.897 5.59999 14.2132 4.75204C13.5343 3.91029 12.4436 3.09436 11.5475 2.75796L11.3689 2.69093V2.22626C11.3689 1.65793 11.2833 1.37069 10.9888 0.951378C10.478 0.224073 9.59867 -0.127298 8.7127 0.0418791ZM9.54501 1.39918C9.86761 1.54939 10.0791 1.85596 10.0791 2.17332V2.3296L9.4541 2.30975C9.11034 2.29884 8.69961 2.30622 8.54134 2.32614L8.25363 2.36238V2.18971C8.25363 1.72686 8.6883 1.30604 9.16638 1.30604C9.27051 1.30604 9.42838 1.34485 9.54501 1.39918ZM10.4165 3.76179C12.3524 4.25983 13.8607 5.87525 14.3116 7.93362C14.3663 8.18296 14.3805 8.62565 14.4011 10.7106C14.4257 13.1891 14.4258 13.191 14.5183 13.4217C14.5776 13.5695 14.6949 13.7423 14.8443 13.902C15.1423 14.2207 15.4171 14.3501 15.9127 14.4055C16.339 14.4531 16.4944 14.5121 16.7136 14.7097C16.9245 14.8999 17.022 15.1161 17.0231 15.3962C17.0248 15.8156 16.7079 16.2386 16.3121 16.3452C16.2084 16.3731 13.8799 16.3831 9.08118 16.376L2.00325 16.3657L1.84451 16.28C1.28547 15.9784 1.13463 15.2673 1.53132 14.8039C1.7378 14.5626 1.97777 14.4549 2.41756 14.4058C3.01557 14.339 3.44631 14.0805 3.71022 13.6301C3.92114 13.2701 3.92797 13.1795 3.92797 10.7371C3.92797 8.21027 3.94714 7.9497 4.18584 7.23243C4.81342 5.34652 6.39066 3.99005 8.333 3.66567C8.56111 3.62761 8.87593 3.6142 9.30528 3.62432C9.85511 3.63725 10.0041 3.65567 10.4165 3.76179ZM10.7534 17.7646C10.7526 17.9101 10.5485 18.2638 10.3382 18.4843C9.83348 19.0134 9.09534 19.1457 8.43935 18.8244C8.16064 18.688 7.81023 18.3291 7.67768 18.0444C7.50009 17.6629 7.3625 17.6951 9.16638 17.6951C10.6519 17.6951 10.7537 17.6996 10.7534 17.7646Z" fill="#F87C56"/>
</svg>
