<svg width="22" height="24" viewBox="0 0 22 24" fill="none" xmlns="http://www.w3.org/2000/svg">
<path fill-rule="evenodd" clip-rule="evenodd" d="M1.81529 2.5416C1.81529 2.18262 2.1063 1.8916 2.46529 1.8916H15.73C16.089 1.8916 16.38 2.18262 16.38 2.5416V4.19489C16.38 4.23672 16.3759 4.27846 16.3679 4.31953L16.0662 5.86378C16.4162 7.58114 16.5722 9.32949 16.5722 11.0003C16.5722 12.0638 16.509 13.1585 16.3728 14.2563C16.8645 14.1849 17.364 14.2249 17.8027 14.3407C18.3827 14.4939 18.943 14.7951 19.3326 15.2387C19.7358 15.6977 19.957 16.3192 19.7778 17.0108C19.7749 17.0222 19.7716 17.0335 19.768 17.0448C19.3225 18.445 18.413 19.075 17.5262 19.5449C17.3436 19.6416 17.1677 19.73 16.998 19.8153C16.326 20.153 15.7528 20.4409 15.2605 20.9999C14.7975 21.5255 14.3009 21.8793 13.7757 22.0291C13.2344 22.1835 12.717 22.1048 12.2745 21.8608C11.6326 21.5069 11.1892 20.8371 10.9387 20.109H2.46529C2.1063 20.109 1.81529 19.8179 1.81529 19.459V17.8057C1.81529 17.7638 1.81933 17.7221 1.82735 17.681L2.1291 16.1368C1.77907 14.4194 1.62305 12.671 1.62305 11.0003C1.62305 9.32949 1.77906 7.58114 2.1291 5.86378L1.82735 4.31953C1.81933 4.27846 1.81529 4.23672 1.81529 4.19489V2.5416ZM10.6933 18.809C10.6569 17.9826 10.8395 17.106 11.3568 16.4104C12.0122 15.529 13.1063 15.0672 14.5882 15.2488C14.7067 15.0977 14.8372 14.9655 14.977 14.8508C15.1793 13.5588 15.2722 12.2578 15.2722 11.0003C15.2722 9.36814 15.1158 7.66374 14.767 6.00081C14.7492 5.91578 14.7486 5.82803 14.7652 5.74275L15.08 4.13197V3.1916H3.11529V4.13197L3.43004 5.74275C3.4467 5.82803 3.4461 5.91578 3.42826 6.00081C3.07949 7.66374 2.92305 9.36814 2.92305 11.0003C2.92305 12.6324 3.07949 14.3368 3.42826 15.9998C3.4461 16.0848 3.4467 16.1725 3.43004 16.2578L3.11529 17.8686V18.809H10.6933ZM14.7854 15.2764C14.7854 15.2764 14.7854 15.2764 14.7854 15.2764V15.2764ZM16.1267 15.6641C16.1556 15.6753 16.1844 15.6865 16.2129 15.6977C16.4332 15.7844 16.6512 15.8763 16.8573 15.9631L16.8701 15.9685C17.0827 16.0581 17.2818 16.1418 17.4727 16.2161C17.8662 16.3694 18.1638 16.4571 18.3863 16.4735C18.4503 16.4782 18.4993 16.4767 18.5372 16.4713C18.5237 16.3437 18.4648 16.2205 18.3559 16.0966C18.1742 15.8897 17.8621 15.701 17.4708 15.5976C16.9892 15.4705 16.5108 15.4944 16.1267 15.6641ZM17.9047 17.7131C17.5974 17.6478 17.2886 17.5396 17.001 17.4276C16.7906 17.3457 16.5751 17.2549 16.3653 17.1665L16.3588 17.1638C16.1484 17.0751 15.9427 16.9884 15.7369 16.9074C15.3175 16.7424 14.9326 16.6155 14.5834 16.5606C13.3706 16.3698 12.736 16.7343 12.3999 17.1862C12.0285 17.6856 11.9069 18.4445 12.0414 19.1974C12.1791 19.9681 12.5444 20.5251 12.9021 20.7223C13.0585 20.8085 13.2231 20.8349 13.4191 20.7789C13.6313 20.7184 13.9275 20.5465 14.2849 20.1407C14.9609 19.3732 15.8082 18.9519 16.4981 18.609C16.6463 18.5353 16.7871 18.4653 16.9175 18.3962C17.2997 18.1937 17.6316 17.9875 17.9047 17.7131ZM5.35502 9.96139V11.4813C6.71775 11.2268 7.831 11.4837 8.84394 11.7174L8.87168 11.7238C10.1387 12.0161 11.3138 12.2832 12.8406 12.028V10.5066C11.4135 10.7831 10.2653 10.5182 9.22609 10.2785L9.20158 10.2728C7.95707 9.9857 6.81662 9.72694 5.35502 9.96139ZM9.49378 9.00608L9.47159 9.00096C8.08107 8.68014 6.57511 8.33268 4.56044 8.79232C4.26476 8.85978 4.05502 9.12275 4.05502 9.42603V12.3186C4.05502 12.5269 4.15491 12.7227 4.32363 12.8449C4.49236 12.9672 4.70947 13.0011 4.90746 12.9362C6.31355 12.4754 7.36681 12.7108 8.57947 12.9905L8.60053 12.9954C10.0132 13.3213 11.5544 13.6769 13.6375 13.1938C13.932 13.1254 14.1406 12.863 14.1406 12.5606V9.66632C14.1406 9.45796 14.0407 9.26223 13.872 9.13997C13.7033 9.01771 13.4861 8.98376 13.2881 9.04865C11.8092 9.53338 10.7215 9.28927 9.49378 9.00608C9.49378 9.00608 9.49377 9.00608 9.49378 9.00608Z" fill="#3D3D3D"/>
</svg>
