<svg width="34" height="41" viewBox="0 0 34 41" fill="none" xmlns="http://www.w3.org/2000/svg">
<path d="M24.5 21C24.5 21.3978 24.342 21.7794 24.0607 22.0607C23.7794 22.342 23.3978 22.5 23 22.5H11C10.6022 22.5 10.2206 22.342 9.93934 22.0607C9.65804 21.7794 9.5 21.3978 9.5 21C9.5 20.6022 9.65804 20.2206 9.93934 19.9393C10.2206 19.658 10.6022 19.5 11 19.5H23C23.3978 19.5 23.7794 19.658 24.0607 19.9393C24.342 20.2206 24.5 20.6022 24.5 21ZM23 25.5H11C10.6022 25.5 10.2206 25.658 9.93934 25.9393C9.65804 26.2206 9.5 26.6022 9.5 27C9.5 27.3978 9.65804 27.7794 9.93934 28.0607C10.2206 28.342 10.6022 28.5 11 28.5H23C23.3978 28.5 23.7794 28.342 24.0607 28.0607C24.342 27.7794 24.5 27.3978 24.5 27C24.5 26.6022 24.342 26.2206 24.0607 25.9393C23.7794 25.658 23.3978 25.5 23 25.5ZM33.5 6V34.5C33.5 36.0913 32.8679 37.6174 31.7426 38.7426C30.6174 39.8679 29.0913 40.5 27.5 40.5H6.5C4.9087 40.5 3.38258 39.8679 2.25736 38.7426C1.13214 37.6174 0.5 36.0913 0.5 34.5V6C0.5 5.20435 0.81607 4.44129 1.37868 3.87868C1.94129 3.31607 2.70435 3 3.5 3H6.5V1.5C6.5 1.10218 6.65804 0.720644 6.93934 0.43934C7.22064 0.158035 7.60218 0 8 0C8.39782 0 8.77936 0.158035 9.06066 0.43934C9.34196 0.720644 9.5 1.10218 9.5 1.5V3H15.5V1.5C15.5 1.10218 15.658 0.720644 15.9393 0.43934C16.2206 0.158035 16.6022 0 17 0C17.3978 0 17.7794 0.158035 18.0607 0.43934C18.342 0.720644 18.5 1.10218 18.5 1.5V3H24.5V1.5C24.5 1.10218 24.658 0.720644 24.9393 0.43934C25.2206 0.158035 25.6022 0 26 0C26.3978 0 26.7794 0.158035 27.0607 0.43934C27.342 0.720644 27.5 1.10218 27.5 1.5V3H30.5C31.2956 3 32.0587 3.31607 32.6213 3.87868C33.1839 4.44129 33.5 5.20435 33.5 6ZM30.5 6H27.5V7.5C27.5 7.89782 27.342 8.27936 27.0607 8.56066C26.7794 8.84196 26.3978 9 26 9C25.6022 9 25.2206 8.84196 24.9393 8.56066C24.658 8.27936 24.5 7.89782 24.5 7.5V6H18.5V7.5C18.5 7.89782 18.342 8.27936 18.0607 8.56066C17.7794 8.84196 17.3978 9 17 9C16.6022 9 16.2206 8.84196 15.9393 8.56066C15.658 8.27936 15.5 7.89782 15.5 7.5V6H9.5V7.5C9.5 7.89782 9.34196 8.27936 9.06066 8.56066C8.77936 8.84196 8.39782 9 8 9C7.60218 9 7.22064 8.84196 6.93934 8.56066C6.65804 8.27936 6.5 7.89782 6.5 7.5V6H3.5V34.5C3.5 35.2956 3.81607 36.0587 4.37868 36.6213C4.94129 37.1839 5.70435 37.5 6.5 37.5H27.5C28.2956 37.5 29.0587 37.1839 29.6213 36.6213C30.1839 36.0587 30.5 35.2956 30.5 34.5V6Z" fill="#F87C56"/>
</svg>
