<svg width="25" height="25" viewBox="0 0 25 25" fill="none" xmlns="http://www.w3.org/2000/svg">
<path d="M21.4648 12.6914C21.4648 12.8903 21.3858 13.0811 21.2452 13.2217C21.1045 13.3624 20.9138 13.4414 20.7148 13.4414H13.2148V20.9414C13.2148 21.1403 13.1358 21.3311 12.9952 21.4717C12.8545 21.6124 12.6638 21.6914 12.4648 21.6914C12.2659 21.6914 12.0752 21.6124 11.9345 21.4717C11.7939 21.3311 11.7148 21.1403 11.7148 20.9414V13.4414H4.21484C4.01593 13.4414 3.82517 13.3624 3.68451 13.2217C3.54386 13.0811 3.46484 12.8903 3.46484 12.6914C3.46484 12.4925 3.54386 12.3017 3.68451 12.1611C3.82517 12.0204 4.01593 11.9414 4.21484 11.9414H11.7148V4.44141C11.7148 4.24249 11.7939 4.05173 11.9345 3.91108C12.0752 3.77042 12.2659 3.69141 12.4648 3.69141C12.6638 3.69141 12.8545 3.77042 12.9952 3.91108C13.1358 4.05173 13.2148 4.24249 13.2148 4.44141V11.9414H20.7148C20.9138 11.9414 21.1045 12.0204 21.2452 12.1611C21.3858 12.3017 21.4648 12.4925 21.4648 12.6914Z" fill="#FFF4E6"/>
</svg>
