<svg width="33" height="32" viewBox="0 0 33 32" fill="none" xmlns="http://www.w3.org/2000/svg">
<path d="M28.9661 16.0006C28.9661 16.2658 28.8608 16.5201 28.6732 16.7077C28.4857 16.8952 28.2313 17.0006 27.9661 17.0006H8.37987L15.6736 24.2931C15.7665 24.386 15.8402 24.4963 15.8905 24.6177C15.9408 24.7391 15.9667 24.8692 15.9667 25.0006C15.9667 25.132 15.9408 25.2621 15.8905 25.3835C15.8402 25.5048 15.7665 25.6151 15.6736 25.7081C15.5807 25.801 15.4704 25.8747 15.349 25.9249C15.2276 25.9752 15.0975 26.0011 14.9661 26.0011C14.8347 26.0011 14.7046 25.9752 14.5832 25.9249C14.4618 25.8747 14.3515 25.801 14.2586 25.7081L5.25862 16.7081C5.16564 16.6152 5.09188 16.5049 5.04156 16.3835C4.99123 16.2621 4.96533 16.132 4.96533 16.0006C4.96533 15.8691 4.99123 15.739 5.04156 15.6176C5.09188 15.4962 5.16564 15.3859 5.25862 15.2931L14.2586 6.29306C14.4463 6.10542 14.7008 6 14.9661 6C15.2315 6 15.486 6.10542 15.6736 6.29306C15.8613 6.4807 15.9667 6.73519 15.9667 7.00056C15.9667 7.26592 15.8613 7.52042 15.6736 7.70806L8.37987 15.0006H27.9661C28.2313 15.0006 28.4857 15.1059 28.6732 15.2934C28.8608 15.481 28.9661 15.7353 28.9661 16.0006Z" fill="#F2F2F2" stroke="white" stroke-width="2"/>
</svg>
