<svg width="48" height="48" viewBox="0 0 48 48" fill="none" xmlns="http://www.w3.org/2000/svg">
<path fill-rule="evenodd" clip-rule="evenodd" d="M22.6357 5.24243C20.773 5.53918 19.2298 6.26266 17.7804 7.51849C17.2804 7.95171 16.4565 8.92368 16.1007 9.50008L15.8587 9.89219L14.6013 9.89101C13.2114 9.88968 12.5834 9.98806 11.4634 10.3828C10.0763 10.8716 8.99418 11.5605 7.91662 12.6407C6.16525 14.3963 5.27131 16.3984 5.1486 18.8401C5.04654 20.8696 5.60339 22.85 6.76472 24.5879C7.24657 25.3091 8.4655 26.5123 9.23009 27.0215L9.83598 27.425L9.83848 33.581C9.84121 40.2676 9.83362 40.1327 10.2546 40.9628C10.518 41.4823 11.1584 42.1347 11.6751 42.4098C12.5753 42.8893 11.8604 42.863 24 42.863C36.1396 42.863 35.4247 42.8893 36.3249 42.4098C36.8416 42.1347 37.4821 41.4823 37.7455 40.9628C38.1666 40.1324 38.159 40.2685 38.16 33.581L38.161 27.425L38.7315 27.0585C39.4445 26.6005 40.742 25.3191 41.2333 24.5879C42.3936 22.8612 42.9536 20.8718 42.8514 18.8401C42.7292 16.4094 41.8188 14.3693 40.0859 12.6432C38.9714 11.533 37.9446 10.8791 36.5367 10.3829C35.4168 9.98813 34.7887 9.88968 33.3987 9.89101L32.1414 9.89219L31.8994 9.50008C31.7662 9.28447 31.4319 8.83466 31.1564 8.50063C29.1195 6.03106 25.7566 4.7451 22.6357 5.24243ZM25.7069 7.70234C27.0215 8.04751 28.0525 8.64447 29.0173 9.61931C30.29 10.905 30.9204 12.3238 31.0699 14.2392C31.1347 15.0678 31.2104 15.2477 31.6241 15.5564C31.9097 15.7694 32.6092 15.7694 32.8948 15.5564C33.3413 15.2233 33.403 15.062 33.3963 14.2468C33.3929 13.8347 33.3349 13.237 33.2672 12.9186C33.1997 12.6002 33.1444 12.305 33.1444 12.2627C33.1444 12.1449 34.4868 12.2511 35.1463 12.4211C36.4502 12.7574 37.4897 13.3585 38.4567 14.3355C39.4056 15.2941 40.0152 16.3803 40.3495 17.708C40.5403 18.4662 40.5188 20.2234 40.309 21.014C40.1017 21.7949 39.4384 23.1083 38.9513 23.7025C38.4375 24.3292 37.6044 25.0205 36.8598 25.4381C36.2066 25.8045 35.9982 25.9886 35.8779 26.306C35.8262 26.4423 35.7992 27.7011 35.7992 29.9721V33.4307H24H12.2008V29.9721C12.2008 27.7011 12.1738 26.4423 12.1221 26.306C12.0018 25.9886 11.7935 25.8045 11.1402 25.4381C9.37072 24.4457 8.13984 22.8284 7.65283 20.8558C7.47842 20.1492 7.47739 18.4007 7.65106 17.708C7.98328 16.383 8.59396 15.2945 9.54336 14.3355C10.5122 13.3566 11.5494 12.7572 12.8496 12.4249C13.5184 12.2539 14.8556 12.1458 14.8556 12.2627C14.8556 12.305 14.8003 12.6002 14.7328 12.9186C14.6652 13.237 14.6071 13.8347 14.6037 14.2468C14.597 15.062 14.6587 15.2233 15.1053 15.5564C15.3908 15.7694 16.0904 15.7694 16.3759 15.5564C16.7897 15.2477 16.8653 15.0678 16.9301 14.2392C17.0815 12.301 17.7144 10.8915 19.0185 9.58836C20.1771 8.43062 21.2659 7.88532 23.1151 7.53684C23.5475 7.45526 25.1576 7.55813 25.7069 7.70234ZM35.7842 37.7659L35.7623 39.743L35.5498 40.0212C35.1517 40.5425 36.003 40.5084 23.8954 40.4873C12.9695 40.4681 12.9487 40.4678 12.7454 40.3162C12.6334 40.2326 12.4734 40.0728 12.3898 39.9609C12.2464 39.7692 12.2364 39.6441 12.2159 37.7732L12.194 35.7888H24H35.806L35.7842 37.7659Z" fill="#F87C56" stroke="#F87C56" stroke-width="0.4"/>
</svg>
