<svg width="24" height="25" viewBox="0 0 24 25" fill="none" xmlns="http://www.w3.org/2000/svg">
<path fill-rule="evenodd" clip-rule="evenodd" d="M11.3179 3.29407C10.3865 3.44244 9.61488 3.80418 8.89022 4.4321C8.64019 4.64871 8.22825 5.13469 8.05034 5.42289L7.92933 5.61894L7.30065 5.61836C6.60571 5.61769 6.29171 5.66688 5.73169 5.86426C5.03816 6.10865 4.49709 6.45311 3.95831 6.99319C3.08262 7.87098 2.63566 8.87206 2.5743 10.0929C2.52327 11.1077 2.80169 12.0979 3.38236 12.9668C3.62329 13.3274 4.23275 13.929 4.61504 14.1836L4.91799 14.3853L4.91924 17.4634C4.92061 20.8066 4.91681 20.7392 5.12728 21.1542C5.25898 21.414 5.57922 21.7402 5.83755 21.8778C6.28765 22.1175 5.93021 22.1044 12 22.1044C18.0698 22.1044 17.7124 22.1175 18.1625 21.8778C18.4208 21.7402 18.741 21.414 18.8727 21.1542C19.0833 20.739 19.0795 20.8071 19.08 17.4634L19.0805 14.3853L19.3658 14.2021C19.7222 13.9731 20.371 13.3324 20.6167 12.9668C21.1968 12.1034 21.4768 11.1088 21.4257 10.0929C21.3646 8.87755 20.9094 7.8575 20.043 6.99444C19.4857 6.43937 18.9723 6.11241 18.2683 5.8643C17.7084 5.66692 17.3943 5.61769 16.6994 5.61836L16.0707 5.61894L15.9497 5.42289C15.8831 5.31508 15.7159 5.09018 15.5782 4.92316C14.5598 3.68838 12.8783 3.0454 11.3179 3.29407ZM12.8535 4.52402C13.5107 4.69661 14.0262 4.99509 14.5087 5.48251C15.145 6.12534 15.4602 6.83475 15.535 7.79243C15.5673 8.20675 15.6052 8.29669 15.8121 8.45103C15.9548 8.55755 16.3046 8.55755 16.4474 8.45103C16.6706 8.28449 16.7015 8.20384 16.6982 7.79626C16.6965 7.59022 16.6674 7.29137 16.6336 7.13217C16.5998 6.97296 16.5722 6.82536 16.5722 6.80421C16.5722 6.74529 17.2434 6.79839 17.5731 6.88343C18.2251 7.05155 18.7448 7.35209 19.2283 7.84058C19.7028 8.3199 20.0076 8.86299 20.1747 9.52687C20.2702 9.90593 20.2594 10.7846 20.1545 11.1798C20.0509 11.5703 19.7192 12.227 19.4756 12.5241C19.2188 12.8375 18.8022 13.1831 18.4299 13.3919C18.1033 13.5751 17.9991 13.6672 17.9389 13.8259C17.9131 13.894 17.8996 14.5234 17.8996 15.6589V17.3882H12H6.10041V15.6589C6.10041 14.5234 6.08692 13.894 6.06107 13.8259C6.0009 13.6672 5.89673 13.5751 5.57011 13.3919C4.68536 12.8957 4.06992 12.0871 3.82642 11.1007C3.73921 10.7475 3.7387 9.87321 3.82553 9.52687C3.99164 8.86436 4.29698 8.32012 4.77168 7.84058C5.25611 7.35117 5.77472 7.05148 6.42478 6.8853C6.75921 6.79982 7.42782 6.74577 7.42782 6.80421C7.42782 6.82536 7.40017 6.97296 7.36639 7.13217C7.33258 7.29137 7.30356 7.59022 7.30187 7.79626C7.29851 8.20384 7.32937 8.28449 7.55264 8.45103C7.69541 8.55755 8.04518 8.55755 8.18795 8.45103C8.39484 8.29669 8.43267 8.20675 8.46505 7.79243C8.54074 6.82333 8.85718 6.1186 9.50927 5.46703C10.0885 4.88816 10.633 4.61551 11.5575 4.44127C11.7738 4.40048 12.5788 4.45192 12.8535 4.52402ZM17.8921 19.5558L17.8812 20.5443L17.7749 20.6835C17.5759 20.9441 18.0015 20.9271 11.9477 20.9165C6.48477 20.9069 6.47434 20.9068 6.37272 20.8309C6.31671 20.7891 6.2367 20.7092 6.19488 20.6533C6.1232 20.5575 6.11822 20.4949 6.10794 19.5594L6.09702 18.5673H12H17.903L17.8921 19.5558Z" fill="white" stroke="white" stroke-width="0.2"/>
</svg>
