<svg width="17" height="17" viewBox="0 0 17 17" fill="none" xmlns="http://www.w3.org/2000/svg">
<path d="M15.0664 6.71094C15.0664 11.0859 8.57953 14.6272 8.30328 14.7734C8.23047 14.8126 8.14908 14.8331 8.06641 14.8331C7.98373 14.8331 7.90234 14.8126 7.82953 14.7734C7.55328 14.6272 1.06641 11.0859 1.06641 6.71094C1.06756 5.68358 1.47619 4.69863 2.20265 3.97218C2.9291 3.24573 3.91405 2.8371 4.94141 2.83594C6.23203 2.83594 7.36203 3.39094 8.06641 4.32906C8.77078 3.39094 9.90078 2.83594 11.1914 2.83594C12.2188 2.8371 13.2037 3.24573 13.9302 3.97218C14.6566 4.69863 15.0652 5.68358 15.0664 6.71094Z" fill="#E74F44"/>
</svg>