<svg width="18" height="18" viewBox="0 0 18 18" fill="none" xmlns="http://www.w3.org/2000/svg">
<path d="M15.3975 14.6025C15.5028 14.708 15.562 14.8509 15.562 15C15.562 15.1491 15.5028 15.292 15.3975 15.3975C15.2991 15.4959 12.9375 17.8125 9 17.8125C5.28188 17.8125 2.66344 15.3984 1.3125 13.7569V16.5C1.3125 16.6492 1.25324 16.7923 1.14775 16.8977C1.04226 17.0032 0.899184 17.0625 0.75 17.0625C0.600816 17.0625 0.457742 17.0032 0.352252 16.8977C0.246763 16.7923 0.1875 16.6492 0.1875 16.5V12C0.1875 11.8508 0.246763 11.7077 0.352252 11.6023C0.457742 11.4968 0.600816 11.4375 0.75 11.4375H5.25C5.39918 11.4375 5.54226 11.4968 5.64775 11.6023C5.75324 11.7077 5.8125 11.8508 5.8125 12C5.8125 12.1492 5.75324 12.2923 5.64775 12.3977C5.54226 12.5032 5.39918 12.5625 5.25 12.5625H1.81406C2.88375 13.9791 5.39813 16.6875 9 16.6875C12.4772 16.6875 14.5819 14.625 14.6025 14.6025C14.708 14.4972 14.8509 14.438 15 14.438C15.1491 14.438 15.292 14.4972 15.3975 14.6025ZM17.25 0.9375C17.1008 0.9375 16.9577 0.996763 16.8523 1.10225C16.7468 1.20774 16.6875 1.35082 16.6875 1.5V4.24312C15.3366 2.60156 12.7181 0.1875 9 0.1875C5.0625 0.1875 2.70094 2.50406 2.6025 2.6025C2.50314 2.70913 2.44905 2.85017 2.45162 2.99589C2.45419 3.14162 2.51322 3.28066 2.61628 3.38372C2.71934 3.48678 2.85838 3.54581 3.00411 3.54838C3.14983 3.55095 3.29087 3.49686 3.3975 3.3975C3.41812 3.375 5.52281 1.3125 9 1.3125C12.6019 1.3125 15.1162 4.02094 16.1859 5.4375H12.75C12.6008 5.4375 12.4577 5.49676 12.3523 5.60225C12.2468 5.70774 12.1875 5.85082 12.1875 6C12.1875 6.14918 12.2468 6.29226 12.3523 6.39775C12.4577 6.50324 12.6008 6.5625 12.75 6.5625H17.25C17.3992 6.5625 17.5423 6.50324 17.6477 6.39775C17.7532 6.29226 17.8125 6.14918 17.8125 6V1.5C17.8125 1.35082 17.7532 1.20774 17.6477 1.10225C17.5423 0.996763 17.3992 0.9375 17.25 0.9375Z" fill="#646464"/>
</svg>
