<svg width="25" height="24" viewBox="0 0 25 24" fill="none" xmlns="http://www.w3.org/2000/svg">
<path fill-rule="evenodd" clip-rule="evenodd" d="M3.08862 11.5005C3.08862 16.333 7.00613 20.2505 11.8386 20.2505C16.6711 20.2505 20.5886 16.333 20.5886 11.5005C20.5886 6.668 16.6711 2.75049 11.8386 2.75049C7.00613 2.75049 3.08862 6.668 3.08862 11.5005ZM11.8386 21.7505C6.1777 21.7505 1.58862 17.1614 1.58862 11.5005C1.58862 5.83957 6.1777 1.25049 11.8386 1.25049C17.4995 1.25049 22.0886 5.83957 22.0886 11.5005C22.0886 14.061 21.1497 16.4022 19.5975 18.1987L22.8689 21.4702C23.1618 21.7631 23.1618 22.2379 22.8689 22.5308C22.576 22.8237 22.1012 22.8237 21.8083 22.5308L18.5368 19.2594C16.7403 20.8116 14.3991 21.7505 11.8386 21.7505Z" fill="#777777"/>
</svg>
