<svg width="24" height="22" viewBox="0 0 24 22" fill="none" xmlns="http://www.w3.org/2000/svg">
<path d="M11.1778 1.22002C11.4772 0.298708 12.7806 0.298709 13.08 1.22002L15.0344 7.23526C15.1683 7.64728 15.5523 7.92624 15.9855 7.92624H22.3103C23.279 7.92624 23.6818 9.16586 22.8981 9.73526L17.7812 13.4529C17.4307 13.7075 17.2841 14.1589 17.4179 14.5709L19.3724 20.5862C19.6718 21.5075 18.6173 22.2736 17.8336 21.7042L12.7167 17.9866C12.3662 17.7319 11.8916 17.7319 11.5411 17.9866L6.42425 21.7042C5.64054 22.2736 4.58606 21.5075 4.88541 20.5862L6.83988 14.5709C6.97375 14.1589 6.8271 13.7075 6.47661 13.4529L1.35974 9.73526C0.576024 9.16586 0.978801 7.92624 1.94752 7.92624H8.27232C8.70555 7.92624 9.08951 7.64728 9.22338 7.23526L11.1778 1.22002Z" fill="#3D3D3D"/>
</svg>
