<svg width="20" height="17" viewBox="0 0 20 17" fill="none" xmlns="http://www.w3.org/2000/svg">
<path fill-rule="evenodd" clip-rule="evenodd" d="M5.37092 1.84376C2.81309 2.74778 0.674637 3.52092 0.618799 3.56181C0.491795 3.65486 0.383301 3.86319 0.383301 4.01395C0.383301 4.17464 0.495972 4.38143 0.633439 4.47307C0.697286 4.51564 1.57164 4.84231 2.57644 5.19903L4.40337 5.84758L4.41487 7.8242L4.42632 9.80081L4.51711 9.98522C4.75606 10.4705 5.42484 10.8802 6.51925 11.2118C8.70657 11.8745 11.6814 11.8759 13.8624 11.2153C14.9561 10.8841 15.6323 10.4699 15.8709 9.98522L15.9617 9.80081L15.9732 7.82554L15.9847 5.85026L16.6798 5.60277C17.0621 5.46664 17.3975 5.34972 17.4252 5.3429C17.4663 5.33274 17.4755 5.80067 17.4755 7.9179V10.5053L17.2436 10.6289C16.4128 11.0717 16.0958 12.0595 16.5083 12.9198C16.6386 13.1914 17.012 13.5657 17.2737 13.6869L17.4724 13.779L17.4836 14.9776C17.4942 16.1272 17.498 16.1806 17.5753 16.2844C17.8228 16.6162 18.2779 16.6162 18.5254 16.2844C18.6028 16.1806 18.6065 16.1272 18.6172 14.9776L18.6283 13.779L18.8265 13.6869C18.9356 13.6363 19.1222 13.4998 19.2413 13.3836C20.0886 12.557 19.8934 11.1813 18.8501 10.6252L18.6247 10.505L18.6346 7.70524L18.6444 4.90547L19.1581 4.7214C19.4407 4.62015 19.7167 4.50457 19.7713 4.46456C20.0937 4.22845 20.0626 3.73193 19.7126 3.52693C19.6512 3.49095 17.5404 2.73383 15.022 1.84441C11.6147 0.641092 10.3892 0.223864 10.2323 0.213708C10.0366 0.201061 9.68995 0.317297 5.37092 1.84376ZM13.8603 2.65764C15.8381 3.35547 17.5081 3.9475 17.5713 3.97325L17.6863 4.02001L17.4755 4.09796C17.3596 4.1408 15.6748 4.74064 13.7316 5.43096L10.1984 6.68602L8.23212 5.98731C5.59592 5.05053 4.82244 4.77613 3.74382 4.39508C3.24197 4.21779 2.80489 4.05791 2.77251 4.03978C2.73089 4.01648 2.9427 3.92577 3.4933 3.73093C3.92214 3.57921 5.5837 2.99132 7.18562 2.42452C8.78755 1.85767 10.1356 1.39277 10.1813 1.39135C10.2269 1.38994 11.8825 1.95977 13.8603 2.65764ZM7.87782 7.08363C9.73291 7.74318 10.1234 7.87007 10.2515 7.85485C10.3358 7.84485 11.3798 7.48963 12.5715 7.06543C13.7631 6.64126 14.7591 6.2942 14.7847 6.2942C14.8204 6.2942 14.8312 6.66648 14.8312 7.90184V9.50947L14.7066 9.60295C14.1841 9.99507 12.8682 10.3595 11.4204 10.5129C10.5466 10.6056 9.14058 10.5608 8.18203 10.41C7.12208 10.2431 6.09102 9.91034 5.68142 9.60295L5.55687 9.50947V7.90184C5.55687 6.60079 5.56645 6.2942 5.60715 6.2942C5.63482 6.2942 6.6566 6.64942 7.87782 7.08363ZM18.3609 11.6699C18.6177 11.8414 18.6998 12.1901 18.539 12.4264C18.3449 12.7115 18.0873 12.7944 17.8108 12.6605C17.2619 12.3948 17.4424 11.5829 18.0504 11.5829C18.174 11.5829 18.2716 11.6102 18.3609 11.6699Z" fill="white"/>
</svg>
