<svg width="24" height="24" viewBox="0 0 24 24" fill="none" xmlns="http://www.w3.org/2000/svg">
<path d="M21.2591 6.46862C21.2136 6.35617 21.1415 6.25644 21.049 6.17797C20.9565 6.09951 20.8463 6.04465 20.728 6.0181C20.6096 5.99155 20.4866 5.99411 20.3694 6.02555C20.2522 6.05699 20.1445 6.11638 20.0553 6.19862L16.2772 9.68518L14.6619 9.33831L14.315 7.72299L17.8016 3.94487C17.8838 3.85571 17.9432 3.74793 17.9746 3.63077C18.0061 3.51362 18.0086 3.39058 17.9821 3.27222C17.9555 3.15386 17.9007 3.04371 17.8222 2.95121C17.7437 2.8587 17.644 2.78661 17.5316 2.74112C16.5068 2.32659 15.3959 2.17007 14.2965 2.28532C13.1972 2.40058 12.1429 2.78407 11.2264 3.4021C10.3099 4.02014 9.55919 4.85381 9.04027 5.82985C8.52135 6.8059 8.25009 7.89445 8.2503 8.99987C8.24909 9.93332 8.44059 10.857 8.8128 11.713L3.16812 16.5936C3.15405 16.6049 3.14093 16.618 3.1278 16.6302C2.56513 17.1929 2.24902 17.956 2.24902 18.7517C2.24902 19.1458 2.32663 19.5359 2.47741 19.8999C2.62819 20.2639 2.8492 20.5947 3.1278 20.8733C3.40641 21.1519 3.73717 21.3729 4.10118 21.5237C4.4652 21.6745 4.85536 21.7521 5.24937 21.7521C6.04511 21.7521 6.80826 21.436 7.37093 20.8733C7.38312 20.8611 7.39624 20.8471 7.40749 20.8339L12.2872 15.1874C13.3151 15.6386 14.4393 15.8263 15.558 15.7336C16.6768 15.6408 17.7547 15.2705 18.6943 14.6562C19.6338 14.0418 20.4053 13.2029 20.9389 12.2152C21.4726 11.2276 21.7514 10.1224 21.7503 8.99987C21.7518 8.13229 21.5849 7.27267 21.2591 6.46862ZM15.0003 14.2499C14.1126 14.2487 13.2395 14.0229 12.4625 13.5936C12.3119 13.5105 12.1374 13.4816 11.9681 13.5118C11.7988 13.542 11.645 13.6295 11.5325 13.7596L6.29187 19.8289C6.00827 20.0984 5.63065 20.2463 5.23951 20.2413C4.84836 20.2363 4.47465 20.0787 4.19805 19.8021C3.92145 19.5255 3.76384 19.1518 3.75883 18.7607C3.75382 18.3695 3.90181 17.9919 4.17124 17.7083L10.2359 12.4686C10.3663 12.3561 10.4539 12.2021 10.4841 12.0326C10.5143 11.8631 10.4853 11.6883 10.4019 11.5377C9.92377 10.673 9.6994 9.69089 9.75455 8.70435C9.8097 7.71781 10.1421 6.76686 10.7136 5.96082C11.2851 5.15479 12.0725 4.5264 12.9852 4.14788C13.8979 3.76937 14.8989 3.65611 15.8731 3.82112L12.9481 6.99081C12.8667 7.07909 12.8077 7.18563 12.7761 7.30146C12.7444 7.41729 12.7411 7.53903 12.7662 7.65643L13.2969 10.1249C13.3272 10.266 13.3977 10.3955 13.4998 10.4976C13.6019 10.5997 13.7313 10.6701 13.8725 10.7005L16.3428 11.2311C16.4602 11.2563 16.5819 11.2529 16.6978 11.2213C16.8136 11.1896 16.9201 11.1306 17.0084 11.0492L20.1781 8.12424C20.3045 8.87706 20.2653 9.64838 20.0634 10.3845C19.8615 11.1207 19.5016 11.804 19.0088 12.387C18.516 12.97 17.9022 13.4386 17.2099 13.7603C16.5177 14.0821 15.7637 14.2491 15.0003 14.2499Z" fill="#F2F2F2"/>
</svg>
