<svg width="151" height="148" viewBox="0 0 151 148" fill="none" xmlns="http://www.w3.org/2000/svg">
<g filter="url(#filter0_d_1602_62805)">
<path d="M73.1683 14.9104L58.0046 10.044L31.6948 17.3813L25.2531 26.0026C20.1638 37.6199 9.59823 63.1931 8.05022 72.5473C6.50221 81.9016 17.0707 108.93 22.5485 121.275C41.5006 127.592 80.2243 140.407 83.5016 141.133C86.7789 141.858 108.481 131.505 118.922 126.239C125.874 115.577 139.938 93.0793 140.574 88.3835C141.369 82.5137 141.538 44.9139 135.97 31.5019C131.516 20.7722 110.824 13.7978 101.035 11.6517L73.1683 14.9104Z" fill="white"/>
</g>
<g clip-path="url(#clip0_1602_62805)">
<path d="M127.903 54.1018C127.816 49.7794 126.475 38.7319 115.862 31.0958C108.362 25.6959 99.4728 23.3539 85.9961 23.9547C78.6251 24.2828 71.8705 31.7204 69.6526 34.2973C68.9003 32.3686 60.1416 26.3538 52.2838 26.8917C42.293 27.5764 37.4157 33.0322 34.492 39.1741C25.7973 57.4364 22.676 74.818 22.6219 93.9868C22.5985 102.345 24.3753 110.769 36.8409 115.041C47.3511 118.641 47.5617 114.232 52.1256 115.396C57.0494 116.653 50.6112 119.082 63.3648 122.174C85.1322 127.451 103.074 120.822 114.273 109.658C122.552 101.401 124.415 84.6078 126.356 73.945C127.443 67.9723 128.03 60.2141 127.905 54.102" fill="#F87C56"/>
<path d="M69.5422 37.5491C70.3537 33.619 67.7513 29.5532 64.2006 27.2755C60.6482 24.9975 56.3146 24.156 52.0904 23.5312C46.9379 22.7703 41.6393 22.2583 36.5684 23.2807C38.0734 27.0064 39.8772 30.6653 42.449 33.8416C45.0211 37.0162 48.3921 39.7773 52.4137 41.0034C60.4099 43.4388 69.5425 37.5474 69.5425 37.5474" fill="#20AD67"/>
</g>
<defs>
<filter id="filter0_d_1602_62805" x="4.89697" y="10.0449" width="139.086" height="137.123" filterUnits="userSpaceOnUse" color-interpolation-filters="sRGB">
<feFlood flood-opacity="0" result="BackgroundImageFix"/>
<feColorMatrix in="SourceAlpha" type="matrix" values="0 0 0 0 0 0 0 0 0 0 0 0 0 0 0 0 0 0 127 0" result="hardAlpha"/>
<feOffset dy="3"/>
<feGaussianBlur stdDeviation="1.5"/>
<feComposite in2="hardAlpha" operator="out"/>
<feColorMatrix type="matrix" values="0 0 0 0 0 0 0 0 0 0 0 0 0 0 0 0 0 0 0.2 0"/>
<feBlend mode="normal" in2="BackgroundImageFix" result="effect1_dropShadow_1602_62805"/>
<feBlend mode="normal" in="SourceGraphic" in2="effect1_dropShadow_1602_62805" result="shape"/>
</filter>
<clipPath id="clip0_1602_62805">
<rect width="101.532" height="101.969" fill="white" transform="translate(31.9053 15.3789) rotate(7.71187)"/>
</clipPath>
</defs>
</svg>
