<svg width="110" height="139" viewBox="0 0 110 139" fill="none" xmlns="http://www.w3.org/2000/svg">
<path opacity="0.5" d="M91.1389 32.0244C90.8041 31.2666 89.9185 30.9236 89.1607 31.2584C88.4029 31.5931 88.0599 32.4788 88.3947 33.2366L91.1389 32.0244ZM76.4669 136.61C76.4988 137.438 77.1957 138.084 78.0235 138.052L91.5135 137.532C92.3413 137.5 92.9866 136.804 92.9547 135.976C92.9228 135.148 92.2259 134.503 91.3981 134.535L79.407 134.996L78.9454 123.005C78.9135 122.177 78.2166 121.532 77.3888 121.564C76.561 121.596 75.9157 122.293 75.9476 123.12L76.4669 136.61ZM89.7668 32.6305C88.3947 33.2366 88.3945 33.2361 88.3943 33.2358C88.3943 33.2358 88.3942 33.2355 88.3942 33.2355C88.3942 33.2355 88.3943 33.2357 88.3946 33.2363C88.3951 33.2375 88.3961 33.2399 88.3977 33.2436C88.4009 33.251 88.4063 33.2633 88.4137 33.2806C88.4285 33.3152 88.4515 33.3696 88.4822 33.4437C88.5434 33.5919 88.6351 33.8186 88.7518 34.122C88.9853 34.7289 89.3193 35.6427 89.7116 36.8491C90.4963 39.2621 91.5145 42.8454 92.4305 47.4856C94.2625 56.7655 95.6859 70.2727 94.0168 87.1054L97.0021 87.4014C98.7037 70.2425 97.2558 56.4383 95.3737 46.9046C94.4328 42.138 93.3833 38.439 92.5645 35.9214C92.1552 34.6625 91.8034 33.6989 91.5517 33.0447C91.4259 32.7176 91.325 32.4679 91.2544 32.2972C91.2191 32.2119 91.1914 32.1463 91.1719 32.1008C91.1622 32.078 91.1545 32.0603 91.149 32.0475C91.1462 32.0411 91.144 32.036 91.1423 32.0322C91.1414 32.0302 91.1407 32.0286 91.1402 32.0273C91.1399 32.0267 91.1396 32.0259 91.1394 32.0256C91.1391 32.025 91.1389 32.0244 89.7668 32.6305ZM94.0168 87.1054C92.35 103.913 88.0169 116.065 84.1271 123.989C82.1815 127.952 80.3451 130.861 79.0056 132.768C78.3358 133.721 77.7903 134.424 77.4173 134.883C77.2309 135.112 77.0876 135.28 76.9935 135.389C76.9465 135.443 76.9118 135.482 76.8901 135.506C76.8793 135.518 76.8717 135.526 76.8675 135.531C76.8654 135.533 76.8642 135.535 76.8638 135.535C76.8636 135.535 76.8636 135.535 76.8638 135.535C76.8639 135.535 76.8643 135.535 76.8643 135.535C76.8647 135.534 76.8651 135.534 77.9658 136.553C79.0665 137.572 79.067 137.571 79.0676 137.571C79.0679 137.57 79.0686 137.57 79.0691 137.569C79.0702 137.568 79.0715 137.566 79.073 137.565C79.076 137.561 79.0799 137.557 79.0847 137.552C79.0941 137.542 79.1069 137.528 79.123 137.51C79.1552 137.474 79.2005 137.423 79.2581 137.356C79.3733 137.224 79.5378 137.03 79.7455 136.775C80.1608 136.264 80.7488 135.505 81.4604 134.492C82.8836 132.466 84.8012 129.424 86.8201 125.311C90.8594 117.083 95.2981 104.585 97.0021 87.4014L94.0168 87.1054Z" fill="#A59176"/>
<path opacity="0.5" d="M27.1989 0.718911C26.6873 0.0673149 25.7444 -0.0461923 25.0928 0.465387C24.4412 0.976966 24.3277 1.91991 24.8392 2.5715L27.1989 0.718911ZM54.6961 102.888C55.2425 103.511 56.1902 103.573 56.8129 103.026L66.96 94.1221C67.5827 93.5757 67.6445 92.6279 67.0981 92.0052C66.5517 91.3826 65.604 91.3208 64.9813 91.8672L55.9616 99.7821L48.0467 90.7624C47.5003 90.1398 46.5526 90.0779 45.9299 90.6243C45.3072 91.1708 45.2454 92.1185 45.7918 92.7412L54.6961 102.888ZM26.0191 1.64521C24.8392 2.5715 24.839 2.57116 24.8387 2.57086C24.8387 2.57083 24.8385 2.57059 24.8385 2.57054C24.8384 2.57042 24.8385 2.57052 24.8387 2.57083C24.8392 2.57144 24.8403 2.57289 24.8421 2.57519C24.8457 2.57978 24.8518 2.58774 24.8605 2.59909C24.878 2.62179 24.9056 2.65804 24.9431 2.70801C25.0181 2.80794 25.1326 2.96272 25.2837 3.17359C25.586 3.59532 26.035 4.24145 26.6085 5.12193C27.7555 6.88285 29.4007 9.58141 31.3662 13.2973C35.2971 20.7287 40.5106 32.2317 45.5828 48.4447L48.4459 47.549C43.3193 31.1617 38.0352 19.489 34.0181 11.8946C32.0097 8.09761 30.3183 5.32079 29.1223 3.48456C28.5242 2.56647 28.0501 1.88358 27.7221 1.42594C27.5581 1.19712 27.4306 1.02462 27.3425 0.907194C27.2984 0.848483 27.2642 0.80354 27.2402 0.772212C27.2281 0.756547 27.2186 0.744286 27.2118 0.73541C27.2083 0.730971 27.2055 0.727377 27.2034 0.724631C27.2023 0.723256 27.2014 0.722091 27.2006 0.721139C27.2003 0.720662 27.1998 0.720104 27.1996 0.719867C27.1992 0.719362 27.1989 0.718911 26.0191 1.64521ZM45.5828 48.4447C50.6486 64.6373 52.8323 78.0111 53.7508 87.3202C54.21 91.9748 54.3528 95.6128 54.3814 98.0785C54.3957 99.3113 54.3815 100.251 54.3639 100.878C54.3552 101.191 54.3456 101.427 54.3383 101.581C54.3347 101.659 54.3317 101.716 54.3296 101.753C54.3286 101.771 54.3278 101.784 54.3273 101.792C54.327 101.797 54.3269 101.799 54.3268 101.801C54.3267 101.801 54.3267 101.802 54.3267 101.802C54.3267 101.802 54.3267 101.802 54.3267 101.802C54.3267 101.802 54.3267 101.801 55.8236 101.899C57.3204 101.997 57.3204 101.996 57.3204 101.995C57.3205 101.995 57.3205 101.994 57.3205 101.994C57.3206 101.993 57.3207 101.991 57.3208 101.989C57.3211 101.986 57.3214 101.981 57.3218 101.974C57.3225 101.962 57.3236 101.944 57.3249 101.921C57.3274 101.875 57.331 101.809 57.335 101.722C57.3432 101.549 57.3535 101.295 57.3628 100.962C57.3814 100.297 57.396 99.3173 57.3812 98.0437C57.3517 95.4965 57.2045 91.7716 56.7363 87.0257C55.7998 77.5338 53.579 63.9566 48.4459 47.549L45.5828 48.4447Z" fill="#A59176"/>
</svg>
