<svg width="290" height="142" viewBox="0 0 290 142" fill="none" xmlns="http://www.w3.org/2000/svg">
<path d="M12.4853 82.9066L16.9166 79.1639L14.3017 75.2814L13.9324 68.864L17.4955 66.0694L20.3899 63.734L19.9507 58.9633L17.7451 56.7276L13.8027 53.2744L10.6389 46.9068L10.9383 40.0302L8.48309 36.3873L10.9483 32.4051L10.9183 28.7422L9.27159 29.6205L5.40913 35.3493L5.98796 40.7888L7.44508 44.9606L7.96409 51.7074L10.9483 54.7914L10.06 63.6043L5.40913 64.8818L6.06776 68.6843L8.05388 72.0477L6.13769 74.4231L1.21723 81.7488L2.00574 82.6071L1.0675 85.1922L0.87793 89.4439L4.10162 94.5139L5.92802 97.7077L10.8485 105.143L11.567 106.76L9.40135 93.4361L12.4853 82.9066Z" fill="#D3BB90"/>
<path d="M17.4355 15.7069L20.9886 13.2416L21.2979 6.20538L15.5093 0.476562L15.2298 2.4826L13.593 6.02574L15.1799 7.403L15.1699 11.3454L10.0998 14.5591L9.5708 22.9028L10.6686 23.9608L15.6091 19.8887L17.4355 15.7069Z" fill="#D3BB90"/>
<path d="M272.049 129.825L261.819 131.182L252.357 129.865L241.758 132.28L221.128 131.372L206.477 128.827L199.87 129.755L189.53 126.172L178.94 124.365L185.009 128.437L193.143 129.944L198.173 131.182L200.588 132.08L204.191 132.24L214.202 135.963L216.507 135.573L222.635 137.979L234.771 138.188L236.478 140.224L244.622 141.572L251.05 137.1L255.97 137.32L258.964 136.302L261.699 137.569L268.815 136.002L280.602 136.531L289.545 132.409L278.516 131.92L272.049 129.825Z" fill="#D3BB90"/>
<path d="M147.831 127.12L126.922 125.044L112.091 126.681L103.248 126.292L97.5992 127.849L85.6524 127.32L78.7759 127.011L67.5478 124.875L65.0227 122.629L54.4532 120.693L48.3053 118.587L42.4168 118.327L32.8555 116.91L34.103 117.16L44.0836 121.382L50.4212 122.639L56.9783 122.928L68.2064 132.29L76.7299 132.34L78.746 131.282L88.0278 132.839L90.5229 132.13L102.011 131.981L105.554 129.835L123.429 129.975L129.088 128.118L151.205 129.106L154.029 127.889L161.075 128.028L162.423 127.11L168.012 127.03L170.387 125.823L159.878 125.354L147.831 127.12Z" fill="#D3BB90"/>
</svg>
