<svg width="232" height="195" viewBox="0 0 232 195" fill="none" xmlns="http://www.w3.org/2000/svg">
<g style="mix-blend-mode:darken">
<path d="M133.081 27.66C135.189 28.8975 136.484 32.6238 136.624 35.7043C136.766 38.7874 136.091 41.5108 135.826 44.4258C135.307 50.1683 136.385 56.5069 137.25 62.6733C138.414 70.9765 152.003 121.471 142.241 140.189C132.261 159.326 113.394 164.311 96.4514 170.143C86.2222 173.664 61.3174 179.673 51.1016 175.364C48.2908 174.18 42.7424 182.554 41.9676 182.811C40.5189 183.295 38.7 183.642 37.3988 181.806C36.3469 180.323 36.2005 178.166 36.0757 176.273C34.4245 151.147 22.0975 125.622 21.888 100.911C21.7297 82.2533 24.7733 64.7916 33.5462 54.2111C43.9009 41.7194 61.5456 38.2559 73.459 34.9601C96.7748 28.5081 113.697 31.9997 125.885 30.4747C125.885 30.4747 129.779 25.7229 133.081 27.66Z" fill="#D3BB90"/>
<path d="M129.38 37.7552C130.455 39.3488 132.146 40.3697 133.668 41.5265C139.669 46.0729 143.482 53.1439 145.384 60.4879C147.289 67.8336 147.44 75.5047 147.295 83.0765C139.414 81.156 133.594 74.3691 129.092 67.4839C125.854 62.5322 122.917 57.0826 122.605 51.1727C122.292 45.2628 129.38 37.7552 129.38 37.7552Z" fill="#A59176"/>
<path d="M108.297 41.7519C106.541 42.5337 104.566 42.504 102.662 42.6785C95.1635 43.3554 88.1835 47.3325 82.6799 52.5536C77.1726 57.7746 72.9807 64.2008 69.0926 70.6998C76.7943 73.2461 85.3255 70.5729 92.7914 67.1182C98.1608 64.6339 103.539 61.5678 106.935 56.7211C110.331 51.8744 108.297 41.7519 108.297 41.7519Z" fill="#A59176"/>
<path d="M178.107 131.131C179.918 130.485 181.327 129.101 182.826 127.914C188.721 123.231 196.518 121.295 204.104 121.277C211.693 121.258 219.161 123.018 226.459 125.04C222.64 132.197 214.62 136.147 206.832 138.797C201.231 140.703 195.222 142.193 189.42 141.027C183.618 139.862 178.107 131.131 178.107 131.131Z" fill="#A59176"/>
<circle cx="67.9725" cy="159.893" r="3.52575" transform="rotate(-16.1427 67.9725 159.893)" fill="#A59176"/>
<circle cx="92.2093" cy="158.809" r="3.52575" transform="rotate(-16.1427 92.2093 158.809)" fill="#A59176"/>
<circle cx="82.6651" cy="147.119" r="2.3918" transform="rotate(-16.1427 82.6651 147.119)" fill="#A59176"/>
<circle cx="107.271" cy="144.845" r="2.3918" transform="rotate(-16.1427 107.271 144.845)" fill="#A59176"/>
</g>
</svg>
