<svg width="573" height="187" viewBox="0 0 573 187" fill="none" xmlns="http://www.w3.org/2000/svg">
<g filter="url(#filter0_d_1602_62813)">
<path d="M37.09 154.145C33.8378 143.108 25.592 134.564 15.3882 131.676L13.5145 71.9546C23.4998 68.4348 31.1936 59.3906 33.7487 48.1514L535.651 32.3135C538.918 43.4012 547.21 51.9618 557.459 54.8168L559.333 114.472C549.287 117.974 541.548 127.035 538.977 138.307L37.0749 154.145L37.09 154.145Z" fill="url(#paint0_linear_1602_62813)"/>
</g>
<path d="M171.425 34.6121L26.1839 39.1793C26.6051 52.6627 17.0332 63.913 4.79868 64.2939L7.18106 139.994C19.4156 139.613 29.6851 150.23 30.1062 163.713L546.572 147.454C546.151 133.971 555.723 122.721 567.957 122.34C568.003 122.34 568.033 122.341 568.063 122.341L565.681 46.6238C565.681 46.6238 565.605 46.6232 565.575 46.623C553.341 47.0039 543.071 36.3873 542.65 22.9039L147.501 35.1119" stroke="#DCCAA4" stroke-width="3.33386" stroke-linejoin="round"/>
<defs>
<filter id="filter0_d_1602_62813" x="9.06951" y="30.0919" width="554.708" height="130.72" filterUnits="userSpaceOnUse" color-interpolation-filters="sRGB">
<feFlood flood-opacity="0" result="BackgroundImageFix"/>
<feColorMatrix in="SourceAlpha" type="matrix" values="0 0 0 0 0 0 0 0 0 0 0 0 0 0 0 0 0 0 127 0" result="hardAlpha"/>
<feOffset dy="2.22257"/>
<feGaussianBlur stdDeviation="2.22257"/>
<feColorMatrix type="matrix" values="0 0 0 0 0 0 0 0 0 0 0 0 0 0 0 0 0 0 0.15 0"/>
<feBlend mode="normal" in2="BackgroundImageFix" result="effect1_dropShadow_1602_62813"/>
<feBlend mode="normal" in="SourceGraphic" in2="effect1_dropShadow_1602_62813" result="shape"/>
</filter>
<linearGradient id="paint0_linear_1602_62813" x1="275.802" y1="30.1404" x2="273.3" y2="156.094" gradientUnits="userSpaceOnUse">
<stop stop-color="#FFD760"/>
<stop offset="1" stop-color="#FFBF00"/>
</linearGradient>
</defs>
</svg>
