<svg width="267" height="276" viewBox="0 0 267 276" fill="none" xmlns="http://www.w3.org/2000/svg">
<g filter="url(#filter0_d_1602_62800)">
<path d="M225.384 196.786C239.882 180.968 242.366 150.816 241.795 137.716L202.493 42.4037C200.043 33.511 191.925 14.7691 179.047 10.9425C162.949 6.15924 112.059 32.279 109.313 33.8047C107.117 35.0252 93.9655 53.7838 87.6645 63.0105C72.6621 74.7721 41.4395 101.329 36.5682 113.465C30.4791 128.636 38.9391 174.389 47.6663 197.21C54.6481 215.467 66.0115 238.549 70.8204 247.807C76.7927 254.719 90.1725 268.563 95.9133 268.651C101.654 268.738 136.812 246.669 153.674 235.623C171.537 229.268 210.886 212.603 225.384 196.786Z" fill="white"/>
</g>
<g clip-path="url(#clip0_1602_62800)">
<path d="M177.293 38.2178C174.509 37.0692 169.879 38.5671 166.741 40.7167C163.6 42.8674 161.419 45.5521 158.745 47.9765C153.475 52.7503 146.432 56.4 139.718 60.1312C130.677 65.156 70.8637 89.3278 59.6771 112.803C48.2388 136.802 57.3349 159.008 64.1683 179.956C68.2936 192.603 80.8634 221.491 92.6899 228.31C95.9421 230.188 91.8144 241.848 92.1365 242.799C92.7346 244.58 93.7432 246.621 96.5169 246.534C98.7586 246.464 100.991 245.006 102.948 243.723C128.918 226.682 163.205 219.816 187.695 201.671C206.186 187.97 221.123 172.018 225.03 155.556C229.646 136.124 219.959 116.246 214.361 102.114C203.408 74.4556 187.408 60.452 179.862 47.3654C179.862 47.3654 181.651 40.0176 177.293 38.2178Z" fill="#FFD760"/>
<path d="M170.099 49.3443C167.731 49.4729 165.471 48.573 163.202 47.9388C154.27 45.4297 144.476 46.9411 135.832 50.5298C127.184 54.1166 119.518 59.6654 112.169 65.4311C119.91 71.7343 130.914 72.4016 141.036 71.7037C148.316 71.2021 155.863 70.0355 161.915 65.9533C167.967 61.8711 170.099 49.3443 170.099 49.3443Z" fill="#20AD67"/>
</g>
<defs>
<filter id="filter0_d_1602_62800" x="31.5005" y="10.3574" width="213.369" height="264.293" filterUnits="userSpaceOnUse" color-interpolation-filters="sRGB">
<feFlood flood-opacity="0" result="BackgroundImageFix"/>
<feColorMatrix in="SourceAlpha" type="matrix" values="0 0 0 0 0 0 0 0 0 0 0 0 0 0 0 0 0 0 127 0" result="hardAlpha"/>
<feOffset dy="3"/>
<feGaussianBlur stdDeviation="1.5"/>
<feComposite in2="hardAlpha" operator="out"/>
<feColorMatrix type="matrix" values="0 0 0 0 0 0 0 0 0 0 0 0 0 0 0 0 0 0 0.2 0"/>
<feBlend mode="normal" in2="BackgroundImageFix" result="effect1_dropShadow_1602_62800"/>
<feBlend mode="normal" in="SourceGraphic" in2="effect1_dropShadow_1602_62800" result="shape"/>
</filter>
<clipPath id="clip0_1602_62800">
<rect width="169.405" height="168.47" fill="white" transform="matrix(-0.357187 -0.934033 -0.934033 0.357187 247.857 189.035)"/>
</clipPath>
</defs>
</svg>
