<svg width="274" height="23" viewBox="0 0 274 23" fill="none" xmlns="http://www.w3.org/2000/svg">
<rect x="137.048" y="0.160156" width="16.0232" height="16.0232" transform="rotate(45 137.048 0.160156)" fill="#D3BB90"/>
<path d="M0.226497 11.4902L6 17.2637L11.7735 11.4902L6 5.71673L0.226497 11.4902ZM112.011 12.4902C112.564 12.4902 113.011 12.0425 113.011 11.4902C113.011 10.938 112.564 10.4902 112.011 10.4902L112.011 12.4902ZM6 12.4902L112.011 12.4902L112.011 10.4902L6 10.4902L6 12.4902Z" fill="#D3BB90"/>
<circle cx="112.012" cy="11.4902" r="5" fill="#D3BB90"/>
<path d="M17.8727 11.4894C16.684 11.3707 13.5356 9.41545 13.5356 6.79066C13.5356 2.39234 19.2414 3.34355 18.1716 6.79066" stroke="#D3BB90" stroke-width="2" stroke-linecap="round"/>
<path d="M17.8727 11.4891C16.684 11.6079 13.5356 13.5631 13.5356 16.1879C13.5356 20.5862 19.2414 19.635 18.1716 16.1879" stroke="#D3BB90" stroke-width="2" stroke-linecap="round"/>
<path d="M273.869 11.4902L268.095 17.2637L262.322 11.4902L268.095 5.71673L273.869 11.4902ZM162.084 12.4902C161.531 12.4902 161.084 12.0425 161.084 11.4902C161.084 10.938 161.531 10.4902 162.084 10.4902L162.084 12.4902ZM268.095 12.4902L162.084 12.4902L162.084 10.4902L268.095 10.4902L268.095 12.4902Z" fill="#D3BB90"/>
<circle cx="5" cy="5" r="5" transform="matrix(-1 0 0 1 167.084 6.49023)" fill="#D3BB90"/>
<path d="M256.223 11.4894C257.411 11.3707 260.56 9.41545 260.56 6.79066C260.56 2.39234 254.854 3.34355 255.924 6.79066" stroke="#D3BB90" stroke-width="2" stroke-linecap="round"/>
<path d="M256.223 11.4891C257.411 11.6079 260.56 13.5631 260.56 16.1879C260.56 20.5862 254.854 19.635 255.924 16.1879" stroke="#D3BB90" stroke-width="2" stroke-linecap="round"/>
</svg>
