<svg width="594" height="224" viewBox="0 0 594 224" fill="none" xmlns="http://www.w3.org/2000/svg">
<g style="mix-blend-mode:multiply" filter="url(#filter0_f_1602_62748)">
<path d="M10.1469 177.743L10.7649 198.413L11.1046 209.976C14.4099 211.33 17.74 212.618 20.8079 214.462C20.9977 214.574 21.1964 214.464 21.3734 214.493C22.1015 214.859 22.8348 215.132 23.5187 215.546C24.5447 216.167 25.6702 215.47 26.6264 214.92C34.4851 215.084 42.3386 213.649 50.136 215.37C51.7231 215.079 53.436 215.124 54.556 213.67C55.0095 213.677 55.4441 213.677 55.9169 213.702C58.0529 214.33 59.6756 213.371 61.2179 212.055C66.3102 213.247 71.4514 214.077 76.6695 214.551C79.7911 216.144 83.1357 215.017 86.3669 215.31C86.7538 215.488 87.1736 215.571 87.5741 215.424C87.6018 215.423 87.6202 215.422 87.6483 215.43C89.0659 215.914 90.5133 217.922 91.8911 215.383C93.8407 215.344 95.7995 215.304 97.7684 215.283C98.305 215.287 98.8785 215.29 99.4151 215.294C102.929 215.501 106.588 214.592 110.085 215.021C110.69 215.328 111.352 215.465 111.947 215.957C112.924 217.986 115.329 216.743 116.535 218.299C116.569 218.233 116.531 218.207 116.547 218.151C117.658 218.593 119.682 217.302 119.523 216.421C119.606 216.417 119.689 216.414 119.764 216.42C119.793 216.455 119.829 216.444 119.859 216.48C119.876 216.461 119.839 216.453 119.856 216.425C121.262 216.428 121.629 216.153 121.159 214.703C125.894 213.858 130.638 213.003 135.391 212.147C138.164 212.34 141.08 210.289 143.353 211.087C147.072 212.385 150.819 211.99 154.53 212.059C154.77 212.677 155.15 213.114 155.967 212.763C156.294 212.647 156.34 212.414 156.302 212.175C156.859 212.225 157.423 212.228 157.963 212.306C158.038 213.394 159.45 212.472 159.677 211.759C161.7 210.432 164.163 212.192 166.186 210.864C166.279 210.879 166.382 210.92 166.494 210.925C166.722 211.063 166.958 211.191 167.186 211.329C171.572 212.848 176.139 211.769 180.572 212.463C182.489 214.007 184.572 213.435 186.272 212.334C187.423 211.59 188.19 210.511 189.75 210.878C195.05 212.579 200.612 211.198 205.681 210.597C211.754 209.896 217.738 209.68 223.763 209.574C224.021 210.413 224.289 211.243 225.745 210.93C226.262 210.898 226.778 210.857 227.303 210.815C227.593 210.886 227.801 210.784 228.041 210.765C228.261 211.56 228.598 212.294 229.973 212.003C230.488 211.952 231.005 211.92 231.539 211.878C233.982 212.539 234.922 209.502 236.97 209.606C243.947 209.911 250.847 208.24 257.814 208.537C258.283 208.673 258.903 208.692 259.557 208.627C259.965 208.655 260.379 208.609 260.798 208.674C260.983 207.186 261.875 207.073 262.81 207.106C263.31 207.741 263.835 208.319 264.722 208.521C264.658 208.968 266.217 210.139 267.156 210.051C267.748 210.885 268.508 211.13 269.284 210.698C269.593 211.619 273.089 209.311 273.428 209.037C273.494 209.053 273.52 209.024 273.556 208.985C273.574 208.984 273.593 208.983 273.602 208.983C273.894 209.1 274.202 208.957 274.501 208.823C274.695 208.815 274.821 208.735 275.024 208.736C275.638 209.227 276.249 209.468 276.792 209.408C276.954 209.511 277.156 209.466 277.309 209.598C278.815 211.03 278.053 209.056 278.475 208.77C280.754 211.602 282.49 210.684 284.013 208.296C284.373 208.299 284.69 208.35 285.059 208.334C288.021 210.081 291.485 208.922 294.615 209.229C299.341 209.669 304.27 211.146 309.107 209.463C315.055 207.381 321.004 205.318 326.97 203.244C329.734 203.003 332.516 202.751 335.288 202.491C335.704 203.12 337.707 202.82 337.726 202.2C339.67 201.597 341.579 201.911 343.498 202.224C345.202 204.184 347.066 204.288 349.027 203.675C351.593 206.096 354.552 204.607 357.516 203.442C359.351 204.601 361.027 204.851 362.279 202.614C364.458 202.518 366.761 203.176 368.741 201.702C369.843 201.737 370.984 202.048 372.057 201.409C371.543 200.645 379.162 198.296 382.426 197.654C383.414 198.045 384.395 198.27 385.398 198.374C385.782 198.469 386.171 198.498 386.577 198.461C386.883 198.476 387.162 198.51 387.448 198.497C390.893 200.094 394.645 199.19 398.165 199.314C401.462 199.419 405.769 201.903 408.051 196.994C408.314 196.456 409.283 196.82 409.958 196.828C411.671 196.864 413.492 197.487 415.134 196.333C418.39 197.827 421.588 196.309 424.817 196.131C426.779 196.165 428.741 196.191 430.675 196.235C431.646 196.008 432.533 196.209 433.467 196.206C434.256 196.495 435.078 196.681 435.851 197.017C436.285 197.201 436.905 196.989 437.43 196.957C438.251 197.106 439.09 197.263 439.947 197.402C440.493 197.627 441.071 197.732 441.637 197.984C441.712 198.018 441.839 197.966 441.941 197.971C443.114 198.558 444.491 198.322 445.699 198.676C447.718 199.152 449.781 200.032 451.737 199.697C454.878 200.484 458.109 202.451 460.78 198.626C461.007 198.311 461.752 198.214 462.271 198.237C463.974 198.274 465.707 198.133 467.416 198.095C467.66 198.186 467.893 198.213 468.11 198.324C469.226 198.876 470.434 198.814 471.659 198.474C472.472 198.669 473.314 198.891 474.127 199.29C476.075 200.269 478.44 199.582 480.381 198.295C481.736 197.357 483.276 196.828 484.907 196.479C486.215 196.791 487.533 197.104 488.861 197.434C489.707 198.396 490.497 199.545 491.855 198.653C491.94 198.067 491.788 197.768 491.539 197.557C492.716 197.839 493.875 198.121 495.034 198.403C495.891 199.373 496.162 198.603 495.932 197.356C496.44 197.333 496.966 197.31 497.483 197.297C499.57 197.224 501.045 197.113 500.147 195.83C500.601 195.44 500.912 194.937 501.224 194.461C502.666 194.851 504.123 195.388 505.625 194.647C506.77 195.032 507.964 195.035 509.294 193.941C510.512 193.037 511.55 194.785 512.589 194.222C517.688 191.548 523.435 192.702 528.778 191.377C532.511 190.455 536.285 192.371 540.12 191.269C542.047 190.695 543.935 189.465 546.129 190.155C548.904 191.023 551.674 190.699 554.434 190.374C554.921 190.936 555.493 191.336 556.332 191.262C556.884 191.21 556.953 190.671 556.948 190.116C557.381 190.079 557.808 190.125 558.242 190.115C559.137 190.492 560.039 190.804 560.976 191.087C561.477 191.768 562.082 192.268 563.013 192.191C563.16 192.184 563.18 192.008 563.26 191.93C564.24 192.34 565.158 192.818 565.959 193.588C566.808 195.455 568.105 195.066 569.446 194.23C570.1 193.961 570.798 193.857 571.456 193.68C571.875 193.948 572.338 194.168 572.714 194.531C573.555 196.409 574.851 196.01 576.22 195.173C578.855 194.114 581.629 193.9 584.426 193.565C586.202 193.358 588.006 193.362 589.794 193.229L589.723 190.763C589.723 190.763 579.744 138.782 578.705 104.064C577.676 69.3461 580.673 7.03162 580.673 7.03162L5.65737 27.0033L10.1469 177.743ZM565.232 18.093C572.112 17.8843 577.849 23.2282 578.045 30.0261C578.25 36.8237 572.839 42.5076 565.958 42.707C559.077 42.9157 553.34 37.5625 553.145 30.7646C552.939 23.9671 558.351 18.2924 565.231 18.0837L565.232 18.093ZM511.146 19.702C518.027 19.4933 523.754 24.8377 523.959 31.6444C524.165 38.4419 518.753 44.1166 511.873 44.3253C504.992 44.534 499.264 39.1804 499.059 32.3829C498.854 25.5854 504.266 19.9107 511.146 19.702ZM457.061 21.3111C463.941 21.1024 469.678 26.4463 469.873 33.2442C470.078 40.0418 464.668 45.7257 457.787 45.9251C450.915 46.1334 445.178 40.7803 444.973 33.9827C444.768 27.1852 450.18 21.5105 457.06 21.3018L457.061 21.3111ZM402.975 22.9201C409.855 22.7114 415.592 28.0554 415.788 34.8533C415.993 41.6508 410.582 47.3347 403.701 47.5342C396.829 47.7425 391.093 42.3893 390.888 35.5918C390.682 28.7942 396.094 23.1196 402.974 22.9109L402.975 22.9201ZM348.889 24.5292C355.77 24.3205 361.506 29.6644 361.702 36.4716C361.908 43.2691 356.497 48.953 349.616 49.1525C342.735 49.3612 337.007 44.0076 336.802 37.2101C336.597 30.4125 342.009 24.7379 348.889 24.5292ZM294.804 26.1382C301.684 25.9295 307.421 31.2735 307.617 38.0806C307.822 44.8782 302.41 50.5528 295.53 50.7615C288.649 50.9702 282.922 45.6167 282.717 38.8191C282.512 32.0216 287.923 26.3469 294.804 26.1382ZM240.718 27.7473C247.589 27.539 253.326 32.8829 253.531 39.6805C253.736 46.478 248.325 52.1619 241.453 52.3609C234.572 52.5696 228.836 47.2165 228.64 40.4185C228.435 33.621 233.846 27.9463 240.727 27.7377L240.718 27.7473ZM186.632 29.3563C193.504 29.1481 199.24 34.492 199.445 41.2895C199.65 48.0871 194.239 53.7617 187.367 53.97C180.487 54.1787 174.75 48.8255 174.545 42.028C174.34 35.2305 179.751 29.5558 186.632 29.3471L186.632 29.3563ZM132.546 30.9654C139.427 30.7567 145.164 36.1006 145.369 42.8982C145.574 49.6957 140.163 55.3796 133.282 55.5791C126.41 55.7873 120.664 50.4346 120.468 43.6367C120.263 36.8391 125.675 31.1645 132.546 30.9562L132.546 30.9654ZM78.4608 32.5745C85.3414 32.3658 91.0779 37.7097 91.2737 44.5076C91.4787 51.3052 86.0678 56.9891 79.196 57.1881C72.3154 57.3968 66.5785 52.0437 66.3827 45.2457C66.1776 38.4482 71.589 32.7735 78.4604 32.5652L78.4608 32.5745ZM24.3751 34.1835C31.2557 33.9748 36.9922 39.3188 37.1884 46.1259C37.3935 52.9235 31.9825 58.6073 25.1107 58.8064C18.2301 59.0151 12.5025 53.6615 12.2974 46.864C12.0924 40.0665 17.5037 34.3918 24.3751 34.1835Z" fill="#BABABA"/>
</g>
<path fill-rule="evenodd" clip-rule="evenodd" d="M8.53313 209.747C11.8276 211.064 15.1465 212.306 18.2219 214.113C18.4118 214.225 18.61 214.105 18.7874 214.144C19.5151 214.501 20.2484 214.774 20.9223 215.17C21.9571 215.781 23.0541 215.067 23.991 214.499C31.7895 214.555 39.5551 213.013 47.3203 214.634C48.8882 214.325 50.5814 214.343 51.6725 212.862C52.1168 212.87 52.551 212.86 53.0141 212.877C55.149 213.477 56.7427 212.492 58.2469 211.15C63.3179 212.278 68.4286 213.044 73.6065 213.446C76.7265 215.002 80.0322 213.831 83.2336 214.079C83.6202 214.247 84.04 214.33 84.44 214.174C84.4677 214.173 84.4862 214.172 84.5139 214.171C85.9307 214.636 87.3865 216.625 88.7265 214.07C90.6657 214.003 92.6049 213.937 94.5541 213.889C95.081 213.884 95.6541 213.877 96.1902 213.873C99.6838 214.034 103.295 213.071 106.77 213.456C107.375 213.753 108.038 213.89 108.632 214.364C109.627 216.392 112.003 215.104 113.217 216.651C113.251 216.584 113.213 216.558 113.229 216.502C114.339 216.925 116.325 215.608 116.157 214.728C116.24 214.724 116.314 214.721 116.397 214.717C116.436 214.753 116.463 214.742 116.501 214.778C116.519 214.758 116.482 214.751 116.499 214.722C117.895 214.707 118.252 214.424 117.764 212.984C122.449 212.067 127.144 211.149 131.848 210.222C134.601 210.379 137.469 208.283 139.731 209.054C143.439 210.306 147.156 209.857 150.837 209.871C151.086 210.489 151.466 210.926 152.264 210.558C152.582 210.433 152.627 210.2 152.589 209.961C153.136 210.002 153.701 210.005 154.24 210.074C154.334 211.161 155.717 210.222 155.935 209.5C157.928 208.137 160.391 209.879 162.384 208.515C162.477 208.52 162.581 208.571 162.691 208.566C162.919 208.704 163.156 208.824 163.384 208.962C167.748 210.426 172.276 209.284 176.678 209.924C178.595 211.449 180.658 210.841 182.329 209.723C183.461 208.961 184.208 207.865 185.759 208.223C191.047 209.859 196.532 208.398 201.561 207.725C207.575 206.944 213.508 206.638 219.474 206.451C219.742 207.29 220.018 208.119 221.455 207.779C221.972 207.738 222.478 207.688 222.994 207.647C223.284 207.718 223.483 207.607 223.731 207.587C223.97 208.381 224.307 209.116 225.671 208.797C226.177 208.738 226.693 208.706 227.218 208.655C229.66 209.288 230.543 206.225 232.572 206.303C239.489 206.509 246.311 204.749 253.228 204.946C253.696 205.073 254.316 205.083 254.96 205.009C255.359 205.037 255.772 204.982 256.191 205.038C256.357 203.551 257.239 203.42 258.165 203.444C258.664 204.07 259.198 204.638 260.085 204.831C260.031 205.286 261.588 206.439 262.518 206.333C263.118 207.158 263.868 207.393 264.635 206.953C264.953 207.882 268.391 205.512 268.722 205.239C268.787 205.254 268.814 205.225 268.849 205.187L268.895 205.185C269.187 205.301 269.485 205.15 269.794 205.016C269.988 205.007 270.114 204.928 270.308 204.929C270.921 205.411 271.532 205.643 272.075 205.573C272.237 205.677 272.428 205.622 272.592 205.763C274.106 207.176 273.317 205.213 273.738 204.917C276.035 207.73 277.741 206.786 279.226 204.372C279.578 204.366 279.903 204.416 280.263 204.4C283.224 206.12 286.648 204.907 289.748 205.169C294.444 205.546 299.352 206.959 304.131 205.205C310.01 203.043 315.872 200.891 321.76 198.728C324.495 198.442 327.248 198.164 330 197.868C330.424 198.487 332.408 198.169 332.418 197.54C334.332 196.91 336.24 197.197 338.149 197.483C339.861 199.424 341.724 199.5 343.656 198.861C346.239 201.254 349.15 199.721 352.075 198.511C353.91 199.651 355.575 199.883 356.789 197.62C358.948 197.488 361.241 198.128 363.182 196.619C364.275 196.645 365.406 196.938 366.469 196.271C365.945 195.508 373.467 193.052 376.692 192.365C377.68 192.747 378.651 192.964 379.645 193.05C380.027 193.135 380.408 193.164 380.813 193.119C381.118 193.124 381.388 193.158 381.674 193.146C385.118 194.706 388.821 193.749 392.311 193.818C395.578 193.878 399.883 196.307 402.089 191.355C402.343 190.808 403.302 191.163 403.977 191.162C405.679 191.18 407.49 191.775 409.094 190.595C412.338 192.044 415.498 190.482 418.697 190.258C420.639 190.266 422.591 190.273 424.506 190.282C425.466 190.036 426.344 190.229 427.277 190.216C428.066 190.496 428.878 190.664 429.651 191C430.085 191.184 430.694 190.954 431.22 190.922C432.04 191.062 432.869 191.201 433.725 191.33C434.271 191.546 434.849 191.651 435.406 191.895C435.481 191.928 435.608 191.867 435.71 191.881C436.882 192.45 438.249 192.195 439.447 192.531C441.455 192.98 443.509 193.843 445.444 193.48C448.575 194.231 451.804 196.152 454.399 192.284C454.616 191.96 455.361 191.863 455.87 191.868C457.563 191.886 459.276 191.719 460.966 191.663C461.21 191.755 461.442 191.772 461.66 191.883C462.775 192.426 463.964 192.337 465.179 191.988C465.991 192.165 466.833 192.387 467.636 192.777C469.583 193.737 471.919 193.015 473.822 191.693C475.158 190.737 476.669 190.181 478.289 189.805C479.588 190.109 480.905 190.402 482.222 190.705C483.078 191.657 483.868 192.807 485.206 191.888C485.282 191.302 485.13 191.003 484.871 190.793C486.039 191.065 487.197 191.32 488.346 191.593C489.202 192.555 489.473 191.775 489.215 190.529C489.723 190.507 490.239 190.475 490.756 190.452C492.833 190.361 494.288 190.214 493.381 188.941C493.827 188.551 494.127 188.029 494.43 187.554C495.862 187.926 497.318 188.445 498.801 187.677C499.945 188.052 501.129 188.037 502.43 186.926C503.62 186.005 504.676 187.743 505.696 187.172C510.717 184.418 516.434 185.499 521.718 184.103C525.402 183.128 529.183 184.997 532.971 183.842C534.868 183.241 536.727 181.976 538.92 182.638C541.675 183.47 544.434 183.109 547.165 182.749C547.651 183.301 548.224 183.701 549.061 183.618C549.604 183.557 549.664 183.018 549.658 182.464C550.091 182.417 550.509 182.464 550.943 182.445C551.837 182.803 552.739 183.115 553.666 183.38C554.176 184.051 554.789 184.542 555.71 184.455C555.858 184.449 555.878 184.263 555.948 184.186C556.927 184.578 557.845 185.046 558.655 185.806C559.522 187.664 560.799 187.257 562.121 186.404C562.775 186.125 563.464 186.012 564.112 185.826C564.531 186.095 564.984 186.297 565.369 186.659C566.238 188.535 567.514 188.119 568.854 187.256C571.451 186.162 574.205 185.902 576.972 185.531C578.728 185.297 580.522 185.274 582.29 185.114L580.855 152.319L7.11865 177.432L8.53313 209.747Z" fill="#FFFDFB"/>
<path d="M0.503906 26.3145L8.02554 198.155C9.49362 198.312 10.9625 198.489 12.4394 198.637C13.9428 198.756 15.4554 198.874 16.9616 198.846C17.2016 198.835 17.4452 198.908 17.6679 198.926C18.103 198.934 18.5492 198.989 18.9931 198.988C19.8612 198.959 20.7393 199.161 21.6054 199.299C22.6657 199.437 23.7349 199.566 24.8224 199.269C25.1828 199.263 25.5721 199.282 25.9417 199.276C27.4037 198.028 28.9228 198.082 30.4519 198.366C31.8589 198.184 33.2825 198.594 34.7297 198.909C35.1644 198.909 35.6299 198.981 36.0765 198.832C36.6014 198.568 37.1355 198.305 37.6511 198.042C38.6339 196.408 39.6149 195.792 40.6507 197.06C41.4643 196.21 42.2618 196.258 43.1037 197.535C44.1222 197.352 45.1375 197.307 46.1722 197.493C47.4359 197.419 48.7371 197.566 49.9901 197.881C51.1777 198.18 52.3431 198.185 53.511 198.245C58.6976 197.999 63.6751 196.144 68.7773 195.449C72.1049 194.989 75.4071 193.948 78.7077 194.561C80.6108 194.515 82.4986 194.756 84.4141 195.838C84.689 195.992 85.0214 196.19 85.3621 196.369C85.6599 196.199 85.9841 196 86.2814 195.608C86.5513 195.226 87.6549 195.085 88.1823 195.303C88.5311 195.454 88.9184 195.428 89.274 195.523C89.7194 195.346 90.3446 195.264 90.7308 195.422C91.6439 195.789 92.5914 195.887 93.5205 195.985C95.4236 195.938 97.3615 195.844 99.2502 196.104C100.83 196.072 102.402 196.28 103.934 196.833C104.731 196.243 105.393 195.104 106.484 195.084C107.042 193.044 108.51 194.043 109.706 194.129C109.835 194.115 109.946 194.1 110.065 194.077C110.32 193.982 110.586 193.934 110.893 193.976C113 193.745 115.111 193.578 117.192 193.164C119.282 192.748 121.328 192.585 123.417 192.771C125.35 192.557 127.292 192.555 129.336 193.4C130.334 193.818 131.396 193.985 132.463 194.058C132.731 194.065 133 194.09 133.26 194.097C136.289 194.224 139.424 194.012 142.019 196.239C142.339 196.151 142.706 196.088 142.979 195.993C144.209 195.56 145.157 195.676 145.944 196.113C148.112 195.361 149.578 195.889 150.51 197.957C153.805 197.813 156.99 198.524 160.186 199.087C160.713 198.861 161.278 198.891 161.838 199.015L161.857 199.014C162.45 199.043 163.06 199.035 163.653 199.055C163.892 199.027 164.151 199.034 164.394 199.079C166.968 199.16 169.552 199.25 172.109 199.351C174.997 199.41 177.848 199.673 180.712 200.029L180.73 200.028C181.064 200.06 181.389 200.073 181.705 200.115C182.027 200.082 182.358 200.04 182.699 200.007C182.569 199.356 184.736 199.224 185.885 199.904C185.767 199.327 188.15 199.463 189.356 200.178C189.536 200.29 189.68 200.395 189.824 200.518C190.258 200.517 190.652 200.426 191.033 200.04C191.906 197.81 192.757 199.502 193.614 200.065C193.904 200.145 194.141 200.061 194.429 200.085C195.167 198.36 195.873 199.273 196.623 199.924C198.632 199.337 200.448 197.944 202.531 197.576C203.522 197.384 204.495 197.231 204.92 198.054C205.257 197.937 205.592 197.775 205.922 197.705C207.215 197.463 208.509 197.24 208.576 199.188C208.914 199.294 209.188 199.217 209.523 199.276C212.817 198.679 215.546 196.368 218.446 194.595C219.563 193.926 219.872 191.046 220.92 191.962C221.582 192.515 222.369 192.731 223.19 192.889C223.564 192.151 223.918 191.581 224.457 192.066C226.493 193.789 229.938 192.399 231.025 195.478C231.522 196.899 232.586 197.768 233.714 198.606C235.692 197.086 237.864 197.278 240.043 197.626C241.128 197.486 242.241 197.548 243.377 197.721C247.117 196.771 250.891 196.153 254.764 196.094C255.03 195.833 255.286 195.572 255.553 195.32C257.317 193.152 259.352 193.378 261.422 193.971C262.651 193.538 263.944 193.713 265.264 194.081C270.976 193.368 276.566 192.18 281.999 190.185C282.463 190.008 283.216 189.882 283.513 190.119C283.916 190.453 284.331 190.435 284.756 190.638C285.157 190.491 285.57 190.418 285.989 190.279C286.453 190.101 287.215 189.966 287.521 190.203C288.202 190.755 288.891 190.864 289.574 191.056C291.607 190.597 293.647 189.879 295.643 190.458C295.914 190.52 296.347 190.075 296.681 189.876C297.788 188.348 299.391 188.407 301.049 188.27C307.148 187.734 313.21 186.988 319.285 186.334C324.9 183.628 330.605 182.546 336.387 182.811C340.533 182.454 344.727 182.973 348.98 184.229C350.913 183.803 352.845 183.367 354.778 182.94C355.953 181.677 358.762 181.203 359.833 182.432C360.896 181.368 363.355 182.389 365.337 183.523C366.938 184.193 368.546 184.585 370.13 184.839C372.051 184.588 374.019 184.105 375.973 183.131C376.816 182.724 378.027 183.134 379.048 183.024C378.685 182.115 379.709 181.645 380.054 182.555C380.338 182.265 380.607 181.874 380.743 181.175C380.142 179.703 381.197 178.667 381.409 180.11C381.834 180.331 382.272 180.405 382.72 180.496C382.617 180.26 382.554 180.078 382.441 179.824C382.879 180.11 383.021 180.391 383.311 180.683C383.97 180.737 384.597 180.701 385.222 180.599C384.693 179.291 385.932 178.663 386.125 180.116C386.286 180.192 386.462 180.194 386.622 180.261C387.643 179.929 388.606 179.526 389.431 179.148C392.74 177.635 395.74 177.938 399.044 177.988C399.256 177.978 399.441 177.97 399.653 177.961C403.77 177.984 407.882 177.499 411.977 177.236C412.372 176.544 412.96 176.454 413.653 176.654C414.826 176.825 416.022 176.893 417.21 176.989C417.59 176.602 418.047 176.471 418.628 176.64C425.44 177.618 432.434 177.044 439.157 178.941C439.459 178.863 439.78 178.794 440.072 178.716C443.935 177.595 447.875 178.023 451.798 177.861C455.096 174.193 459.07 173.279 463.455 173.947C464.416 173.72 465.441 173.685 466.45 173.696C467.577 172.63 468.694 172.155 469.795 174.077C470.243 174.168 470.678 174.177 471.146 174.304C472.569 172.79 473.982 171.48 475.41 174.312C479.931 175.131 484.483 174.118 489.08 174.777C495 175.637 501.434 173.256 506.802 177.802C508.281 179.051 511.002 177.406 512.17 179.787C513.492 180.21 514.856 178.819 516.141 179.881C516.578 179.927 517.005 179.954 517.423 180.001C518.207 179.967 519.01 179.931 519.814 179.896C522.281 179.853 524.73 179.829 527.198 179.795C529.387 179.505 531.566 179.215 533.735 178.926C534.854 177.018 537.496 178.845 537.171 179.247C537.981 179.147 538.771 179.029 539.608 178.928C540.726 177.002 542.142 180.399 541.458 181.261C541.733 181.406 542.039 181.43 542.343 181.407C543.859 180.971 545.342 181.045 546.859 181.903C547.868 181.285 548.888 180.917 549.907 180.965C551.18 179.836 552.43 178.598 554.551 179.319C555.539 179.054 556.397 179.229 557.123 179.965C558.054 179.267 559.116 178.814 560.581 179.314C561.595 179.029 562.527 179.201 563.276 180.038C563.418 180.105 563.551 180.201 563.694 180.297C564.409 180.349 565.125 180.456 565.843 180.582C571.281 179.521 576.26 181.948 581.454 182.701C581.696 182.736 581.945 182.716 582.193 182.678L574.249 1.20098L0.503906 26.3145ZM20.2462 57.9569C13.425 58.2555 7.66325 52.9682 7.36509 46.1562C7.06692 39.3443 12.3446 33.5737 19.1658 33.2751C25.987 32.9766 31.7487 38.2639 32.0469 45.0759C32.345 51.8878 27.0673 57.6584 20.2462 57.9569ZM73.8649 55.61C67.0437 55.9085 61.282 50.6212 60.9838 43.8093C60.6856 36.9973 65.9633 31.2268 72.7845 30.9282C79.6057 30.6296 85.3674 35.917 85.6656 42.7289C85.9638 49.5409 80.6861 55.3114 73.8649 55.61ZM127.484 53.263C120.672 53.5612 114.901 48.2743 114.603 41.4623C114.304 34.6504 119.591 28.8794 126.403 28.5812C133.215 28.2831 138.986 33.57 139.284 40.382C139.582 47.1939 134.296 52.9649 127.484 53.263ZM181.102 50.9161C174.281 51.2146 168.519 45.9273 168.221 39.1154C167.923 32.3034 173.21 26.5325 180.022 26.2343C186.834 25.9361 192.605 31.2231 192.903 38.035C193.201 44.847 187.914 50.6179 181.102 50.9161ZM234.721 48.5691C227.9 48.8677 222.138 43.5804 221.84 36.7684C221.542 29.9565 226.829 24.1855 233.641 23.8873C240.453 23.5892 246.224 28.8761 246.522 35.6881C246.82 42.5 241.533 48.271 234.721 48.5691ZM288.34 46.2222C281.519 46.5207 275.757 41.2334 275.459 34.4215C275.161 27.6095 280.438 21.839 287.259 21.5404C294.081 21.2418 299.842 26.5292 300.14 33.3411C300.439 40.1531 295.161 45.9236 288.34 46.2222ZM341.958 43.8752C335.137 44.1738 329.376 38.8865 329.077 32.0745C328.779 25.2626 334.057 19.492 340.878 19.1934C347.699 18.8949 353.461 24.1822 353.759 30.9942C354.057 37.8061 348.78 43.5766 341.958 43.8752ZM395.577 41.5283C388.765 41.8264 382.994 36.5395 382.696 29.7276C382.398 22.9156 387.685 17.1447 394.497 16.8465C401.309 16.5483 407.08 21.8353 407.378 28.6472C407.676 35.4592 402.389 41.2301 395.577 41.5283ZM449.196 39.1813C442.375 39.4799 436.613 34.1926 436.315 27.3806C436.017 20.5687 441.304 14.7977 448.116 14.4995C454.928 14.2014 460.698 19.4883 460.997 26.3003C461.295 33.1122 456.008 38.8832 449.196 39.1813ZM502.815 36.8344C495.993 37.1329 490.232 31.8456 489.934 25.0337C489.635 18.2217 494.922 12.4508 501.734 12.1526C508.546 11.8544 514.317 17.1413 514.615 23.9533C514.914 30.7652 509.627 36.5362 502.815 36.8344ZM556.433 34.4874C549.612 34.786 543.85 29.4986 543.552 22.6867C543.254 15.8747 548.541 10.1038 555.353 9.80563C562.165 9.50747 567.936 14.7944 568.234 21.6064C568.532 28.4183 563.255 34.1888 556.433 34.4874Z" fill="url(#paint0_linear_1602_62748)"/>
<path d="M575.888 38.8615L2.15234 63.9746L2.19921 65.0453L575.935 39.9323L575.888 38.8615Z" fill="#BAC7D3"/>
<path d="M577.067 65.7776L3.33057 90.8906L3.37743 91.9613L577.114 66.8483L577.067 65.7776Z" fill="#BAC7D3"/>
<path d="M578.245 92.6916L4.50879 117.805L4.55566 118.875L578.292 93.7623L578.245 92.6916Z" fill="#BAC7D3"/>
<path d="M579.423 119.608L5.68652 144.721L5.73339 145.791L579.469 120.678L579.423 119.608Z" fill="#BAC7D3"/>
<path d="M580.601 146.524L6.86475 171.637L6.91161 172.707L580.648 147.594L580.601 146.524Z" fill="#BAC7D3"/>
<path d="M40.1406 196.602C40.312 196.714 40.4846 196.855 40.6512 197.069C40.9958 196.703 41.3494 196.539 41.6913 196.534L40.1314 196.602L40.1406 196.602Z" fill="#BAC7D3"/>
<path d="M109.725 194.121C109.854 194.106 109.964 194.092 110.083 194.068C110.338 193.974 110.604 193.925 110.911 193.967C112.789 193.765 114.667 193.581 116.521 193.259L81.6123 194.787C82.48 194.962 83.3538 195.275 84.2344 195.745L86.2558 195.657C86.2558 195.657 86.2916 195.627 86.3 195.608C86.57 195.227 87.6736 195.086 88.201 195.303C88.5493 195.445 88.9186 195.429 89.2742 195.525L89.3111 195.523C89.7565 195.346 90.3637 195.273 90.7494 195.423C90.7871 195.44 90.824 195.438 90.8618 195.455L106.627 194.765C107.252 193.193 108.602 194.04 109.725 194.121Z" fill="#BAC7D3"/>
<path d="M363.246 182.458C363.934 182.733 364.624 183.082 365.278 183.442L376.548 182.949C376.741 182.922 376.944 182.913 377.148 182.922L379.04 182.839C378.857 182.043 379.729 181.663 380.052 182.509C380.247 182.315 380.411 182.04 380.544 181.692L363.237 182.449L363.246 182.458Z" fill="#BAC7D3"/>
<path d="M68.7864 195.448C69.0897 195.407 69.3927 195.357 69.6957 195.307L41.9033 196.523C42.295 196.599 42.6977 196.923 43.1128 197.534C43.9018 197.389 44.6871 197.373 45.4758 197.431L62.6164 196.68C64.667 196.202 66.7176 195.724 68.7952 195.439L68.7864 195.448Z" fill="#BAC7D3"/>
<path d="M506.169 177.275L581.802 173.965L581.755 172.894L504.553 176.273C505.102 176.545 505.634 176.883 506.169 177.275Z" fill="#BAC7D3"/>
<path d="M14.601 198.792L37.8243 197.776C38.1449 197.281 38.4702 196.897 38.7928 196.661L8.01904 198.008L8.02551 198.156C9.49359 198.313 10.9625 198.489 12.4394 198.637C13.1634 198.698 13.8778 198.75 14.601 198.792Z" fill="#BAC7D3"/>
<path d="M325.19 184.125L127.108 192.795C127.844 192.911 128.59 193.072 129.353 193.39C129.721 193.541 130.095 193.635 130.478 193.72L321.609 185.354C322.8 184.877 323.993 184.464 325.19 184.125Z" fill="#BAC7D3"/>
<path d="M354.786 182.903C354.786 182.903 354.848 182.854 354.875 182.825L344.943 183.26C346.239 183.499 347.537 183.784 348.848 184.162L349.199 184.146C351.058 183.741 352.917 183.318 354.776 182.903L354.786 182.903Z" fill="#BAC7D3"/>
<defs>
<filter id="filter0_f_1602_62748" x="1.96158" y="3.3356" width="591.528" height="218.659" filterUnits="userSpaceOnUse" color-interpolation-filters="sRGB">
<feFlood flood-opacity="0" result="BackgroundImageFix"/>
<feBlend mode="normal" in="SourceGraphic" in2="BackgroundImageFix" result="shape"/>
<feGaussianBlur stdDeviation="1.84782" result="effect1_foregroundBlur_1602_62748"/>
</filter>
<linearGradient id="paint0_linear_1602_62748" x1="86.8292" y1="-74.7805" x2="500.422" y2="278.385" gradientUnits="userSpaceOnUse">
<stop stop-color="#FFF9F1"/>
<stop offset="0.14" stop-color="#FFF8EF"/>
<stop offset="0.27" stop-color="#FFF9F2"/>
<stop offset="0.62" stop-color="#FFF5E8"/>
<stop offset="0.75" stop-color="#FFF4E6"/>
<stop offset="0.87" stop-color="#FFF4E6"/>
<stop offset="1" stop-color="#FFF4E6"/>
</linearGradient>
</defs>
</svg>
