<svg width="195" height="9" viewBox="0 0 195 9" fill="none" xmlns="http://www.w3.org/2000/svg">
<path d="M0.815483 3.13488C0.526224 3.2047 0.695721 3.33439 1.49368 3.28452L2.05231 3.03516L0.815483 3.12489V3.13488Z" fill="#725338"/>
<path d="M6.17511 3.4242C7.1033 3.28448 8.1811 3.06485 7.57228 2.86523C6.65408 3.11475 6.42463 3.025 5.43656 3.31443C4.63811 3.36433 4.04925 3.2745 4.179 3.18468C3.89955 3.25454 2.94137 3.16473 2.51221 3.32442C3.55018 3.47413 4.86759 3.45411 6.23493 3.26448C6.53434 3.3044 6.24498 3.3743 6.1851 3.4242H6.17511Z" fill="#725338"/>
<path d="M83.9633 2.30709L83.4644 2.28711C83.6041 2.29709 83.7737 2.30709 83.9633 2.30709Z" fill="#725338"/>
<path d="M132.159 2.06641C131.79 2.06641 131.64 2.09627 131.62 2.11624C131.959 2.09627 132.239 2.08637 132.159 2.06641Z" fill="#725338"/>
<path d="M140.383 2.34603C140.203 2.34603 140.054 2.33615 139.894 2.32617C140.084 2.34613 140.263 2.35601 140.383 2.34603Z" fill="#725338"/>
<path d="M83.9634 2.30664L85.2501 2.36642C85.3399 2.28663 84.5918 2.31662 83.9634 2.30664Z" fill="#725338"/>
<path d="M16.8942 2.60547C16.6246 2.62543 16.4049 2.64548 16.1953 2.68541C16.4149 2.67542 16.6346 2.65542 16.8542 2.64544C16.8642 2.63546 16.8742 2.62543 16.8942 2.60547Z" fill="#725338"/>
<path d="M62.7248 2.80664H62.3355C62.2257 2.84657 62.1159 2.8765 62.0161 2.91643L62.7348 2.80664H62.7248Z" fill="#725338"/>
<path d="M46.4169 3.12547C46.7864 3.12547 46.9062 2.92582 47.046 2.83594C46.8363 2.91583 46.5666 2.96567 46.2471 2.98564C46.2471 3.02559 46.2871 3.06555 46.4169 3.12547Z" fill="#725338"/>
<path d="M20.5668 3.32422L20.1079 3.36404C20.2276 3.36404 20.4271 3.3342 20.5668 3.32422Z" fill="#725338"/>
<path d="M74.3921 2.66602C74.3921 2.66602 74.4821 2.71596 74.5421 2.73596C74.5421 2.71596 74.4821 2.68602 74.3921 2.66602Z" fill="#725338"/>
<path d="M174.986 4.57227C174.986 4.57227 174.986 4.59217 174.986 4.60217C175.086 4.58217 175.106 4.57227 174.986 4.57227Z" fill="#725338"/>
<path d="M193.87 5.97852H193.61C193.61 5.97852 193.55 6.0585 193.55 6.0885L193.87 5.97852Z" fill="#725338"/>
<path d="M155.435 2.69531C155.435 2.69531 155.395 2.69531 155.365 2.69531C154.965 2.71531 155.195 2.71531 155.435 2.69531Z" fill="#725338"/>
<path d="M73.573 4.86133C75.1394 4.99102 71.0291 5.16068 73.3935 5.29037C73.1741 5.22054 75.5284 4.92119 73.573 4.86133Z" fill="#725338"/>
<path d="M17.3135 2.62545C17.5331 2.62545 17.7528 2.61545 17.9824 2.60547C17.6729 2.60547 17.4732 2.60549 17.3135 2.62545Z" fill="#725338"/>
<path d="M73.394 5.28125L73.634 5.29126C73.534 5.29126 73.474 5.29125 73.394 5.28125Z" fill="#725338"/>
<path d="M177.082 1.70703C177.152 1.73703 177.292 1.75699 177.442 1.78699C177.432 1.76699 177.352 1.74703 177.082 1.70703Z" fill="#725338"/>
<path d="M164.287 2.41602L164.926 2.45598C164.676 2.43602 164.466 2.426 164.287 2.41602Z" fill="#725338"/>
<path d="M163.677 2.38577C163.328 2.38577 163.209 2.35585 162.74 2.39575C162.79 2.39575 162.829 2.40574 162.889 2.41572C163.059 2.3858 163.288 2.36582 163.687 2.38577H163.677Z" fill="#725338"/>
<path d="M149.715 2.81641C149.795 2.81641 149.885 2.83628 149.974 2.84626C150.114 2.84626 150.274 2.8264 150.414 2.8264H149.715V2.81641Z" fill="#725338"/>
<path d="M132.509 4.40206C132.818 4.45193 133.008 4.51182 133.157 4.57167C132.938 4.43202 134.992 4.37213 132.509 4.40206Z" fill="#725338"/>
<path d="M16.9044 2.71477C16.9842 2.66488 17.1039 2.63498 17.3134 2.625C17.1537 2.625 17.0041 2.635 16.8444 2.64498C16.8045 2.67491 16.7946 2.70479 16.8944 2.71477H16.9044Z" fill="#725338"/>
<path d="M163.159 3.95312L160.943 3.99296C161.562 3.99296 162.371 3.98307 163.159 3.95312Z" fill="#725338"/>
<path d="M32.2739 6.09842L32.7828 6.05859C32.5833 6.05859 32.4036 6.06849 32.2739 6.09842Z" fill="#725338"/>
<path d="M154.355 4.22277C153.956 4.16292 153.537 4.13302 153.098 4.12305C153.008 4.143 152.899 4.15303 152.839 4.18295L154.345 4.22277H154.355Z" fill="#725338"/>
<path d="M147.789 4.11304C145.673 4.11304 146.791 4.36258 146.342 4.51229C143.816 4.58215 145.174 4.32271 144.315 4.19296C142.739 4.26283 141.531 4.50229 140.353 4.4923C140.263 4.45238 140.034 4.43244 140.303 4.38253C138.637 4.59212 135.353 4.38255 133.417 4.65203C133.277 4.63207 133.197 4.61205 133.167 4.59209C133.487 4.72183 133.527 4.85168 133.467 4.9415C132.519 4.9415 131.71 5.11117 131.351 4.9415C131.93 4.9415 131.98 4.87164 132.249 4.82174L131.251 4.90154C130.353 4.66201 132.608 4.8117 132.608 4.63205C130.672 4.72187 128.417 4.93145 126.929 4.87157C126.62 4.63204 130.403 4.77184 128.417 4.57223L130.712 4.65203C128.955 4.28275 132.109 4.67199 130.492 4.28275C127.468 4.23285 127.109 4.42245 124.095 4.37254C123.416 4.51227 124.325 4.56225 123.646 4.70198C119.364 4.96147 120.262 4.123 117.119 4.46233C116.3 4.632 115.991 4.9315 113.745 4.79177L114.504 4.51229C111.579 4.51229 112.837 4.91151 109.773 4.7618C110.312 4.65201 112.068 4.652 111.629 4.62206C109.643 4.43243 110.222 4.79178 108.695 4.80176L108.376 4.57223C105.262 4.64209 101.828 4.8417 98.3752 4.9415C98.5648 4.87164 99.1536 4.78172 98.3452 4.72184C93.9937 4.91147 89.0533 4.82167 84.8515 4.75181L83.2546 4.98134C82.8854 4.98134 82.556 4.90149 82.9652 4.85159C81.3284 4.80169 82.8853 4.98144 82.0969 5.08124C81.1687 5.11119 80.8693 4.98139 81.4581 4.91153C78.5737 5.14108 73.2441 5.4305 70.19 5.27082L70.779 5.20101C68.4036 5.17106 68.1142 5.68003 65.9185 5.53032L66.3376 5.48037C61.1976 5.49035 55.5188 5.80972 51.5864 5.60013C50.8479 5.90953 46.4963 5.59018 46.1769 6.00937C43.2327 5.87962 44.071 5.78979 39.9391 5.75985C38.8313 5.76983 38.3023 6.05927 36.9349 6.13912L36.895 5.92957L35.0486 6.19906L34.0506 5.9694L32.773 6.05932C33.282 6.05932 33.8609 6.12919 33.7811 6.18907C31.785 6.33878 28.9006 6.17909 28.8507 6.06931L24.13 6.38863C24.2298 6.29881 25.0282 6.24893 25.647 6.16909C23.1319 6.45852 25.1779 5.95943 22.8724 6.22891C23.1818 6.26883 22.7127 6.35871 22.6529 6.40861C21.4951 6.30881 18.8701 6.38863 16.9239 6.50839L17.2932 6.34867C13.7801 6.41853 9.89764 6.65813 5.95533 6.78788C7.37256 6.80784 7.05326 7.07729 5.9055 7.13717H5.89551L5.93547 8.29495L6.39453 8.5045C7.13309 8.34481 5.18684 8.45458 6.71386 8.23501C8.181 8.21504 7.71194 8.46464 6.86359 8.56444L8.65015 8.43469C8.75993 8.49457 8.3407 8.54443 8.23092 8.63425C8.9595 8.47456 11.3249 8.77396 12.3729 8.49451L12.4726 8.55445C16.405 8.43468 18.1916 8.30495 21.3953 8.19517C21.4552 7.99556 22.7027 8.00553 23.6608 7.8159C26.0162 7.8159 28.6412 7.88573 31.4756 7.77594C33.4717 7.61625 32.0545 7.59633 32.9427 7.44663C33.0924 7.6163 35.9269 7.51649 34.4598 7.69614C37.8632 7.56639 38.8114 7.52641 43.113 7.25693C42.6439 7.19705 42.1148 7.17707 42.3843 7.11719C43.1628 7.06729 44.1609 7.13714 44.0511 7.22696L43.8415 7.24694C48.6721 6.82776 55.0197 7.43664 58.8622 6.93761L58.6426 6.95747L62.6348 6.63814C64.4712 6.61818 61.537 6.8078 62.9043 6.87767C67.2059 6.4485 69.711 6.71801 73.2541 6.40861C76.0187 6.85774 82.9951 6.07927 86.7179 6.29884L86.4983 6.17908C87.4565 6.02937 87.6561 6.21892 88.3647 6.21892C88.2649 6.12909 87.3266 6.13915 87.9155 6.04933C96.0297 5.65011 104.673 5.72987 112.997 5.59014C116.041 5.53026 114.703 4.8916 118.546 5.07125L117.468 5.33076C123.606 4.87165 130.023 4.96144 136.032 4.54226C135.672 4.60214 135.662 4.67203 135.084 4.69199C136.361 4.82174 139.784 4.56222 139.794 4.42249C140.733 4.41251 140.014 4.54218 140.593 4.59209C141.87 4.65197 143.787 4.28278 144.465 4.43248C144.585 4.45245 144.106 4.50231 143.876 4.52228C144.705 4.41249 147.749 4.42245 146.94 4.25278C149.196 4.27274 151.252 4.03318 153.058 4.09306C154.226 3.84355 156.921 4.08312 157.29 3.76374C157.14 4.08312 161.252 3.90354 162.68 3.70393C162.201 3.81371 163.927 3.76377 163.368 3.91348C164.995 3.86357 166.482 3.75373 166.203 3.60402C169.217 3.89346 172.221 3.11505 173.928 3.55419C177.361 3.35458 180.605 3.15489 183.619 2.97524V1.65787C182.192 1.63791 180.914 1.62788 179.657 1.60792C179.776 1.37836 182.381 1.55806 183.639 1.52811V3.11499C183.2 3.15491 182.93 3.20485 182.98 3.2847C183.22 3.26474 183.449 3.25472 183.639 3.24474V1.39836C179.886 1.41832 177.541 1.578 173.678 1.38837C172.62 1.30853 174.287 1.26857 174.646 1.22865C170.514 1.22865 166.662 1.03904 162.989 1.12887C162.999 1.09893 163.398 1.07902 163.768 1.05906C163.039 1.05906 162.081 0.979161 162.161 1.12887L162.869 1.0989C164.017 1.32845 159.985 1.47827 159.855 1.58806C161.093 1.18884 156.232 1.44831 158.188 0.949288C157.709 0.969249 157.111 1.03904 157.22 1.12887C156.512 1.09893 156.292 1.03909 157.011 0.929307C154.416 0.97921 155.334 1.14882 152.989 1.11888C152.989 1.04901 153.468 1.02913 153.717 0.949288C152.53 1.06905 151.332 1.19872 149.346 1.11888C149.465 1.07896 149.236 1.01911 149.825 1.02909C146.411 1.00913 144.016 1.34841 140.273 1.21866C141.381 0.919244 139.006 1.11887 138.806 0.859375L136.79 0.929307L137.599 1.05906C135.842 1.05906 134.285 1.23867 132.768 1.14885L134.075 1.04907L130.772 1.0989L132.638 1.1988C130.852 1.32855 132.828 1.52817 130.482 1.4583C130.962 1.42836 128.726 1.45828 127.808 1.30857C126.939 1.3984 126.041 1.48822 124.734 1.42833C124.394 1.34849 125.003 1.13893 124.784 1.08903C123.925 1.3086 120.662 1.15883 119.574 1.39836C119.933 1.33848 119.953 1.20876 119.833 1.17882L119.115 1.3584C118.296 1.3085 118.177 1.27862 118.306 1.16883C115.851 1.14887 119.085 1.49814 116.17 1.36839C116.4 1.34843 116.29 1.32852 116.769 1.29858C113.845 1.24868 111.12 1.44826 108.436 1.38837C107.637 1.12888 110.781 1.3086 109.873 1.08903C106 1.16887 101.848 1.45829 98.1057 1.43832L98.8043 1.4583C98.2853 1.83756 96.0098 1.30851 94.1135 1.49814C94.5726 1.4682 94.7223 1.28863 94.5925 1.32855C92.0275 1.29861 89.3427 1.4782 85.4503 1.63789L85.9294 1.53811C84.4123 1.47822 81.9471 1.5381 80.3103 1.52811C79.8313 1.62792 78.8931 1.6279 79.462 1.75765C74.4118 1.27858 69.8507 2.17688 65.3695 1.8076C65.9084 1.8076 66.647 1.70782 66.2178 1.70782L62.4153 1.85743C62.7147 2.01712 62.9142 1.94733 63.7227 2.05711C63.2436 2.15692 62.1657 2.25668 61.2275 2.26666C62.9342 2.12694 61.2076 2.0072 60.469 1.92736C60.5888 1.97726 60.3393 2.03718 60.4092 2.08708C58.4131 1.82759 60.0798 2.41637 57.3651 2.26666L57.5048 2.17687C56.4868 2.23676 55.5587 2.36645 54.4608 2.36645C54.0017 2.1868 55.5386 2.25665 55.6085 2.10694C54.0715 2.14686 52.5745 2.51614 51.1772 2.35646C51.8359 2.31653 52.7641 2.25675 53.4228 2.20684C51.9058 2.01721 51.7262 2.07707 50.5984 2.05711H50.7081L48.1032 2.00716L48.7718 2.05711C46.8556 2.58608 44.8495 2.21683 42.2645 2.58611C44.7796 2.23679 42.6738 2.40644 42.8635 2.18686C42.1948 2.13696 41.1867 2.09701 41.4761 2.02714C40.2485 2.22675 39.4301 1.93726 37.7035 2.21671C37.6236 2.14685 36.386 2.23676 36.6655 2.05711C35.0686 2.14694 37.0447 2.16685 36.915 2.25667C34.4598 2.53613 31.1263 2.08699 27.6032 2.48621C24.5591 2.68582 24.0001 2.92535 21.1657 3.105C20.2075 3.01517 21.9442 2.83562 21.9442 2.83562C20.3972 2.76576 19.2394 2.81563 17.7922 2.92541C18.0817 2.85555 17.7823 2.81557 17.3332 2.74571C16.1654 2.78563 16.5647 3.01526 15.0177 2.94539C15.2772 2.86555 15.6165 2.73575 16.1754 2.64593C14.8081 2.7657 13.4508 2.87546 12.0336 2.99522C11.6543 2.88544 12.8819 2.7957 13.3909 2.70587C11.794 2.7957 9.24897 2.91538 8.76991 3.11499L9.79793 3.15495C9.21906 3.17491 9.49852 3.00529 9.92768 2.95538C11.295 2.77574 11.9038 2.9753 11.9836 3.03519L10.9756 3.105C12.0235 3.47428 15.0376 2.94537 17.0737 2.91542L16.2353 3.22476L18.3212 2.9354C18.7703 3.00527 19.0797 3.15489 18.0717 3.22476C19.5389 3.33454 19.3593 3.09501 20.6168 3.22476C20.7565 3.24472 20.6966 3.26473 20.5668 3.27471L21.9941 3.15495C21.7147 3.22481 22.2336 3.35461 21.3553 3.33465C23.9203 3.44444 25.4773 3.02515 26.4554 3.22476L26.2458 3.24474C29.7989 3.06509 26.5852 3.02514 29.25 2.71574L31.0564 3.2049L31.4057 2.98523C31.775 2.98523 32.4937 2.98532 32.3639 3.07515C33.7213 2.90548 32.1343 2.98533 32.9228 2.83562C34.6893 2.99531 37.7933 2.64589 38.1925 2.97524C38.8213 2.79559 36.5057 2.88543 38.3821 2.73572C38.931 3.09502 40.5579 2.62596 42.1747 2.76569C41.6857 2.9653 40.1586 2.89546 41.7755 3.03519C42.7436 2.69585 44.9194 3.03523 46.2767 2.95538C46.3366 2.69589 49.231 2.79566 51.5165 2.66591C51.3768 2.75574 55.8182 2.72579 57.944 2.78567L57.8841 2.82563C58.2933 2.56614 60.4791 2.57604 62.076 2.4962C62.0161 2.65589 61.7266 2.71582 60.8683 2.79566L62.3653 2.76569C62.7147 2.67587 63.1838 2.62603 64.1519 2.58611L63.7726 2.78567C65.7687 2.74575 67.7848 2.49628 70.3598 2.57612C70.4995 2.39647 68.3138 2.10703 71.0285 1.94734C71.1283 2.04715 71.2381 2.20677 70.5195 2.25667C70.749 2.23671 71.3478 2.16691 71.8169 2.19685L70.739 2.37644C71.9067 2.42634 71.3479 2.22671 72.286 2.23669C72.2661 2.37642 72.9746 2.32659 72.8449 2.43638C72.6054 2.45634 72.0266 2.38648 71.6673 2.44637C72.7252 2.45635 73.9927 2.51615 74.4219 2.61596C74.3321 2.53611 74.4218 2.42636 75.1903 2.39642C77.1864 2.35649 75.8791 2.55607 77.0368 2.60597C77.5159 2.50616 78.7933 2.58603 78.8232 2.37644C79.4021 2.37644 79.5119 2.46628 79.7415 2.51618C80.7695 2.40639 84.5621 2.4263 83.3944 2.21671H83.1249C83.1249 2.21671 83.2346 2.19685 83.2945 2.19685C86.6779 1.93736 90.3308 2.22671 93.6843 2.10694V2.17687C95.6804 2.07707 98.1456 2.07706 99.5728 1.91737C100.162 1.91737 100.97 2.02711 100.721 2.11693C102.258 2.04707 102.427 1.97728 104.643 2.0671C103.106 2.19685 105.172 2.16688 103.066 2.16688C105.062 2.20681 105.511 2.31654 107.647 2.11693C106.918 2.29658 109.144 2.32655 110.092 2.26666L108.695 2.1469C109.763 2.11696 110.691 2.12692 111.639 2.12692L111.13 2.36645C115.202 2.61596 118.476 1.83753 121.58 2.29664C122.658 2.12697 119.364 2.1868 120.332 1.99717C122.209 2.02711 124.165 2.34647 124.744 2.34647C127.309 2.46623 127.139 1.99725 129.824 2.07709C129.484 1.99725 129.155 1.77766 131.161 1.68784C133.038 1.71778 133.467 2.03707 132.279 2.09695C131.83 2.09695 131.61 2.07706 131.63 2.04712C131.021 2.07706 130.233 2.11702 130.972 2.20684L131.211 2.12692C132.139 2.20677 134.724 2.20674 134.115 2.34647C135.533 2.26662 134.724 2.20681 133.676 2.16688C136.082 2.29663 137.439 2.17684 139.914 2.26666C139.525 2.21676 139.156 2.11694 139.555 2.12692C143.188 2.23671 141.152 1.97727 143.617 1.93735C145.014 2.0671 143.118 2.23672 145.593 2.13691C147.11 2.22674 145.912 2.35652 145.314 2.42639C147.569 2.27668 149.525 2.56605 150.813 2.60597L149.625 2.66591C150.334 2.63597 150.923 2.63595 151.512 2.64593L150.833 2.47622C151.531 2.51614 152.12 2.51625 152.11 2.58611C152.829 2.4863 151.561 2.30661 152.989 2.16688C153.917 2.25671 155.823 2.10703 156.143 2.32661C153.218 2.2268 156.462 2.54617 153.987 2.56613C154.466 2.54617 155.045 2.54619 155.743 2.58611C155.843 2.61605 155.643 2.62597 155.454 2.64593C158.248 2.8655 156.741 2.40644 159.646 2.43638C159.276 2.55614 160.314 2.67589 160.793 2.66591C159.626 2.64595 160.234 2.4463 161.312 2.37644C163.169 2.50618 163.338 2.33651 164.307 2.37644L163.199 2.30663C163.578 2.18686 164.506 2.22681 165.804 2.20684C165.913 2.30665 164.626 2.25672 165.085 2.30663C166.532 2.117 168.339 2.59599 170.345 2.48621C171.273 2.58601 170.435 2.7258 171.243 2.79566C173.499 2.6759 173.678 3.03512 176.044 2.96525C175.365 2.77562 175.245 2.81566 176.912 2.70587H173.02L175.515 2.53616C174.337 2.49624 173.04 2.56608 172.331 2.51618C173.519 2.41637 173.399 2.45632 172.84 2.29664C174.437 2.59605 176.024 2.24666 177.88 2.47622L177.81 2.88545C179.796 3.07508 181.473 2.96525 183.599 2.96525V1.66786C182.77 1.71776 181.852 1.75765 180.814 1.75765L181.982 1.79761C181.503 1.97726 179.746 1.88738 178.569 1.98718C178.679 1.84745 177.94 1.81752 177.431 1.74766C177.491 1.84746 174.776 1.81751 174.457 2.10694L172.83 1.97719C169.906 1.98717 169.506 2.46627 166.692 2.50619C167.53 2.32654 166.253 2.26663 168.139 2.10694C167.201 2.13688 166.353 2.13688 166.343 2.2267C165.794 2.15684 163.748 2.49621 162.879 2.38643C162.48 2.45629 162.36 2.60599 161.302 2.62595C161.183 2.60599 161.302 2.55614 161.302 2.55614C161.302 2.626 159.656 2.69589 160.584 2.82563C157.679 2.48629 152.5 3.10507 149.965 2.80565C147.919 2.89548 145.443 3.01516 143.587 3.09501C143.707 3.05508 143.587 3.0252 143.946 3.0252C141.371 2.97529 142.379 3.46435 139.455 3.41445C137.958 3.2348 141.002 3.24481 140.074 3.19491C139.655 2.75576 136.551 3.36454 134.574 3.15495L135.054 3.11499C133.547 3.0052 131.391 3.39452 128.936 3.44442C128.936 3.44442 129.055 3.40443 128.946 3.37449C127.269 3.65394 124.095 3.83356 121.74 3.96331C122.468 3.7637 122.807 3.83364 122.358 3.67395C121.3 3.73384 122.678 3.95343 120.562 4.0732C119.873 3.99336 118.346 3.95338 118.137 3.77374L120.133 3.70393C119.105 3.48435 117.558 3.7937 116.5 3.77374L116.63 3.66396C113.575 3.79371 113.546 4.06317 110.262 4.14301L110.601 4.21282C108.815 4.54218 109.094 4.10306 107.308 4.36255L106.759 4.10305C105.581 4.20285 102.617 4.4923 100.501 4.61207C101.699 4.37253 104.184 4.19292 105.711 4.02325C104.533 4.05319 101.719 4.16302 101.12 4.32271C101.589 4.28279 102.188 4.19287 102.657 4.22281C101.22 4.4823 99.3333 4.64198 96.9979 4.71185C97.3971 4.16292 90.8997 4.7618 89.193 4.39252C85.0611 4.7119 80.9791 4.55218 76.1685 4.73183C77.8951 5.10111 74.7611 4.78182 75.0705 5.20101C73.9527 5.26089 73.5237 5.27079 73.4238 5.24084L70.0105 5.09111C69.202 4.99131 71.0783 4.96139 70.9686 4.87157C68.5133 4.91149 69.9307 4.7219 68.3038 4.66202C68.6432 4.80175 67.4555 4.91151 66.0482 4.89155L68.0243 5.03129C64.601 5.36065 65.0401 4.76175 61.5868 5.09111L62.6748 4.92152C60.8983 5.05127 56.1175 5.1211 54.3909 5.51034C54.0715 5.47042 53.6524 5.37066 54.4408 5.31078C50.1891 5.39062 44.9992 5.95943 41.6957 5.84964L42.015 5.73987C41.2265 5.78977 40.6377 5.97944 39.6496 5.89959C39.6995 5.85967 39.9691 5.78982 39.5998 5.78982C39.1806 5.83973 37.5038 6.03931 36.4459 6.00937L37.3442 5.85963C33.2023 5.84965 30.9965 6.33873 27.5233 6.51838C27.5233 6.20899 24.2597 6.20893 22.6329 6.20893L22.6927 6.1591C17.8721 6.26888 14.5087 6.65813 10.0474 6.91763C9.06935 6.8278 7.61219 6.81775 5.92548 6.8477L5.97531 8.5045C9.02935 8.44462 12.822 8.28499 15.7063 8.31493C15.0277 8.28499 15.8062 8.07535 16.6046 8.01546C17.6526 8.0454 19.489 7.71604 19.3293 8.00547H18.96C19.7584 8.26497 21.9043 8.1252 23.581 8.08527L23.8505 7.70601C28.2519 8.11521 35.338 7.17705 37.7533 7.59624C38.8112 7.47647 40.1187 7.44663 41.1667 7.32686L41.1169 7.52643C44.0511 7.50647 45.5182 7.48646 49.1411 7.35671L48.4026 7.51644C50.4486 7.47651 50.9675 6.88772 52.8539 6.82784L53.4328 7.1072C57.0058 7.01738 60.6188 7.19702 64.1419 6.85769C64.082 6.89761 63.9822 6.98747 63.4033 7.01741C65.0801 6.98747 69.9107 7.07734 69.2919 6.6881C69.3418 6.94759 72.9747 6.63812 74.9009 6.48841L74.6015 6.6881C76.2283 6.40864 76.2783 6.33869 78.5439 6.22891C79.0828 6.24887 79.0228 6.3786 78.3042 6.33868C80.1007 6.40854 79.7016 6.1292 81.8773 6.19906L81.0688 6.33868C82.9152 6.31872 82.7656 6.25883 83.7836 6.08917C84.9414 5.98936 87.2867 6.07922 87.5662 6.24889C87.8157 6.1391 88.8237 5.97943 89.9116 6.01936C90.0613 6.07924 89.6621 6.12915 89.4625 6.14911C92.5565 6.23893 94.0535 5.85967 96.1794 6.01936C96.2193 6.07924 96.359 6.10917 96.5387 6.12913C94.0835 6.15907 92.1073 6.17906 92.297 6.1591C92.297 6.33875 94.2831 6.3387 92.7062 6.60817C94.2931 6.44848 97.0078 6.11919 98.944 6.16909C99.0338 6.18905 99.1337 6.19897 99.2035 6.22891L99.004 6.24889C99.4531 6.25887 99.8523 6.23898 100.222 6.19906C100.84 6.21902 101.23 6.23889 101.818 6.22891C102.048 6.36864 104.094 6.27886 105.082 6.27886C105.002 6.07925 106.29 6.09925 105.082 5.94955C105.242 5.95953 104.892 5.9794 104.234 5.98938C104.084 5.98938 103.914 5.99938 103.815 6.00937C103.834 6.00937 103.854 5.99937 103.884 5.98938C103.236 5.99937 102.387 6.01937 101.429 6.02935C102.208 5.91956 103.026 5.81977 104.114 5.91957C104.623 5.78983 105.172 5.65002 105.491 5.59014C106.849 5.84963 109.454 5.96945 109.823 6.13912C112.837 5.99939 116.929 5.98938 118.825 5.61012C119.684 5.56022 119.813 5.70996 120.133 5.76984C119.634 5.80976 119.045 5.80973 118.785 5.85963C120.502 5.75983 123.865 5.79979 124.275 5.53032C126.44 5.63012 123.057 5.76979 126.031 5.71989L125.632 5.79981C131.471 6.17907 135.123 5.09115 141.611 5.6301C141.162 5.60016 140.942 5.58023 140.842 5.54031C148.228 5.7499 156.063 5.37064 163.348 5.78982C165.414 5.87965 165.644 5.71992 166.911 5.62011L167.361 5.83965L169.526 5.6301C172.59 5.50035 174.826 6.229 178.709 5.94955L178.209 5.79981C179.607 5.83974 182.621 5.8197 182.391 5.9694C182.531 5.94944 182.85 5.82975 183.389 5.91957L183.429 6.02935L186.853 5.92957C189.507 6.07927 186.423 6.35865 190.296 6.47842C191.733 6.47842 194.398 6.25892 193.869 6.17908C193.29 6.15912 192.392 6.0692 192.352 5.95941L193.669 5.93956C193.919 5.62018 194.947 5.31072 191.713 5.00132L189.457 5.14106L188.739 4.96136L190.635 5.00132C189.567 4.82167 188.879 4.94144 188.11 5.00132C187.93 4.9115 187.621 4.84168 187.172 4.80176L184.956 5.05127C184.687 4.92153 185.954 4.82163 184.467 4.71185C183.429 4.83161 185.455 5.02135 183.739 5.07125C182.661 4.8916 182.98 4.78175 181.713 4.88156C181.533 4.79174 181.802 4.7418 182.311 4.72184C181.184 4.7917 179.327 4.68193 178.748 4.86158C177.631 4.66197 174.946 4.85165 175.066 4.54226C174.706 4.61212 173.079 4.75181 172.041 4.75181C173.938 4.41247 168.169 4.67199 168.678 4.28275C167.271 4.58217 163.628 4.35262 161.143 4.53227C161.282 4.50232 161.552 4.45236 161.771 4.47232C160.374 4.4324 159.975 4.33264 159.077 4.26277C158.897 4.53225 156.721 4.58213 155.554 4.74182C153.847 4.46236 156.592 4.42249 156.063 4.17298C156.142 4.39255 153.088 4.37261 153.667 4.56224C152.36 4.39257 152.54 4.47234 151.871 4.24279C151.641 4.58213 150.653 4.29269 149.565 4.4923C147.679 4.32264 149.076 4.17296 147 4.27276C146.012 4.16298 147.859 4.04323 147.859 4.04323L147.789 4.11304ZM98.3752 5.00132C98.8043 4.99134 99.1635 4.98133 99.3931 4.97135C99.1835 4.97135 98.8842 4.98136 98.3752 5.00132ZM94.2232 5.06126C94.7323 5.06126 95.361 5.05126 96.0197 5.04128C96.1694 5.11115 96.0098 5.18102 95.5906 5.18102C95.8201 5.13112 94.842 5.11117 94.2133 5.06126H94.2232ZM103.026 6.29884C102.367 6.32878 102.148 6.2988 102.058 6.25888C102.367 6.2489 102.727 6.23888 103.206 6.21892C103.226 6.21892 103.266 6.19906 103.286 6.19906C103.226 6.23898 103.156 6.2689 103.026 6.29884Z" fill="#725338"/>
<path d="M104.204 6.03847C104.304 6.03847 104.354 6.03845 104.473 6.01848C104.334 6.0085 104.214 5.9885 104.084 5.97852C104.004 5.99848 103.924 6.0185 103.854 6.03847C103.974 6.03847 104.094 6.03847 104.204 6.03847Z" fill="#725338"/>
<path d="M83.3746 2.27783H83.4646C83.3946 2.27783 83.3247 2.26781 83.2847 2.25781C83.3447 2.25781 83.3446 2.26783 83.3846 2.27783H83.3746Z" fill="#725338"/>
<path d="M36.895 5.87891L36.905 5.92896L37.265 5.87891H36.895Z" fill="#725338"/>
<path d="M60.4996 1.94653C60.4996 1.94653 60.3697 1.91648 60.1997 1.89648C60.2097 1.90648 60.3396 1.92653 60.4996 1.94653Z" fill="#725338"/>
<path d="M50.6274 2.07705L49.231 2.03711C49.8394 2.06703 50.2783 2.07705 50.6274 2.07705Z" fill="#725338"/>
<path d="M43.0333 2.12695C42.9333 2.16695 42.9133 2.18692 42.8833 2.21692H42.8933L43.0233 2.12695H43.0333Z" fill="#725338"/>
<path d="M163.788 1.08921C163.887 1.08921 163.987 1.08921 164.077 1.08921C164.766 1.05927 164.297 1.06925 163.788 1.08921Z" fill="#725338"/>
<path d="M127.848 1.3398C128.227 1.29987 128.606 1.26983 129.005 1.23989C128.367 1.22991 127.868 1.22003 127.848 1.3398Z" fill="#725338"/>
<path d="M130.671 1.23921C130.033 1.19931 129.494 1.20928 129.005 1.23921C129.534 1.24919 130.143 1.26914 130.671 1.23921Z" fill="#725338"/>
<path d="M10.117 2.75586H9.74794C9.74794 2.75586 9.73793 2.77584 9.70801 2.78581L10.117 2.75586Z" fill="#725338"/>
<path d="M9.70769 2.78516L9.29883 2.81511C9.48834 2.81511 9.64785 2.80511 9.70769 2.78516Z" fill="#725338"/>
<path d="M8.45068 2.88617L9.30847 2.81641C9.00924 2.81641 8.65017 2.81635 8.45068 2.88617Z" fill="#725338"/>
<path d="M20.1777 2.6051L20.2877 2.53516C20.2277 2.55516 20.1877 2.5751 20.1777 2.6051Z" fill="#725338"/>
<path d="M23.2317 2.51634C22.5031 2.51634 21.4053 2.40652 20.3873 2.47638L20.2974 2.53632C20.7764 2.41655 22.553 2.65607 23.2417 2.51634H23.2317Z" fill="#725338"/>
<path d="M35.9968 3.125H33.4318C33.8809 3.18488 34.4698 3.27477 33.312 3.31469C36.5457 3.47438 32.6434 3.15494 35.9968 3.125Z" fill="#725338"/>
<path d="M43.931 3.07422C42.5545 3.13407 43.9509 3.18384 43.8811 3.22374C44.7488 3.13397 44.9583 3.11412 43.931 3.07422Z" fill="#725338"/>
<path d="M101.279 2.23633L101.14 2.41599C102.197 2.37608 101.14 2.34609 101.279 2.23633Z" fill="#725338"/>
<path d="M112.237 1.22885L111.21 1.11914L110.721 1.28875L112.237 1.22885Z" fill="#725338"/>
<path d="M118.726 2.45598L118.267 2.48583L120.033 2.41602L118.726 2.45598Z" fill="#725338"/>
<path d="M152.19 2.56625L152.52 2.77568C153.238 2.71583 153.377 2.46651 152.19 2.56625Z" fill="#725338"/>
<path d="M110.621 4.04348C110.162 3.94367 108.994 3.91373 108.276 4.04348C109.214 4.0335 110.142 4.0834 110.621 4.04348Z" fill="#725338"/>
<path d="M25.9162 7.95517L25.0884 8.05502L26.6543 7.94531L25.9162 7.95517Z" fill="#725338"/>
</svg>
