<svg width="495" height="588" viewBox="0 0 495 588" fill="none" xmlns="http://www.w3.org/2000/svg">
<g clip-path="url(#clip0_1168_44909)">
<path d="M0 32C0 14.3269 14.3269 0 32 0H495V588H32C14.3269 588 0 573.673 0 556V32Z" fill="#FFEFBF"/>
<g clip-path="url(#clip1_1168_44909)">
<path d="M100.177 116.894C101.356 119.065 100.67 123.166 99.3229 126.109C97.9758 129.055 96.1149 131.271 94.507 133.864C91.3414 138.973 89.2317 145.409 87.0248 151.58C84.0526 159.89 71.4367 213.565 54.3531 226.33C36.8881 239.381 18.701 234.94 1.72418 232.218C-8.52563 230.575 -32.2613 224.18 -38.777 215.235C-40.5705 212.776 -49.2034 217.917 -49.975 217.783C-51.4199 217.537 -53.1097 216.984 -53.3278 214.644C-53.5043 212.753 -52.6018 210.67 -51.8062 208.843C-41.244 184.597 -39.4422 154.834 -27.8688 131.67C-19.1307 114.181 -8.27687 99.3516 4.10847 93.7049C18.7286 87.0369 35.1677 92.3079 46.7223 94.9734C69.3367 100.188 81.8632 111.602 92.8064 116.053C92.8064 116.053 98.3301 113.495 100.177 116.894Z" fill="#FFD600"/>
<path d="M92.2721 124.532C92.4161 126.537 93.348 128.305 94.0744 130.118C96.9436 137.253 96.7783 145.69 94.8809 153.461C92.9854 161.234 89.4646 168.466 85.7426 175.463C80.0488 169.872 78.3969 160.734 77.8964 152.138C77.5362 145.957 77.6651 139.455 80.2128 133.789C82.7605 128.123 92.2721 124.532 92.2721 124.532Z" fill="#20AD67"/>
</g>
<path d="M29.233 26.3466C30.9976 27.3106 32.9883 27.4833 34.9063 27.8535C42.4592 29.3011 49.4651 34.005 54.9733 39.805C60.4853 45.6052 64.6623 52.4791 68.5325 59.3948C60.7502 61.1585 52.1711 57.603 44.6716 53.3733C39.278 50.3315 33.8801 46.7054 30.4934 41.497C27.1066 36.2886 29.233 26.3466 29.233 26.3466Z" fill="#20AD67"/>
<path d="M273.321 25.1532C275.085 26.1173 277.076 26.2899 278.994 26.6602C286.547 28.1078 293.553 32.8117 299.061 38.6117C304.573 44.4118 308.75 51.2857 312.62 58.2015C304.838 59.9651 296.259 56.4097 288.759 52.1799C283.366 49.1381 277.968 45.5121 274.581 40.3036C271.194 35.0952 273.321 25.1532 273.321 25.1532Z" fill="#20AD67"/>
<path d="M189.188 155.913C187.743 157.311 186.986 159.16 186.063 160.881C182.435 167.662 175.861 172.953 168.685 176.487C161.509 180.026 153.704 181.97 145.95 183.609C146.58 175.655 152.525 168.52 158.794 162.618C163.301 158.372 168.368 154.297 174.348 152.611C180.328 150.926 189.188 155.913 189.188 155.913Z" fill="#20AD67"/>
<path d="M449.544 161.177C449.07 163.131 449.418 165.098 449.557 167.047C450.114 174.717 447.383 182.701 443.207 189.523C439.031 196.349 433.472 202.162 427.794 207.691C424.076 200.63 425.29 191.423 427.434 183.084C428.977 177.087 431.082 170.935 435.236 166.315C439.391 161.696 449.544 161.177 449.544 161.177Z" fill="#20AD67"/>
<path d="M24.2001 260.83C26.1541 261.305 28.1217 260.956 30.0701 260.817C37.7403 260.261 45.7249 262.991 52.5466 267.168C59.3719 271.344 65.1858 276.902 70.714 282.581C63.6534 286.299 54.4463 285.085 46.1076 282.94C40.1106 281.398 33.9581 279.293 29.3387 275.138C24.7193 270.984 24.2001 260.83 24.2001 260.83Z" fill="#20AD67"/>
<path d="M296.177 286.536C298.131 287.01 300.098 286.662 302.047 286.523C309.717 285.966 317.701 288.697 324.523 292.873C331.349 297.049 337.162 302.608 342.691 308.286C335.63 312.004 326.423 310.79 318.084 308.646C312.087 307.104 305.935 304.998 301.315 300.844C296.696 296.689 296.177 286.536 296.177 286.536Z" fill="#20AD67"/>
<path d="M186.209 447.568C184.279 447.005 182.298 447.263 180.345 447.312C172.657 447.517 164.806 444.424 158.183 439.94C151.556 435.455 146.002 429.637 140.74 423.711C147.963 420.32 157.105 421.954 165.337 424.479C171.257 426.294 177.307 428.679 181.731 433.04C186.155 437.402 186.209 447.568 186.209 447.568Z" fill="#20AD67"/>
<path d="M499.161 390.947C497.841 392.464 497.246 394.371 496.473 396.165C493.44 403.232 487.344 409.067 480.498 413.203C473.651 417.344 466.041 419.95 458.457 422.248C458.402 414.268 463.714 406.651 469.453 400.232C473.581 395.616 478.28 391.121 484.093 388.93C489.906 386.738 499.161 390.947 499.161 390.947Z" fill="#20AD67"/>
<path d="M103.042 497.871C102.568 499.825 102.916 501.793 103.055 503.741C103.612 511.412 100.881 519.396 96.7046 526.218C92.5287 533.043 86.9701 538.857 81.2917 544.385C77.574 537.325 78.7878 528.118 80.9324 519.779C82.4746 513.782 84.58 507.63 88.7344 503.01C92.8888 498.391 103.042 497.871 103.042 497.871Z" fill="#20AD67"/>
<path d="M475.544 495.177C475.07 497.131 475.418 499.098 475.557 501.047C476.114 508.717 473.383 516.701 469.207 523.523C465.031 530.349 459.472 536.162 453.794 541.691C450.076 534.63 451.29 525.423 453.434 517.084C454.977 511.087 457.082 504.935 461.236 500.315C465.391 495.696 475.544 495.177 475.544 495.177Z" fill="#20AD67"/>
<path d="M303.626 530.245C305.39 531.209 307.381 531.381 309.299 531.751C316.852 533.199 323.858 537.903 329.366 543.703C334.878 549.503 339.055 556.377 342.925 563.293C335.143 565.056 326.564 561.501 319.064 557.271C313.671 554.229 308.273 550.603 304.886 545.395C301.499 540.187 303.626 530.245 303.626 530.245Z" fill="#20AD67"/>
<g clip-path="url(#clip2_1168_44909)">
<path d="M60.8421 323.771C63.3086 324.633 65.687 328.332 66.7251 331.593C67.7646 334.857 67.8836 337.915 68.4682 341.088C69.6223 347.339 72.5461 353.877 75.2063 360.278C78.7876 368.896 107.072 419.887 102.772 442.025C98.3783 464.66 80.983 474.114 65.7568 484.052C56.5642 490.053 33.4357 501.922 21.9754 499.552C18.8227 498.901 15.7194 509.064 15.0203 509.508C13.7143 510.343 11.9984 511.111 10.1637 509.434C8.68081 508.079 7.90641 505.806 7.23022 503.81C-1.73877 477.32 -21.4885 452.738 -28.8963 426.376C-34.4894 406.472 -36.5357 387.145 -30.8542 373.919C-24.1492 358.304 -7.53186 350.743 3.40899 344.615C24.8209 332.62 42.7425 332.649 54.4739 328.354C54.4739 328.354 56.9795 322.424 60.8421 323.771Z" fill="#FFD600"/>
<path d="M60.0855 335.37C61.6242 336.838 63.6104 337.559 65.4683 338.462C72.7873 342.008 78.6563 348.731 82.6954 356.163C86.7383 363.596 89.1236 371.761 91.1841 379.885C82.7519 379.556 74.9614 373.576 68.4585 367.203C63.7816 362.62 59.2602 357.438 57.2262 351.191C55.1922 344.943 60.0855 335.37 60.0855 335.37Z" fill="#20AD67"/>
</g>
<g clip-path="url(#clip3_1168_44909)">
<path d="M90.596 581.523C91.5863 583.347 91.0096 586.792 89.8785 589.263C88.747 591.737 87.1841 593.599 85.8336 595.777C83.1747 600.068 81.4027 605.473 79.5491 610.657C77.0528 617.637 66.4564 662.719 52.1076 673.44C37.4385 684.402 22.1628 680.672 7.90373 678.386C-0.70527 677.006 -20.6412 671.635 -26.1139 664.122C-27.6203 662.056 -34.8712 666.374 -35.5193 666.262C-36.7329 666.055 -38.1522 665.591 -38.3354 663.625C-38.4836 662.037 -37.7255 660.287 -37.0574 658.753C-28.1859 638.388 -26.6726 613.39 -16.9519 593.934C-9.61265 579.245 -0.496324 566.789 9.90633 562.047C22.186 556.446 35.9935 560.873 45.6984 563.112C64.6926 567.492 75.2138 577.079 84.4052 580.817C84.4052 580.817 89.0446 578.668 90.596 581.523Z" fill="#FFD600"/>
<path d="M83.9571 587.937C84.078 589.621 84.8608 591.106 85.4708 592.629C87.8808 598.622 87.7419 605.708 86.1483 612.235C84.5562 618.764 81.599 624.838 78.4729 630.715C73.6905 626.019 72.3031 618.344 71.8827 611.124C71.5802 605.932 71.6884 600.471 73.8283 595.712C75.9682 590.953 83.9571 587.937 83.9571 587.937Z" fill="#20AD67"/>
</g>
<g clip-path="url(#clip4_1168_44909)">
<path d="M166.734 -49.9112C169.167 -49.7304 172.206 -46.969 173.93 -44.2785C175.656 -41.5862 176.503 -38.8568 177.797 -36.1364C180.348 -30.7781 184.565 -25.5881 188.511 -20.4582C193.824 -13.5505 231.655 25.6016 233.127 46.607C234.634 68.0824 221.23 80.8126 209.9 93.4556C203.059 101.089 185.068 117.383 174.16 118.014C171.159 118.19 170.816 128.105 170.293 128.675C169.317 129.743 167.955 130.851 165.895 129.782C164.23 128.918 162.983 127.055 161.89 125.419C147.4 103.694 123.648 86.2974 110.596 64.3119C100.741 47.7123 94.2255 30.7765 96.1534 17.475C98.4271 1.77217 111.587 -9.06273 119.973 -17.2336C136.385 -33.2263 152.556 -37.5303 162.098 -44.2397C162.098 -44.2397 162.925 -50.1933 166.734 -49.9112Z" fill="#FFD600"/>
<path d="M168.85 -39.2673C170.592 -38.3154 172.558 -38.1449 174.452 -37.7793C181.91 -36.3499 188.827 -31.7053 194.266 -25.9783C199.709 -20.2512 203.833 -13.4638 207.655 -6.63513C199.97 -4.8937 191.499 -8.40437 184.094 -12.5809C178.768 -15.5844 173.438 -19.1648 170.094 -24.3076C166.75 -29.4505 168.85 -39.2673 168.85 -39.2673Z" fill="#20AD67"/>
</g>
<g clip-path="url(#clip5_1168_44909)">
<path d="M185.652 205.275C188.16 205.461 191.293 208.308 193.07 211.081C194.85 213.857 195.722 216.67 197.056 219.475C199.686 224.998 204.033 230.348 208.101 235.636C213.577 242.757 252.574 283.116 254.092 304.769C255.646 326.906 241.829 340.029 230.149 353.062C223.097 360.93 204.552 377.726 193.307 378.378C190.214 378.558 189.86 388.779 189.321 389.366C188.315 390.468 186.911 391.61 184.788 390.507C183.071 389.617 181.785 387.697 180.659 386.01C165.722 363.616 141.238 345.683 127.784 323.019C117.625 305.908 110.909 288.45 112.896 274.739C115.24 258.552 128.805 247.383 137.45 238.96C154.368 222.474 171.037 218.038 180.873 211.121C180.873 211.121 181.726 204.984 185.652 205.275Z" fill="#FFD600"/>
<path d="M187.834 216.247C189.63 217.228 191.657 217.404 193.609 217.781C201.297 219.254 208.428 224.042 214.034 229.946C219.644 235.85 223.896 242.846 227.835 249.885C219.914 251.68 211.182 248.062 203.549 243.756C198.059 240.66 192.564 236.969 189.117 231.668C185.67 226.367 187.834 216.247 187.834 216.247Z" fill="#20AD67"/>
</g>
<g clip-path="url(#clip6_1168_44909)">
<path d="M204.554 666.934C207.175 666.994 210.712 664.357 212.836 661.66C214.963 658.96 216.152 656.129 217.819 653.355C221.105 647.89 226.155 642.779 230.909 637.703C237.31 630.869 281.844 592.938 285.606 570.627C289.453 547.818 276.444 532.808 265.643 518.108C259.122 509.232 241.579 489.934 229.979 488.123C226.788 487.623 227.454 476.983 226.953 476.32C226.021 475.076 224.68 473.749 222.365 474.678C220.495 475.429 218.967 477.291 217.628 478.927C199.87 500.651 172.657 516.783 156.41 538.936C144.144 555.662 135.412 573.095 136.089 587.521C136.886 604.551 149.831 617.508 157.949 627.119C173.836 645.931 190.681 652.218 200.187 660.386C200.187 660.386 200.451 666.839 204.554 666.934Z" fill="#FFD600"/>
</g>
<g clip-path="url(#clip7_1168_44909)">
<path d="M280.533 114.946C278.521 116.31 277.268 120.203 277.114 123.383C276.96 126.566 277.584 129.343 277.817 132.335C278.274 138.23 277.209 144.806 276.348 151.196C275.189 159.8 261.954 212.398 271.112 231.272C280.473 250.568 298.37 254.908 314.434 260.201C324.132 263.398 347.76 268.538 357.496 263.667C360.174 262.329 365.394 270.722 366.128 270.954C367.502 271.393 369.228 271.673 370.476 269.727C371.485 268.154 371.638 265.926 371.769 263.97C373.498 238.013 385.375 211.194 385.731 185.725C386 166.496 383.219 148.633 374.95 138.102C365.189 125.669 348.444 122.845 337.144 119.951C315.028 114.288 298.925 118.599 287.353 117.542C287.353 117.542 283.682 112.811 280.533 114.946Z" fill="#FFD600"/>
<path d="M283.988 125.192C282.956 126.879 281.343 128.002 279.888 129.258C274.157 134.196 270.488 141.642 268.634 149.289C266.777 156.938 266.585 164.848 266.675 172.643C274.176 170.331 279.75 163.093 284.072 155.81C287.18 150.571 290.006 144.832 290.341 138.73C290.675 132.628 283.988 125.192 283.988 125.192Z" fill="#20AD67"/>
</g>
<g clip-path="url(#clip8_1168_44909)">
<path d="M276.652 367.505C275.006 369.415 274.803 373.656 275.509 376.883C276.216 380.114 277.592 382.728 278.635 385.663C280.687 391.446 281.399 398.323 282.264 404.958C283.43 413.892 284.396 470.174 298.676 486.607C313.275 503.409 332.381 502.917 349.908 503.876C360.49 504.456 385.555 503.215 393.992 495.702C396.314 493.636 403.813 500.635 404.612 500.668C406.107 500.736 407.913 500.55 408.637 498.263C409.222 496.414 408.773 494.14 408.375 492.145C403.087 465.669 407.733 435.585 401.201 409.97C396.27 390.629 388.652 373.484 377.518 365.169C364.376 355.351 346.834 357.051 334.729 357.208C311.038 357.515 296.069 366.19 284.188 368.262C284.188 368.262 279.231 364.513 276.652 367.505Z" fill="#FFD600"/>
<path d="M282.878 376.834C282.3 378.804 280.987 380.366 279.87 382.018C275.463 388.515 273.801 396.968 274.012 405.131C274.22 413.297 276.166 421.275 278.365 429.061C285.256 424.716 288.883 415.957 291.243 407.489C292.941 401.4 294.22 394.886 292.905 388.681C291.59 382.476 282.878 376.834 282.878 376.834Z" fill="#20AD67"/>
</g>
<g clip-path="url(#clip9_1168_44909)">
<path d="M519.705 68.8766C518.911 71.0251 515.632 73.0519 512.757 73.9107C509.88 74.7708 507.197 74.8272 504.407 75.2899C498.91 76.2037 493.134 78.664 487.482 80.8955C479.871 83.8997 434.735 107.893 415.397 103.778C395.626 99.572 387.612 84.1767 379.139 70.6751C374.023 62.5236 363.982 42.0653 366.239 32.0572C366.858 29.304 357.999 26.4248 357.621 25.8051C356.91 24.6473 356.263 23.1311 357.762 21.5493C358.973 20.2707 360.977 19.6275 362.737 19.0661C386.097 11.6194 407.952 -5.30675 431.175 -11.3871C448.709 -15.978 465.681 -17.469 477.186 -12.282C490.767 -6.16043 497.134 8.52331 502.334 18.2091C512.513 37.1648 512.207 52.873 515.788 63.223C515.788 63.223 520.947 65.5121 519.705 68.8766Z" fill="#FFD600"/>
<path d="M509.546 68.0272C508.236 69.3529 507.573 71.0826 506.752 72.6969C503.529 79.0567 497.545 84.0956 490.967 87.5196C484.388 90.9469 477.194 92.9099 470.041 94.5887C470.461 87.2029 475.825 80.4681 481.513 74.8679C485.604 70.8403 490.216 66.9583 495.724 65.2733C501.232 63.5883 509.546 68.0272 509.546 68.0272Z" fill="#20AD67"/>
</g>
<g clip-path="url(#clip10_1168_44909)">
<path d="M536.676 262.852C537.461 264.927 536.352 268.492 534.797 270.947C533.241 273.404 531.316 275.149 529.571 277.261C526.134 281.421 523.475 286.89 520.762 292.113C517.109 299.145 499.366 345.363 482.617 354.643C465.495 364.133 449.854 357.973 435.082 353.489C426.163 350.783 405.824 342.211 401.114 333.462C399.817 331.056 391.512 334.581 390.842 334.368C389.586 333.974 388.15 333.277 388.241 331.168C388.313 329.464 389.369 327.721 390.299 326.192C402.64 305.905 407.858 279.646 420.968 260.445C430.866 245.948 442.323 234.073 454.027 230.554C467.844 226.398 481.828 233.084 491.784 236.858C511.269 244.245 521.026 255.92 530.221 261.209C530.221 261.209 535.446 259.604 536.676 262.852Z" fill="#FFD600"/>
</g>
<g clip-path="url(#clip11_1168_44909)">
<path d="M515.93 551.101C516.824 553.463 515.562 557.523 513.791 560.318C512.018 563.116 509.827 565.104 507.839 567.508C503.926 572.245 500.899 578.473 497.81 584.42C493.649 592.427 473.446 645.054 454.375 655.622C434.878 666.427 417.068 659.414 400.247 654.308C390.091 651.226 366.931 641.465 361.568 631.503C360.091 628.763 350.635 632.777 349.872 632.535C348.442 632.086 346.807 631.292 346.91 628.891C346.993 626.951 348.195 624.966 349.254 623.225C363.307 600.125 369.248 570.224 384.176 548.36C395.446 531.852 408.492 518.331 421.82 514.324C437.552 509.591 453.476 517.204 464.812 521.502C486.999 529.913 498.11 543.208 508.58 549.23C508.58 549.23 514.529 547.402 515.93 551.101Z" fill="#FFD600"/>
<path d="M506.862 557.746C506.73 559.797 507.43 561.717 507.915 563.654C509.834 571.279 508.5 579.803 505.503 587.412C502.508 595.024 497.941 601.863 493.203 608.436C488.208 601.986 487.799 592.5 488.481 583.723C488.971 577.411 490.001 570.843 493.365 565.455C496.73 560.068 506.862 557.746 506.862 557.746Z" fill="#20AD67"/>
</g>
</g>
<defs>
<clipPath id="clip0_1168_44909">
<path d="M0 32C0 14.3269 14.3269 0 32 0H495V588H32C14.3269 588 0 573.673 0 556V32Z" fill="white"/>
</clipPath>
<clipPath id="clip1_1168_44909">
<rect width="132.156" height="143.991" fill="white" transform="translate(-24.252 79.3623) rotate(12.244)"/>
</clipPath>
<clipPath id="clip2_1168_44909">
<rect width="139.758" height="152.274" fill="white" transform="translate(-63.2539 382.854) rotate(-30)"/>
</clipPath>
<clipPath id="clip3_1168_44909">
<rect width="111" height="120.94" fill="white" transform="translate(-13.9141 550) rotate(12.244)"/>
</clipPath>
<clipPath id="clip4_1168_44909">
<rect width="130.492" height="142.178" fill="white" transform="translate(69.0918 33.3628) rotate(-45)"/>
</clipPath>
<clipPath id="clip5_1168_44909">
<rect width="134.515" height="146.561" fill="white" transform="translate(85 291.116) rotate(-45)"/>
</clipPath>
<clipPath id="clip6_1168_44909">
<rect width="140.212" height="152.768" fill="white" transform="matrix(0.635265 0.772294 0.772294 -0.635265 108.803 567.713)"/>
</clipPath>
<clipPath id="clip7_1168_44909">
<rect width="130" height="141.642" fill="white" transform="matrix(-0.965443 -0.260615 -0.260615 0.965443 406.211 138.388)"/>
</clipPath>
<clipPath id="clip8_1168_44909">
<rect width="134.918" height="147" fill="white" transform="matrix(-1 0 0 1 408.918 357)"/>
</clipPath>
<clipPath id="clip9_1168_44909">
<rect width="122.52" height="133.492" fill="white" transform="translate(469.861 -40.8208) rotate(61.0233)"/>
</clipPath>
<clipPath id="clip10_1168_44909">
<rect width="118.66" height="129.287" fill="white" transform="translate(430.539 214.35) rotate(20.0186)"/>
</clipPath>
<clipPath id="clip11_1168_44909">
<rect width="135.116" height="147.216" fill="white" transform="translate(395.074 495.872) rotate(20.0186)"/>
</clipPath>
</defs>
</svg>
